<svg id="Layer_1" data-name="Layer 1" xmlns="http://www.w3.org/2000/svg" xmlns:xlink="http://www.w3.org/1999/xlink" viewBox="0 0 1684.84 352.34"><defs><style>.cls-1,.cls-10,.cls-13,.cls-24,.cls-25,.cls-26,.cls-27,.cls-28,.cls-3,.cls-34,.cls-7,.cls-8,.cls-9{fill:none;}.cls-2{clip-path:url(#clip-path);}.cls-10,.cls-27,.cls-3{stroke:#000;}.cls-24,.cls-25,.cls-26,.cls-27,.cls-28,.cls-3,.cls-7,.cls-8,.cls-9{stroke-linejoin:round;}.cls-10,.cls-3{stroke-width:0.8px;}.cls-4{font-size:14.83px;}.cls-11,.cls-15,.cls-17,.cls-29,.cls-30,.cls-31,.cls-32,.cls-38,.cls-4,.cls-41,.cls-5{font-family:ArialMT, Arial;}.cls-5{font-size:16.07px;}.cls-6{clip-path:url(#clip-path-3);}.cls-24,.cls-26,.cls-7{stroke:#2b3a41;}.cls-10,.cls-26,.cls-28,.cls-7,.cls-8{stroke-linecap:square;}.cls-26,.cls-28,.cls-7,.cls-8{stroke-width:5px;}.cls-12,.cls-13,.cls-7,.cls-8{opacity:0.8;}.cls-25,.cls-28,.cls-8{stroke:#0e7a84;}.cls-9{stroke:gray;stroke-width:2px;stroke-dasharray:2 3.3;}.cls-10,.cls-13,.cls-34{stroke-miterlimit:10;}.cls-11{font-size:19.78px;}.cls-12,.cls-33{fill:#fff;}.cls-13,.cls-34{stroke:#ccc;}.cls-14{clip-path:url(#clip-path-6);}.cls-15,.cls-29,.cls-30{font-size:11.13px;}.cls-16{clip-path:url(#clip-path-8);}.cls-17{font-size:19.78px;}.cls-18,.cls-20{font-size:24px;font-family:MyriadPro-Regular, Myriad Pro;}.cls-19{letter-spacing:-0.01em;}.cls-20{letter-spacing:0.02em;}.cls-21{letter-spacing:0em;}.cls-22{clip-path:url(#clip-path-11);}.cls-23{clip-path:url(#clip-path-13);}.cls-27{stroke-width:3px;stroke-dasharray:3 4.95;}.cls-29,.cls-35{fill:#2b3a41;}.cls-30,.cls-36{fill:#0e7a84;}.cls-31{font-size:12.36px;}.cls-32{font-size:18.54px;}.cls-37{clip-path:url(#clip-path-19);}.cls-38{font-size:13.6px;}.cls-39{clip-path:url(#clip-path-25);}.cls-40{font-size:16px;font-family:Wingdings-Regular, Wingdings;}.cls-41{font-size:12px;}.cls-42{font-size:18px;font-family:Wingdings2, "Wingdings 2";}</style><clipPath id="clip-path" transform="translate(-53.46 -192.46)"><rect class="cls-1" x="632" y="194" width="534" height="356"/></clipPath><clipPath id="clip-path-3" transform="translate(-53.46 -192.46)"><rect class="cls-1" x="680.83" y="218.72" width="478.38" height="288.63"/></clipPath><clipPath id="clip-path-6" transform="translate(-53.46 -192.46)"><rect class="cls-1" x="1211" y="189" width="534" height="356"/></clipPath><clipPath id="clip-path-8" transform="translate(-53.46 -192.46)"><rect class="cls-1" x="1254.26" y="213.72" width="483.32" height="292.34"/></clipPath><clipPath id="clip-path-11" transform="translate(-53.46 -192.46)"><rect class="cls-1" x="72.5" y="194" width="534" height="356"/></clipPath><clipPath id="clip-path-13" transform="translate(-53.46 -192.46)"><rect class="cls-1" x="95.37" y="218.1" width="492.59" height="86.53"/></clipPath><clipPath id="clip-path-19" transform="translate(-53.46 -192.46)"><rect class="cls-1" x="95.37" y="320.7" width="492.59" height="86.53"/></clipPath><clipPath id="clip-path-25" transform="translate(-53.46 -192.46)"><rect class="cls-1" x="95.37" y="423.3" width="492.59" height="86.53"/></clipPath></defs><g class="cls-2"><g class="cls-2"><line x1="649" y1="314.89" x2="649" y2="317.36"/><line class="cls-3" x1="649.31" y1="314.89" x2="649.31" y2="317.36"/><text class="cls-4" transform="translate(645.03 329.96)">0</text><line x1="731.2" y1="314.89" x2="731.2" y2="317.36"/><line class="cls-3" x1="730.9" y1="314.89" x2="730.9" y2="317.36"/><text class="cls-4" transform="translate(726.89 329.96)">2</text><line x1="812.79" y1="314.89" x2="812.79" y2="317.36"/><line class="cls-3" x1="813.1" y1="314.89" x2="813.1" y2="317.36"/><text class="cls-4" transform="translate(808.75 329.96)">4</text><line x1="894.99" y1="314.89" x2="894.99" y2="317.36"/><line class="cls-3" x1="894.68" y1="314.89" x2="894.68" y2="317.36"/><text class="cls-4" transform="translate(890.61 329.96)">6</text><line x1="976.57" y1="314.89" x2="976.57" y2="317.36"/><line class="cls-3" x1="976.88" y1="314.89" x2="976.88" y2="317.36"/><text class="cls-4" transform="translate(972.47 329.96)">8</text><line x1="1058.16" y1="314.89" x2="1058.16" y2="317.36"/><line class="cls-3" x1="1058.46" y1="314.89" x2="1058.46" y2="317.36"/><text class="cls-4" transform="translate(1050.21 329.96)">10</text><text class="cls-5" transform="translate(790.55 347.08)">Survival Time (Years)</text><line x1="627.37" y1="301.91" x2="625.52" y2="301.91"/><line class="cls-3" x1="627.37" y1="301.6" x2="625.52" y2="301.6"/><text class="cls-4" transform="translate(602.47 307.2)">0.0</text><line x1="627.37" y1="249.38" x2="625.52" y2="249.38"/><line class="cls-3" x1="627.37" y1="249.07" x2="625.52" y2="249.07"/><text class="cls-4" transform="translate(602.47 254.67)">0.2</text><line x1="627.37" y1="196.84" x2="625.52" y2="196.84"/><line class="cls-3" x1="627.37" y1="196.53" x2="625.52" y2="196.53"/><text class="cls-4" transform="translate(602.47 202.15)">0.4</text><line x1="627.37" y1="144.31" x2="625.52" y2="144.31"/><line class="cls-3" x1="627.37" y1="144.62" x2="625.52" y2="144.62"/><text class="cls-4" transform="translate(602.47 149.62)">0.6</text><line x1="627.37" y1="91.77" x2="625.52" y2="91.77"/><line class="cls-3" x1="627.37" y1="92.08" x2="625.52" y2="92.08"/><text class="cls-4" transform="translate(602.47 97.1)">0.8</text><line x1="627.37" y1="39.24" x2="625.52" y2="39.24"/><line class="cls-3" x1="627.37" y1="39.55" x2="625.52" y2="39.55"/><text class="cls-4" transform="translate(602.47 44.58)">1.0</text><text class="cls-5" transform="translate(596.62 234.9) rotate(-90)">Fraction Surviving</text><g class="cls-6"><polyline class="cls-7" points="649.31 39.55 649.31 39.55 649.31 41.4 650.55 41.4 650.55 43.87 651.17 43.87 651.17 45.73 652.4 45.73 652.4 47.58 653.02 47.58 653.02 50.05 653.02 50.05 653.02 51.91 653.64 51.91 653.64 53.76 654.26 53.76 654.26 56.23 654.87 56.23 654.87 58.71 656.11 58.71 656.11 60.56 659.82 60.56 659.82 62.42 660.44 62.42 660.44 66.74 660.44 66.74 660.44 68.6 661.05 68.6 661.05 71.07 661.67 71.07 661.67 73.54 662.29 73.54 662.29 75.39 662.91 75.39 662.91 77.25 663.53 77.25 663.53 79.1 664.76 79.1 664.76 81.58 667.85 81.58 667.85 84.05 668.47 84.05 668.47 85.9 669.09 85.9 669.09 87.76 669.71 87.76 669.71 90.23 671.56 90.23 671.56 92.08 672.18 92.08 672.18 93.94 672.8 93.94 672.8 96.41 675.27 96.41 675.27 98.88 675.27 98.88 675.27 101.35 677.74 101.35 677.74 107.53 678.98 107.53 678.98 110.01 679.6 110.01 679.6 112.48 680.22 112.48 680.22 114.33 681.45 114.33 681.45 116.8 681.45 116.8 681.45 119.28 682.69 119.28 682.69 121.13 683.92 121.13 683.92 123.6 683.92 123.6 683.92 126.08 684.54 126.08 684.54 127.93 685.16 127.93 685.16 130.4 685.16 130.4 685.16 132.87 685.78 132.87 685.78 134.73 688.87 134.73 688.87 137.2 688.87 137.2 688.87 139.67 689.49 139.67 689.49 141.53 690.72 141.53 690.72 144 690.72 144 690.72 148.32 691.34 148.32 691.34 150.8 691.96 150.8 691.96 153.27 692.58 153.27 692.58 155.74 693.19 155.74 693.19 157.6 696.9 157.6 696.9 160.07 697.52 160.07 697.52 162.54 698.14 162.54 698.14 164.4 699.37 164.4 699.37 166.87 699.99 166.87 699.99 171.19 701.23 171.19 701.23 174.28 702.47 174.28 702.47 178.61 703.7 178.61 703.7 181.08 706.79 181.08 706.79 182.94 706.79 182.94 706.79 185.41 709.26 185.41 709.26 187.88 709.88 187.88 709.88 189.74 710.5 189.74 710.5 192.21 711.12 192.21 711.12 194.68 711.74 194.68 711.74 196.53 712.35 196.53 712.35 199.01 714.83 199.01 714.83 201.48 715.44 201.48 715.44 203.33 716.06 203.33 716.06 205.8 716.68 205.8 716.68 208.28 717.3 208.28 717.3 210.75 719.15 210.75 719.15 213.22 719.77 213.22 719.77 215.69 720.39 215.69 720.39 217.55 724.1 217.55 724.1 220.02 725.33 220.02 725.33 222.49 725.95 222.49 725.95 224.96 726.57 224.96 726.57 227.44 727.8 227.44 727.8 229.29 729.66 229.29 729.66 231.76 730.89 231.76 730.89 234.24 731.51 234.24 731.51 236.71 732.75 236.71 732.75 238.56 733.37 238.56 733.37 241.03 736.46 241.03 736.46 243.51 736.46 243.51 736.46 245.98 737.69 245.98 737.69 248.45 739.55 248.45 739.55 250.92 740.17 250.92 740.17 253.4 740.78 253.4 740.78 255.87 741.4 255.87 741.4 258.34 742.02 258.34 742.02 260.81 743.87 260.81 743.87 262.67 745.73 262.67 745.73 265.14 755 265.14 755 267.61 777.25 267.61 777.25 270.08 779.1 270.08 779.1 272.55 794.55 272.55 794.55 275.03 798.88 275.03 798.88 277.5 816.19 277.5 816.19 279.97 824.22 279.97 824.22 282.44 830.4 282.44 830.4 284.92 852.65 284.92 852.65 287.39 913.84 287.39 913.84 289.86 945.98 289.86 945.98 292.33 971.94 292.33 971.94 297.28 1083.81 297.28 1083.81 301.6"/></g><g class="cls-6"><polyline class="cls-8" points="649.31 39.55 662.09 39.55 669.71 39.55 669.71 72.3 689.49 72.3 689.49 105.06 719.77 105.06 719.77 137.82 747.02 137.82 748.82 137.82 748.82 178.61 796.41 178.61 796.41 219.4 870.58 219.4 870.58 260.81 871.81 260.81 871.81 301.6"/></g><g class="cls-6"><line class="cls-9" x1="780.03" y1="269.16" x2="780.03" y2="179.54"/></g><line class="cls-10" x1="627.68" y1="315.2" x2="627.68" y2="25.95"/><line class="cls-10" x1="1106.05" y1="315.2" x2="1106.05" y2="25.95"/><line class="cls-10" x1="627.68" y1="315.2" x2="1106.05" y2="315.2"/><line class="cls-10" x1="627.68" y1="25.95" x2="1106.05" y2="25.95"/><text class="cls-4" transform="translate(788.32 251.99)">p=0.073</text><text class="cls-11" transform="translate(693.1 21.97)">TCGA Validation (High Confidence, G4)</text><rect class="cls-12" x="820.82" y="33.68" width="277.51" height="46.97" rx="2.97"/><rect class="cls-13" x="821.13" y="33.37" width="277.51" height="46.97" rx="2.97"/><line class="cls-7" x1="826.69" y1="45.11" x2="856.36" y2="45.11"/><text class="cls-4" transform="translate(868.23 50.28)">Correct IDH-Wildtype (1.2 years)</text><line class="cls-8" x1="826.69" y1="66.12" x2="856.36" y2="66.12"/><text class="cls-4" transform="translate(868.23 71.61)">Incorrect IDH-Wildtype (2.4 years)</text></g></g><g class="cls-14"><g class="cls-14"><line x1="1200.81" y1="313.6" x2="1200.81" y2="316.07"/><line class="cls-3" x1="1200.5" y1="313.6" x2="1200.5" y2="316.07"/><text class="cls-15" transform="translate(1192.95 326.02)">0.0</text><line x1="1264.47" y1="313.6" x2="1264.47" y2="316.07"/><line class="cls-3" x1="1264.16" y1="313.6" x2="1264.16" y2="316.07"/><text class="cls-15" transform="translate(1256.56 326.02)">2.5</text><line x1="1328.13" y1="313.6" x2="1328.13" y2="316.07"/><line class="cls-3" x1="1327.82" y1="313.6" x2="1327.82" y2="316.07"/><text class="cls-15" transform="translate(1320.18 326.02)">5.0</text><line x1="1391.79" y1="313.6" x2="1391.79" y2="316.07"/><line class="cls-3" x1="1391.48" y1="313.6" x2="1391.48" y2="316.07"/><text class="cls-15" transform="translate(1383.8 326.02)">7.5</text><line x1="1455.45" y1="313.6" x2="1455.45" y2="316.07"/><line class="cls-3" x1="1455.14" y1="313.6" x2="1455.14" y2="316.07"/><text class="cls-15" transform="translate(1444.32 326.02)">10.0</text><line x1="1518.49" y1="313.6" x2="1518.49" y2="316.07"/><line class="cls-3" x1="1518.8" y1="313.6" x2="1518.8" y2="316.07"/><text class="cls-15" transform="translate(1507.93 326.02)">12.5</text><line x1="1582.15" y1="313.6" x2="1582.15" y2="316.07"/><line class="cls-3" x1="1582.46" y1="313.6" x2="1582.46" y2="316.07"/><text class="cls-15" transform="translate(1571.55 326.02)">15.0</text><line x1="1645.81" y1="313.6" x2="1645.81" y2="316.07"/><line class="cls-3" x1="1646.12" y1="313.6" x2="1646.12" y2="316.07"/><text class="cls-15" transform="translate(1635.17 326.02)">17.5</text><text class="cls-4" transform="translate(1372.2 341.5)">Survival Time (Years)</text><line x1="1200.81" y1="300.62" x2="1198.34" y2="300.62"/><line class="cls-3" x1="1200.81" y1="300.31" x2="1198.34" y2="300.31"/><text class="cls-15" transform="translate(1180.89 304.41)">0.0</text><line x1="1200.81" y1="247.47" x2="1198.34" y2="247.47"/><line class="cls-3" x1="1200.81" y1="247.16" x2="1198.34" y2="247.16"/><text class="cls-15" transform="translate(1180.89 251.21)">0.2</text><line x1="1200.81" y1="194.31" x2="1198.34" y2="194.31"/><line class="cls-3" x1="1200.81" y1="194.01" x2="1198.34" y2="194.01"/><text class="cls-15" transform="translate(1180.89 198.01)">0.4</text><line x1="1200.81" y1="140.54" x2="1198.34" y2="140.54"/><line class="cls-3" x1="1200.81" y1="140.85" x2="1198.34" y2="140.85"/><text class="cls-15" transform="translate(1180.89 144.81)">0.6</text><line x1="1200.81" y1="87.39" x2="1198.34" y2="87.39"/><line class="cls-3" x1="1200.81" y1="87.7" x2="1198.34" y2="87.7"/><text class="cls-15" transform="translate(1180.89 91.62)">0.8</text><line x1="1200.81" y1="34.24" x2="1198.34" y2="34.24"/><line class="cls-3" x1="1200.81" y1="34.55" x2="1198.34" y2="34.55"/><text class="cls-15" transform="translate(1180.89 38.42)">1.0</text><text class="cls-4" transform="translate(1175.3 226.78) rotate(-90)">Fraction Surviving</text><g class="cls-16"><polyline class="cls-7" points="1200.5 34.55 1202.97 34.55 1202.97 35.78 1204.83 35.78 1204.83 37.02 1206.68 37.02 1206.68 38.26 1207.3 38.26 1207.3 39.49 1209.15 39.49 1209.15 40.73 1209.77 40.73 1209.77 43.82 1210.39 43.82 1210.39 45.05 1211.62 45.05 1211.62 46.29 1212.05 46.29 1212.24 46.29 1212.24 48.15 1212.18 48.15 1212.24 48.15 1212.24 49.38 1214.71 49.38 1214.71 50.62 1215.33 50.62 1215.39 55.56 1216.43 55.56 1216.49 58.65 1217.81 58.65 1217.81 60.51 1217.81 60.51 1217.81 61.74 1219.04 61.74 1219.04 63.6 1220.89 63.6 1220.89 65.45 1221.51 65.45 1221.51 67.3 1222.75 67.3 1222.75 71.01 1223.37 71.01 1223.37 72.87 1223.98 72.87 1223.98 77.19 1224.6 77.19 1224.6 79.05 1224.6 79.05 1224.6 80.9 1225.22 80.9 1225.22 82.76 1225.84 82.76 1225.84 87.08 1226.46 87.08 1226.46 88.94 1226.46 88.94 1226.46 93.26 1227.08 93.26 1227.08 95.12 1228.31 95.12 1228.31 97.59 1228.93 97.59 1228.93 100.06 1229.55 100.06 1229.55 106.86 1229.55 106.86 1229.55 108.71 1230.17 108.71 1230.17 111.19 1231.4 111.19 1231.4 113.66 1231.4 113.66 1231.4 116.13 1232.02 116.13 1232.02 118.6 1233.26 118.6 1233.26 121.08 1233.26 121.08 1233.26 123.55 1233.87 123.55 1233.87 129.11 1234.49 129.11 1234.49 131.58 1235.11 131.58 1235.11 134.05 1235.73 134.05 1235.73 137.15 1235.73 137.15 1235.73 139.62 1236.96 139.62 1236.96 142.71 1238.2 142.71 1238.2 145.8 1240.67 145.8 1240.67 148.89 1240.67 148.89 1240.67 152.6 1241.29 152.6 1241.29 156.3 1241.29 156.3 1241.29 159.4 1242.53 159.4 1242.53 162.49 1243.14 162.49 1243.14 166.19 1243.76 166.19 1243.76 169.28 1244.38 169.28 1244.38 172.37 1244.38 172.37 1244.38 179.79 1245 179.79 1245 183.5 1245 183.5 1245 186.59 1245.62 186.59 1245.62 189.68 1246.23 189.68 1246.23 193.39 1246.85 193.39 1246.85 197.1 1247.47 197.1 1247.47 200.8 1248.71 200.8 1248.71 204.51 1248.71 204.51 1248.71 208.22 1253.03 208.22 1253.03 212.55 1254.89 212.55 1254.89 217.49 1256.12 217.49 1256.12 223.05 1260.45 223.05 1260.45 228.62 1268.48 228.62 1268.48 234.8 1287.03 234.8 1287.03 244.07 1396.42 244.07 1396.42 300.31"/></g><g class="cls-16"><polyline class="cls-8" points="1201.12 34.55 1202.67 34.55 1205.66 34.55 1206.64 34.55 1212.36 34.55 1234.9 34.55 1240.2 34.55 1242.53 34.55 1242.53 87.7 1249.31 87.7 1255.24 87.7 1257.36 87.7 1448.96 87.7"/></g><g class="cls-16"><line class="cls-9" x1="1282.39" y1="233.87" x2="1282.39" y2="87.39"/></g><line class="cls-10" x1="1200.5" y1="313.91" x2="1200.5" y2="20.95"/><line class="cls-10" x1="1684.44" y1="313.91" x2="1684.44" y2="20.95"/><line class="cls-10" x1="1200.5" y1="313.91" x2="1684.44" y2="313.91"/><line class="cls-10" x1="1200.5" y1="20.95" x2="1684.44" y2="20.95"/><text class="cls-4" transform="translate(1287.2 167.43)">p&lt;0.02</text><text class="cls-17" transform="translate(1234.83 16.97)">Jonsson et al. Validation (High Confidence, G4)</text><rect class="cls-12" x="1404.15" y="28.68" width="272.56" height="46.97" rx="2.97"/><rect class="cls-13" x="1403.84" y="28.37" width="272.56" height="46.97" rx="2.97"/><line class="cls-7" x1="1410.02" y1="40.11" x2="1439.69" y2="40.11"/><text class="cls-4" transform="translate(1451.55 45.28)">Correct IDH-Wildtype (1.7 years)</text><line class="cls-8" x1="1410.02" y1="61.12" x2="1439.69" y2="61.12"/><text class="cls-4" transform="translate(1451.55 66.61)">Incorrect IDH-Wildtype (inf years)</text></g></g><text class="cls-18" transform="translate(0 22.97)"><tspan class="cls-19">A</tspan><tspan x="14.47" y="0">)</tspan></text><text class="cls-18" transform="translate(582 22.97)">B)</text><text class="cls-20" transform="translate(1157.5 22.97)">C<tspan class="cls-21" x="14.33" y="0">)</tspan></text><g class="cls-22"><g class="cls-22"><line x1="65.4" y1="112.17" x2="65.4" y2="114.64"/><line class="cls-3" x1="65.71" y1="112.17" x2="65.71" y2="114.64"/><line x1="159.34" y1="112.17" x2="159.34" y2="114.64"/><line class="cls-3" x1="159.65" y1="112.17" x2="159.65" y2="114.64"/><line x1="253.29" y1="112.17" x2="253.29" y2="114.64"/><line class="cls-3" x1="252.98" y1="112.17" x2="252.98" y2="114.64"/><line x1="347.23" y1="112.17" x2="347.23" y2="114.64"/><line class="cls-3" x1="346.92" y1="112.17" x2="346.92" y2="114.64"/><line x1="441.18" y1="112.17" x2="441.18" y2="114.64"/><line class="cls-3" x1="440.87" y1="112.17" x2="440.87" y2="114.64"/><line x1="534.5" y1="112.17" x2="534.5" y2="114.64"/><line class="cls-3" x1="534.81" y1="112.17" x2="534.81" y2="114.64"/><text class="cls-4" transform="translate(36.73 99.51) rotate(-90)">TCGA Val</text><g class="cls-23"><line class="cls-24" x1="272.14" y1="112.17" x2="272.14" y2="107.84"/><line class="cls-24" x1="328.38" y1="112.17" x2="328.38" y2="107.84"/><line class="cls-24" x1="351.87" y1="112.17" x2="351.87" y2="107.84"/><line class="cls-24" x1="299.95" y1="112.17" x2="299.95" y2="107.84"/><line class="cls-24" x1="299.95" y1="112.17" x2="299.95" y2="107.84"/><line class="cls-24" x1="267.19" y1="112.17" x2="267.19" y2="107.84"/><line class="cls-24" x1="243.71" y1="112.17" x2="243.71" y2="107.84"/><line class="cls-24" x1="230.11" y1="112.17" x2="230.11" y2="107.84"/><line class="cls-24" x1="286.35" y1="112.17" x2="286.35" y2="107.84"/><line class="cls-24" x1="220.22" y1="112.17" x2="220.22" y2="107.84"/><line class="cls-24" x1="346.92" y1="112.17" x2="346.92" y2="107.84"/><line class="cls-24" x1="413.05" y1="112.17" x2="413.05" y2="107.84"/><line class="cls-24" x1="290.68" y1="112.17" x2="290.68" y2="107.84"/><line class="cls-24" x1="319.11" y1="112.17" x2="319.11" y2="107.84"/><line class="cls-24" x1="351.87" y1="112.17" x2="351.87" y2="107.84"/><line class="cls-24" x1="440.87" y1="112.17" x2="440.87" y2="107.84"/><line class="cls-24" x1="295.62" y1="112.17" x2="295.62" y2="107.84"/><line class="cls-24" x1="272.14" y1="112.17" x2="272.14" y2="107.84"/><line class="cls-24" x1="375.35" y1="112.17" x2="375.35" y2="107.84"/><line class="cls-24" x1="299.95" y1="112.17" x2="299.95" y2="107.84"/><line class="cls-24" x1="333.33" y1="112.17" x2="333.33" y2="107.84"/><line class="cls-24" x1="393.9" y1="112.17" x2="393.9" y2="107.84"/><line class="cls-24" x1="314.17" y1="112.17" x2="314.17" y2="107.84"/><line class="cls-24" x1="384.62" y1="112.17" x2="384.62" y2="107.84"/><line class="cls-24" x1="361.14" y1="112.17" x2="361.14" y2="107.84"/><line class="cls-24" x1="333.33" y1="112.17" x2="333.33" y2="107.84"/><line class="cls-24" x1="342.6" y1="112.17" x2="342.6" y2="107.84"/><line class="cls-24" x1="361.14" y1="112.17" x2="361.14" y2="107.84"/><line class="cls-24" x1="276.46" y1="112.17" x2="276.46" y2="107.84"/><line class="cls-24" x1="309.84" y1="112.17" x2="309.84" y2="107.84"/><line class="cls-24" x1="281.41" y1="112.17" x2="281.41" y2="107.84"/><line class="cls-24" x1="262.87" y1="112.17" x2="262.87" y2="107.84"/><line class="cls-24" x1="328.38" y1="112.17" x2="328.38" y2="107.84"/><line class="cls-24" x1="267.19" y1="112.17" x2="267.19" y2="107.84"/><line class="cls-24" x1="309.84" y1="112.17" x2="309.84" y2="107.84"/><line class="cls-24" x1="304.9" y1="112.17" x2="304.9" y2="107.84"/><line class="cls-24" x1="351.87" y1="112.17" x2="351.87" y2="107.84"/><line class="cls-24" x1="379.68" y1="112.17" x2="379.68" y2="107.84"/><line class="cls-24" x1="366.08" y1="112.17" x2="366.08" y2="107.84"/><line class="cls-24" x1="267.19" y1="112.17" x2="267.19" y2="107.84"/><line class="cls-24" x1="337.65" y1="112.17" x2="337.65" y2="107.84"/><line class="cls-24" x1="304.9" y1="112.17" x2="304.9" y2="107.84"/><line class="cls-24" x1="422.33" y1="112.17" x2="422.33" y2="107.84"/><line class="cls-24" x1="276.46" y1="112.17" x2="276.46" y2="107.84"/><line class="cls-24" x1="413.05" y1="112.17" x2="413.05" y2="107.84"/><line class="cls-24" x1="225.17" y1="112.17" x2="225.17" y2="107.84"/><line class="cls-24" x1="370.41" y1="112.17" x2="370.41" y2="107.84"/><line class="cls-24" x1="304.9" y1="112.17" x2="304.9" y2="107.84"/><line class="cls-24" x1="252.98" y1="112.17" x2="252.98" y2="107.84"/><line class="cls-24" x1="309.84" y1="112.17" x2="309.84" y2="107.84"/><line class="cls-24" x1="319.11" y1="112.17" x2="319.11" y2="107.84"/><line class="cls-24" x1="417.38" y1="112.17" x2="417.38" y2="107.84"/><line class="cls-24" x1="351.87" y1="112.17" x2="351.87" y2="107.84"/><line class="cls-24" x1="328.38" y1="112.17" x2="328.38" y2="107.84"/><line class="cls-24" x1="173.25" y1="112.17" x2="173.25" y2="107.84"/><line class="cls-24" x1="356.19" y1="112.17" x2="356.19" y2="107.84"/><line class="cls-24" x1="333.33" y1="112.17" x2="333.33" y2="107.84"/><line class="cls-24" x1="398.84" y1="112.17" x2="398.84" y2="107.84"/><line class="cls-24" x1="389.57" y1="112.17" x2="389.57" y2="107.84"/><line class="cls-24" x1="299.95" y1="112.17" x2="299.95" y2="107.84"/><line class="cls-24" x1="361.14" y1="112.17" x2="361.14" y2="107.84"/><line class="cls-24" x1="281.41" y1="112.17" x2="281.41" y2="107.84"/><line class="cls-24" x1="436.54" y1="112.17" x2="436.54" y2="107.84"/><line class="cls-24" x1="337.65" y1="112.17" x2="337.65" y2="107.84"/><line class="cls-24" x1="309.84" y1="112.17" x2="309.84" y2="107.84"/><line class="cls-24" x1="206.62" y1="112.17" x2="206.62" y2="107.84"/><line class="cls-24" x1="342.6" y1="112.17" x2="342.6" y2="107.84"/><line class="cls-24" x1="295.62" y1="112.17" x2="295.62" y2="107.84"/><line class="cls-24" x1="299.95" y1="112.17" x2="299.95" y2="107.84"/><line class="cls-24" x1="342.6" y1="112.17" x2="342.6" y2="107.84"/><line class="cls-24" x1="304.9" y1="112.17" x2="304.9" y2="107.84"/><line class="cls-24" x1="413.05" y1="112.17" x2="413.05" y2="107.84"/><line class="cls-24" x1="342.6" y1="112.17" x2="342.6" y2="107.84"/><line class="cls-24" x1="389.57" y1="112.17" x2="389.57" y2="107.84"/><line class="cls-24" x1="333.33" y1="112.17" x2="333.33" y2="107.84"/><line class="cls-24" x1="290.68" y1="112.17" x2="290.68" y2="107.84"/><line class="cls-24" x1="389.57" y1="112.17" x2="389.57" y2="107.84"/><line class="cls-24" x1="304.9" y1="112.17" x2="304.9" y2="107.84"/><line class="cls-24" x1="346.92" y1="112.17" x2="346.92" y2="107.84"/><line class="cls-24" x1="361.14" y1="112.17" x2="361.14" y2="107.84"/><line class="cls-24" x1="323.44" y1="112.17" x2="323.44" y2="107.84"/><line class="cls-24" x1="417.38" y1="112.17" x2="417.38" y2="107.84"/><line class="cls-24" x1="314.17" y1="112.17" x2="314.17" y2="107.84"/><line class="cls-24" x1="295.62" y1="112.17" x2="295.62" y2="107.84"/><line class="cls-24" x1="252.98" y1="112.17" x2="252.98" y2="107.84"/><line class="cls-24" x1="281.41" y1="112.17" x2="281.41" y2="107.84"/><line class="cls-24" x1="243.71" y1="112.17" x2="243.71" y2="107.84"/><line class="cls-24" x1="333.33" y1="112.17" x2="333.33" y2="107.84"/><line class="cls-24" x1="417.38" y1="112.17" x2="417.38" y2="107.84"/><line class="cls-24" x1="314.17" y1="112.17" x2="314.17" y2="107.84"/><line class="cls-24" x1="375.35" y1="112.17" x2="375.35" y2="107.84"/><line class="cls-24" x1="417.38" y1="112.17" x2="417.38" y2="107.84"/><line class="cls-24" x1="286.35" y1="112.17" x2="286.35" y2="107.84"/><line class="cls-24" x1="469.3" y1="112.17" x2="469.3" y2="107.84"/><line class="cls-24" x1="337.65" y1="112.17" x2="337.65" y2="107.84"/><line class="cls-24" x1="286.35" y1="112.17" x2="286.35" y2="107.84"/><line class="cls-24" x1="342.6" y1="112.17" x2="342.6" y2="107.84"/><line class="cls-24" x1="351.87" y1="112.17" x2="351.87" y2="107.84"/><line class="cls-24" x1="426.65" y1="112.17" x2="426.65" y2="107.84"/><line class="cls-24" x1="370.41" y1="112.17" x2="370.41" y2="107.84"/><line class="cls-24" x1="375.35" y1="112.17" x2="375.35" y2="107.84"/><line class="cls-24" x1="248.65" y1="112.17" x2="248.65" y2="107.84"/><line class="cls-24" x1="351.87" y1="112.17" x2="351.87" y2="107.84"/><line class="cls-24" x1="342.6" y1="112.17" x2="342.6" y2="107.84"/><line class="cls-24" x1="375.35" y1="112.17" x2="375.35" y2="107.84"/><line class="cls-24" x1="304.9" y1="112.17" x2="304.9" y2="107.84"/><line class="cls-24" x1="323.44" y1="112.17" x2="323.44" y2="107.84"/><line class="cls-24" x1="290.68" y1="112.17" x2="290.68" y2="107.84"/><line class="cls-24" x1="389.57" y1="112.17" x2="389.57" y2="107.84"/><line class="cls-24" x1="304.9" y1="112.17" x2="304.9" y2="107.84"/><line class="cls-24" x1="445.81" y1="112.17" x2="445.81" y2="107.84"/><line class="cls-24" x1="337.65" y1="112.17" x2="337.65" y2="107.84"/><line class="cls-24" x1="304.9" y1="112.17" x2="304.9" y2="107.84"/><line class="cls-24" x1="366.08" y1="112.17" x2="366.08" y2="107.84"/><line class="cls-24" x1="389.57" y1="112.17" x2="389.57" y2="107.84"/><line class="cls-24" x1="455.08" y1="112.17" x2="455.08" y2="107.84"/><line class="cls-24" x1="384.62" y1="112.17" x2="384.62" y2="107.84"/><line class="cls-24" x1="426.65" y1="112.17" x2="426.65" y2="107.84"/><line class="cls-24" x1="408.11" y1="112.17" x2="408.11" y2="107.84"/><line class="cls-24" x1="252.98" y1="112.17" x2="252.98" y2="107.84"/><line class="cls-24" x1="351.87" y1="112.17" x2="351.87" y2="107.84"/><line class="cls-24" x1="262.87" y1="112.17" x2="262.87" y2="107.84"/><line class="cls-24" x1="309.84" y1="112.17" x2="309.84" y2="107.84"/><line class="cls-24" x1="398.84" y1="112.17" x2="398.84" y2="107.84"/><line class="cls-24" x1="361.14" y1="112.17" x2="361.14" y2="107.84"/><line class="cls-24" x1="370.41" y1="112.17" x2="370.41" y2="107.84"/></g><g class="cls-23"><line class="cls-25" x1="149.76" y1="112.17" x2="149.76" y2="107.84"/><line class="cls-25" x1="375.35" y1="112.17" x2="375.35" y2="107.84"/><line class="cls-25" x1="210.95" y1="112.17" x2="210.95" y2="107.84"/><line class="cls-25" x1="201.68" y1="112.17" x2="201.68" y2="107.84"/><line class="cls-25" x1="328.38" y1="112.17" x2="328.38" y2="107.84"/><line class="cls-25" x1="215.9" y1="112.17" x2="215.9" y2="107.84"/><line class="cls-25" x1="252.98" y1="112.17" x2="252.98" y2="107.84"/><line class="cls-25" x1="178.19" y1="112.17" x2="178.19" y2="107.84"/><line class="cls-25" x1="243.71" y1="112.17" x2="243.71" y2="107.84"/></g><g class="cls-23"><polyline class="cls-26" points="107.36 111.86 124.21 112.48 137.69 112.26 147.79 111.96 161.27 111.42 174.74 110.77 181.48 110.36 188.22 109.84 194.96 109.16 201.7 108.25 208.43 107.08 215.17 105.65 218.54 104.82 221.91 103.92 225.28 102.94 228.65 101.88 232.02 100.73 235.39 99.5 238.75 98.17 242.12 96.76 245.49 95.25 248.86 93.65 252.23 91.96 255.6 90.19 262.34 86.38 269.08 82.3 282.55 73.92 285.92 71.96 289.29 70.12 292.66 68.45 296.03 66.97 299.4 65.7 302.77 64.66 306.13 63.84 309.5 63.23 312.87 62.81 316.24 62.55 319.61 62.42 322.67 62.4 326.05 62.47 329.43 62.62 332.81 62.85 336.19 63.16 339.57 63.58 342.95 64.1 346.33 64.75 349.71 65.54 353.09 66.46 356.47 67.52 359.85 68.71 363.23 70 369.99 72.81 383.51 78.69 390.27 81.45 397.03 83.99 403.79 86.34 420.69 92.04 427.45 94.46 444.35 100.67 451.11 102.93 457.87 104.94 461.25 105.83 464.63 106.65 471.39 108.08 478.15 109.23 484.91 110.14 491.67 110.83 498.43 111.32 505.19 111.65 511.95 111.86 521.75 111.86 535.43 111.92"/></g><g class="cls-23"><line class="cls-27" x1="333.33" y1="112.17" x2="333.33" y2="63.34"/></g><g class="cls-23"><polyline class="cls-28" points="71.89 111.86 77.75 111.77 83.76 111.55 89.78 111.15 92.78 110.86 95.79 110.51 98.8 110.08 101.8 109.57 104.81 108.96 107.82 108.25 110.82 107.44 113.83 106.52 116.84 105.48 119.84 104.35 122.85 103.11 125.86 101.78 131.87 98.88 137.88 95.73 146.9 90.78 158.93 84.01 167.95 78.79 185.99 68.13 188.99 66.47 192 64.92 195 63.49 198.01 62.23 201.02 61.15 204.03 60.28 207.03 59.65 210.04 59.26 213.04 59.11 216.05 59.23 219.06 59.58 222.06 60.18 225.07 61.01 228.08 62.06 231.08 63.3 234.09 64.73 237.1 66.34 240.1 68.1 243.11 70 246.12 72.03 249.12 74.17 255.13 78.68 267.16 87.93 270.17 90.09 273.17 92.12 276.18 93.98 279.19 95.65 282.19 97.11 285.2 98.32 288.21 99.29 291.21 100.01 294.22 100.49 297.23 100.73 300.23 100.78 303.24 100.62 306.25 100.29 309.25 99.84 315.26 98.69 324.29 96.88 330.3 95.89 336.31 95.19 342.32 94.75 348.34 94.55 353.76 94.55 359.84 94.73 365.93 95.16 368.97 95.48 372.02 95.89 375.06 96.39 378.11 96.99 381.15 97.68 384.19 98.46 390.28 100.25 399.41 103.23 405.5 105.2 411.58 106.99 414.63 107.79 417.67 108.5 420.72 109.14 423.76 109.7 426.8 110.18 432.89 110.92 438.98 111.41 445.06 111.71 451.15 111.86 453.85 111.89"/></g><g class="cls-23"><line class="cls-27" x1="215.9" y1="112.17" x2="215.9" y2="58.4"/></g><line class="cls-10" x1="42.22" y1="112.48" x2="42.22" y2="25.33"/><line class="cls-10" x1="534.81" y1="112.48" x2="534.81" y2="25.33"/><line class="cls-10" x1="42.22" y1="112.48" x2="534.81" y2="112.48"/><line class="cls-10" x1="42.22" y1="25.33" x2="534.81" y2="25.33"/><text class="cls-29" transform="translate(316.6 79.55)">57</text><text class="cls-30" transform="translate(206.35 53.35)">32</text><text class="cls-31" transform="translate(56.23 38.62)">p &lt; 0.0005</text><text class="cls-32" transform="translate(128.15 21.81)">Age Distribution (High Confidence, G4)</text><rect class="cls-33" x="286.04" y="28.73" width="236.1" height="21.63" rx="2.47"/><rect class="cls-34" x="285.74" y="28.42" width="236.1" height="21.63" rx="2.47"/><rect class="cls-35" x="290.99" y="33.68" width="24.72" height="8.65"/><rect class="cls-36" x="416.45" y="33.68" width="24.72" height="8.65"/><line x1="65.4" y1="214.77" x2="65.4" y2="217.24"/><line class="cls-3" x1="65.71" y1="214.77" x2="65.71" y2="217.24"/><line x1="159.34" y1="214.77" x2="159.34" y2="217.24"/><line class="cls-3" x1="159.65" y1="214.77" x2="159.65" y2="217.24"/><line x1="253.29" y1="214.77" x2="253.29" y2="217.24"/><line class="cls-3" x1="252.98" y1="214.77" x2="252.98" y2="217.24"/><line x1="347.23" y1="214.77" x2="347.23" y2="217.24"/><line class="cls-3" x1="346.92" y1="214.77" x2="346.92" y2="217.24"/><line x1="441.18" y1="214.77" x2="441.18" y2="217.24"/><line class="cls-3" x1="440.87" y1="214.77" x2="440.87" y2="217.24"/><line x1="534.5" y1="214.77" x2="534.5" y2="217.24"/><line class="cls-3" x1="534.81" y1="214.77" x2="534.81" y2="217.24"/><text class="cls-4" transform="translate(36.73 217.26) rotate(-90)">Jonsson et al.</text><g class="cls-37"><line class="cls-24" x1="323.44" y1="214.77" x2="323.44" y2="210.44"/><line class="cls-24" x1="328.38" y1="214.77" x2="328.38" y2="210.44"/><line class="cls-24" x1="262.87" y1="214.77" x2="262.87" y2="210.44"/><line class="cls-24" x1="272.14" y1="214.77" x2="272.14" y2="210.44"/><line class="cls-24" x1="389.57" y1="214.77" x2="389.57" y2="210.44"/><line class="cls-24" x1="314.17" y1="214.77" x2="314.17" y2="210.44"/><line class="cls-24" x1="356.19" y1="214.77" x2="356.19" y2="210.44"/><line class="cls-24" x1="346.92" y1="214.77" x2="346.92" y2="210.44"/><line class="cls-24" x1="333.33" y1="214.77" x2="333.33" y2="210.44"/><line class="cls-24" x1="309.84" y1="214.77" x2="309.84" y2="210.44"/><line class="cls-24" x1="366.08" y1="214.77" x2="366.08" y2="210.44"/><line class="cls-24" x1="413.05" y1="214.77" x2="413.05" y2="210.44"/><line class="cls-24" x1="366.08" y1="214.77" x2="366.08" y2="210.44"/><line class="cls-24" x1="319.11" y1="214.77" x2="319.11" y2="210.44"/><line class="cls-24" x1="299.95" y1="214.77" x2="299.95" y2="210.44"/><line class="cls-24" x1="276.46" y1="214.77" x2="276.46" y2="210.44"/><line class="cls-24" x1="346.92" y1="214.77" x2="346.92" y2="210.44"/><line class="cls-24" x1="319.11" y1="214.77" x2="319.11" y2="210.44"/><line class="cls-24" x1="389.57" y1="214.77" x2="389.57" y2="210.44"/><line class="cls-24" x1="295.62" y1="214.77" x2="295.62" y2="210.44"/><line class="cls-24" x1="272.14" y1="214.77" x2="272.14" y2="210.44"/><line class="cls-24" x1="328.38" y1="214.77" x2="328.38" y2="210.44"/><line class="cls-24" x1="351.87" y1="214.77" x2="351.87" y2="210.44"/><line class="cls-24" x1="257.92" y1="214.77" x2="257.92" y2="210.44"/><line class="cls-24" x1="304.9" y1="214.77" x2="304.9" y2="210.44"/><line class="cls-24" x1="346.92" y1="214.77" x2="346.92" y2="210.44"/><line class="cls-24" x1="366.08" y1="214.77" x2="366.08" y2="210.44"/><line class="cls-24" x1="351.87" y1="214.77" x2="351.87" y2="210.44"/><line class="cls-24" x1="304.9" y1="214.77" x2="304.9" y2="210.44"/><line class="cls-24" x1="276.46" y1="214.77" x2="276.46" y2="210.44"/><line class="cls-24" x1="319.11" y1="214.77" x2="319.11" y2="210.44"/><line class="cls-24" x1="384.62" y1="214.77" x2="384.62" y2="210.44"/><line class="cls-24" x1="272.14" y1="214.77" x2="272.14" y2="210.44"/><line class="cls-24" x1="328.38" y1="214.77" x2="328.38" y2="210.44"/><line class="cls-24" x1="356.19" y1="214.77" x2="356.19" y2="210.44"/><line class="cls-24" x1="426.65" y1="214.77" x2="426.65" y2="210.44"/><line class="cls-24" x1="351.87" y1="214.77" x2="351.87" y2="210.44"/><line class="cls-24" x1="361.14" y1="214.77" x2="361.14" y2="210.44"/><line class="cls-24" x1="370.41" y1="214.77" x2="370.41" y2="210.44"/><line class="cls-24" x1="389.57" y1="214.77" x2="389.57" y2="210.44"/><line class="cls-24" x1="403.17" y1="214.77" x2="403.17" y2="210.44"/><line class="cls-24" x1="281.41" y1="214.77" x2="281.41" y2="210.44"/><line class="cls-24" x1="319.11" y1="214.77" x2="319.11" y2="210.44"/><line class="cls-24" x1="281.41" y1="214.77" x2="281.41" y2="210.44"/><line class="cls-24" x1="281.41" y1="214.77" x2="281.41" y2="210.44"/><line class="cls-24" x1="408.11" y1="214.77" x2="408.11" y2="210.44"/><line class="cls-24" x1="431.6" y1="214.77" x2="431.6" y2="210.44"/><line class="cls-24" x1="346.92" y1="214.77" x2="346.92" y2="210.44"/><line class="cls-24" x1="351.87" y1="214.77" x2="351.87" y2="210.44"/><line class="cls-24" x1="337.65" y1="214.77" x2="337.65" y2="210.44"/><line class="cls-24" x1="431.6" y1="214.77" x2="431.6" y2="210.44"/><line class="cls-24" x1="431.6" y1="214.77" x2="431.6" y2="210.44"/><line class="cls-24" x1="323.44" y1="214.77" x2="323.44" y2="210.44"/><line class="cls-24" x1="299.95" y1="214.77" x2="299.95" y2="210.44"/><line class="cls-24" x1="370.41" y1="214.77" x2="370.41" y2="210.44"/><line class="cls-24" x1="257.92" y1="214.77" x2="257.92" y2="210.44"/><line class="cls-24" x1="379.68" y1="214.77" x2="379.68" y2="210.44"/><line class="cls-24" x1="239.38" y1="214.77" x2="239.38" y2="210.44"/><line class="cls-24" x1="319.11" y1="214.77" x2="319.11" y2="210.44"/><line class="cls-24" x1="351.87" y1="214.77" x2="351.87" y2="210.44"/><line class="cls-24" x1="375.35" y1="214.77" x2="375.35" y2="210.44"/><line class="cls-24" x1="304.9" y1="214.77" x2="304.9" y2="210.44"/><line class="cls-24" x1="393.9" y1="214.77" x2="393.9" y2="210.44"/><line class="cls-24" x1="408.11" y1="214.77" x2="408.11" y2="210.44"/><line class="cls-24" x1="309.84" y1="214.77" x2="309.84" y2="210.44"/><line class="cls-24" x1="351.87" y1="214.77" x2="351.87" y2="210.44"/><line class="cls-24" x1="257.92" y1="214.77" x2="257.92" y2="210.44"/><line class="cls-24" x1="337.65" y1="214.77" x2="337.65" y2="210.44"/><line class="cls-24" x1="379.68" y1="214.77" x2="379.68" y2="210.44"/><line class="cls-24" x1="370.41" y1="214.77" x2="370.41" y2="210.44"/><line class="cls-24" x1="487.84" y1="214.77" x2="487.84" y2="210.44"/><line class="cls-24" x1="408.11" y1="214.77" x2="408.11" y2="210.44"/><line class="cls-24" x1="384.62" y1="214.77" x2="384.62" y2="210.44"/><line class="cls-24" x1="351.87" y1="214.77" x2="351.87" y2="210.44"/><line class="cls-24" x1="286.35" y1="214.77" x2="286.35" y2="210.44"/><line class="cls-24" x1="417.38" y1="214.77" x2="417.38" y2="210.44"/><line class="cls-24" x1="319.11" y1="214.77" x2="319.11" y2="210.44"/><line class="cls-24" x1="440.87" y1="214.77" x2="440.87" y2="210.44"/><line class="cls-24" x1="361.14" y1="214.77" x2="361.14" y2="210.44"/><line class="cls-24" x1="304.9" y1="214.77" x2="304.9" y2="210.44"/><line class="cls-24" x1="351.87" y1="214.77" x2="351.87" y2="210.44"/><line class="cls-24" x1="173.25" y1="214.77" x2="173.25" y2="210.44"/><line class="cls-24" x1="408.11" y1="214.77" x2="408.11" y2="210.44"/><line class="cls-24" x1="375.35" y1="214.77" x2="375.35" y2="210.44"/><line class="cls-24" x1="351.87" y1="214.77" x2="351.87" y2="210.44"/><line class="cls-24" x1="299.95" y1="214.77" x2="299.95" y2="210.44"/><line class="cls-24" x1="384.62" y1="214.77" x2="384.62" y2="210.44"/><line class="cls-24" x1="361.14" y1="214.77" x2="361.14" y2="210.44"/><line class="cls-24" x1="375.35" y1="214.77" x2="375.35" y2="210.44"/><line class="cls-24" x1="337.65" y1="214.77" x2="337.65" y2="210.44"/><line class="cls-24" x1="328.38" y1="214.77" x2="328.38" y2="210.44"/><line class="cls-24" x1="403.17" y1="214.77" x2="403.17" y2="210.44"/><line class="cls-24" x1="299.95" y1="214.77" x2="299.95" y2="210.44"/><line class="cls-24" x1="417.38" y1="214.77" x2="417.38" y2="210.44"/><line class="cls-24" x1="398.84" y1="214.77" x2="398.84" y2="210.44"/><line class="cls-24" x1="361.14" y1="214.77" x2="361.14" y2="210.44"/><line class="cls-24" x1="375.35" y1="214.77" x2="375.35" y2="210.44"/><line class="cls-24" x1="413.05" y1="214.77" x2="413.05" y2="210.44"/><line class="cls-24" x1="342.6" y1="214.77" x2="342.6" y2="210.44"/><line class="cls-24" x1="384.62" y1="214.77" x2="384.62" y2="210.44"/><line class="cls-24" x1="370.41" y1="214.77" x2="370.41" y2="210.44"/><line class="cls-24" x1="408.11" y1="214.77" x2="408.11" y2="210.44"/><line class="cls-24" x1="337.65" y1="214.77" x2="337.65" y2="210.44"/><line class="cls-24" x1="356.19" y1="214.77" x2="356.19" y2="210.44"/><line class="cls-24" x1="356.19" y1="214.77" x2="356.19" y2="210.44"/><line class="cls-24" x1="408.11" y1="214.77" x2="408.11" y2="210.44"/><line class="cls-24" x1="299.95" y1="214.77" x2="299.95" y2="210.44"/><line class="cls-24" x1="342.6" y1="214.77" x2="342.6" y2="210.44"/><line class="cls-24" x1="375.35" y1="214.77" x2="375.35" y2="210.44"/><line class="cls-24" x1="375.35" y1="214.77" x2="375.35" y2="210.44"/><line class="cls-24" x1="333.33" y1="214.77" x2="333.33" y2="210.44"/><line class="cls-24" x1="328.38" y1="214.77" x2="328.38" y2="210.44"/><line class="cls-24" x1="342.6" y1="214.77" x2="342.6" y2="210.44"/><line class="cls-24" x1="375.35" y1="214.77" x2="375.35" y2="210.44"/><line class="cls-24" x1="389.57" y1="214.77" x2="389.57" y2="210.44"/><line class="cls-24" x1="426.65" y1="214.77" x2="426.65" y2="210.44"/><line class="cls-24" x1="346.92" y1="214.77" x2="346.92" y2="210.44"/><line class="cls-24" x1="323.44" y1="214.77" x2="323.44" y2="210.44"/><line class="cls-24" x1="379.68" y1="214.77" x2="379.68" y2="210.44"/><line class="cls-24" x1="389.57" y1="214.77" x2="389.57" y2="210.44"/><line class="cls-24" x1="389.57" y1="214.77" x2="389.57" y2="210.44"/><line class="cls-24" x1="393.9" y1="214.77" x2="393.9" y2="210.44"/><line class="cls-24" x1="215.9" y1="214.77" x2="215.9" y2="210.44"/><line class="cls-24" x1="351.87" y1="214.77" x2="351.87" y2="210.44"/><line class="cls-24" x1="440.87" y1="214.77" x2="440.87" y2="210.44"/><line class="cls-24" x1="431.6" y1="214.77" x2="431.6" y2="210.44"/><line class="cls-24" x1="319.11" y1="214.77" x2="319.11" y2="210.44"/><line class="cls-24" x1="361.14" y1="214.77" x2="361.14" y2="210.44"/><line class="cls-24" x1="384.62" y1="214.77" x2="384.62" y2="210.44"/><line class="cls-24" x1="361.14" y1="214.77" x2="361.14" y2="210.44"/><line class="cls-24" x1="328.38" y1="214.77" x2="328.38" y2="210.44"/><line class="cls-24" x1="356.19" y1="214.77" x2="356.19" y2="210.44"/><line class="cls-24" x1="328.38" y1="214.77" x2="328.38" y2="210.44"/><line class="cls-24" x1="375.35" y1="214.77" x2="375.35" y2="210.44"/><line class="cls-24" x1="389.57" y1="214.77" x2="389.57" y2="210.44"/><line class="cls-24" x1="356.19" y1="214.77" x2="356.19" y2="210.44"/><line class="cls-24" x1="333.33" y1="214.77" x2="333.33" y2="210.44"/><line class="cls-24" x1="272.14" y1="214.77" x2="272.14" y2="210.44"/><line class="cls-24" x1="323.44" y1="214.77" x2="323.44" y2="210.44"/><line class="cls-24" x1="328.38" y1="214.77" x2="328.38" y2="210.44"/><line class="cls-24" x1="361.14" y1="214.77" x2="361.14" y2="210.44"/><line class="cls-24" x1="230.11" y1="214.77" x2="230.11" y2="210.44"/><line class="cls-24" x1="370.41" y1="214.77" x2="370.41" y2="210.44"/><line class="cls-24" x1="413.05" y1="214.77" x2="413.05" y2="210.44"/><line class="cls-24" x1="356.19" y1="214.77" x2="356.19" y2="210.44"/><line class="cls-24" x1="281.41" y1="214.77" x2="281.41" y2="210.44"/><line class="cls-24" x1="304.9" y1="214.77" x2="304.9" y2="210.44"/><line class="cls-24" x1="356.19" y1="214.77" x2="356.19" y2="210.44"/><line class="cls-24" x1="206.62" y1="214.77" x2="206.62" y2="210.44"/><line class="cls-24" x1="337.65" y1="214.77" x2="337.65" y2="210.44"/><line class="cls-24" x1="304.9" y1="214.77" x2="304.9" y2="210.44"/><line class="cls-24" x1="426.65" y1="214.77" x2="426.65" y2="210.44"/><line class="cls-24" x1="272.14" y1="214.77" x2="272.14" y2="210.44"/><line class="cls-24" x1="413.05" y1="214.77" x2="413.05" y2="210.44"/><line class="cls-24" x1="333.33" y1="214.77" x2="333.33" y2="210.44"/><line class="cls-24" x1="440.87" y1="214.77" x2="440.87" y2="210.44"/><line class="cls-24" x1="319.11" y1="214.77" x2="319.11" y2="210.44"/><line class="cls-24" x1="206.62" y1="214.77" x2="206.62" y2="210.44"/><line class="cls-24" x1="333.33" y1="214.77" x2="333.33" y2="210.44"/><line class="cls-24" x1="309.84" y1="214.77" x2="309.84" y2="210.44"/><line class="cls-24" x1="417.38" y1="214.77" x2="417.38" y2="210.44"/><line class="cls-24" x1="361.14" y1="214.77" x2="361.14" y2="210.44"/><line class="cls-24" x1="375.35" y1="214.77" x2="375.35" y2="210.44"/><line class="cls-24" x1="431.6" y1="214.77" x2="431.6" y2="210.44"/><line class="cls-24" x1="426.65" y1="214.77" x2="426.65" y2="210.44"/><line class="cls-24" x1="366.08" y1="214.77" x2="366.08" y2="210.44"/><line class="cls-24" x1="346.92" y1="214.77" x2="346.92" y2="210.44"/><line class="cls-24" x1="314.17" y1="214.77" x2="314.17" y2="210.44"/><line class="cls-24" x1="286.35" y1="214.77" x2="286.35" y2="210.44"/><line class="cls-24" x1="299.95" y1="214.77" x2="299.95" y2="210.44"/><line class="cls-24" x1="389.57" y1="214.77" x2="389.57" y2="210.44"/><line class="cls-24" x1="328.38" y1="214.77" x2="328.38" y2="210.44"/><line class="cls-24" x1="342.6" y1="214.77" x2="342.6" y2="210.44"/><line class="cls-24" x1="398.84" y1="214.77" x2="398.84" y2="210.44"/><line class="cls-24" x1="337.65" y1="214.77" x2="337.65" y2="210.44"/><line class="cls-24" x1="286.35" y1="214.77" x2="286.35" y2="210.44"/><line class="cls-24" x1="342.6" y1="214.77" x2="342.6" y2="210.44"/><line class="cls-24" x1="379.68" y1="214.77" x2="379.68" y2="210.44"/><line class="cls-24" x1="366.08" y1="214.77" x2="366.08" y2="210.44"/><line class="cls-24" x1="356.19" y1="214.77" x2="356.19" y2="210.44"/><line class="cls-24" x1="319.11" y1="214.77" x2="319.11" y2="210.44"/><line class="cls-24" x1="398.84" y1="214.77" x2="398.84" y2="210.44"/><line class="cls-24" x1="248.65" y1="214.77" x2="248.65" y2="210.44"/><line class="cls-24" x1="328.38" y1="214.77" x2="328.38" y2="210.44"/><line class="cls-24" x1="248.65" y1="214.77" x2="248.65" y2="210.44"/><line class="cls-24" x1="346.92" y1="214.77" x2="346.92" y2="210.44"/><line class="cls-24" x1="384.62" y1="214.77" x2="384.62" y2="210.44"/><line class="cls-24" x1="342.6" y1="214.77" x2="342.6" y2="210.44"/><line class="cls-24" x1="393.9" y1="214.77" x2="393.9" y2="210.44"/><line class="cls-24" x1="408.11" y1="214.77" x2="408.11" y2="210.44"/><line class="cls-24" x1="361.14" y1="214.77" x2="361.14" y2="210.44"/><line class="cls-24" x1="375.35" y1="214.77" x2="375.35" y2="210.44"/><line class="cls-24" x1="314.17" y1="214.77" x2="314.17" y2="210.44"/><line class="cls-24" x1="389.57" y1="214.77" x2="389.57" y2="210.44"/><line class="cls-24" x1="403.17" y1="214.77" x2="403.17" y2="210.44"/><line class="cls-24" x1="267.19" y1="214.77" x2="267.19" y2="210.44"/><line class="cls-24" x1="299.95" y1="214.77" x2="299.95" y2="210.44"/><line class="cls-24" x1="323.44" y1="214.77" x2="323.44" y2="210.44"/><line class="cls-24" x1="393.9" y1="214.77" x2="393.9" y2="210.44"/><line class="cls-24" x1="431.6" y1="214.77" x2="431.6" y2="210.44"/><line class="cls-24" x1="243.71" y1="214.77" x2="243.71" y2="210.44"/><line class="cls-24" x1="337.65" y1="214.77" x2="337.65" y2="210.44"/><line class="cls-24" x1="398.84" y1="214.77" x2="398.84" y2="210.44"/><line class="cls-24" x1="450.14" y1="214.77" x2="450.14" y2="210.44"/><line class="cls-24" x1="366.08" y1="214.77" x2="366.08" y2="210.44"/><line class="cls-24" x1="379.68" y1="214.77" x2="379.68" y2="210.44"/><line class="cls-24" x1="304.9" y1="214.77" x2="304.9" y2="210.44"/><line class="cls-24" x1="426.65" y1="214.77" x2="426.65" y2="210.44"/><line class="cls-24" x1="342.6" y1="214.77" x2="342.6" y2="210.44"/><line class="cls-24" x1="314.17" y1="214.77" x2="314.17" y2="210.44"/><line class="cls-24" x1="342.6" y1="214.77" x2="342.6" y2="210.44"/><line class="cls-24" x1="426.65" y1="214.77" x2="426.65" y2="210.44"/><line class="cls-24" x1="384.62" y1="214.77" x2="384.62" y2="210.44"/><line class="cls-24" x1="333.33" y1="214.77" x2="333.33" y2="210.44"/><line class="cls-24" x1="295.62" y1="214.77" x2="295.62" y2="210.44"/><line class="cls-24" x1="309.84" y1="214.77" x2="309.84" y2="210.44"/><line class="cls-24" x1="346.92" y1="214.77" x2="346.92" y2="210.44"/><line class="cls-24" x1="314.17" y1="214.77" x2="314.17" y2="210.44"/><line class="cls-24" x1="413.05" y1="214.77" x2="413.05" y2="210.44"/><line class="cls-24" x1="413.05" y1="214.77" x2="413.05" y2="210.44"/><line class="cls-24" x1="272.14" y1="214.77" x2="272.14" y2="210.44"/><line class="cls-24" x1="323.44" y1="214.77" x2="323.44" y2="210.44"/><line class="cls-24" x1="257.92" y1="214.77" x2="257.92" y2="210.44"/><line class="cls-24" x1="286.35" y1="214.77" x2="286.35" y2="210.44"/><line class="cls-24" x1="413.05" y1="214.77" x2="413.05" y2="210.44"/><line class="cls-24" x1="276.46" y1="214.77" x2="276.46" y2="210.44"/><line class="cls-24" x1="379.68" y1="214.77" x2="379.68" y2="210.44"/><line class="cls-24" x1="319.11" y1="214.77" x2="319.11" y2="210.44"/><line class="cls-24" x1="290.68" y1="214.77" x2="290.68" y2="210.44"/><line class="cls-24" x1="403.17" y1="214.77" x2="403.17" y2="210.44"/><line class="cls-24" x1="356.19" y1="214.77" x2="356.19" y2="210.44"/><line class="cls-24" x1="299.95" y1="214.77" x2="299.95" y2="210.44"/><line class="cls-24" x1="319.11" y1="214.77" x2="319.11" y2="210.44"/><line class="cls-24" x1="370.41" y1="214.77" x2="370.41" y2="210.44"/><line class="cls-24" x1="361.14" y1="214.77" x2="361.14" y2="210.44"/><line class="cls-24" x1="168.92" y1="214.77" x2="168.92" y2="210.44"/><line class="cls-24" x1="239.38" y1="214.77" x2="239.38" y2="210.44"/><line class="cls-24" x1="309.84" y1="214.77" x2="309.84" y2="210.44"/><line class="cls-24" x1="196.74" y1="214.77" x2="196.74" y2="210.44"/></g><g class="cls-37"><line class="cls-25" x1="328.38" y1="214.77" x2="328.38" y2="210.44"/><line class="cls-25" x1="187.46" y1="214.77" x2="187.46" y2="210.44"/><line class="cls-25" x1="304.9" y1="214.77" x2="304.9" y2="210.44"/><line class="cls-25" x1="389.57" y1="214.77" x2="389.57" y2="210.44"/><line class="cls-25" x1="346.92" y1="214.77" x2="346.92" y2="210.44"/><line class="cls-25" x1="183.14" y1="214.77" x2="183.14" y2="210.44"/><line class="cls-25" x1="243.71" y1="214.77" x2="243.71" y2="210.44"/><line class="cls-25" x1="187.46" y1="214.77" x2="187.46" y2="210.44"/><line class="cls-25" x1="366.08" y1="214.77" x2="366.08" y2="210.44"/><line class="cls-25" x1="257.92" y1="214.77" x2="257.92" y2="210.44"/><line class="cls-25" x1="356.19" y1="214.77" x2="356.19" y2="210.44"/></g><g class="cls-37"><polyline class="cls-26" points="113.3 215.07 126.85 214.99 137.01 214.76 143.79 214.48 153.95 213.86 174.27 212.5 194.6 211.25 208.15 210.28 214.92 209.67 218.31 209.29 221.7 208.83 225.08 208.28 228.47 207.61 231.86 206.82 235.25 205.91 238.63 204.87 242.02 203.7 245.41 202.41 248.8 201.02 252.18 199.53 258.96 196.34 265.73 192.92 272.51 189.33 275.89 187.44 279.28 185.48 282.67 183.4 286.06 181.21 289.44 178.87 292.83 176.39 296.22 173.78 302.99 168.32 309.77 162.88 313.16 160.31 316.54 157.89 319.93 155.66 323.32 153.64 326.71 151.84 330.09 150.25 333.48 148.86 336.87 147.68 340.26 146.72 343.64 145.98 347.03 145.48 350.42 145.24 353.36 145.27 356.76 145.6 360.16 146.23 363.56 147.15 366.96 148.34 370.36 149.77 373.76 151.41 377.16 153.23 380.56 155.2 387.36 159.41 397.56 166.07 407.76 172.87 414.56 177.55 421.36 182.48 428.16 187.7 441.75 198.41 445.15 200.9 448.55 203.24 451.95 205.36 455.35 207.24 458.75 208.85 462.15 210.21 465.55 211.3 468.95 212.16 472.35 212.82 475.75 213.3 479.15 213.65 485.95 214.08 496.15 214.46 516.55 215.07 526.35 214.46 539.89 215.07 543.47 215.08"/></g><g class="cls-37"><line class="cls-27" x1="351.87" y1="214.77" x2="351.87" y2="145.54"/></g><g class="cls-37"><polyline class="cls-28" points="29.86 214.46 42.08 214.3 50.14 214.1 58.21 213.8 66.28 213.38 74.34 212.79 82.41 212.02 90.48 211.03 98.55 209.8 106.61 208.32 114.68 206.58 122.75 204.6 130.81 202.42 138.88 200.09 159.05 194.13 167.12 191.91 175.18 189.9 179.22 189 183.25 188.17 187.28 187.42 191.32 186.75 195.35 186.16 199.39 185.64 203.42 185.21 211.49 184.55 219.55 184.13 227.62 183.88 255.86 183.26 263.92 182.88 271.99 182.34 280.06 181.63 288.13 180.76 300.23 179.28 312.33 177.79 320.39 176.96 324.43 176.63 328.46 176.38 332.5 176.21 336.53 176.14 341.14 176.17 345.15 176.33 349.15 176.6 353.16 177 357.17 177.53 361.18 178.19 365.18 178.98 369.19 179.89 373.2 180.91 377.21 182.05 381.21 183.28 385.22 184.6 393.24 187.45 401.25 190.49 417.28 196.67 425.3 199.61 433.31 202.32 437.32 203.58 441.32 204.77 445.33 205.88 449.34 206.91 453.35 207.85 457.36 208.72 461.36 209.51 465.37 210.23 469.38 210.87 477.39 211.96 485.41 212.8 493.42 213.43 501.44 213.9 509.45 214.23 517.47 214.46 530.14 215.07 542.23 215.11"/></g><g class="cls-37"><line class="cls-27" x1="304.9" y1="214.77" x2="304.9" y2="177.68"/></g><line class="cls-10" x1="42.22" y1="215.08" x2="42.22" y2="127.93"/><line class="cls-10" x1="534.81" y1="215.08" x2="534.81" y2="127.93"/><line class="cls-10" x1="42.22" y1="215.08" x2="534.81" y2="215.08"/><line class="cls-10" x1="42.22" y1="127.93" x2="534.81" y2="127.93"/><text class="cls-29" transform="translate(342.41 139.48)">61</text><text class="cls-30" transform="translate(304.88 174.6)">51</text><text class="cls-31" transform="translate(56.23 140.51)">p &lt; 0.01</text><line x1="65.4" y1="317.36" x2="65.4" y2="319.84"/><line class="cls-3" x1="65.71" y1="317.36" x2="65.71" y2="319.84"/><text class="cls-38" transform="translate(61.83 331.55)">0</text><line x1="159.34" y1="317.36" x2="159.34" y2="319.84"/><line class="cls-3" x1="159.65" y1="317.36" x2="159.65" y2="319.84"/><text class="cls-38" transform="translate(151.88 331.55)">20</text><line x1="253.29" y1="317.36" x2="253.29" y2="319.84"/><line class="cls-3" x1="252.98" y1="317.36" x2="252.98" y2="319.84"/><text class="cls-38" transform="translate(245.71 331.55)">40</text><line x1="347.23" y1="317.36" x2="347.23" y2="319.84"/><line class="cls-3" x1="346.92" y1="317.36" x2="346.92" y2="319.84"/><text class="cls-38" transform="translate(339.54 331.55)">60</text><line x1="441.18" y1="317.36" x2="441.18" y2="319.84"/><line class="cls-3" x1="440.87" y1="317.36" x2="440.87" y2="319.84"/><text class="cls-38" transform="translate(433.37 331.55)">80</text><line x1="534.5" y1="317.36" x2="534.5" y2="319.84"/><line class="cls-3" x1="534.81" y1="317.36" x2="534.81" y2="319.84"/><text class="cls-38" transform="translate(523.42 331.55)">100</text><text class="cls-4" transform="translate(250.12 347.52)">Age (years)</text><text class="cls-4" transform="translate(36.73 316.56) rotate(-90)">Capper et al.</text><g class="cls-39"><line class="cls-24" x1="168.92" y1="317.36" x2="168.92" y2="313.04"/><line class="cls-24" x1="252.98" y1="317.36" x2="252.98" y2="313.04"/><line class="cls-24" x1="267.19" y1="317.36" x2="267.19" y2="313.04"/><line class="cls-24" x1="272.14" y1="317.36" x2="272.14" y2="313.04"/><line class="cls-24" x1="272.14" y1="317.36" x2="272.14" y2="313.04"/><line class="cls-24" x1="276.46" y1="317.36" x2="276.46" y2="313.04"/><line class="cls-24" x1="281.41" y1="317.36" x2="281.41" y2="313.04"/><line class="cls-24" x1="290.68" y1="317.36" x2="290.68" y2="313.04"/><line class="cls-24" x1="290.68" y1="317.36" x2="290.68" y2="313.04"/><line class="cls-24" x1="290.68" y1="317.36" x2="290.68" y2="313.04"/><line class="cls-24" x1="290.68" y1="317.36" x2="290.68" y2="313.04"/><line class="cls-24" x1="295.62" y1="317.36" x2="295.62" y2="313.04"/><line class="cls-24" x1="295.62" y1="317.36" x2="295.62" y2="313.04"/><line class="cls-24" x1="299.95" y1="317.36" x2="299.95" y2="313.04"/><line class="cls-24" x1="299.95" y1="317.36" x2="299.95" y2="313.04"/><line class="cls-24" x1="304.9" y1="317.36" x2="304.9" y2="313.04"/><line class="cls-24" x1="309.84" y1="317.36" x2="309.84" y2="313.04"/><line class="cls-24" x1="309.84" y1="317.36" x2="309.84" y2="313.04"/><line class="cls-24" x1="319.11" y1="317.36" x2="319.11" y2="313.04"/><line class="cls-24" x1="319.11" y1="317.36" x2="319.11" y2="313.04"/><line class="cls-24" x1="323.44" y1="317.36" x2="323.44" y2="313.04"/><line class="cls-24" x1="323.44" y1="317.36" x2="323.44" y2="313.04"/><line class="cls-24" x1="328.38" y1="317.36" x2="328.38" y2="313.04"/><line class="cls-24" x1="337.65" y1="317.36" x2="337.65" y2="313.04"/><line class="cls-24" x1="342.6" y1="317.36" x2="342.6" y2="313.04"/><line class="cls-24" x1="342.6" y1="317.36" x2="342.6" y2="313.04"/><line class="cls-24" x1="346.92" y1="317.36" x2="346.92" y2="313.04"/><line class="cls-24" x1="346.92" y1="317.36" x2="346.92" y2="313.04"/><line class="cls-24" x1="351.87" y1="317.36" x2="351.87" y2="313.04"/><line class="cls-24" x1="351.87" y1="317.36" x2="351.87" y2="313.04"/><line class="cls-24" x1="356.19" y1="317.36" x2="356.19" y2="313.04"/><line class="cls-24" x1="361.14" y1="317.36" x2="361.14" y2="313.04"/><line class="cls-24" x1="361.14" y1="317.36" x2="361.14" y2="313.04"/><line class="cls-24" x1="366.08" y1="317.36" x2="366.08" y2="313.04"/><line class="cls-24" x1="370.41" y1="317.36" x2="370.41" y2="313.04"/><line class="cls-24" x1="370.41" y1="317.36" x2="370.41" y2="313.04"/><line class="cls-24" x1="375.35" y1="317.36" x2="375.35" y2="313.04"/><line class="cls-24" x1="375.35" y1="317.36" x2="375.35" y2="313.04"/><line class="cls-24" x1="379.68" y1="317.36" x2="379.68" y2="313.04"/><line class="cls-24" x1="384.62" y1="317.36" x2="384.62" y2="313.04"/><line class="cls-24" x1="398.84" y1="317.36" x2="398.84" y2="313.04"/><line class="cls-24" x1="398.84" y1="317.36" x2="398.84" y2="313.04"/><line class="cls-24" x1="403.17" y1="317.36" x2="403.17" y2="313.04"/><line class="cls-24" x1="403.17" y1="317.36" x2="403.17" y2="313.04"/><line class="cls-24" x1="408.11" y1="317.36" x2="408.11" y2="313.04"/><line class="cls-24" x1="413.05" y1="317.36" x2="413.05" y2="313.04"/><line class="cls-24" x1="422.33" y1="317.36" x2="422.33" y2="313.04"/><line class="cls-24" x1="431.6" y1="317.36" x2="431.6" y2="313.04"/><line class="cls-24" x1="215.9" y1="317.36" x2="215.9" y2="313.04"/><line class="cls-24" x1="220.22" y1="317.36" x2="220.22" y2="313.04"/><line class="cls-24" x1="225.17" y1="317.36" x2="225.17" y2="313.04"/><line class="cls-24" x1="281.41" y1="317.36" x2="281.41" y2="313.04"/><line class="cls-24" x1="290.68" y1="317.36" x2="290.68" y2="313.04"/><line class="cls-24" x1="295.62" y1="317.36" x2="295.62" y2="313.04"/><line class="cls-24" x1="295.62" y1="317.36" x2="295.62" y2="313.04"/><line class="cls-24" x1="309.84" y1="317.36" x2="309.84" y2="313.04"/><line class="cls-24" x1="314.17" y1="317.36" x2="314.17" y2="313.04"/><line class="cls-24" x1="319.11" y1="317.36" x2="319.11" y2="313.04"/><line class="cls-24" x1="333.33" y1="317.36" x2="333.33" y2="313.04"/><line class="cls-24" x1="333.33" y1="317.36" x2="333.33" y2="313.04"/><line class="cls-24" x1="333.33" y1="317.36" x2="333.33" y2="313.04"/><line class="cls-24" x1="333.33" y1="317.36" x2="333.33" y2="313.04"/><line class="cls-24" x1="337.65" y1="317.36" x2="337.65" y2="313.04"/><line class="cls-24" x1="337.65" y1="317.36" x2="337.65" y2="313.04"/><line class="cls-24" x1="342.6" y1="317.36" x2="342.6" y2="313.04"/><line class="cls-24" x1="351.87" y1="317.36" x2="351.87" y2="313.04"/><line class="cls-24" x1="366.08" y1="317.36" x2="366.08" y2="313.04"/><line class="cls-24" x1="366.08" y1="317.36" x2="366.08" y2="313.04"/><line class="cls-24" x1="366.08" y1="317.36" x2="366.08" y2="313.04"/><line class="cls-24" x1="366.08" y1="317.36" x2="366.08" y2="313.04"/><line class="cls-24" x1="366.08" y1="317.36" x2="366.08" y2="313.04"/><line class="cls-24" x1="370.41" y1="317.36" x2="370.41" y2="313.04"/><line class="cls-24" x1="370.41" y1="317.36" x2="370.41" y2="313.04"/><line class="cls-24" x1="370.41" y1="317.36" x2="370.41" y2="313.04"/><line class="cls-24" x1="370.41" y1="317.36" x2="370.41" y2="313.04"/><line class="cls-24" x1="379.68" y1="317.36" x2="379.68" y2="313.04"/><line class="cls-24" x1="379.68" y1="317.36" x2="379.68" y2="313.04"/><line class="cls-24" x1="384.62" y1="317.36" x2="384.62" y2="313.04"/><line class="cls-24" x1="398.84" y1="317.36" x2="398.84" y2="313.04"/><line class="cls-24" x1="398.84" y1="317.36" x2="398.84" y2="313.04"/><line class="cls-24" x1="408.11" y1="317.36" x2="408.11" y2="313.04"/><line class="cls-24" x1="422.33" y1="317.36" x2="422.33" y2="313.04"/><line class="cls-24" x1="422.33" y1="317.36" x2="422.33" y2="313.04"/><line class="cls-24" x1="426.65" y1="317.36" x2="426.65" y2="313.04"/><line class="cls-24" x1="431.6" y1="317.36" x2="431.6" y2="313.04"/><line class="cls-24" x1="431.6" y1="317.36" x2="431.6" y2="313.04"/><line class="cls-24" x1="440.87" y1="317.36" x2="440.87" y2="313.04"/><line class="cls-24" x1="450.14" y1="317.36" x2="450.14" y2="313.04"/><line class="cls-24" x1="459.41" y1="317.36" x2="459.41" y2="313.04"/><line class="cls-24" x1="234.44" y1="317.36" x2="234.44" y2="313.04"/><line class="cls-24" x1="239.38" y1="317.36" x2="239.38" y2="313.04"/><line class="cls-24" x1="248.65" y1="317.36" x2="248.65" y2="313.04"/><line class="cls-24" x1="248.65" y1="317.36" x2="248.65" y2="313.04"/><line class="cls-24" x1="252.98" y1="317.36" x2="252.98" y2="313.04"/><line class="cls-24" x1="262.87" y1="317.36" x2="262.87" y2="313.04"/><line class="cls-24" x1="272.14" y1="317.36" x2="272.14" y2="313.04"/><line class="cls-24" x1="281.41" y1="317.36" x2="281.41" y2="313.04"/><line class="cls-24" x1="286.35" y1="317.36" x2="286.35" y2="313.04"/><line class="cls-24" x1="286.35" y1="317.36" x2="286.35" y2="313.04"/><line class="cls-24" x1="413.05" y1="317.36" x2="413.05" y2="313.04"/><line class="cls-24" x1="413.05" y1="317.36" x2="413.05" y2="313.04"/><line class="cls-24" x1="413.05" y1="317.36" x2="413.05" y2="313.04"/><line class="cls-24" x1="413.05" y1="317.36" x2="413.05" y2="313.04"/><line class="cls-24" x1="417.38" y1="317.36" x2="417.38" y2="313.04"/><line class="cls-24" x1="417.38" y1="317.36" x2="417.38" y2="313.04"/><line class="cls-24" x1="417.38" y1="317.36" x2="417.38" y2="313.04"/><line class="cls-24" x1="417.38" y1="317.36" x2="417.38" y2="313.04"/><line class="cls-24" x1="422.33" y1="317.36" x2="422.33" y2="313.04"/><line class="cls-24" x1="422.33" y1="317.36" x2="422.33" y2="313.04"/><line class="cls-24" x1="286.35" y1="317.36" x2="286.35" y2="313.04"/><line class="cls-24" x1="426.65" y1="317.36" x2="426.65" y2="313.04"/><line class="cls-24" x1="431.6" y1="317.36" x2="431.6" y2="313.04"/><line class="cls-24" x1="431.6" y1="317.36" x2="431.6" y2="313.04"/><line class="cls-24" x1="431.6" y1="317.36" x2="431.6" y2="313.04"/><line class="cls-24" x1="436.54" y1="317.36" x2="436.54" y2="313.04"/><line class="cls-24" x1="445.81" y1="317.36" x2="445.81" y2="313.04"/><line class="cls-24" x1="450.14" y1="317.36" x2="450.14" y2="313.04"/><line class="cls-24" x1="469.3" y1="317.36" x2="469.3" y2="313.04"/><line class="cls-24" x1="286.35" y1="317.36" x2="286.35" y2="313.04"/><line class="cls-24" x1="286.35" y1="317.36" x2="286.35" y2="313.04"/><line class="cls-24" x1="286.35" y1="317.36" x2="286.35" y2="313.04"/><line class="cls-24" x1="290.68" y1="317.36" x2="290.68" y2="313.04"/><line class="cls-24" x1="290.68" y1="317.36" x2="290.68" y2="313.04"/><line class="cls-24" x1="290.68" y1="317.36" x2="290.68" y2="313.04"/><line class="cls-24" x1="295.62" y1="317.36" x2="295.62" y2="313.04"/><line class="cls-24" x1="299.95" y1="317.36" x2="299.95" y2="313.04"/><line class="cls-24" x1="299.95" y1="317.36" x2="299.95" y2="313.04"/><line class="cls-24" x1="304.9" y1="317.36" x2="304.9" y2="313.04"/><line class="cls-24" x1="304.9" y1="317.36" x2="304.9" y2="313.04"/><line class="cls-24" x1="304.9" y1="317.36" x2="304.9" y2="313.04"/><line class="cls-24" x1="309.84" y1="317.36" x2="309.84" y2="313.04"/><line class="cls-24" x1="309.84" y1="317.36" x2="309.84" y2="313.04"/><line class="cls-24" x1="309.84" y1="317.36" x2="309.84" y2="313.04"/><line class="cls-24" x1="309.84" y1="317.36" x2="309.84" y2="313.04"/><line class="cls-24" x1="309.84" y1="317.36" x2="309.84" y2="313.04"/><line class="cls-24" x1="314.17" y1="317.36" x2="314.17" y2="313.04"/><line class="cls-24" x1="314.17" y1="317.36" x2="314.17" y2="313.04"/><line class="cls-24" x1="319.11" y1="317.36" x2="319.11" y2="313.04"/><line class="cls-24" x1="319.11" y1="317.36" x2="319.11" y2="313.04"/><line class="cls-24" x1="323.44" y1="317.36" x2="323.44" y2="313.04"/><line class="cls-24" x1="323.44" y1="317.36" x2="323.44" y2="313.04"/><line class="cls-24" x1="323.44" y1="317.36" x2="323.44" y2="313.04"/><line class="cls-24" x1="328.38" y1="317.36" x2="328.38" y2="313.04"/><line class="cls-24" x1="328.38" y1="317.36" x2="328.38" y2="313.04"/><line class="cls-24" x1="328.38" y1="317.36" x2="328.38" y2="313.04"/><line class="cls-24" x1="328.38" y1="317.36" x2="328.38" y2="313.04"/><line class="cls-24" x1="333.33" y1="317.36" x2="333.33" y2="313.04"/><line class="cls-24" x1="333.33" y1="317.36" x2="333.33" y2="313.04"/><line class="cls-24" x1="333.33" y1="317.36" x2="333.33" y2="313.04"/><line class="cls-24" x1="333.33" y1="317.36" x2="333.33" y2="313.04"/><line class="cls-24" x1="333.33" y1="317.36" x2="333.33" y2="313.04"/><line class="cls-24" x1="337.65" y1="317.36" x2="337.65" y2="313.04"/><line class="cls-24" x1="337.65" y1="317.36" x2="337.65" y2="313.04"/><line class="cls-24" x1="337.65" y1="317.36" x2="337.65" y2="313.04"/><line class="cls-24" x1="337.65" y1="317.36" x2="337.65" y2="313.04"/><line class="cls-24" x1="342.6" y1="317.36" x2="342.6" y2="313.04"/><line class="cls-24" x1="351.87" y1="317.36" x2="351.87" y2="313.04"/><line class="cls-24" x1="351.87" y1="317.36" x2="351.87" y2="313.04"/><line class="cls-24" x1="351.87" y1="317.36" x2="351.87" y2="313.04"/><line class="cls-24" x1="351.87" y1="317.36" x2="351.87" y2="313.04"/><line class="cls-24" x1="351.87" y1="317.36" x2="351.87" y2="313.04"/><line class="cls-24" x1="351.87" y1="317.36" x2="351.87" y2="313.04"/><line class="cls-24" x1="351.87" y1="317.36" x2="351.87" y2="313.04"/><line class="cls-24" x1="356.19" y1="317.36" x2="356.19" y2="313.04"/><line class="cls-24" x1="356.19" y1="317.36" x2="356.19" y2="313.04"/><line class="cls-24" x1="356.19" y1="317.36" x2="356.19" y2="313.04"/><line class="cls-24" x1="361.14" y1="317.36" x2="361.14" y2="313.04"/><line class="cls-24" x1="361.14" y1="317.36" x2="361.14" y2="313.04"/><line class="cls-24" x1="361.14" y1="317.36" x2="361.14" y2="313.04"/><line class="cls-24" x1="361.14" y1="317.36" x2="361.14" y2="313.04"/><line class="cls-24" x1="361.14" y1="317.36" x2="361.14" y2="313.04"/><line class="cls-24" x1="366.08" y1="317.36" x2="366.08" y2="313.04"/><line class="cls-24" x1="366.08" y1="317.36" x2="366.08" y2="313.04"/><line class="cls-24" x1="366.08" y1="317.36" x2="366.08" y2="313.04"/><line class="cls-24" x1="366.08" y1="317.36" x2="366.08" y2="313.04"/><line class="cls-24" x1="366.08" y1="317.36" x2="366.08" y2="313.04"/><line class="cls-24" x1="370.41" y1="317.36" x2="370.41" y2="313.04"/><line class="cls-24" x1="370.41" y1="317.36" x2="370.41" y2="313.04"/><line class="cls-24" x1="375.35" y1="317.36" x2="375.35" y2="313.04"/><line class="cls-24" x1="379.68" y1="317.36" x2="379.68" y2="313.04"/><line class="cls-24" x1="379.68" y1="317.36" x2="379.68" y2="313.04"/><line class="cls-24" x1="379.68" y1="317.36" x2="379.68" y2="313.04"/><line class="cls-24" x1="379.68" y1="317.36" x2="379.68" y2="313.04"/><line class="cls-24" x1="384.62" y1="317.36" x2="384.62" y2="313.04"/><line class="cls-24" x1="384.62" y1="317.36" x2="384.62" y2="313.04"/><line class="cls-24" x1="384.62" y1="317.36" x2="384.62" y2="313.04"/><line class="cls-24" x1="393.9" y1="317.36" x2="393.9" y2="313.04"/><line class="cls-24" x1="393.9" y1="317.36" x2="393.9" y2="313.04"/><line class="cls-24" x1="393.9" y1="317.36" x2="393.9" y2="313.04"/><line class="cls-24" x1="398.84" y1="317.36" x2="398.84" y2="313.04"/><line class="cls-24" x1="398.84" y1="317.36" x2="398.84" y2="313.04"/><line class="cls-24" x1="398.84" y1="317.36" x2="398.84" y2="313.04"/><line class="cls-24" x1="398.84" y1="317.36" x2="398.84" y2="313.04"/><line class="cls-24" x1="398.84" y1="317.36" x2="398.84" y2="313.04"/><line class="cls-24" x1="403.17" y1="317.36" x2="403.17" y2="313.04"/><line class="cls-24" x1="408.11" y1="317.36" x2="408.11" y2="313.04"/><line class="cls-24" x1="408.11" y1="317.36" x2="408.11" y2="313.04"/><line class="cls-24" x1="413.05" y1="317.36" x2="413.05" y2="313.04"/></g><g class="cls-39"><line class="cls-25" x1="117.01" y1="317.36" x2="117.01" y2="313.04"/><line class="cls-25" x1="121.95" y1="317.36" x2="121.95" y2="313.04"/><line class="cls-25" x1="131.22" y1="317.36" x2="131.22" y2="313.04"/><line class="cls-25" x1="140.49" y1="317.36" x2="140.49" y2="313.04"/><line class="cls-25" x1="149.76" y1="317.36" x2="149.76" y2="313.04"/><line class="cls-25" x1="154.71" y1="317.36" x2="154.71" y2="313.04"/><line class="cls-25" x1="159.65" y1="317.36" x2="159.65" y2="313.04"/><line class="cls-25" x1="168.92" y1="317.36" x2="168.92" y2="313.04"/><line class="cls-25" x1="215.9" y1="317.36" x2="215.9" y2="313.04"/><line class="cls-25" x1="201.68" y1="317.36" x2="201.68" y2="313.04"/><line class="cls-25" x1="328.38" y1="317.36" x2="328.38" y2="313.04"/><line class="cls-25" x1="379.68" y1="317.36" x2="379.68" y2="313.04"/><line class="cls-25" x1="422.33" y1="317.36" x2="422.33" y2="313.04"/></g><g class="cls-39"><polyline class="cls-26" points="109.05 317.05 125.57 317.67 138.31 317.45 174.83 316.57 181.47 316.43 188.12 316.17 194.76 315.7 201.4 314.98 208.04 314.02 214.68 312.88 224.64 310.99 231.28 309.6 237.93 308.03 241.25 307.12 244.57 306.08 247.89 304.89 251.21 303.52 254.53 301.93 257.85 300.1 261.17 298.03 264.49 295.73 267.81 293.2 271.13 290.49 277.77 284.75 284.41 279.04 287.73 276.37 291.06 273.89 294.38 271.65 297.7 269.65 301.02 267.89 304.34 266.36 307.66 265.02 310.98 263.85 314.3 262.79 320.94 260.9 330.9 258.31 337.54 256.69 340.86 255.93 344.18 255.25 347.5 254.68 350.82 254.25 354.15 254.01 356.54 254 359.87 254.25 363.19 254.78 366.51 255.58 369.84 256.66 373.16 257.95 376.48 259.42 393.1 267.25 399.75 270 406.39 272.69 409.72 274.15 413.04 275.73 416.37 277.48 419.69 279.42 423.01 281.55 426.34 283.86 429.66 286.32 436.31 291.5 442.95 296.7 446.28 299.18 449.6 301.52 452.92 303.7 456.25 305.7 459.57 307.5 462.89 309.12 466.22 310.54 469.54 311.79 472.87 312.87 476.19 313.8 479.51 314.6 482.84 315.26 486.16 315.82 489.48 316.28 492.81 316.65 499.45 317.18 506.1 317.5 512.75 317.67 522.24 317.67 528.63 317.69"/></g><g class="cls-39"><line class="cls-27" x1="351.87" y1="317.36" x2="351.87" y2="253.7"/></g><g class="cls-39"><polyline class="cls-28" points="18.17 317.05 23.58 316.85 27.65 316.64 31.72 316.35 35.78 315.97 39.85 315.49 43.92 314.88 47.99 314.12 52.06 313.18 56.12 312.05 60.19 310.69 64.26 309.09 68.33 307.23 72.39 305.09 76.46 302.67 80.53 299.97 84.6 297.01 88.67 293.8 92.73 290.38 96.8 286.78 113.07 271.9 117.14 268.41 121.21 265.17 125.28 262.23 129.35 259.68 133.41 257.56 137.48 255.92 141.55 254.78 145.62 254.17 149.69 254.07 153.75 254.47 157.82 255.35 161.89 256.65 165.96 258.34 170.03 260.35 174.09 262.63 178.16 265.12 182.23 267.76 190.37 273.3 202.57 281.68 210.7 287.01 214.77 289.56 218.84 292.01 222.91 294.35 226.98 296.59 231.04 298.71 235.11 300.69 239.18 302.54 243.25 304.23 247.31 305.76 251.38 307.12 255.45 308.3 259.52 309.3 263.59 310.1 267.65 310.72 271.72 311.15 275.79 311.41 279.86 311.49 283.93 311.42 287.99 311.2 292.06 310.86 296.13 310.41 304.27 309.28 328.67 305.5 336.81 304.46 344.94 303.6 353.08 302.9 361.22 302.34 369.35 301.9 377.49 301.6 385.62 302.22 393.76 302.32 397.83 302.46 401.9 302.68 405.96 302.96 410.03 303.33 414.1 303.78 418.17 304.3 426.3 305.56 434.44 307.04 446.64 309.49 454.78 311.12 462.92 312.62 471.05 313.93 479.19 315 487.32 315.82 495.46 316.41 503.59 316.81 511.73 317.05 519.87 317.67 528.01 317.69"/></g><g class="cls-39"><line class="cls-27" x1="159.65" y1="317.36" x2="159.65" y2="255.56"/></g><line class="cls-10" x1="42.22" y1="317.67" x2="42.22" y2="230.53"/><line class="cls-10" x1="534.81" y1="317.67" x2="534.81" y2="230.53"/><line class="cls-10" x1="42.22" y1="317.67" x2="534.81" y2="317.67"/><line class="cls-10" x1="42.22" y1="230.53" x2="534.81" y2="230.53"/><text class="cls-29" transform="translate(342.41 247.23)">61</text><text class="cls-30" transform="translate(150.06 249.3)">20</text><text class="cls-31" transform="translate(56.23 243.1)">p &lt; 0.0005</text></g></g><text class="cls-40" transform="translate(324.8 45.03)"></text><text class="cls-41" transform="translate(340.5 43.19)">Wildtypes</text><text class="cls-42" transform="translate(445.69 44.87)"></text><text class="cls-41" transform="translate(461.39 43.02)">Wildtypes</text></svg>