<svg id="Layer_1" data-name="Layer 1" xmlns="http://www.w3.org/2000/svg" xmlns:xlink="http://www.w3.org/1999/xlink" viewBox="0 0 1825.87 472.19"><defs><style>.cls-1,.cls-10,.cls-14,.cls-3,.cls-7,.cls-8,.cls-9{fill:none;}.cls-2{clip-path:url(#clip-path);}.cls-10,.cls-3{stroke:#000;stroke-width:0.8px;}.cls-3,.cls-7,.cls-8,.cls-9{stroke-linejoin:round;}.cls-4{font-size:11.98px;}.cls-11,.cls-12,.cls-4,.cls-5{font-family:ArialMT, Arial;}.cls-5{font-size:15.97px;}.cls-6{clip-path:url(#clip-path-3);}.cls-7{stroke:#bf812d;}.cls-10,.cls-7,.cls-8,.cls-9{stroke-linecap:square;}.cls-7,.cls-8,.cls-9{stroke-width:5px;}.cls-13,.cls-14,.cls-7,.cls-8,.cls-9{opacity:0.8;}.cls-8{stroke:#bababa;}.cls-9{stroke:#7fbc41;}.cls-10,.cls-14{stroke-miterlimit:10;}.cls-11{font-size:18.63px;}.cls-12{font-size:19.96px;}.cls-13{fill:#fff;}.cls-14{stroke:#ccc;}.cls-15{clip-path:url(#clip-path-6);}.cls-16{clip-path:url(#clip-path-8);}.cls-17{clip-path:url(#clip-path-11);}.cls-18{clip-path:url(#clip-path-13);}.cls-19,.cls-21{font-size:24px;font-family:MyriadPro-Regular, Myriad Pro;}.cls-20{letter-spacing:-0.01em;}.cls-21{letter-spacing:0.02em;}.cls-22{letter-spacing:0em;}</style><clipPath id="clip-path" transform="translate(-56.41 -196.34)"><rect class="cls-1" x="51" y="196" width="574.8" height="479"/></clipPath><clipPath id="clip-path-3" transform="translate(-56.41 -196.34)"><rect class="cls-1" x="97.57" y="221.95" width="520.91" height="411.14"/></clipPath><clipPath id="clip-path-6" transform="translate(-56.41 -196.34)"><rect class="cls-1" x="680.4" y="196" width="574.8" height="479"/></clipPath><clipPath id="clip-path-8" transform="translate(-56.41 -196.34)"><rect class="cls-1" x="726.97" y="221.95" width="520.91" height="411.14"/></clipPath><clipPath id="clip-path-11" transform="translate(-56.41 -196.34)"><rect class="cls-1" x="1314.8" y="196" width="574.8" height="479"/></clipPath><clipPath id="clip-path-13" transform="translate(-56.41 -196.34)"><rect class="cls-1" x="1361.37" y="221.95" width="510.27" height="411.14"/></clipPath></defs><g class="cls-2"><g class="cls-2"><line x1="64.45" y1="436.74" x2="64.45" y2="439.41"/><line class="cls-3" x1="64.78" y1="436.74" x2="64.78" y2="439.41"/><text class="cls-4" transform="translate(61.39 450.11)">0</text><line x1="156.92" y1="436.74" x2="156.92" y2="439.41"/><line class="cls-3" x1="156.59" y1="436.74" x2="156.59" y2="439.41"/><text class="cls-4" transform="translate(153.54 450.11)">1</text><line x1="248.73" y1="436.74" x2="248.73" y2="439.41"/><line class="cls-3" x1="249.06" y1="436.74" x2="249.06" y2="439.41"/><text class="cls-4" transform="translate(245.69 450.11)">2</text><line x1="341.2" y1="436.74" x2="341.2" y2="439.41"/><line class="cls-3" x1="340.87" y1="436.74" x2="340.87" y2="439.41"/><text class="cls-4" transform="translate(337.84 450.11)">3</text><line x1="433.01" y1="436.74" x2="433.01" y2="439.41"/><line class="cls-3" x1="433.34" y1="436.74" x2="433.34" y2="439.41"/><text class="cls-4" transform="translate(429.98 450.11)">4</text><line x1="525.49" y1="436.74" x2="525.49" y2="439.41"/><line class="cls-3" x1="525.15" y1="436.74" x2="525.15" y2="439.41"/><text class="cls-4" transform="translate(522.13 450.11)">5</text><text class="cls-5" transform="translate(226.03 466.77)">Survival Time (Years)</text><line x1="41.16" y1="418.12" x2="38.5" y2="418.12"/><line class="cls-3" x1="41.16" y1="418.45" x2="38.5" y2="418.45"/><text class="cls-4" transform="translate(19.72 422.46)">0.0</text><line x1="41.16" y1="343.61" x2="38.5" y2="343.61"/><line class="cls-3" x1="41.16" y1="343.27" x2="38.5" y2="343.27"/><text class="cls-4" transform="translate(19.72 347.66)">0.2</text><line x1="41.16" y1="268.43" x2="38.5" y2="268.43"/><line class="cls-3" x1="41.16" y1="268.76" x2="38.5" y2="268.76"/><text class="cls-4" transform="translate(19.72 272.86)">0.4</text><line x1="41.16" y1="193.92" x2="38.5" y2="193.92"/><line class="cls-3" x1="41.16" y1="193.59" x2="38.5" y2="193.59"/><text class="cls-4" transform="translate(19.72 198.06)">0.6</text><line x1="41.16" y1="118.74" x2="38.5" y2="118.74"/><line class="cls-3" x1="41.16" y1="119.07" x2="38.5" y2="119.07"/><text class="cls-4" transform="translate(19.72 123.26)">0.8</text><line x1="41.16" y1="44.23" x2="38.5" y2="44.23"/><line class="cls-3" x1="41.16" y1="43.9" x2="38.5" y2="43.9"/><text class="cls-4" transform="translate(19.72 48.46)">1.0</text><text class="cls-5" transform="translate(13.7 295.06) rotate(-90)">Fraction Surviving</text><g class="cls-6"><polyline class="cls-7" points="64.78 43.9 71.43 43.9 95.38 43.9 95.38 55.87 103.37 55.87 103.37 68.51 107.36 68.51 107.36 81.15 108.02 81.15 108.02 93.13 126.33 93.13 139.29 93.13 139.29 106.43 157.92 106.43 157.92 119.74 159.25 119.74 159.25 132.38 167.23 132.38 167.23 145.02 170.56 145.02 170.56 158.32 173.89 158.32 173.89 171.63 195.18 171.63 195.18 184.27 199.17 184.27 199.17 196.91 222.45 196.91 222.45 210.22 225.78 210.22 225.78 222.86 233.76 222.86 233.76 236.16 247.07 236.16 247.07 249.47 249.34 249.47 263.7 249.47 263.7 263.44 282.33 263.44 282.33 277.41 282.99 277.41 282.99 291.38 287.65 291.38 292.31 291.38 292.31 307.35 295.37 307.35 327.56 307.35 327.56 325.98 352.18 325.98 352.18 344.6 376.13 344.6 376.13 362.57 385.44 362.57 385.44 381.19 420.04 381.19 420.04 399.82 488.56 399.82 488.56 418.45"/></g><g class="cls-6"><polyline class="cls-8" points="64.78 43.9 80.08 43.9 80.08 49.22 85.4 49.22 85.4 55.21 95.29 55.21 96.05 55.21 96.05 65.85 98.71 65.85 98.71 71.17 102.7 71.17 102.7 76.5 103.11 76.5 104.03 76.5 104.03 81.82 105.36 81.82 105.36 87.81 106.03 87.81 106.03 93.79 110.69 93.79 110.69 105.1 111.35 105.1 111.35 111.09 112.68 111.09 112.68 117.08 118 117.08 118 122.4 118 122.4 118 128.39 125.99 128.39 125.99 134.38 127.32 134.38 127.32 140.36 129.31 140.36 129.31 147.02 130.64 147.02 130.64 153 133.97 153 133.97 164.98 136.63 164.98 136.63 170.97 141.29 170.97 141.29 176.95 141.95 176.95 141.95 182.94 143.95 182.94 143.95 188.93 157.25 188.93 157.25 201.57 160.58 201.57 160.58 214.87 161.91 214.87 161.91 221.53 163.91 221.53 163.91 228.18 164.57 228.18 164.57 234.83 165.9 234.83 165.9 240.82 167.23 240.82 167.23 247.47 172.11 247.47 174.55 247.47 174.55 254.79 179.87 254.79 179.87 261.44 187.86 261.44 187.86 268.1 193.84 268.1 193.84 274.75 203.16 274.75 203.16 288.72 207.15 288.72 207.15 295.37 208.48 295.37 208.48 302.69 210.48 302.69 210.48 310.01 215.13 310.01 215.13 317.33 218.46 317.33 218.46 324.64 224.45 324.64 224.45 331.96 233.1 331.96 233.1 338.62 238.42 338.62 238.42 345.93 242.41 345.93 242.41 353.25 243.74 353.25 243.74 360.57 248.4 360.57 248.4 367.89 275.67 367.89 275.67 375.21 341.01 375.21 356.39 375.21 424.03 375.21 424.03 385.85 435.34 385.85 435.34 396.5 519.83 396.5 519.83 407.14 538.46 407.14 538.46 418.45"/></g><g class="cls-6"><polyline class="cls-9" points="64.78 43.9 345.53 43.9 345.53 417.78"/></g><line class="cls-10" x1="40.83" y1="437.08" x2="40.83" y2="25.27"/><line class="cls-10" x1="562.41" y1="437.08" x2="562.41" y2="25.27"/><line class="cls-10" x1="40.83" y1="437.08" x2="562.41" y2="437.08"/><line class="cls-10" x1="40.83" y1="25.27" x2="562.41" y2="25.27"/><text class="cls-11" transform="translate(433.32 193.77)">p = 0.135</text><text class="cls-12" transform="translate(116.88 21.27)">Histological Glioblastoma (All) Predictions</text><rect class="cls-13" x="208.81" y="33.59" width="345.28" height="73.85" rx="3.19"/><rect class="cls-14" x="209.15" y="33.25" width="345.28" height="73.85" rx="3.19"/><line class="cls-7" x1="215.8" y1="45.89" x2="247.73" y2="45.89"/><text class="cls-5" transform="translate(260.33 51.46)">Predicted IDH-Mutant Astro (1.8 years)</text><line class="cls-8" x1="215.8" y1="68.51" x2="247.73" y2="68.51"/><text class="cls-5" transform="translate(260.33 74.42)">Predicted IDH-Wildtype GBM (1.1 years)</text><line class="cls-9" x1="215.8" y1="91.8" x2="247.73" y2="91.8"/><text class="cls-5" transform="translate(260.33 97.4)">Predicted Oligo (3.1 years)</text></g></g><g class="cls-15"><g class="cls-15"><line x1="693.85" y1="436.74" x2="693.85" y2="439.41"/><line class="cls-3" x1="694.18" y1="436.74" x2="694.18" y2="439.41"/><text class="cls-4" transform="translate(690.79 450.11)">0</text><line x1="775.68" y1="436.74" x2="775.68" y2="439.41"/><line class="cls-3" x1="776.01" y1="436.74" x2="776.01" y2="439.41"/><text class="cls-4" transform="translate(772.48 450.11)">1</text><line x1="857.51" y1="436.74" x2="857.51" y2="439.41"/><line class="cls-3" x1="857.17" y1="436.74" x2="857.17" y2="439.41"/><text class="cls-4" transform="translate(854.17 450.11)">2</text><line x1="939.34" y1="436.74" x2="939.34" y2="439.41"/><line class="cls-3" x1="939" y1="436.74" x2="939" y2="439.41"/><text class="cls-4" transform="translate(935.86 450.11)">3</text><line x1="1021.16" y1="436.74" x2="1021.16" y2="439.41"/><line class="cls-3" x1="1020.83" y1="436.74" x2="1020.83" y2="439.41"/><text class="cls-4" transform="translate(1017.55 450.11)">4</text><line x1="1102.33" y1="436.74" x2="1102.33" y2="439.41"/><line class="cls-3" x1="1102.66" y1="436.74" x2="1102.66" y2="439.41"/><text class="cls-4" transform="translate(1099.24 450.11)">5</text><line x1="1184.16" y1="436.74" x2="1184.16" y2="439.41"/><line class="cls-3" x1="1184.49" y1="436.74" x2="1184.49" y2="439.41"/><text class="cls-4" transform="translate(1180.92 450.11)">6</text><text class="cls-5" transform="translate(855.43 466.78)">Survival Time (Years)</text><line x1="670.56" y1="418.12" x2="667.9" y2="418.12"/><line class="cls-3" x1="670.56" y1="418.45" x2="667.9" y2="418.45"/><text class="cls-4" transform="translate(649.12 422.47)">0.0</text><line x1="670.56" y1="343.61" x2="667.9" y2="343.61"/><line class="cls-3" x1="670.56" y1="343.27" x2="667.9" y2="343.27"/><text class="cls-4" transform="translate(649.12 347.67)">0.2</text><line x1="670.56" y1="268.43" x2="667.9" y2="268.43"/><line class="cls-3" x1="670.56" y1="268.76" x2="667.9" y2="268.76"/><text class="cls-4" transform="translate(649.12 272.87)">0.4</text><line x1="670.56" y1="193.92" x2="667.9" y2="193.92"/><line class="cls-3" x1="670.56" y1="193.59" x2="667.9" y2="193.59"/><text class="cls-4" transform="translate(649.12 198.06)">0.6</text><line x1="670.56" y1="118.74" x2="667.9" y2="118.74"/><line class="cls-3" x1="670.56" y1="119.07" x2="667.9" y2="119.07"/><text class="cls-4" transform="translate(649.12 123.26)">0.8</text><line x1="670.56" y1="44.23" x2="667.9" y2="44.23"/><line class="cls-3" x1="670.56" y1="43.9" x2="667.9" y2="43.9"/><text class="cls-4" transform="translate(649.12 48.46)">1.0</text><text class="cls-5" transform="translate(643.1 295.06) rotate(-90)">Fraction Surviving</text><g class="cls-16"><polyline class="cls-7" points="694.18 43.9 707.77 43.9 714.55 43.9 721.33 43.9 728.11 43.9 728.11 62.52 734.98 62.52 762.04 62.52 762.04 104.44 768.8 104.44 802.62 104.44 802.62 127.06 814.6 127.06 814.6 149.68 816.65 149.68 857.5 149.68 891.54 149.68 925.57 149.68 941.66 149.68 941.66 188.26 946 188.26 958.3 188.26 958.3 234.17 986.92 234.17 1098.67 234.17 1098.67 295.37 1125.28 295.37 1125.28 356.58 1139.25 356.58 1139.25 418.45"/></g><g class="cls-16"><polyline class="cls-8" points="694.18 43.9 701.5 43.9 701.5 78.49 716.8 78.49 716.8 112.42 734.76 112.42 734.76 146.35 768.69 146.35 768.69 184.94 782.66 184.94 782.66 223.52 795.97 223.52 795.97 262.77 799.29 262.77 799.29 302.02 809.94 302.02 809.94 340.61 825.91 340.61 825.91 379.2 983.58 379.2 983.58 418.45"/></g><g class="cls-16"><polyline class="cls-9" points="694.18 43.9 871.05 43.9 1167.86 43.9 1167.86 417.78"/></g><line class="cls-10" x1="670.23" y1="437.08" x2="670.23" y2="25.27"/><line class="cls-10" x1="1191.81" y1="437.08" x2="1191.81" y2="25.27"/><line class="cls-10" x1="670.23" y1="437.08" x2="1191.81" y2="437.08"/><line class="cls-10" x1="670.23" y1="25.27" x2="1191.81" y2="25.27"/><text class="cls-11" transform="translate(1020.88 193.78)">p &lt; 1e-3</text><text class="cls-12" transform="translate(749.61 21.27)">Histological Astrocytoma (All) Predictions</text><rect class="cls-13" x="838.21" y="33.59" width="345.28" height="73.85" rx="3.19"/><rect class="cls-14" x="838.55" y="33.25" width="345.28" height="73.85" rx="3.19"/><line class="cls-7" x1="845.2" y1="45.89" x2="877.13" y2="45.89"/><text class="cls-5" transform="translate(889.73 51.47)">Predicted IDH-Mutant Astro (3.2 years)</text><line class="cls-8" x1="845.2" y1="68.51" x2="877.13" y2="68.51"/><text class="cls-5" transform="translate(889.73 74.43)">Predicted IDH-Wildtype GBM (1.2 years)</text><line class="cls-9" x1="845.2" y1="91.8" x2="877.13" y2="91.8"/><text class="cls-5" transform="translate(889.73 97.4)">Predicted Oligo (5.8 years)</text></g></g><g class="cls-17"><g class="cls-17"><line x1="1328.25" y1="437.41" x2="1328.25" y2="439.41"/><line class="cls-3" x1="1327.92" y1="437.41" x2="1327.92" y2="439.41"/><text class="cls-4" transform="translate(1319.71 450.35)">0.0</text><line x1="1388.79" y1="437.41" x2="1388.79" y2="439.41"/><line class="cls-3" x1="1389.12" y1="437.41" x2="1389.12" y2="439.41"/><text class="cls-4" transform="translate(1380.48 450.35)">2.5</text><line x1="1449.33" y1="437.41" x2="1449.33" y2="439.41"/><line class="cls-3" x1="1449.66" y1="437.41" x2="1449.66" y2="439.41"/><text class="cls-4" transform="translate(1441.26 450.35)">5.0</text><line x1="1510.53" y1="437.41" x2="1510.53" y2="439.41"/><line class="cls-3" x1="1510.2" y1="437.41" x2="1510.2" y2="439.41"/><text class="cls-4" transform="translate(1502.03 450.35)">7.5</text><line x1="1571.07" y1="437.41" x2="1571.07" y2="439.41"/><line class="cls-3" x1="1571.41" y1="437.41" x2="1571.41" y2="439.41"/><text class="cls-4" transform="translate(1559.47 450.35)">10.0</text><line x1="1631.61" y1="437.41" x2="1631.61" y2="439.41"/><line class="cls-3" x1="1631.95" y1="437.41" x2="1631.95" y2="439.41"/><text class="cls-4" transform="translate(1620.24 450.35)">12.5</text><line x1="1692.82" y1="437.41" x2="1692.82" y2="439.41"/><line class="cls-3" x1="1692.49" y1="437.41" x2="1692.49" y2="439.41"/><text class="cls-4" transform="translate(1681.02 450.35)">15.0</text><line x1="1753.36" y1="437.41" x2="1753.36" y2="439.41"/><line class="cls-3" x1="1753.69" y1="437.41" x2="1753.69" y2="439.41"/><text class="cls-4" transform="translate(1741.79 450.35)">17.5</text><line x1="1813.9" y1="437.41" x2="1813.9" y2="439.41"/><line class="cls-3" x1="1814.23" y1="437.41" x2="1814.23" y2="439.41"/><text class="cls-4" transform="translate(1802.57 450.35)">20.0</text><text class="cls-5" transform="translate(1484.5 467.01)">Survival Time (Years)</text><line x1="1304.96" y1="418.12" x2="1302.3" y2="418.12"/><line class="cls-3" x1="1304.96" y1="418.45" x2="1302.3" y2="418.45"/><text class="cls-4" transform="translate(1283.52 422.7)">0.0</text><line x1="1304.96" y1="343.61" x2="1302.3" y2="343.61"/><line class="cls-3" x1="1304.96" y1="343.94" x2="1302.3" y2="343.94"/><text class="cls-4" transform="translate(1283.52 347.9)">0.2</text><line x1="1304.96" y1="269.09" x2="1302.3" y2="269.09"/><line class="cls-3" x1="1304.96" y1="268.76" x2="1302.3" y2="268.76"/><text class="cls-4" transform="translate(1283.52 273.1)">0.4</text><line x1="1304.96" y1="193.92" x2="1302.3" y2="193.92"/><line class="cls-3" x1="1304.96" y1="194.25" x2="1302.3" y2="194.25"/><text class="cls-4" transform="translate(1283.52 198.3)">0.6</text><line x1="1304.96" y1="119.41" x2="1302.3" y2="119.41"/><line class="cls-3" x1="1304.96" y1="119.07" x2="1302.3" y2="119.07"/><text class="cls-4" transform="translate(1283.52 123.5)">0.8</text><line x1="1304.96" y1="44.23" x2="1302.3" y2="44.23"/><line class="cls-3" x1="1304.96" y1="44.56" x2="1302.3" y2="44.56"/><text class="cls-4" transform="translate(1283.52 48.69)">1.0</text><text class="cls-5" transform="translate(1277.5 295.3) rotate(-90)">Fraction Surviving</text><g class="cls-18"><polyline class="cls-7" points="1327.91 44.56 1339.89 44.56 1339.89 78.49 1342.55 78.49 1342.55 112.42 1345.88 112.42 1345.88 146.35 1346.54 146.35 1346.54 180.28 1360.51 180.28 1360.51 214.21 1391.11 214.21 1403.76 214.21 1403.76 255.46 1421.51 255.46 1492.9 255.46 1492.9 310.01 1555.44 310.01 1555.44 363.9 1590.7 363.9 1590.7 418.45"/></g><g class="cls-18"><polyline class="cls-8" points="1327.91 44.56 1340.26 44.56 1370.65 44.56 1458.97 44.56 1458.97 418.45"/></g><g class="cls-18"><polyline class="cls-9" points="1327.91 44.56 1340.5 44.56 1344.55 44.56 1344.55 75.83 1352.53 75.83 1352.53 107.1 1358.52 107.1 1358.52 137.7 1360.51 137.7 1360.51 168.97 1374.6 168.97 1390.69 168.97 1401.76 168.97 1401.76 210.22 1401.76 210.22 1401.76 252.13 1402.43 252.13 1402.43 294.04 1492.9 294.04 1492.9 335.29 1554.78 335.29 1554.78 376.54 1792.28 376.54 1792.28 418.45"/></g><line class="cls-10" x1="1304.63" y1="437.08" x2="1304.63" y2="25.94"/><line class="cls-10" x1="1815.56" y1="437.08" x2="1815.56" y2="25.94"/><line class="cls-10" x1="1304.63" y1="437.08" x2="1815.56" y2="437.08"/><line class="cls-10" x1="1304.63" y1="25.94" x2="1815.56" y2="25.94"/><text class="cls-11" transform="translate(1571.13 194.01)">p = 0.916</text><text class="cls-12" transform="translate(1349.82 21.51)">Histological Oligodendroglioma (All) Predictions</text><rect class="cls-13" x="1461.97" y="33.59" width="345.28" height="73.85" rx="3.19"/><rect class="cls-14" x="1462.3" y="33.92" width="345.28" height="73.85" rx="3.19"/><line class="cls-7" x1="1468.95" y1="45.89" x2="1500.89" y2="45.89"/><text class="cls-5" transform="translate(1513.47 51.7)">Predicted IDH-Mutant Astro (3.1 years)</text><line class="cls-8" x1="1468.95" y1="69.18" x2="1500.89" y2="69.18"/><text class="cls-5" transform="translate(1513.47 74.66)">Predicted IDH-Wildtype GBM (5.4 years)</text><line class="cls-9" x1="1468.95" y1="91.8" x2="1500.89" y2="91.8"/><text class="cls-5" transform="translate(1513.47 97.63)">Predicted Oligo (3.1 years)</text></g></g><text class="cls-19" transform="translate(4.8 20.09)"><tspan class="cls-20">A</tspan><tspan x="14.47" y="0">)</tspan></text><text class="cls-19" transform="translate(635.8 20.09)">B)</text><text class="cls-21" transform="translate(1251.3 20.09)">C<tspan class="cls-22" x="14.33" y="0">)</tspan></text></svg>