<svg id="Layer_1" data-name="Layer 1" xmlns="http://www.w3.org/2000/svg" xmlns:xlink="http://www.w3.org/1999/xlink" viewBox="0 0 1581.45 950.33"><defs><style>.cls-1,.cls-11,.cls-14,.cls-29,.cls-3,.cls-30,.cls-31,.cls-35,.cls-41,.cls-42,.cls-7,.cls-8{fill:none;}.cls-2{clip-path:url(#clip-path);}.cls-3,.cls-31,.cls-8{stroke:#000;}.cls-14,.cls-29,.cls-3,.cls-30,.cls-31,.cls-41,.cls-42,.cls-7{stroke-linejoin:round;}.cls-3,.cls-8{stroke-width:0.8px;}.cls-4{font-size:13.14px;}.cls-15,.cls-17,.cls-21,.cls-27,.cls-32,.cls-33,.cls-37,.cls-4,.cls-43,.cls-44,.cls-5,.cls-9{font-family:ArialMT, Arial;}.cls-5{font-size:14.23px;}.cls-6{clip-path:url(#clip-path-3);}.cls-29,.cls-30,.cls-7{stroke:#edca4a;}.cls-14,.cls-30,.cls-42,.cls-7,.cls-8{stroke-linecap:square;}.cls-14,.cls-30,.cls-42,.cls-7{stroke-width:5px;}.cls-10,.cls-11,.cls-14,.cls-7{opacity:0.8;}.cls-11,.cls-35,.cls-8{stroke-miterlimit:10;}.cls-9{font-size:17.52px;}.cls-10,.cls-34{fill:#fff;}.cls-11,.cls-35{stroke:#ccc;}.cls-12{clip-path:url(#clip-path-4);}.cls-13{clip-path:url(#clip-path-6);}.cls-14,.cls-41,.cls-42{stroke:#f87758;}.cls-15{font-size:16px;}.cls-16{clip-path:url(#clip-path-8);}.cls-17{font-size:9.85px;}.cls-18{clip-path:url(#clip-path-10);}.cls-19{clip-path:url(#clip-path-12);}.cls-20{clip-path:url(#clip-path-14);}.cls-21{font-size:15px;}.cls-22,.cls-24{font-size:24px;font-family:MyriadPro-Regular, Myriad Pro;}.cls-23{letter-spacing:-0.01em;}.cls-24{letter-spacing:0.02em;}.cls-25{letter-spacing:0em;}.cls-26{clip-path:url(#clip-path-16);}.cls-27,.cls-32,.cls-43{font-size:14px;}.cls-28{clip-path:url(#clip-path-18);}.cls-31{stroke-width:3px;stroke-dasharray:3 4.95;}.cls-32,.cls-36{fill:#edca4a;}.cls-33{font-size:16.42px;}.cls-37{font-size:10.95px;}.cls-38,.cls-43{fill:#f87758;}.cls-39{clip-path:url(#clip-path-22);}.cls-40{clip-path:url(#clip-path-26);}.cls-44{font-size:12.04px;}.cls-45{clip-path:url(#clip-path-32);}.cls-46{clip-path:url(#clip-path-38);}.cls-47{clip-path:url(#clip-path-40);}.cls-48{clip-path:url(#clip-path-45);}.cls-49{clip-path:url(#clip-path-51);}.cls-50{clip-path:url(#clip-path-57);}</style><clipPath id="clip-path" transform="translate(-96.21 -27.07)"><rect class="cls-1" x="675" y="24" width="473" height="473"/></clipPath><clipPath id="clip-path-3" transform="translate(-96.21 -27.07)"><rect class="cls-1" x="718.25" y="45.9" width="423.73" height="413.33"/></clipPath><clipPath id="clip-path-4" transform="translate(-96.21 -27.07)"><rect class="cls-1" x="1210" y="24" width="473" height="473"/></clipPath><clipPath id="clip-path-6" transform="translate(-96.21 -27.07)"><rect class="cls-1" x="1253.25" y="45.9" width="423.73" height="413.33"/></clipPath><clipPath id="clip-path-8" transform="translate(-96.21 -27.07)"><rect class="cls-1" x="675" y="509" width="473" height="473"/></clipPath><clipPath id="clip-path-10" transform="translate(-96.21 -27.07)"><rect class="cls-1" x="713.32" y="530.9" width="428.66" height="416.61"/></clipPath><clipPath id="clip-path-12" transform="translate(-96.21 -27.07)"><rect class="cls-1" x="1210" y="509" width="473" height="473"/></clipPath><clipPath id="clip-path-14" transform="translate(-96.21 -27.07)"><rect class="cls-1" x="1248.32" y="530.9" width="428.66" height="416.61"/></clipPath><clipPath id="clip-path-16" transform="translate(-96.21 -27.07)"><rect class="cls-1" x="115" y="24" width="473" height="473"/></clipPath><clipPath id="clip-path-18" transform="translate(-96.21 -27.07)"><rect class="cls-1" x="135.8" y="45.35" width="436.32" height="96.9"/></clipPath><clipPath id="clip-path-22" transform="translate(-96.21 -27.07)"><rect class="cls-1" x="135.8" y="151.56" width="436.32" height="96.9"/></clipPath><clipPath id="clip-path-26" transform="translate(-96.21 -27.07)"><rect class="cls-1" x="135.8" y="258.31" width="436.32" height="96.9"/></clipPath><clipPath id="clip-path-32" transform="translate(-96.21 -27.07)"><rect class="cls-1" x="135.8" y="364.52" width="436.32" height="96.9"/></clipPath><clipPath id="clip-path-38" transform="translate(-96.21 -27.07)"><rect class="cls-1" x="115" y="509" width="473" height="473"/></clipPath><clipPath id="clip-path-40" transform="translate(-96.21 -27.07)"><rect class="cls-1" x="135.8" y="530.35" width="436.32" height="96.9"/></clipPath><clipPath id="clip-path-45" transform="translate(-96.21 -27.07)"><rect class="cls-1" x="135.8" y="636.56" width="436.32" height="96.9"/></clipPath><clipPath id="clip-path-51" transform="translate(-96.21 -27.07)"><rect class="cls-1" x="135.8" y="743.31" width="436.32" height="96.9"/></clipPath><clipPath id="clip-path-57" transform="translate(-96.21 -27.07)"><rect class="cls-1" x="135.8" y="849.52" width="436.32" height="96.9"/></clipPath></defs><g class="cls-2"><g class="cls-2"><line x1="641.2" y1="432.16" x2="641.2" y2="434.35"/><line class="cls-3" x1="641.48" y1="432.16" x2="641.48" y2="434.35"/><text class="cls-4" transform="translate(637.75 445.51)">0</text><line x1="733.72" y1="432.16" x2="733.72" y2="434.35"/><line class="cls-3" x1="734" y1="432.16" x2="734" y2="434.35"/><text class="cls-4" transform="translate(730.28 445.51)">2</text><line x1="826.24" y1="432.16" x2="826.24" y2="434.35"/><line class="cls-3" x1="826.52" y1="432.16" x2="826.52" y2="434.35"/><text class="cls-4" transform="translate(822.82 445.51)">4</text><line x1="918.76" y1="432.16" x2="918.76" y2="434.35"/><line class="cls-3" x1="919.04" y1="432.16" x2="919.04" y2="434.35"/><text class="cls-4" transform="translate(915.36 445.51)">6</text><line x1="1011.28" y1="432.16" x2="1011.28" y2="434.35"/><line class="cls-3" x1="1011.56" y1="432.16" x2="1011.56" y2="434.35"/><text class="cls-4" transform="translate(1007.89 445.51)">8</text><text class="cls-5" transform="translate(766.64 460.67)">Survival Time (Years)</text><line x1="622.04" y1="413.54" x2="620.4" y2="413.54"/><line class="cls-3" x1="622.04" y1="413.27" x2="620.4" y2="413.27"/><text class="cls-4" transform="translate(600.04 418.18)">0.0</text><line x1="622.04" y1="338.54" x2="620.4" y2="338.54"/><line class="cls-3" x1="622.04" y1="338.27" x2="620.4" y2="338.27"/><text class="cls-4" transform="translate(600.04 342.99)">0.2</text><line x1="622.04" y1="262.99" x2="620.4" y2="262.99"/><line class="cls-3" x1="622.04" y1="263.27" x2="620.4" y2="263.27"/><text class="cls-4" transform="translate(600.04 267.79)">0.4</text><line x1="622.04" y1="187.99" x2="620.4" y2="187.99"/><line class="cls-3" x1="622.04" y1="187.72" x2="620.4" y2="187.72"/><text class="cls-4" transform="translate(600.04 192.6)">0.6</text><line x1="622.04" y1="112.44" x2="620.4" y2="112.44"/><line class="cls-3" x1="622.04" y1="112.72" x2="620.4" y2="112.72"/><text class="cls-4" transform="translate(600.04 117.41)">0.8</text><line x1="622.04" y1="37.44" x2="620.4" y2="37.44"/><line class="cls-3" x1="622.04" y1="37.72" x2="620.4" y2="37.72"/><text class="cls-4" transform="translate(600.04 42.22)">1.0</text><text class="cls-5" transform="translate(594.86 282.47) rotate(-90)">Fraction Surviving</text><g class="cls-6"><polyline class="cls-7" points="641.48 37.72 666.18 37.72 667.21 37.72 667.21 66.73 673.78 66.73 673.78 95.2 704.43 95.2 704.43 124.22 709.91 124.22 709.91 153.23 736.19 153.23 736.19 182.25 741.9 182.25 772.12 182.25 836.37 182.25 836.37 220.57 959.55 220.57 959.55 258.89 980.9 258.89 980.9 297.76 986.92 297.76 986.92 336.63 995.13 336.63 995.13 374.95 1026.88 374.95 1026.88 413.27"/></g><line class="cls-8" x1="622.32" y1="432.43" x2="622.32" y2="18.56"/><line class="cls-8" x1="1046.05" y1="432.43" x2="1046.05" y2="18.56"/><line class="cls-8" x1="622.32" y1="432.43" x2="1046.05" y2="432.43"/><line class="cls-8" x1="622.32" y1="18.56" x2="1046.05" y2="18.56"/><text class="cls-9" transform="translate(696.87 15.03)">TCGA Validation (High Confidence)</text><rect class="cls-10" x="811.46" y="25.4" width="227.74" height="22.99" rx="2.63"/><rect class="cls-11" x="811.74" y="25.13" width="227.74" height="22.99" rx="2.63"/><line class="cls-7" x1="816.66" y1="35.53" x2="842.94" y2="35.53"/><text class="cls-4" transform="translate(853.7 40.11)">Correct IDH-Mutant (6.9 years)</text></g></g><g class="cls-12"><g class="cls-12"><line x1="1157.04" y1="432.16" x2="1157.04" y2="434.35"/><line class="cls-3" x1="1157.32" y1="432.16" x2="1157.32" y2="434.35"/><text class="cls-4" transform="translate(1148.01 445.51)">0.0</text><line x1="1212.88" y1="432.16" x2="1212.88" y2="434.35"/><line class="cls-3" x1="1213.16" y1="432.16" x2="1213.16" y2="434.35"/><text class="cls-4" transform="translate(1203.76 445.51)">2.5</text><line x1="1268.72" y1="432.16" x2="1268.72" y2="434.35"/><line class="cls-3" x1="1268.45" y1="432.16" x2="1268.45" y2="434.35"/><text class="cls-4" transform="translate(1259.52 445.51)">5.0</text><line x1="1324.56" y1="432.16" x2="1324.56" y2="434.35"/><line class="cls-3" x1="1324.29" y1="432.16" x2="1324.29" y2="434.35"/><text class="cls-4" transform="translate(1315.27 445.51)">7.5</text><line x1="1380.4" y1="432.16" x2="1380.4" y2="434.35"/><line class="cls-3" x1="1380.13" y1="432.16" x2="1380.13" y2="434.35"/><text class="cls-4" transform="translate(1367.38 445.51)">10.0</text><line x1="1435.7" y1="432.16" x2="1435.7" y2="434.35"/><line class="cls-3" x1="1435.97" y1="432.16" x2="1435.97" y2="434.35"/><text class="cls-4" transform="translate(1423.13 445.51)">12.5</text><line x1="1491.54" y1="432.16" x2="1491.54" y2="434.35"/><line class="cls-3" x1="1491.81" y1="432.16" x2="1491.81" y2="434.35"/><text class="cls-4" transform="translate(1478.89 445.51)">15.0</text><line x1="1547.38" y1="432.16" x2="1547.38" y2="434.35"/><line class="cls-3" x1="1547.65" y1="432.16" x2="1547.65" y2="434.35"/><text class="cls-4" transform="translate(1534.64 445.51)">17.5</text><text class="cls-5" transform="translate(1301.64 460.67)">Survival Time (Years)</text><line x1="1157.04" y1="432.16" x2="1155.4" y2="432.16"/><line class="cls-3" x1="1157.04" y1="432.43" x2="1155.4" y2="432.43"/><text class="cls-4" transform="translate(1135.04 436.97)">0.0</text><line x1="1157.04" y1="357.16" x2="1155.4" y2="357.16"/><line class="cls-3" x1="1157.04" y1="356.88" x2="1155.4" y2="356.88"/><text class="cls-4" transform="translate(1135.04 361.78)">0.2</text><line x1="1157.04" y1="282.16" x2="1155.4" y2="282.16"/><line class="cls-3" x1="1157.04" y1="281.88" x2="1155.4" y2="281.88"/><text class="cls-4" transform="translate(1135.04 286.59)">0.4</text><line x1="1157.04" y1="206.61" x2="1155.4" y2="206.61"/><line class="cls-3" x1="1157.04" y1="206.88" x2="1155.4" y2="206.88"/><text class="cls-4" transform="translate(1135.04 211.4)">0.6</text><line x1="1157.04" y1="131.61" x2="1155.4" y2="131.61"/><line class="cls-3" x1="1157.04" y1="131.33" x2="1155.4" y2="131.33"/><text class="cls-4" transform="translate(1135.04 136.21)">0.8</text><line x1="1157.04" y1="56.06" x2="1155.4" y2="56.06"/><line class="cls-3" x1="1157.04" y1="56.33" x2="1155.4" y2="56.33"/><text class="cls-4" transform="translate(1135.04 61.02)">1.0</text><text class="cls-5" transform="translate(1129.86 282.47) rotate(-90)">Fraction Surviving</text><g class="cls-13"><polyline class="cls-7" points="1157.32 56.33 1158.81 56.33 1158.86 56.33 1159.9 56.33 1160.33 56.33 1160.46 56.33 1163.13 56.33 1163.38 56.33 1164.79 56.33 1165.7 56.33 1166.8 56.33 1168.34 56.33 1168.64 56.33 1168.77 56.33 1169.31 56.33 1169.81 56.33 1172.06 56.33 1172.61 56.33 1172.99 56.33 1175.66 56.33 1181.68 56.33 1184.66 56.33 1186.14 56.33 1189.12 56.33 1190.6 56.33 1192.28 56.33 1192.65 56.33 1194.88 56.33 1195.44 56.33 1203.8 56.33 1206.4 56.33 1207.89 56.33 1213.09 56.33 1221.83 56.33 1236.7 56.33 1256.95 56.33 1256.95 97.94 1272.68 97.94 1280.91 97.94 1281.29 97.94 1285.97 97.94 1285.97 164.73 1308.62 164.73 1313.67 164.73 1345.5 164.73 1443.09 164.73"/></g><g class="cls-13"><polyline class="cls-14" points="1157.32 56.33 1158.61 56.33 1176.4 56.33 1224.11 56.33 1268.86 56.33 1341.26 56.33 1341.26 244.11 1524.66 244.11"/></g><line class="cls-8" x1="1157.32" y1="432.43" x2="1157.32" y2="18.56"/><line class="cls-8" x1="1581.05" y1="432.43" x2="1581.05" y2="18.56"/><line class="cls-8" x1="1157.32" y1="432.43" x2="1581.05" y2="432.43"/><line class="cls-8" x1="1157.32" y1="18.56" x2="1581.05" y2="18.56"/><text class="cls-15" transform="translate(1380.16 319.48)">p = 0.964</text><text class="cls-9" transform="translate(1201.68 15.03)">Jonsson et al. Validation (High Confidence)</text><rect class="cls-10" x="1338.25" y="25.4" width="235.95" height="41.61" rx="2.63"/><rect class="cls-11" x="1338.52" y="25.13" width="235.95" height="41.61" rx="2.63"/><line class="cls-7" x1="1344" y1="35.53" x2="1370.28" y2="35.53"/><text class="cls-4" transform="translate(1380.66 40.11)">Correct IDH-Mutant (inf years)</text><line class="cls-14" x1="1344" y1="54.14" x2="1370.28" y2="54.14"/><text class="cls-4" transform="translate(1380.66 59)">Incorrect IDH-Mutant (8.3 years)</text></g></g><g class="cls-16"><g class="cls-16"><line x1="636.28" y1="920.99" x2="636.28" y2="922.63"/><line class="cls-3" x1="636.55" y1="920.99" x2="636.55" y2="922.63"/><text class="cls-17" transform="translate(633.76 931.65)">0</text><line x1="729.89" y1="920.99" x2="729.89" y2="922.63"/><line class="cls-3" x1="730.17" y1="920.99" x2="730.17" y2="922.63"/><text class="cls-17" transform="translate(727.42 931.65)">2</text><line x1="824.05" y1="920.99" x2="824.05" y2="922.63"/><line class="cls-3" x1="823.78" y1="920.99" x2="823.78" y2="922.63"/><text class="cls-17" transform="translate(821.07 931.65)">4</text><line x1="917.67" y1="920.99" x2="917.67" y2="922.63"/><line class="cls-3" x1="917.39" y1="920.99" x2="917.39" y2="922.63"/><text class="cls-17" transform="translate(914.73 931.65)">6</text><line x1="1011.28" y1="920.99" x2="1011.28" y2="922.63"/><line class="cls-3" x1="1011.01" y1="920.99" x2="1011.01" y2="922.63"/><text class="cls-17" transform="translate(1008.39 931.65)">8</text><text class="cls-4" transform="translate(769.24 945.35)">Survival Time (Years)</text><line x1="617.12" y1="901.83" x2="614.93" y2="901.83"/><line class="cls-3" x1="617.12" y1="901.56" x2="614.93" y2="901.56"/><text class="cls-17" transform="translate(599.47 905.34)">0.0</text><line x1="617.12" y1="826.28" x2="614.93" y2="826.28"/><line class="cls-3" x1="617.12" y1="826.01" x2="614.93" y2="826.01"/><text class="cls-17" transform="translate(599.47 829.55)">0.2</text><line x1="617.12" y1="750.18" x2="614.93" y2="750.18"/><line class="cls-3" x1="617.12" y1="750.46" x2="614.93" y2="750.46"/><text class="cls-17" transform="translate(599.47 753.76)">0.4</text><line x1="617.12" y1="674.64" x2="614.93" y2="674.64"/><line class="cls-3" x1="617.12" y1="674.36" x2="614.93" y2="674.36"/><text class="cls-17" transform="translate(599.47 677.97)">0.6</text><line x1="617.12" y1="598.54" x2="614.93" y2="598.54"/><line class="cls-3" x1="617.12" y1="598.81" x2="614.93" y2="598.81"/><text class="cls-17" transform="translate(599.47 602.19)">0.8</text><line x1="617.12" y1="522.99" x2="614.93" y2="522.99"/><line class="cls-3" x1="617.12" y1="522.72" x2="614.93" y2="522.72"/><text class="cls-17" transform="translate(599.47 526.4)">1.0</text><text class="cls-4" transform="translate(594.52 764.91) rotate(-90)">Fraction Surviving</text><g class="cls-18"><polyline class="cls-7" points="636.55 522.72 661.25 522.72 662.28 522.72 662.28 547.9 668.85 547.9 668.85 573.08 700.6 573.08 700.6 598.81 706.08 598.81 706.08 624 732.36 624 732.36 649.18 737.93 649.18 768.58 649.18 774.51 649.18 774.51 680.93 787.65 680.93 787.65 712.14 833.63 712.14 833.63 743.89 958.45 743.89 958.45 775.64 980.35 775.64 980.35 806.85 986.37 806.85 986.37 838.6 994.04 838.6 994.04 870.35 1026.34 870.35 1026.34 901.55"/></g><g class="cls-18"><polyline class="cls-14" points="636.55 522.72 685.82 522.72 685.82 901.55"/></g><line class="cls-8" x1="616.84" y1="920.72" x2="616.84" y2="504.1"/><line class="cls-8" x1="1046.05" y1="920.72" x2="1046.05" y2="504.1"/><line class="cls-8" x1="616.84" y1="920.72" x2="1046.05" y2="920.72"/><line class="cls-8" x1="616.84" y1="504.1" x2="1046.05" y2="504.1"/><text class="cls-15" transform="translate(917.47 674.45)">p = 0.065</text><text class="cls-9" transform="translate(703.57 500.24)">TCGA Validation (All Predictions)</text><rect class="cls-10" x="803.25" y="510.4" width="235.95" height="41.61" rx="2.63"/><rect class="cls-11" x="803.52" y="510.67" width="235.95" height="41.61" rx="2.63"/><line class="cls-7" x1="809" y1="520.53" x2="835.28" y2="520.53"/><text class="cls-4" transform="translate(845.66 525.31)">Correct IDH-Mutant (4.2 years)</text><line class="cls-14" x1="809" y1="539.69" x2="835.28" y2="539.69"/><text class="cls-4" transform="translate(845.66 544.21)">Incorrect IDH-Mutant (1.1 years)</text></g></g><g class="cls-19"><g class="cls-19"><line x1="1152.12" y1="920.44" x2="1152.12" y2="922.08"/><line class="cls-3" x1="1151.84" y1="920.44" x2="1151.84" y2="922.08"/><text class="cls-17" transform="translate(1145.15 931.17)">0.0</text><line x1="1208.5" y1="920.44" x2="1208.5" y2="922.08"/><line class="cls-3" x1="1208.23" y1="920.44" x2="1208.23" y2="922.08"/><text class="cls-17" transform="translate(1201.59 931.17)">2.5</text><line x1="1264.89" y1="920.44" x2="1264.89" y2="922.08"/><line class="cls-3" x1="1264.62" y1="920.44" x2="1264.62" y2="922.08"/><text class="cls-17" transform="translate(1258.02 931.17)">5.0</text><line x1="1321.28" y1="920.44" x2="1321.28" y2="922.08"/><line class="cls-3" x1="1321.55" y1="920.44" x2="1321.55" y2="922.08"/><text class="cls-17" transform="translate(1314.45 931.17)">7.5</text><line x1="1377.67" y1="920.44" x2="1377.67" y2="922.08"/><line class="cls-3" x1="1377.94" y1="920.44" x2="1377.94" y2="922.08"/><text class="cls-17" transform="translate(1368.14 931.17)">10.0</text><line x1="1434.05" y1="920.44" x2="1434.05" y2="922.08"/><line class="cls-3" x1="1434.33" y1="920.44" x2="1434.33" y2="922.08"/><text class="cls-17" transform="translate(1424.57 931.17)">12.5</text><line x1="1490.44" y1="920.44" x2="1490.44" y2="922.08"/><line class="cls-3" x1="1490.72" y1="920.44" x2="1490.72" y2="922.08"/><text class="cls-17" transform="translate(1481 931.17)">15.0</text><line x1="1546.83" y1="920.44" x2="1546.83" y2="922.08"/><line class="cls-3" x1="1547.1" y1="920.44" x2="1547.1" y2="922.08"/><text class="cls-17" transform="translate(1537.43 931.17)">17.5</text><text class="cls-4" transform="translate(1304.24 944.88)">Survival Time (Years)</text><line x1="1152.12" y1="920.44" x2="1149.93" y2="920.44"/><line class="cls-3" x1="1152.12" y1="920.17" x2="1149.93" y2="920.17"/><text class="cls-17" transform="translate(1134.47 923.81)">0.0</text><line x1="1152.12" y1="844.35" x2="1149.93" y2="844.35"/><line class="cls-3" x1="1152.12" y1="844.62" x2="1149.93" y2="844.62"/><text class="cls-17" transform="translate(1134.47 848.02)">0.2</text><line x1="1152.12" y1="768.8" x2="1149.93" y2="768.8"/><line class="cls-3" x1="1152.12" y1="768.52" x2="1149.93" y2="768.52"/><text class="cls-17" transform="translate(1134.47 772.24)">0.4</text><line x1="1152.12" y1="692.7" x2="1149.93" y2="692.7"/><line class="cls-3" x1="1152.12" y1="692.98" x2="1149.93" y2="692.98"/><text class="cls-17" transform="translate(1134.47 696.45)">0.6</text><line x1="1152.12" y1="617.15" x2="1149.93" y2="617.15"/><line class="cls-3" x1="1152.12" y1="616.88" x2="1149.93" y2="616.88"/><text class="cls-17" transform="translate(1134.47 620.66)">0.8</text><line x1="1152.12" y1="541.6" x2="1149.93" y2="541.6"/><line class="cls-3" x1="1152.12" y1="541.33" x2="1149.93" y2="541.33"/><text class="cls-17" transform="translate(1134.47 544.87)">1.0</text><text class="cls-4" transform="translate(1129.52 764.44) rotate(-90)">Fraction Surviving</text><g class="cls-20"><polyline class="cls-7" points="1151.84 541.33 1154.26 541.33 1154.32 541.33 1155.37 541.33 1155.8 541.33 1155.93 541.33 1158.63 541.33 1158.87 541.33 1159.49 541.33 1160.29 541.33 1161.21 541.33 1162.07 541.33 1162.31 541.33 1163.87 541.33 1164.17 541.33 1164.3 541.33 1164.84 541.33 1165.35 541.33 1167.61 541.33 1168.17 541.33 1168.55 541.33 1171.24 541.33 1177.31 541.33 1180.3 541.33 1181.8 541.33 1184.8 541.33 1186.29 541.33 1187.98 541.33 1188.35 541.33 1190.6 541.33 1191.16 541.33 1199.58 541.33 1202.2 541.33 1203.7 541.33 1208.94 541.33 1217.74 541.33 1232.72 541.33 1253.12 541.33 1253.12 570.35 1268.85 570.35 1271.65 570.35 1277.08 570.35 1277.46 570.35 1282.14 570.35 1282.14 614.14 1285.42 614.14 1285.42 657.94 1304.93 657.94 1310.01 657.94 1341.99 657.94 1377.73 657.94 1441.44 657.94"/></g><g class="cls-20"><polyline class="cls-14" points="1152.39 541.33 1153.52 541.33 1171.53 541.33 1177.74 541.33 1196.73 541.33 1219.86 541.33 1223.81 541.33 1265.18 541.33 1293.77 541.33 1338.52 541.33 1338.52 730.75 1524.66 730.75"/></g><line class="cls-8" x1="1151.84" y1="920.17" x2="1151.84" y2="503.56"/><line class="cls-8" x1="1581.05" y1="920.17" x2="1581.05" y2="503.56"/><line class="cls-8" x1="1151.84" y1="920.17" x2="1581.05" y2="920.17"/><line class="cls-8" x1="1151.84" y1="503.56" x2="1581.05" y2="503.56"/><text class="cls-21" transform="translate(1377.73 806.6)">p = 0.875</text><text class="cls-9" transform="translate(1208.38 499.77)">Jonsson et al. Validation (All Predictions)</text><rect class="cls-10" x="1338.25" y="509.85" width="235.95" height="41.61" rx="2.63"/><rect class="cls-11" x="1338.52" y="510.13" width="235.95" height="41.61" rx="2.63"/><line class="cls-7" x1="1344" y1="519.98" x2="1370.28" y2="519.98"/><text class="cls-4" transform="translate(1380.66 524.84)">Correct IDH-Mutant (inf years)</text><line class="cls-14" x1="1344" y1="539.14" x2="1370.28" y2="539.14"/><text class="cls-4" transform="translate(1380.66 543.74)">Incorrect IDH-Mutant (8.3 years)</text></g></g><text class="cls-22" transform="translate(0 25.36)"><tspan class="cls-23">A</tspan><tspan x="14.47" y="0">)</tspan></text><text class="cls-22" transform="translate(575 25.36)">B)</text><text class="cls-24" transform="translate(1120.5 25.36)">C<tspan class="cls-25" x="14.33" y="0">)</tspan></text><text class="cls-22" transform="translate(0 502.36)"><tspan class="cls-23">A</tspan><tspan x="14.47" y="0">)</tspan></text><text class="cls-22" transform="translate(575 502.36)">B)</text><text class="cls-24" transform="translate(1120.5 502.36)">C<tspan class="cls-25" x="14.33" y="0">)</tspan></text><g class="cls-26"><g class="cls-26"><line x1="60.4" y1="115.18" x2="60.4" y2="116.82"/><line class="cls-3" x1="60.13" y1="115.18" x2="60.13" y2="116.82"/><line x1="143.61" y1="115.18" x2="143.61" y2="116.82"/><line class="cls-3" x1="143.34" y1="115.18" x2="143.34" y2="116.82"/><line x1="226.28" y1="115.18" x2="226.28" y2="116.82"/><line class="cls-3" x1="226.55" y1="115.18" x2="226.55" y2="116.82"/><line x1="309.49" y1="115.18" x2="309.49" y2="116.82"/><line class="cls-3" x1="309.77" y1="115.18" x2="309.77" y2="116.82"/><line x1="392.71" y1="115.18" x2="392.71" y2="116.82"/><line class="cls-3" x1="392.98" y1="115.18" x2="392.98" y2="116.82"/><line x1="475.92" y1="115.18" x2="475.92" y2="116.82"/><line class="cls-3" x1="475.64" y1="115.18" x2="475.64" y2="116.82"/><text class="cls-27" transform="translate(34.69 93.9) rotate(-90)">TCGA Val</text><g class="cls-28"><line class="cls-29" x1="164.14" y1="115.18" x2="164.14" y2="110.26"/><line class="cls-29" x1="172.36" y1="115.18" x2="172.36" y2="110.26"/><line class="cls-29" x1="176.73" y1="115.18" x2="176.73" y2="110.26"/><line class="cls-29" x1="176.73" y1="115.18" x2="176.73" y2="110.26"/><line class="cls-29" x1="213.96" y1="115.18" x2="213.96" y2="110.26"/><line class="cls-29" x1="218.34" y1="115.18" x2="218.34" y2="110.26"/><line class="cls-29" x1="176.73" y1="115.18" x2="176.73" y2="110.26"/><line class="cls-29" x1="247.36" y1="115.18" x2="247.36" y2="110.26"/><line class="cls-29" x1="284.58" y1="115.18" x2="284.58" y2="110.26"/><line class="cls-29" x1="189.33" y1="115.18" x2="189.33" y2="110.26"/><line class="cls-29" x1="147.72" y1="115.18" x2="147.72" y2="110.26"/><line class="cls-29" x1="284.58" y1="115.18" x2="284.58" y2="110.26"/><line class="cls-29" x1="276.37" y1="115.18" x2="276.37" y2="110.26"/><line class="cls-29" x1="210.13" y1="115.18" x2="210.13" y2="110.26"/></g><g class="cls-28"><polyline class="cls-30" points="60.13 114.91 67.52 114.87 72.43 114.75 77.34 114.55 82.25 114.22 87.16 113.75 92.08 113.09 94.53 112.67 96.99 112.18 99.44 111.61 101.9 110.96 104.35 110.22 106.81 109.38 109.27 108.44 111.72 107.38 114.18 106.21 116.63 104.91 119.09 103.5 121.55 101.96 124 100.29 126.46 98.51 128.91 96.61 131.37 94.6 133.83 92.49 138.74 88.03 146.1 81 151.02 76.32 155.93 71.87 158.38 69.79 160.84 67.84 163.3 66.03 165.75 64.39 168.21 62.93 170.66 61.67 173.12 60.61 175.58 59.76 178.03 59.13 180.49 58.72 182.94 58.52 185.4 58.53 187.86 58.74 190.31 59.13 192.77 59.7 195.22 60.43 197.68 61.3 200.14 62.3 202.59 63.4 205.05 64.59 209.96 67.17 224.69 75.22 229.61 77.61 232.06 78.69 234.52 79.7 236.97 80.62 239.43 81.46 241.89 82.2 244.34 82.86 246.8 83.43 249.25 83.92 254.17 84.71 259.08 85.31 268.9 86.39 273.81 87.1 276.27 87.55 278.73 88.07 281.18 88.66 283.64 89.34 286.09 90.11 288.55 90.96 291.01 91.89 293.46 92.89 298.37 95.09 303.29 97.47 315.56 103.54 320.48 105.75 325.39 107.74 327.85 108.64 330.3 109.47 332.76 110.22 335.21 110.9 337.67 111.52 340.13 112.06 345.04 112.97 349.95 113.65 354.86 114.14 359.77 114.49 364.68 114.72 372.05 114.89"/></g><g class="cls-28"><line class="cls-31" x1="199.73" y1="115.18" x2="199.73" y2="60.44"/></g><g class="cls-28"><path class="cls-31" d="M115,497" transform="translate(-96.21 -27.07)"/></g><line class="cls-8" x1="39.32" y1="114.91" x2="39.32" y2="18.01"/><line class="cls-8" x1="475.64" y1="114.91" x2="475.64" y2="18.01"/><line class="cls-8" x1="39.32" y1="114.91" x2="475.64" y2="114.91"/><line class="cls-8" x1="39.32" y1="18.01" x2="475.64" y2="18.01"/><text class="cls-32" transform="translate(191.17 55.19)">33.5</text><text class="cls-33" transform="translate(131.18 14.89)">Age Distribution (High Confidence)</text><rect class="cls-34" x="75.73" y="21.02" width="364.06" height="18.61" rx="2.19"/><rect class="cls-35" x="75.46" y="20.75" width="364.06" height="18.61" rx="2.19"/><rect class="cls-36" x="80.11" y="25.4" width="21.9" height="7.66"/><text class="cls-37" transform="translate(110.72 33.12)">Correct IDH-Mutant Astro</text><rect class="cls-38" x="255.29" y="25.4" width="21.9" height="7.66"/><text class="cls-37" transform="translate(286.18 33.12)">Misclassified IDH-Mutant Astro</text><line x1="60.4" y1="221.39" x2="60.4" y2="223.58"/><line class="cls-3" x1="60.13" y1="221.39" x2="60.13" y2="223.58"/><line x1="143.61" y1="221.39" x2="143.61" y2="223.58"/><line class="cls-3" x1="143.34" y1="221.39" x2="143.34" y2="223.58"/><line x1="226.28" y1="221.39" x2="226.28" y2="223.58"/><line class="cls-3" x1="226.55" y1="221.39" x2="226.55" y2="223.58"/><line x1="309.49" y1="221.39" x2="309.49" y2="223.58"/><line class="cls-3" x1="309.77" y1="221.39" x2="309.77" y2="223.58"/><line x1="392.71" y1="221.39" x2="392.71" y2="223.58"/><line class="cls-3" x1="392.98" y1="221.39" x2="392.98" y2="223.58"/><line x1="475.92" y1="221.39" x2="475.92" y2="223.58"/><line class="cls-3" x1="475.64" y1="221.39" x2="475.64" y2="223.58"/><text class="cls-27" transform="translate(34.69 195.01) rotate(-90)">GLASS</text><g class="cls-39"><line class="cls-29" x1="251.19" y1="221.39" x2="251.19" y2="216.46"/><line class="cls-29" x1="176.73" y1="221.39" x2="176.73" y2="216.46"/><line class="cls-29" x1="168.52" y1="221.39" x2="168.52" y2="216.46"/><line class="cls-29" x1="151.55" y1="221.39" x2="151.55" y2="216.46"/><line class="cls-29" x1="222.17" y1="221.39" x2="222.17" y2="216.46"/><line class="cls-29" x1="151.55" y1="221.39" x2="151.55" y2="216.46"/><line class="cls-29" x1="184.95" y1="221.39" x2="184.95" y2="216.46"/><line class="cls-29" x1="242.98" y1="221.39" x2="242.98" y2="216.46"/><line class="cls-29" x1="176.73" y1="221.39" x2="176.73" y2="216.46"/><line class="cls-29" x1="226.55" y1="221.39" x2="226.55" y2="216.46"/><line class="cls-29" x1="197.54" y1="221.39" x2="197.54" y2="216.46"/><line class="cls-29" x1="164.14" y1="221.39" x2="164.14" y2="216.46"/><line class="cls-29" x1="147.72" y1="221.39" x2="147.72" y2="216.46"/><line class="cls-29" x1="189.33" y1="221.39" x2="189.33" y2="216.46"/><line class="cls-29" x1="271.99" y1="221.39" x2="271.99" y2="216.46"/><line class="cls-29" x1="230.39" y1="221.39" x2="230.39" y2="216.46"/><line class="cls-29" x1="184.95" y1="221.39" x2="184.95" y2="216.46"/><line class="cls-29" x1="159.76" y1="221.39" x2="159.76" y2="216.46"/><line class="cls-29" x1="205.75" y1="221.39" x2="205.75" y2="216.46"/><line class="cls-29" x1="172.36" y1="221.39" x2="172.36" y2="216.46"/><line class="cls-29" x1="263.78" y1="221.39" x2="263.78" y2="216.46"/><line class="cls-29" x1="172.36" y1="221.39" x2="172.36" y2="216.46"/><line class="cls-29" x1="201.37" y1="221.39" x2="201.37" y2="216.46"/><line class="cls-29" x1="159.76" y1="221.39" x2="159.76" y2="216.46"/><line class="cls-29" x1="201.37" y1="221.39" x2="201.37" y2="216.46"/><line class="cls-29" x1="218.34" y1="221.39" x2="218.34" y2="216.46"/><line class="cls-29" x1="292.8" y1="221.39" x2="292.8" y2="216.46"/><line class="cls-29" x1="184.95" y1="221.39" x2="184.95" y2="216.46"/><line class="cls-29" x1="276.37" y1="221.39" x2="276.37" y2="216.46"/><line class="cls-29" x1="218.34" y1="221.39" x2="218.34" y2="216.46"/><line class="cls-29" x1="172.36" y1="221.39" x2="172.36" y2="216.46"/><line class="cls-29" x1="155.93" y1="221.39" x2="155.93" y2="216.46"/><line class="cls-29" x1="205.75" y1="221.39" x2="205.75" y2="216.46"/><line class="cls-29" x1="226.55" y1="221.39" x2="226.55" y2="216.46"/><line class="cls-29" x1="259.95" y1="221.39" x2="259.95" y2="216.46"/><line class="cls-29" x1="138.96" y1="221.39" x2="138.96" y2="216.46"/><line class="cls-29" x1="176.73" y1="221.39" x2="176.73" y2="216.46"/><line class="cls-29" x1="226.55" y1="221.39" x2="226.55" y2="216.46"/><line class="cls-29" x1="180.57" y1="221.39" x2="180.57" y2="216.46"/><line class="cls-29" x1="184.95" y1="221.39" x2="184.95" y2="216.46"/><line class="cls-29" x1="317.98" y1="221.39" x2="317.98" y2="216.46"/><line class="cls-29" x1="213.96" y1="221.39" x2="213.96" y2="216.46"/><line class="cls-29" x1="197.54" y1="221.39" x2="197.54" y2="216.46"/><line class="cls-29" x1="184.95" y1="221.39" x2="184.95" y2="216.46"/><line class="cls-29" x1="259.95" y1="221.39" x2="259.95" y2="216.46"/><line class="cls-29" x1="184.95" y1="221.39" x2="184.95" y2="216.46"/><line class="cls-29" x1="193.16" y1="221.39" x2="193.16" y2="216.46"/><line class="cls-29" x1="184.95" y1="221.39" x2="184.95" y2="216.46"/><line class="cls-29" x1="176.73" y1="221.39" x2="176.73" y2="216.46"/></g><g class="cls-39"><polyline class="cls-30" points="85.31 221.66 92.07 221.66 96.58 221.2 101.09 220.87 103.35 220.62 105.6 220.31 107.86 219.91 110.12 219.41 112.37 218.79 114.63 218.05 116.89 217.15 119.14 216.08 121.4 214.83 123.65 213.38 125.91 211.73 128.17 209.86 130.42 207.78 132.68 205.47 134.94 202.95 137.19 200.22 139.45 197.29 141.7 194.18 143.96 190.9 146.22 187.48 150.73 180.3 159.75 165.55 162.01 162.02 164.26 158.66 166.52 155.52 168.78 152.66 171.03 150.13 173.29 147.98 175.55 146.25 177.8 144.98 180.06 144.19 182.31 143.87 184.57 144.03 186.83 144.65 189.08 145.67 191.34 147.07 193.59 148.78 195.85 150.74 198.11 152.88 202.62 157.52 209.39 164.64 213.9 169.16 218.41 173.44 222.93 177.46 227.44 181.24 229.69 183.02 231.95 184.73 234.21 186.35 236.46 187.86 238.72 189.26 240.97 190.54 243.23 191.7 245.49 192.74 247.74 193.66 250 194.48 254.51 195.9 263.54 198.51 268.05 200.03 272.56 201.78 277.07 203.74 288.36 208.83 292.87 210.63 295.12 211.43 297.38 212.17 299.64 212.84 304.15 214 308.66 214.96 313.17 215.77 322.2 217.23 335.74 219.31 340.25 219.91 344.76 220.41 349.27 220.81 353.79 221.09 360.55 221.66 367.32 221.66 371.63 221.68"/></g><g class="cls-39"><line class="cls-31" x1="189.33" y1="221.39" x2="189.33" y2="145.84"/></g><g class="cls-39"><path class="cls-31" d="M115,497" transform="translate(-96.21 -27.07)"/></g><line class="cls-8" x1="39.32" y1="221.66" x2="39.32" y2="124.76"/><line class="cls-8" x1="475.64" y1="221.66" x2="475.64" y2="124.76"/><line class="cls-8" x1="39.32" y1="221.66" x2="475.64" y2="221.66"/><line class="cls-8" x1="39.32" y1="124.76" x2="475.64" y2="124.76"/><text class="cls-32" transform="translate(180.78 140.48)">31</text><line x1="60.4" y1="328.14" x2="60.4" y2="329.78"/><line class="cls-3" x1="60.13" y1="328.14" x2="60.13" y2="329.78"/><line x1="143.61" y1="328.14" x2="143.61" y2="329.78"/><line class="cls-3" x1="143.34" y1="328.14" x2="143.34" y2="329.78"/><line x1="226.28" y1="328.14" x2="226.28" y2="329.78"/><line class="cls-3" x1="226.55" y1="328.14" x2="226.55" y2="329.78"/><line x1="309.49" y1="328.14" x2="309.49" y2="329.78"/><line class="cls-3" x1="309.77" y1="328.14" x2="309.77" y2="329.78"/><line x1="392.71" y1="328.14" x2="392.71" y2="329.78"/><line class="cls-3" x1="392.98" y1="328.14" x2="392.98" y2="329.78"/><line x1="475.92" y1="328.14" x2="475.92" y2="329.78"/><line class="cls-3" x1="475.64" y1="328.14" x2="475.64" y2="329.78"/><text class="cls-27" transform="translate(34.69 320.07) rotate(-90)">Jonsson et al.</text><g class="cls-40"><line class="cls-29" x1="176.73" y1="328.14" x2="176.73" y2="323.21"/><line class="cls-29" x1="180.57" y1="328.14" x2="180.57" y2="323.21"/><line class="cls-29" x1="159.76" y1="328.14" x2="159.76" y2="323.21"/><line class="cls-29" x1="218.34" y1="328.14" x2="218.34" y2="323.21"/><line class="cls-29" x1="247.36" y1="328.14" x2="247.36" y2="323.21"/><line class="cls-29" x1="234.76" y1="328.14" x2="234.76" y2="323.21"/><line class="cls-29" x1="251.19" y1="328.14" x2="251.19" y2="323.21"/><line class="cls-29" x1="197.54" y1="328.14" x2="197.54" y2="323.21"/><line class="cls-29" x1="239.14" y1="328.14" x2="239.14" y2="323.21"/><line class="cls-29" x1="268.16" y1="328.14" x2="268.16" y2="323.21"/><line class="cls-29" x1="201.37" y1="328.14" x2="201.37" y2="323.21"/><line class="cls-29" x1="168.52" y1="328.14" x2="168.52" y2="323.21"/><line class="cls-29" x1="205.75" y1="328.14" x2="205.75" y2="323.21"/><line class="cls-29" x1="172.36" y1="328.14" x2="172.36" y2="323.21"/><line class="cls-29" x1="164.14" y1="328.14" x2="164.14" y2="323.21"/><line class="cls-29" x1="242.98" y1="328.14" x2="242.98" y2="323.21"/><line class="cls-29" x1="143.34" y1="328.14" x2="143.34" y2="323.21"/><line class="cls-29" x1="222.17" y1="328.14" x2="222.17" y2="323.21"/><line class="cls-29" x1="197.54" y1="328.14" x2="197.54" y2="323.21"/><line class="cls-29" x1="180.57" y1="328.14" x2="180.57" y2="323.21"/><line class="cls-29" x1="218.34" y1="328.14" x2="218.34" y2="323.21"/><line class="cls-29" x1="147.72" y1="328.14" x2="147.72" y2="323.21"/><line class="cls-29" x1="218.34" y1="328.14" x2="218.34" y2="323.21"/><line class="cls-29" x1="230.39" y1="328.14" x2="230.39" y2="323.21"/><line class="cls-29" x1="197.54" y1="328.14" x2="197.54" y2="323.21"/><line class="cls-29" x1="239.14" y1="328.14" x2="239.14" y2="323.21"/><line class="cls-29" x1="172.36" y1="328.14" x2="172.36" y2="323.21"/><line class="cls-29" x1="193.16" y1="328.14" x2="193.16" y2="323.21"/><line class="cls-29" x1="205.75" y1="328.14" x2="205.75" y2="323.21"/><line class="cls-29" x1="164.14" y1="328.14" x2="164.14" y2="323.21"/><line class="cls-29" x1="242.98" y1="328.14" x2="242.98" y2="323.21"/><line class="cls-29" x1="205.75" y1="328.14" x2="205.75" y2="323.21"/><line class="cls-29" x1="297.17" y1="328.14" x2="297.17" y2="323.21"/><line class="cls-29" x1="213.96" y1="328.14" x2="213.96" y2="323.21"/><line class="cls-29" x1="342.61" y1="328.14" x2="342.61" y2="323.21"/><line class="cls-29" x1="193.16" y1="328.14" x2="193.16" y2="323.21"/><line class="cls-29" x1="201.37" y1="328.14" x2="201.37" y2="323.21"/><line class="cls-29" x1="172.36" y1="328.14" x2="172.36" y2="323.21"/><line class="cls-29" x1="201.37" y1="328.14" x2="201.37" y2="323.21"/><line class="cls-29" x1="176.73" y1="328.14" x2="176.73" y2="323.21"/><line class="cls-29" x1="230.39" y1="328.14" x2="230.39" y2="323.21"/><line class="cls-29" x1="205.75" y1="328.14" x2="205.75" y2="323.21"/><line class="cls-29" x1="164.14" y1="328.14" x2="164.14" y2="323.21"/><line class="cls-29" x1="251.19" y1="328.14" x2="251.19" y2="323.21"/><line class="cls-29" x1="189.33" y1="328.14" x2="189.33" y2="323.21"/></g><g class="cls-40"><line class="cls-41" x1="201.37" y1="328.14" x2="201.37" y2="323.21"/><line class="cls-41" x1="218.34" y1="328.14" x2="218.34" y2="323.21"/><line class="cls-41" x1="172.36" y1="328.14" x2="172.36" y2="323.21"/><line class="cls-41" x1="210.13" y1="328.14" x2="210.13" y2="323.21"/><line class="cls-41" x1="189.33" y1="328.14" x2="189.33" y2="323.21"/><line class="cls-41" x1="180.57" y1="328.14" x2="180.57" y2="323.21"/></g><g class="cls-40"><polyline class="cls-30" points="85.31 327.87 92.74 327.79 97.71 327.66 102.67 327.43 107.63 327.05 110.12 326.78 112.6 326.44 115.08 326.03 117.56 325.53 120.04 324.93 122.53 324.22 125.01 323.4 127.49 322.45 129.97 321.37 132.45 320.15 134.94 318.79 137.42 317.29 139.9 315.66 142.38 313.91 144.86 312.04 149.83 308.05 162.24 297.62 164.72 295.66 167.2 293.8 169.68 292.04 172.16 290.4 174.65 288.89 177.13 287.52 179.61 286.29 182.09 285.2 184.57 284.26 187.06 283.47 189.54 282.83 192.02 282.35 194.5 282.03 196.98 281.88 199.7 281.9 202.19 282.08 204.67 282.42 207.15 282.92 209.63 283.55 212.11 284.31 214.6 285.17 217.08 286.13 222.04 288.25 227.01 290.57 231.97 293.06 236.94 295.76 241.9 298.69 246.87 301.87 251.83 305.24 259.28 310.38 264.24 313.6 266.73 315.09 269.21 316.48 271.69 317.75 274.17 318.89 276.65 319.91 279.14 320.8 281.62 321.57 284.1 322.24 286.58 322.81 289.07 323.29 294.03 324.04 299 324.6 303.96 325.02 308.93 325.34 313.89 325.56 318.85 325.68 326.44 326.23 341.36 326.23 346.33 325.81 351.31 326.01 358.77 326.46 371.21 327.26 378.67 327.61 386.13 327.87 396.08 328.42 401.19 328.43"/></g><g class="cls-40"><line class="cls-31" x1="201.37" y1="328.14" x2="201.37" y2="282.16"/></g><g class="cls-40"><polyline class="cls-42" points="133.43 327.34 135.38 327.26 137.33 327.06 139.28 326.71 141.23 326.2 143.18 325.48 144.15 325.02 145.13 324.5 146.1 323.89 147.08 323.2 148.05 322.42 149.03 321.54 150 320.56 150.98 319.47 151.95 318.26 152.93 316.93 153.9 315.47 154.87 313.89 155.85 312.19 157.8 308.4 159.75 304.13 161.7 299.45 163.65 294.44 166.57 286.54 170.47 276.01 172.42 271.06 174.37 266.51 176.32 262.44 177.29 260.61 178.27 258.92 179.24 257.38 180.22 255.99 181.19 254.75 182.16 253.65 183.14 252.69 184.11 251.85 185.09 251.14 186.06 250.54 187.04 250.04 188.01 249.63 188.99 249.3 190.94 248.84 192.88 248.59 194.84 248.49 196.78 248.52 198.73 248.69 200.68 249.04 201.66 249.3 202.63 249.63 203.61 250.04 204.58 250.54 205.56 251.14 206.53 251.85 207.5 252.69 208.48 253.65 209.45 254.75 210.43 255.99 211.4 257.38 212.38 258.92 213.35 260.61 214.33 262.44 216.28 266.51 218.23 271.06 220.18 276.01 223.1 283.87 227 294.44 228.95 299.45 230.9 304.13 232.85 308.4 234.79 312.19 235.77 313.89 236.74 315.47 237.72 316.93 238.69 318.26 239.67 319.47 240.64 320.56 241.62 321.54 242.59 322.42 243.57 323.2 244.54 323.89 245.52 324.5 246.49 325.02 248.44 325.87 250.39 326.48 252.34 326.9 254.29 327.17 256.24 327.32 257.21 327.34"/></g><g class="cls-40"><line class="cls-31" x1="195.35" y1="328.14" x2="195.35" y2="248.21"/></g><line class="cls-8" x1="39.32" y1="327.87" x2="39.32" y2="230.97"/><line class="cls-8" x1="475.64" y1="327.87" x2="475.64" y2="230.97"/><line class="cls-8" x1="39.32" y1="327.87" x2="475.64" y2="327.87"/><line class="cls-8" x1="39.32" y1="230.97" x2="475.64" y2="230.97"/><text class="cls-32" transform="translate(197.24 276.97)">34</text><text class="cls-43" transform="translate(199.48 244.75)">32.5</text><text class="cls-27" transform="translate(51.95 291.51)">p = 0.27</text><line x1="60.4" y1="434.35" x2="60.4" y2="436.54"/><line class="cls-3" x1="60.13" y1="434.35" x2="60.13" y2="436.54"/><text class="cls-44" transform="translate(56.92 446.91)">0</text><line x1="143.61" y1="434.35" x2="143.61" y2="436.54"/><line class="cls-3" x1="143.34" y1="434.35" x2="143.34" y2="436.54"/><text class="cls-44" transform="translate(136.68 446.91)">20</text><line x1="226.28" y1="434.35" x2="226.28" y2="436.54"/><line class="cls-3" x1="226.55" y1="434.35" x2="226.55" y2="436.54"/><text class="cls-44" transform="translate(219.79 446.91)">40</text><line x1="309.49" y1="434.35" x2="309.49" y2="436.54"/><line class="cls-3" x1="309.77" y1="434.35" x2="309.77" y2="436.54"/><text class="cls-44" transform="translate(302.9 446.91)">60</text><line x1="392.71" y1="434.35" x2="392.71" y2="436.54"/><line class="cls-3" x1="392.98" y1="434.35" x2="392.98" y2="436.54"/><text class="cls-44" transform="translate(386.01 446.91)">80</text><line x1="475.92" y1="434.35" x2="475.92" y2="436.54"/><line class="cls-3" x1="475.64" y1="434.35" x2="475.64" y2="436.54"/><text class="cls-44" transform="translate(465.78 446.91)">100</text><text class="cls-4" transform="translate(223.7 461.06)">Age (years)</text><text class="cls-27" transform="translate(34.69 424.59) rotate(-90)">Capper et al.</text><g class="cls-45"><line class="cls-29" x1="126.92" y1="434.35" x2="126.92" y2="429.42"/><line class="cls-29" x1="143.34" y1="434.35" x2="143.34" y2="429.42"/><line class="cls-29" x1="155.93" y1="434.35" x2="155.93" y2="429.42"/><line class="cls-29" x1="155.93" y1="434.35" x2="155.93" y2="429.42"/><line class="cls-29" x1="159.76" y1="434.35" x2="159.76" y2="429.42"/><line class="cls-29" x1="159.76" y1="434.35" x2="159.76" y2="429.42"/><line class="cls-29" x1="164.14" y1="434.35" x2="164.14" y2="429.42"/><line class="cls-29" x1="168.52" y1="434.35" x2="168.52" y2="429.42"/><line class="cls-29" x1="172.36" y1="434.35" x2="172.36" y2="429.42"/><line class="cls-29" x1="172.36" y1="434.35" x2="172.36" y2="429.42"/><line class="cls-29" x1="172.36" y1="434.35" x2="172.36" y2="429.42"/><line class="cls-29" x1="172.36" y1="434.35" x2="172.36" y2="429.42"/><line class="cls-29" x1="172.36" y1="434.35" x2="172.36" y2="429.42"/><line class="cls-29" x1="180.57" y1="434.35" x2="180.57" y2="429.42"/><line class="cls-29" x1="180.57" y1="434.35" x2="180.57" y2="429.42"/><line class="cls-29" x1="184.95" y1="434.35" x2="184.95" y2="429.42"/><line class="cls-29" x1="184.95" y1="434.35" x2="184.95" y2="429.42"/><line class="cls-29" x1="189.33" y1="434.35" x2="189.33" y2="429.42"/><line class="cls-29" x1="189.33" y1="434.35" x2="189.33" y2="429.42"/><line class="cls-29" x1="189.33" y1="434.35" x2="189.33" y2="429.42"/><line class="cls-29" x1="189.33" y1="434.35" x2="189.33" y2="429.42"/><line class="cls-29" x1="189.33" y1="434.35" x2="189.33" y2="429.42"/><line class="cls-29" x1="193.16" y1="434.35" x2="193.16" y2="429.42"/><line class="cls-29" x1="193.16" y1="434.35" x2="193.16" y2="429.42"/><line class="cls-29" x1="193.16" y1="434.35" x2="193.16" y2="429.42"/><line class="cls-29" x1="193.16" y1="434.35" x2="193.16" y2="429.42"/><line class="cls-29" x1="197.54" y1="434.35" x2="197.54" y2="429.42"/><line class="cls-29" x1="197.54" y1="434.35" x2="197.54" y2="429.42"/><line class="cls-29" x1="197.54" y1="434.35" x2="197.54" y2="429.42"/><line class="cls-29" x1="201.37" y1="434.35" x2="201.37" y2="429.42"/><line class="cls-29" x1="201.37" y1="434.35" x2="201.37" y2="429.42"/><line class="cls-29" x1="201.37" y1="434.35" x2="201.37" y2="429.42"/><line class="cls-29" x1="205.75" y1="434.35" x2="205.75" y2="429.42"/><line class="cls-29" x1="205.75" y1="434.35" x2="205.75" y2="429.42"/><line class="cls-29" x1="205.75" y1="434.35" x2="205.75" y2="429.42"/><line class="cls-29" x1="205.75" y1="434.35" x2="205.75" y2="429.42"/><line class="cls-29" x1="210.13" y1="434.35" x2="210.13" y2="429.42"/><line class="cls-29" x1="210.13" y1="434.35" x2="210.13" y2="429.42"/><line class="cls-29" x1="210.13" y1="434.35" x2="210.13" y2="429.42"/><line class="cls-29" x1="210.13" y1="434.35" x2="210.13" y2="429.42"/><line class="cls-29" x1="210.13" y1="434.35" x2="210.13" y2="429.42"/><line class="cls-29" x1="213.96" y1="434.35" x2="213.96" y2="429.42"/><line class="cls-29" x1="213.96" y1="434.35" x2="213.96" y2="429.42"/><line class="cls-29" x1="213.96" y1="434.35" x2="213.96" y2="429.42"/><line class="cls-29" x1="218.34" y1="434.35" x2="218.34" y2="429.42"/><line class="cls-29" x1="218.34" y1="434.35" x2="218.34" y2="429.42"/><line class="cls-29" x1="218.34" y1="434.35" x2="218.34" y2="429.42"/><line class="cls-29" x1="226.55" y1="434.35" x2="226.55" y2="429.42"/><line class="cls-29" x1="226.55" y1="434.35" x2="226.55" y2="429.42"/><line class="cls-29" x1="234.76" y1="434.35" x2="234.76" y2="429.42"/><line class="cls-29" x1="239.14" y1="434.35" x2="239.14" y2="429.42"/><line class="cls-29" x1="242.98" y1="434.35" x2="242.98" y2="429.42"/><line class="cls-29" x1="242.98" y1="434.35" x2="242.98" y2="429.42"/><line class="cls-29" x1="251.19" y1="434.35" x2="251.19" y2="429.42"/><line class="cls-29" x1="259.95" y1="434.35" x2="259.95" y2="429.42"/><line class="cls-29" x1="263.78" y1="434.35" x2="263.78" y2="429.42"/><line class="cls-29" x1="263.78" y1="434.35" x2="263.78" y2="429.42"/><line class="cls-29" x1="280.75" y1="434.35" x2="280.75" y2="429.42"/><line class="cls-29" x1="292.8" y1="434.35" x2="292.8" y2="429.42"/><line class="cls-29" x1="301.55" y1="434.35" x2="301.55" y2="429.42"/><line class="cls-29" x1="305.39" y1="434.35" x2="305.39" y2="429.42"/><line class="cls-29" x1="321.81" y1="434.35" x2="321.81" y2="429.42"/><line class="cls-29" x1="321.81" y1="434.35" x2="321.81" y2="429.42"/><line class="cls-29" x1="326.19" y1="434.35" x2="326.19" y2="429.42"/><line class="cls-29" x1="330.57" y1="434.35" x2="330.57" y2="429.42"/><line class="cls-29" x1="346.99" y1="434.35" x2="346.99" y2="429.42"/><line class="cls-29" x1="351.37" y1="434.35" x2="351.37" y2="429.42"/><line class="cls-29" x1="355.2" y1="434.35" x2="355.2" y2="429.42"/><line class="cls-29" x1="155.93" y1="434.35" x2="155.93" y2="429.42"/><line class="cls-29" x1="176.73" y1="434.35" x2="176.73" y2="429.42"/><line class="cls-29" x1="180.57" y1="434.35" x2="180.57" y2="429.42"/><line class="cls-29" x1="184.95" y1="434.35" x2="184.95" y2="429.42"/><line class="cls-29" x1="184.95" y1="434.35" x2="184.95" y2="429.42"/><line class="cls-29" x1="193.16" y1="434.35" x2="193.16" y2="429.42"/><line class="cls-29" x1="193.16" y1="434.35" x2="193.16" y2="429.42"/><line class="cls-29" x1="197.54" y1="434.35" x2="197.54" y2="429.42"/><line class="cls-29" x1="205.75" y1="434.35" x2="205.75" y2="429.42"/><line class="cls-29" x1="210.13" y1="434.35" x2="210.13" y2="429.42"/><line class="cls-29" x1="210.13" y1="434.35" x2="210.13" y2="429.42"/><line class="cls-29" x1="213.96" y1="434.35" x2="213.96" y2="429.42"/><line class="cls-29" x1="218.34" y1="434.35" x2="218.34" y2="429.42"/><line class="cls-29" x1="218.34" y1="434.35" x2="218.34" y2="429.42"/><line class="cls-29" x1="230.39" y1="434.35" x2="230.39" y2="429.42"/><line class="cls-29" x1="242.98" y1="434.35" x2="242.98" y2="429.42"/><line class="cls-29" x1="242.98" y1="434.35" x2="242.98" y2="429.42"/><line class="cls-29" x1="259.95" y1="434.35" x2="259.95" y2="429.42"/><line class="cls-29" x1="268.16" y1="434.35" x2="268.16" y2="429.42"/><line class="cls-29" x1="288.96" y1="434.35" x2="288.96" y2="429.42"/><line class="cls-29" x1="334.4" y1="434.35" x2="334.4" y2="429.42"/><line class="cls-29" x1="346.99" y1="434.35" x2="346.99" y2="429.42"/></g><g class="cls-45"><line class="cls-41" x1="230.39" y1="434.35" x2="230.39" y2="429.42"/><line class="cls-41" x1="230.39" y1="434.35" x2="230.39" y2="429.42"/><line class="cls-41" x1="359.58" y1="434.35" x2="359.58" y2="429.42"/></g><g class="cls-45"><polyline class="cls-30" points="74.91 434.62 85.3 434.56 93.17 434.38 98.41 434.15 103.66 433.8 108.9 433.3 114.15 432.61 116.77 432.17 119.4 431.66 122.02 431.08 124.64 430.4 127.26 429.61 129.89 428.7 132.51 427.65 135.13 426.44 137.76 425.06 140.38 423.51 143 421.77 145.63 419.84 148.25 417.72 150.87 415.42 153.49 412.93 156.12 410.29 158.74 407.49 161.36 404.55 166.61 398.36 177.1 385.55 179.72 382.5 182.35 379.62 184.97 376.98 187.59 374.63 190.22 372.66 192.84 371.1 195.46 370.03 198.08 369.47 200.47 369.47 203.08 370.02 205.7 371.12 208.32 372.74 210.94 374.84 213.55 377.34 216.17 380.17 218.78 383.23 229.25 395.94 231.87 398.83 234.49 401.5 237.1 403.93 239.72 406.1 242.34 408.04 244.95 409.76 247.57 411.29 250.19 412.65 252.8 413.88 255.42 415.01 260.65 417.04 265.89 418.85 271.12 420.44 273.74 421.15 276.35 421.8 278.97 422.37 281.59 422.87 284.2 423.28 286.82 423.62 289.44 423.89 292.05 424.09 294.67 424.22 299.85 424.22 305.08 424.12 310.31 423.81 318.15 423.14 323.38 422.72 328.61 422.03 331.23 422.58 333.48 422.61 336.12 422.74 338.76 422.96 341.41 423.29 344.05 423.71 346.69 424.23 349.34 424.84 351.98 425.53 357.27 427.09 367.84 430.36 370.48 431.08 373.13 431.75 375.77 432.34 378.41 432.85 381.06 433.29 383.7 433.64 388.99 434.16 394.27 434.46 399.56 434.62 407.21 434.71"/></g><g class="cls-45"><line class="cls-31" x1="207.94" y1="434.35" x2="207.94" y2="370.3"/></g><g class="cls-45"><polyline class="cls-42" points="108.87 433.82 114.74 433.64 120.6 433.33 126.47 432.87 132.33 432.22 135.26 431.81 138.19 431.34 141.13 430.8 144.06 430.19 146.99 429.5 149.92 428.73 152.85 427.88 155.78 426.93 158.72 425.9 161.65 424.77 164.58 423.55 167.51 422.24 170.44 420.84 173.38 419.36 179.24 416.19 185.1 412.8 196.83 405.85 202.7 402.57 205.63 401.06 208.56 399.64 211.49 398.36 214.43 397.21 217.36 396.23 220.29 395.41 223.22 394.79 226.15 394.35 229.09 394.11 231.83 394.07 234.77 394.23 237.72 394.59 240.67 395.14 243.61 395.86 246.56 396.75 249.51 397.78 252.45 398.94 255.4 400.21 261.29 403 276.03 410.26 278.97 411.6 281.92 412.85 284.87 414 287.81 415.04 290.76 415.96 293.71 416.76 296.65 417.42 299.6 417.94 302.55 418.34 305.49 418.6 308.44 418.75 311.18 418.77 314.11 418.69 317.05 418.52 319.98 418.27 325.84 417.6 334.64 416.36 340.5 415.56 346.37 414.89 349.3 414.65 352.23 414.47 355.16 414.37 358.09 414.34 361.02 414.41 363.96 414.56 366.89 414.8 369.82 415.13 372.75 415.55 375.69 416.04 378.62 416.61 384.48 417.93 390.35 419.45 399.14 421.95 407.94 424.47 413.8 426.07 419.67 427.54 425.53 428.85 431.39 429.98 437.26 430.94 443.12 431.72 448.99 432.34 454.85 432.82 460.71 433.16 466.58 433.4 472.44 433.53 478.31 434.07 481.12 434.05"/></g><g class="cls-45"><line class="cls-31" x1="230.39" y1="434.35" x2="230.39" y2="392.74"/></g><line class="cls-8" x1="39.32" y1="434.62" x2="39.32" y2="337.72"/><line class="cls-8" x1="475.64" y1="434.62" x2="475.64" y2="337.72"/><line class="cls-8" x1="39.32" y1="434.62" x2="475.64" y2="434.62"/><line class="cls-8" x1="39.32" y1="337.72" x2="475.64" y2="337.72"/><text class="cls-32" transform="translate(199.48 365.84)">35.5</text><text class="cls-43" transform="translate(225.33 387.22)">41</text><text class="cls-27" transform="translate(51.95 386.72)">p = 0.04</text></g></g><g class="cls-46"><g class="cls-46"><line x1="60.4" y1="600.18" x2="60.4" y2="601.82"/><line class="cls-3" x1="60.13" y1="600.18" x2="60.13" y2="601.82"/><line x1="143.61" y1="600.18" x2="143.61" y2="601.82"/><line class="cls-3" x1="143.34" y1="600.18" x2="143.34" y2="601.82"/><line x1="226.28" y1="600.18" x2="226.28" y2="601.82"/><line class="cls-3" x1="226.55" y1="600.18" x2="226.55" y2="601.82"/><line x1="309.49" y1="600.18" x2="309.49" y2="601.82"/><line class="cls-3" x1="309.77" y1="600.18" x2="309.77" y2="601.82"/><line x1="392.71" y1="600.18" x2="392.71" y2="601.82"/><line class="cls-3" x1="392.98" y1="600.18" x2="392.98" y2="601.82"/><line x1="475.92" y1="600.18" x2="475.92" y2="601.82"/><line class="cls-3" x1="475.64" y1="600.18" x2="475.64" y2="601.82"/><text class="cls-27" transform="translate(34.69 579.9) rotate(-90)">TCGA Val</text><g class="cls-47"><line class="cls-29" x1="143.34" y1="600.18" x2="143.34" y2="595.26"/><line class="cls-29" x1="164.14" y1="600.18" x2="164.14" y2="595.26"/><line class="cls-29" x1="172.36" y1="600.18" x2="172.36" y2="595.26"/><line class="cls-29" x1="176.73" y1="600.18" x2="176.73" y2="595.26"/><line class="cls-29" x1="176.73" y1="600.18" x2="176.73" y2="595.26"/><line class="cls-29" x1="213.96" y1="600.18" x2="213.96" y2="595.26"/><line class="cls-29" x1="218.34" y1="600.18" x2="218.34" y2="595.26"/><line class="cls-29" x1="176.73" y1="600.18" x2="176.73" y2="595.26"/><line class="cls-29" x1="247.36" y1="600.18" x2="247.36" y2="595.26"/><line class="cls-29" x1="218.34" y1="600.18" x2="218.34" y2="595.26"/><line class="cls-29" x1="284.58" y1="600.18" x2="284.58" y2="595.26"/><line class="cls-29" x1="189.33" y1="600.18" x2="189.33" y2="595.26"/><line class="cls-29" x1="147.72" y1="600.18" x2="147.72" y2="595.26"/><line class="cls-29" x1="284.58" y1="600.18" x2="284.58" y2="595.26"/><line class="cls-29" x1="276.37" y1="600.18" x2="276.37" y2="595.26"/><line class="cls-29" x1="210.13" y1="600.18" x2="210.13" y2="595.26"/></g><g class="cls-47"><line class="cls-41" x1="210.13" y1="600.18" x2="210.13" y2="595.26"/></g><g class="cls-47"><polyline class="cls-30" points="76.55 599.91 80.95 599.86 85.28 599.71 89.61 599.42 93.94 598.95 96.1 598.64 98.26 598.26 100.43 597.81 102.59 597.28 104.75 596.66 106.92 595.94 109.08 595.12 111.25 594.18 113.41 593.13 115.57 591.94 117.74 590.63 119.9 589.19 122.06 587.62 124.23 585.92 126.39 584.1 128.56 582.15 130.72 580.1 132.88 577.93 137.21 573.36 141.54 568.53 150.19 558.76 154.52 554.16 156.68 552.01 158.85 550 161.01 548.13 163.18 546.44 165.34 544.93 167.5 543.63 169.67 542.53 171.83 541.64 173.99 540.97 176.16 540.51 178.32 540.25 180.48 540.18 182.65 540.29 184.81 540.55 186.98 540.95 189.14 541.48 191.3 542.11 193.47 542.82 195.63 543.61 199.96 545.38 204.28 547.36 208.61 549.55 212.94 551.97 217.27 554.61 221.59 557.45 234.58 566.26 236.74 567.57 238.91 568.79 241.07 569.89 243.23 570.86 245.4 571.68 247.56 572.36 249.72 572.89 251.89 573.27 254.05 573.51 256.21 573.63 258.38 573.64 260.54 573.56 264.87 573.23 269.2 572.88 271.36 572.76 273.52 572.72 275.69 572.77 277.85 572.95 280.01 573.26 282.18 573.71 284.34 574.32 286.51 575.08 288.67 575.98 290.83 577.02 293 578.18 295.16 579.45 299.49 582.2 308.14 587.93 312.47 590.58 314.63 591.8 316.8 592.92 318.96 593.95 321.13 594.88 323.29 595.72 325.45 596.45 327.62 597.1 329.78 597.65 331.94 598.13 334.11 598.53 338.44 599.14 342.76 599.54 347.09 599.78 351.42 599.89"/></g><g class="cls-47"><line class="cls-31" x1="199.73" y1="600.18" x2="199.73" y2="545.44"/></g><g class="cls-47"><line class="cls-31" x1="210.13" y1="600.18" x2="210.13" y2="549.27"/></g><line class="cls-8" x1="39.32" y1="599.91" x2="39.32" y2="503.01"/><line class="cls-8" x1="475.64" y1="599.91" x2="475.64" y2="503.01"/><line class="cls-8" x1="39.32" y1="599.91" x2="475.64" y2="599.91"/><line class="cls-8" x1="39.32" y1="503.01" x2="475.64" y2="503.01"/><text class="cls-32" transform="translate(189.17 538.19)">33.5</text><text class="cls-43" transform="translate(215.02 546.72)">36</text><text class="cls-27" transform="translate(51.96 543.72)">p = 0.5</text><text class="cls-33" transform="translate(138.95 499.89)">Age Distribution (All Confidence)</text><rect class="cls-34" x="75.73" y="506.02" width="364.06" height="18.61" rx="2.19"/><rect class="cls-35" x="75.46" y="505.75" width="364.06" height="18.61" rx="2.19"/><rect class="cls-36" x="80.11" y="510.4" width="21.9" height="7.66"/><text class="cls-37" transform="translate(110.72 518.12)">Correct IDH-Mutant Astro</text><rect class="cls-38" x="255.29" y="510.4" width="21.9" height="7.66"/><text class="cls-37" transform="translate(286.18 518.12)">Misclassified IDH-Mutant Astro</text><line x1="60.4" y1="706.39" x2="60.4" y2="708.58"/><line class="cls-3" x1="60.13" y1="706.39" x2="60.13" y2="708.58"/><line x1="143.61" y1="706.39" x2="143.61" y2="708.58"/><line class="cls-3" x1="143.34" y1="706.39" x2="143.34" y2="708.58"/><line x1="226.28" y1="706.39" x2="226.28" y2="708.58"/><line class="cls-3" x1="226.55" y1="706.39" x2="226.55" y2="708.58"/><line x1="309.49" y1="706.39" x2="309.49" y2="708.58"/><line class="cls-3" x1="309.77" y1="706.39" x2="309.77" y2="708.58"/><line x1="392.71" y1="706.39" x2="392.71" y2="708.58"/><line class="cls-3" x1="392.98" y1="706.39" x2="392.98" y2="708.58"/><line x1="475.92" y1="706.39" x2="475.92" y2="708.58"/><line class="cls-3" x1="475.64" y1="706.39" x2="475.64" y2="708.58"/><text class="cls-27" transform="translate(34.69 680.01) rotate(-90)">GLASS</text><g class="cls-48"><line class="cls-29" x1="251.19" y1="706.39" x2="251.19" y2="701.46"/><line class="cls-29" x1="176.73" y1="706.39" x2="176.73" y2="701.46"/><line class="cls-29" x1="168.52" y1="706.39" x2="168.52" y2="701.46"/><line class="cls-29" x1="151.55" y1="706.39" x2="151.55" y2="701.46"/><line class="cls-29" x1="222.17" y1="706.39" x2="222.17" y2="701.46"/><line class="cls-29" x1="151.55" y1="706.39" x2="151.55" y2="701.46"/><line class="cls-29" x1="184.95" y1="706.39" x2="184.95" y2="701.46"/><line class="cls-29" x1="242.98" y1="706.39" x2="242.98" y2="701.46"/><line class="cls-29" x1="176.73" y1="706.39" x2="176.73" y2="701.46"/><line class="cls-29" x1="226.55" y1="706.39" x2="226.55" y2="701.46"/><line class="cls-29" x1="197.54" y1="706.39" x2="197.54" y2="701.46"/><line class="cls-29" x1="168.52" y1="706.39" x2="168.52" y2="701.46"/><line class="cls-29" x1="164.14" y1="706.39" x2="164.14" y2="701.46"/><line class="cls-29" x1="147.72" y1="706.39" x2="147.72" y2="701.46"/><line class="cls-29" x1="189.33" y1="706.39" x2="189.33" y2="701.46"/><line class="cls-29" x1="271.99" y1="706.39" x2="271.99" y2="701.46"/><line class="cls-29" x1="230.39" y1="706.39" x2="230.39" y2="701.46"/><line class="cls-29" x1="184.95" y1="706.39" x2="184.95" y2="701.46"/><line class="cls-29" x1="205.75" y1="706.39" x2="205.75" y2="701.46"/><line class="cls-29" x1="159.76" y1="706.39" x2="159.76" y2="701.46"/><line class="cls-29" x1="338.78" y1="706.39" x2="338.78" y2="701.46"/><line class="cls-29" x1="205.75" y1="706.39" x2="205.75" y2="701.46"/><line class="cls-29" x1="172.36" y1="706.39" x2="172.36" y2="701.46"/><line class="cls-29" x1="263.78" y1="706.39" x2="263.78" y2="701.46"/><line class="cls-29" x1="172.36" y1="706.39" x2="172.36" y2="701.46"/><line class="cls-29" x1="201.37" y1="706.39" x2="201.37" y2="701.46"/><line class="cls-29" x1="210.13" y1="706.39" x2="210.13" y2="701.46"/><line class="cls-29" x1="159.76" y1="706.39" x2="159.76" y2="701.46"/><line class="cls-29" x1="201.37" y1="706.39" x2="201.37" y2="701.46"/><line class="cls-29" x1="218.34" y1="706.39" x2="218.34" y2="701.46"/><line class="cls-29" x1="292.8" y1="706.39" x2="292.8" y2="701.46"/><line class="cls-29" x1="184.95" y1="706.39" x2="184.95" y2="701.46"/><line class="cls-29" x1="276.37" y1="706.39" x2="276.37" y2="701.46"/><line class="cls-29" x1="218.34" y1="706.39" x2="218.34" y2="701.46"/><line class="cls-29" x1="172.36" y1="706.39" x2="172.36" y2="701.46"/><line class="cls-29" x1="155.93" y1="706.39" x2="155.93" y2="701.46"/><line class="cls-29" x1="205.75" y1="706.39" x2="205.75" y2="701.46"/><line class="cls-29" x1="226.55" y1="706.39" x2="226.55" y2="701.46"/><line class="cls-29" x1="259.95" y1="706.39" x2="259.95" y2="701.46"/><line class="cls-29" x1="138.96" y1="706.39" x2="138.96" y2="701.46"/><line class="cls-29" x1="176.73" y1="706.39" x2="176.73" y2="701.46"/><line class="cls-29" x1="226.55" y1="706.39" x2="226.55" y2="701.46"/><line class="cls-29" x1="180.57" y1="706.39" x2="180.57" y2="701.46"/><line class="cls-29" x1="184.95" y1="706.39" x2="184.95" y2="701.46"/><line class="cls-29" x1="317.98" y1="706.39" x2="317.98" y2="701.46"/><line class="cls-29" x1="213.96" y1="706.39" x2="213.96" y2="701.46"/><line class="cls-29" x1="197.54" y1="706.39" x2="197.54" y2="701.46"/><line class="cls-29" x1="184.95" y1="706.39" x2="184.95" y2="701.46"/><line class="cls-29" x1="259.95" y1="706.39" x2="259.95" y2="701.46"/><line class="cls-29" x1="184.95" y1="706.39" x2="184.95" y2="701.46"/><line class="cls-29" x1="193.16" y1="706.39" x2="193.16" y2="701.46"/><line class="cls-29" x1="184.95" y1="706.39" x2="184.95" y2="701.46"/><line class="cls-29" x1="176.73" y1="706.39" x2="176.73" y2="701.46"/></g><g class="cls-48"><line class="cls-41" x1="201.37" y1="706.39" x2="201.37" y2="701.46"/><line class="cls-41" x1="263.78" y1="706.39" x2="263.78" y2="701.46"/><line class="cls-41" x1="222.17" y1="706.39" x2="222.17" y2="701.46"/><line class="cls-41" x1="172.36" y1="706.39" x2="172.36" y2="701.46"/></g><g class="cls-48"><polyline class="cls-30" points="86.41 706.66 93.42 706.55 98.22 706.35 103.03 705.97 105.43 705.68 107.84 705.3 110.24 704.82 112.64 704.21 115.05 703.46 117.45 702.54 119.85 701.43 122.26 700.12 124.66 698.58 127.06 696.8 129.47 694.77 131.87 692.49 134.27 689.95 136.68 687.17 139.08 684.14 141.49 680.89 143.89 677.43 146.29 673.8 151.1 666.13 158.31 654.27 160.71 650.43 163.12 646.75 165.52 643.3 167.92 640.13 170.33 637.32 172.73 634.91 175.13 632.95 177.54 631.47 179.94 630.49 182.34 630.02 184.92 630.03 187.32 630.51 189.72 631.4 192.13 632.67 194.53 634.25 196.94 636.08 199.34 638.11 201.75 640.3 206.55 644.96 213.76 652.3 223.38 662.14 228.19 666.85 230.59 669.07 233 671.19 235.4 673.16 237.8 674.97 240.21 676.6 242.61 678.05 245.02 679.31 247.42 680.4 249.82 681.35 252.23 682.17 257.04 683.57 264.25 685.56 269.06 687.11 273.86 688.92 278.67 690.92 285.88 693.99 290.69 695.85 293.1 696.67 295.5 697.41 297.9 698.07 300.31 698.63 302.71 699.11 305.12 699.5 307.52 699.81 312.33 700.25 317.13 700.52 329.15 701.09 333.96 701.47 338.77 701.99 343.58 702.63 360.41 705.11 365.21 705.65 370.02 706.06 374.83 706.35 379.64 706.53 386.85 706.66 391.88 706.68"/></g><g class="cls-48"><line class="cls-31" x1="193.16" y1="706.39" x2="193.16" y2="632.48"/></g><g class="cls-48"><polyline class="cls-42" points="103.86 705.89 107.46 705.79 111.06 705.54 114.66 705.12 118.26 704.49 120.06 704.09 121.86 703.62 123.66 703.08 125.46 702.46 127.26 701.75 129.06 700.95 130.86 700.05 132.66 699.05 134.47 697.95 136.26 696.74 138.06 695.41 139.87 693.98 141.67 692.44 143.47 690.79 145.27 689.05 148.87 685.28 152.47 681.21 156.07 676.93 166.87 663.81 170.47 659.69 174.07 655.82 177.67 652.26 179.47 650.6 181.27 649.04 183.07 647.57 184.87 646.2 186.67 644.93 188.47 643.76 190.27 642.69 192.07 641.74 193.87 640.89 195.67 640.16 197.47 639.56 199.28 639.08 201.07 638.72 202.88 638.5 204.68 638.42 206.48 638.48 208.28 638.67 210.08 639 211.88 639.47 213.68 640.07 215.48 640.79 217.28 641.62 219.08 642.56 220.88 643.59 224.48 645.85 229.88 649.53 235.28 653.19 238.88 655.44 242.48 657.48 246.08 659.31 249.68 660.98 256.88 664.17 260.48 665.93 264.08 667.91 265.88 669.01 267.69 670.2 269.49 671.46 271.29 672.8 274.89 675.72 278.49 678.88 283.89 683.87 289.29 688.81 292.89 691.9 296.49 694.73 298.29 696.02 300.09 697.23 301.89 698.35 303.69 699.37 305.49 700.3 307.29 701.15 309.09 701.91 310.89 702.58 312.69 703.17 314.49 703.7 316.29 704.15 319.89 704.86 323.49 705.37 327.09 705.69 330.69 705.86 332.5 705.89"/></g><g class="cls-48"><line class="cls-31" x1="211.77" y1="706.39" x2="211.77" y2="641.24"/></g><line class="cls-8" x1="39.32" y1="706.66" x2="39.32" y2="609.76"/><line class="cls-8" x1="475.64" y1="706.66" x2="475.64" y2="609.76"/><line class="cls-8" x1="39.32" y1="706.66" x2="475.64" y2="706.66"/><line class="cls-8" x1="39.32" y1="609.76" x2="475.64" y2="609.76"/><text class="cls-32" transform="translate(184.93 625.24)">32</text><text class="cls-43" transform="translate(204.63 634.06)">36.5</text><text class="cls-27" transform="translate(51.96 650.16)">p = 0.26</text><line x1="60.4" y1="813.14" x2="60.4" y2="814.78"/><line class="cls-3" x1="60.13" y1="813.14" x2="60.13" y2="814.78"/><line x1="143.61" y1="813.14" x2="143.61" y2="814.78"/><line class="cls-3" x1="143.34" y1="813.14" x2="143.34" y2="814.78"/><line x1="226.28" y1="813.14" x2="226.28" y2="814.78"/><line class="cls-3" x1="226.55" y1="813.14" x2="226.55" y2="814.78"/><line x1="309.49" y1="813.14" x2="309.49" y2="814.78"/><line class="cls-3" x1="309.77" y1="813.14" x2="309.77" y2="814.78"/><line x1="392.71" y1="813.14" x2="392.71" y2="814.78"/><line class="cls-3" x1="392.98" y1="813.14" x2="392.98" y2="814.78"/><line x1="475.92" y1="813.14" x2="475.92" y2="814.78"/><line class="cls-3" x1="475.64" y1="813.14" x2="475.64" y2="814.78"/><text class="cls-27" transform="translate(34.69 805.07) rotate(-90)">Jonsson et al.</text><g class="cls-49"><line class="cls-29" x1="176.73" y1="813.14" x2="176.73" y2="808.21"/><line class="cls-29" x1="180.57" y1="813.14" x2="180.57" y2="808.21"/><line class="cls-29" x1="159.76" y1="813.14" x2="159.76" y2="808.21"/><line class="cls-29" x1="218.34" y1="813.14" x2="218.34" y2="808.21"/><line class="cls-29" x1="247.36" y1="813.14" x2="247.36" y2="808.21"/><line class="cls-29" x1="234.76" y1="813.14" x2="234.76" y2="808.21"/><line class="cls-29" x1="251.19" y1="813.14" x2="251.19" y2="808.21"/><line class="cls-29" x1="172.36" y1="813.14" x2="172.36" y2="808.21"/><line class="cls-29" x1="197.54" y1="813.14" x2="197.54" y2="808.21"/><line class="cls-29" x1="239.14" y1="813.14" x2="239.14" y2="808.21"/><line class="cls-29" x1="268.16" y1="813.14" x2="268.16" y2="808.21"/><line class="cls-29" x1="201.37" y1="813.14" x2="201.37" y2="808.21"/><line class="cls-29" x1="168.52" y1="813.14" x2="168.52" y2="808.21"/><line class="cls-29" x1="205.75" y1="813.14" x2="205.75" y2="808.21"/><line class="cls-29" x1="172.36" y1="813.14" x2="172.36" y2="808.21"/><line class="cls-29" x1="164.14" y1="813.14" x2="164.14" y2="808.21"/><line class="cls-29" x1="242.98" y1="813.14" x2="242.98" y2="808.21"/><line class="cls-29" x1="130.75" y1="813.14" x2="130.75" y2="808.21"/><line class="cls-29" x1="201.37" y1="813.14" x2="201.37" y2="808.21"/><line class="cls-29" x1="143.34" y1="813.14" x2="143.34" y2="808.21"/><line class="cls-29" x1="222.17" y1="813.14" x2="222.17" y2="808.21"/><line class="cls-29" x1="226.55" y1="813.14" x2="226.55" y2="808.21"/><line class="cls-29" x1="197.54" y1="813.14" x2="197.54" y2="808.21"/><line class="cls-29" x1="210.13" y1="813.14" x2="210.13" y2="808.21"/><line class="cls-29" x1="180.57" y1="813.14" x2="180.57" y2="808.21"/><line class="cls-29" x1="218.34" y1="813.14" x2="218.34" y2="808.21"/><line class="cls-29" x1="164.14" y1="813.14" x2="164.14" y2="808.21"/><line class="cls-29" x1="147.72" y1="813.14" x2="147.72" y2="808.21"/><line class="cls-29" x1="218.34" y1="813.14" x2="218.34" y2="808.21"/><line class="cls-29" x1="230.39" y1="813.14" x2="230.39" y2="808.21"/><line class="cls-29" x1="197.54" y1="813.14" x2="197.54" y2="808.21"/><line class="cls-29" x1="239.14" y1="813.14" x2="239.14" y2="808.21"/><line class="cls-29" x1="172.36" y1="813.14" x2="172.36" y2="808.21"/><line class="cls-29" x1="193.16" y1="813.14" x2="193.16" y2="808.21"/><line class="cls-29" x1="205.75" y1="813.14" x2="205.75" y2="808.21"/><line class="cls-29" x1="164.14" y1="813.14" x2="164.14" y2="808.21"/><line class="cls-29" x1="242.98" y1="813.14" x2="242.98" y2="808.21"/><line class="cls-29" x1="205.75" y1="813.14" x2="205.75" y2="808.21"/><line class="cls-29" x1="151.55" y1="813.14" x2="151.55" y2="808.21"/><line class="cls-29" x1="297.17" y1="813.14" x2="297.17" y2="808.21"/><line class="cls-29" x1="213.96" y1="813.14" x2="213.96" y2="808.21"/><line class="cls-29" x1="342.61" y1="813.14" x2="342.61" y2="808.21"/><line class="cls-29" x1="193.16" y1="813.14" x2="193.16" y2="808.21"/><line class="cls-29" x1="201.37" y1="813.14" x2="201.37" y2="808.21"/><line class="cls-29" x1="172.36" y1="813.14" x2="172.36" y2="808.21"/><line class="cls-29" x1="201.37" y1="813.14" x2="201.37" y2="808.21"/><line class="cls-29" x1="176.73" y1="813.14" x2="176.73" y2="808.21"/><line class="cls-29" x1="230.39" y1="813.14" x2="230.39" y2="808.21"/><line class="cls-29" x1="205.75" y1="813.14" x2="205.75" y2="808.21"/><line class="cls-29" x1="184.95" y1="813.14" x2="184.95" y2="808.21"/><line class="cls-29" x1="164.14" y1="813.14" x2="164.14" y2="808.21"/><line class="cls-29" x1="251.19" y1="813.14" x2="251.19" y2="808.21"/><line class="cls-29" x1="189.33" y1="813.14" x2="189.33" y2="808.21"/></g><g class="cls-49"><line class="cls-41" x1="201.37" y1="813.14" x2="201.37" y2="808.21"/><line class="cls-41" x1="218.34" y1="813.14" x2="218.34" y2="808.21"/><line class="cls-41" x1="172.36" y1="813.14" x2="172.36" y2="808.21"/><line class="cls-41" x1="210.13" y1="813.14" x2="210.13" y2="808.21"/><line class="cls-41" x1="222.17" y1="813.14" x2="222.17" y2="808.21"/><line class="cls-41" x1="263.78" y1="813.14" x2="263.78" y2="808.21"/><line class="cls-41" x1="242.98" y1="813.14" x2="242.98" y2="808.21"/><line class="cls-41" x1="301.55" y1="813.14" x2="301.55" y2="808.21"/><line class="cls-41" x1="189.33" y1="813.14" x2="189.33" y2="808.21"/><line class="cls-41" x1="180.57" y1="813.14" x2="180.57" y2="808.21"/></g><g class="cls-49"><polyline class="cls-30" points="74.36 812.87 82.28 812.87 87.39 812.74 92.5 812.49 97.61 812.06 100.17 811.75 102.73 811.37 105.28 810.91 107.84 810.34 110.39 809.67 112.95 808.87 115.5 807.93 118.06 806.84 120.61 805.59 123.17 804.17 125.72 802.57 128.28 800.77 130.83 798.77 133.39 796.57 135.94 794.17 138.5 791.58 141.06 788.79 143.61 785.84 146.16 782.75 151.28 776.27 158.94 766.45 161.5 763.33 164.05 760.36 166.61 757.58 169.16 755 171.72 752.64 174.27 750.51 176.83 748.62 179.38 746.95 181.94 745.5 184.5 744.27 187.05 743.27 189.6 742.49 192.16 741.93 194.72 741.62 197.27 741.56 199.83 741.76 202.38 742.23 204.94 742.97 207.49 743.96 210.05 745.18 212.6 746.63 215.16 748.26 217.71 750.05 220.27 751.97 222.82 754 227.93 758.28 233.04 762.81 238.16 767.6 243.27 772.66 248.38 777.95 256.04 786.01 258.6 788.61 261.15 791.11 263.71 793.48 266.26 795.69 268.82 797.72 271.37 799.55 273.93 801.18 276.48 802.6 279.04 803.83 281.6 804.88 284.15 805.76 286.7 806.49 289.26 807.11 291.82 807.62 294.37 808.06 299.48 808.76 304.59 809.3 309.7 809.71 314.81 809.99 319.92 810.13 325.49 810.13 340.61 809.91 345.65 810.02 350.69 810.28 355.73 810.67 373.37 812.21 378.41 812.5 383.45 812.7 391.01 812.87 399 812.92"/></g><g class="cls-49"><line class="cls-31" x1="201.37" y1="813.14" x2="201.37" y2="742.52"/></g><g class="cls-49"><polyline class="cls-42" points="104.54 812.86 108.71 812.75 112.88 812.52 117.05 812.13 121.21 811.53 123.3 811.14 125.38 810.66 127.47 810.09 129.55 809.42 131.63 808.63 133.72 807.73 135.8 806.69 137.89 805.51 139.97 804.18 142.05 802.69 144.14 801.04 146.22 799.23 148.31 797.26 150.39 795.13 152.47 792.85 154.56 790.44 156.64 787.89 160.81 782.5 164.98 776.82 171.23 768.21 175.4 762.69 177.48 760.06 179.57 757.56 181.65 755.2 183.74 752.99 185.82 750.95 187.9 749.11 189.99 747.45 192.07 746.01 194.16 744.77 196.24 743.76 198.32 742.98 200.41 742.41 202.49 742.08 204.57 741.97 206.66 742.09 208.74 742.42 210.83 742.97 212.91 743.72 215 744.66 217.08 745.79 219.16 747.08 221.25 748.52 223.33 750.09 225.41 751.77 229.58 755.39 235.84 761.16 242.09 766.93 246.26 770.6 250.42 774.03 254.59 777.21 258.76 780.09 260.84 781.43 262.93 782.69 265.01 783.88 267.1 785 269.18 786.05 273.35 787.94 277.52 789.58 281.68 790.99 285.85 792.24 292.1 793.93 298.36 795.63 302.52 796.87 306.69 798.25 310.86 799.75 317.11 802.21 325.45 805.52 329.62 807.05 333.79 808.42 337.95 809.6 342.12 810.57 346.29 811.33 350.46 811.91 354.63 812.33 358.79 812.62 362.96 812.79 367.13 812.87 369.44 812.87"/></g><g class="cls-49"><line class="cls-31" x1="213.96" y1="813.14" x2="213.96" y2="742.52"/></g><line class="cls-8" x1="39.32" y1="812.87" x2="39.32" y2="715.97"/><line class="cls-8" x1="475.64" y1="812.87" x2="475.64" y2="715.97"/><line class="cls-8" x1="39.32" y1="812.87" x2="475.64" y2="812.87"/><line class="cls-8" x1="39.32" y1="715.97" x2="475.64" y2="715.97"/><text class="cls-32" transform="translate(193.24 737.21)">34</text><text class="cls-43" transform="translate(218.18 737.21)">37</text><text class="cls-27" transform="translate(51.96 756.6)">p = 0.11</text><line x1="60.4" y1="919.35" x2="60.4" y2="921.54"/><line class="cls-3" x1="60.13" y1="919.35" x2="60.13" y2="921.54"/><text class="cls-44" transform="translate(56.92 931.91)">0</text><line x1="143.61" y1="919.35" x2="143.61" y2="921.54"/><line class="cls-3" x1="143.34" y1="919.35" x2="143.34" y2="921.54"/><text class="cls-44" transform="translate(136.68 931.91)">20</text><line x1="226.28" y1="919.35" x2="226.28" y2="921.54"/><line class="cls-3" x1="226.55" y1="919.35" x2="226.55" y2="921.54"/><text class="cls-44" transform="translate(219.79 931.91)">40</text><line x1="309.49" y1="919.35" x2="309.49" y2="921.54"/><line class="cls-3" x1="309.77" y1="919.35" x2="309.77" y2="921.54"/><text class="cls-44" transform="translate(302.9 931.91)">60</text><line x1="392.71" y1="919.35" x2="392.71" y2="921.54"/><line class="cls-3" x1="392.98" y1="919.35" x2="392.98" y2="921.54"/><text class="cls-44" transform="translate(386.01 931.91)">80</text><line x1="475.92" y1="919.35" x2="475.92" y2="921.54"/><line class="cls-3" x1="475.64" y1="919.35" x2="475.64" y2="921.54"/><text class="cls-44" transform="translate(465.78 931.91)">100</text><text class="cls-4" transform="translate(223.7 946.06)">Age (years)</text><text class="cls-27" transform="translate(34.69 908.59) rotate(-90)">Capper et al.</text><g class="cls-50"><line class="cls-29" x1="126.92" y1="919.35" x2="126.92" y2="914.42"/><line class="cls-29" x1="143.34" y1="919.35" x2="143.34" y2="914.42"/><line class="cls-29" x1="155.93" y1="919.35" x2="155.93" y2="914.42"/><line class="cls-29" x1="155.93" y1="919.35" x2="155.93" y2="914.42"/><line class="cls-29" x1="159.76" y1="919.35" x2="159.76" y2="914.42"/><line class="cls-29" x1="159.76" y1="919.35" x2="159.76" y2="914.42"/><line class="cls-29" x1="164.14" y1="919.35" x2="164.14" y2="914.42"/><line class="cls-29" x1="168.52" y1="919.35" x2="168.52" y2="914.42"/><line class="cls-29" x1="168.52" y1="919.35" x2="168.52" y2="914.42"/><line class="cls-29" x1="172.36" y1="919.35" x2="172.36" y2="914.42"/><line class="cls-29" x1="172.36" y1="919.35" x2="172.36" y2="914.42"/><line class="cls-29" x1="172.36" y1="919.35" x2="172.36" y2="914.42"/><line class="cls-29" x1="172.36" y1="919.35" x2="172.36" y2="914.42"/><line class="cls-29" x1="172.36" y1="919.35" x2="172.36" y2="914.42"/><line class="cls-29" x1="180.57" y1="919.35" x2="180.57" y2="914.42"/><line class="cls-29" x1="180.57" y1="919.35" x2="180.57" y2="914.42"/><line class="cls-29" x1="184.95" y1="919.35" x2="184.95" y2="914.42"/><line class="cls-29" x1="184.95" y1="919.35" x2="184.95" y2="914.42"/><line class="cls-29" x1="184.95" y1="919.35" x2="184.95" y2="914.42"/><line class="cls-29" x1="189.33" y1="919.35" x2="189.33" y2="914.42"/><line class="cls-29" x1="189.33" y1="919.35" x2="189.33" y2="914.42"/><line class="cls-29" x1="189.33" y1="919.35" x2="189.33" y2="914.42"/><line class="cls-29" x1="189.33" y1="919.35" x2="189.33" y2="914.42"/><line class="cls-29" x1="189.33" y1="919.35" x2="189.33" y2="914.42"/><line class="cls-29" x1="193.16" y1="919.35" x2="193.16" y2="914.42"/><line class="cls-29" x1="193.16" y1="919.35" x2="193.16" y2="914.42"/><line class="cls-29" x1="193.16" y1="919.35" x2="193.16" y2="914.42"/><line class="cls-29" x1="193.16" y1="919.35" x2="193.16" y2="914.42"/><line class="cls-29" x1="197.54" y1="919.35" x2="197.54" y2="914.42"/><line class="cls-29" x1="197.54" y1="919.35" x2="197.54" y2="914.42"/><line class="cls-29" x1="197.54" y1="919.35" x2="197.54" y2="914.42"/><line class="cls-29" x1="201.37" y1="919.35" x2="201.37" y2="914.42"/><line class="cls-29" x1="201.37" y1="919.35" x2="201.37" y2="914.42"/><line class="cls-29" x1="201.37" y1="919.35" x2="201.37" y2="914.42"/><line class="cls-29" x1="205.75" y1="919.35" x2="205.75" y2="914.42"/><line class="cls-29" x1="205.75" y1="919.35" x2="205.75" y2="914.42"/><line class="cls-29" x1="205.75" y1="919.35" x2="205.75" y2="914.42"/><line class="cls-29" x1="205.75" y1="919.35" x2="205.75" y2="914.42"/><line class="cls-29" x1="210.13" y1="919.35" x2="210.13" y2="914.42"/><line class="cls-29" x1="210.13" y1="919.35" x2="210.13" y2="914.42"/><line class="cls-29" x1="210.13" y1="919.35" x2="210.13" y2="914.42"/><line class="cls-29" x1="210.13" y1="919.35" x2="210.13" y2="914.42"/><line class="cls-29" x1="210.13" y1="919.35" x2="210.13" y2="914.42"/><line class="cls-29" x1="213.96" y1="919.35" x2="213.96" y2="914.42"/><line class="cls-29" x1="213.96" y1="919.35" x2="213.96" y2="914.42"/><line class="cls-29" x1="213.96" y1="919.35" x2="213.96" y2="914.42"/><line class="cls-29" x1="213.96" y1="919.35" x2="213.96" y2="914.42"/><line class="cls-29" x1="218.34" y1="919.35" x2="218.34" y2="914.42"/><line class="cls-29" x1="218.34" y1="919.35" x2="218.34" y2="914.42"/><line class="cls-29" x1="218.34" y1="919.35" x2="218.34" y2="914.42"/><line class="cls-29" x1="226.55" y1="919.35" x2="226.55" y2="914.42"/><line class="cls-29" x1="226.55" y1="919.35" x2="226.55" y2="914.42"/><line class="cls-29" x1="234.76" y1="919.35" x2="234.76" y2="914.42"/><line class="cls-29" x1="239.14" y1="919.35" x2="239.14" y2="914.42"/><line class="cls-29" x1="242.98" y1="919.35" x2="242.98" y2="914.42"/><line class="cls-29" x1="242.98" y1="919.35" x2="242.98" y2="914.42"/><line class="cls-29" x1="242.98" y1="919.35" x2="242.98" y2="914.42"/><line class="cls-29" x1="251.19" y1="919.35" x2="251.19" y2="914.42"/><line class="cls-29" x1="255.57" y1="919.35" x2="255.57" y2="914.42"/><line class="cls-29" x1="255.57" y1="919.35" x2="255.57" y2="914.42"/><line class="cls-29" x1="259.95" y1="919.35" x2="259.95" y2="914.42"/><line class="cls-29" x1="263.78" y1="919.35" x2="263.78" y2="914.42"/><line class="cls-29" x1="263.78" y1="919.35" x2="263.78" y2="914.42"/><line class="cls-29" x1="280.75" y1="919.35" x2="280.75" y2="914.42"/><line class="cls-29" x1="292.8" y1="919.35" x2="292.8" y2="914.42"/><line class="cls-29" x1="301.55" y1="919.35" x2="301.55" y2="914.42"/><line class="cls-29" x1="305.39" y1="919.35" x2="305.39" y2="914.42"/><line class="cls-29" x1="321.81" y1="919.35" x2="321.81" y2="914.42"/><line class="cls-29" x1="321.81" y1="919.35" x2="321.81" y2="914.42"/><line class="cls-29" x1="326.19" y1="919.35" x2="326.19" y2="914.42"/><line class="cls-29" x1="330.57" y1="919.35" x2="330.57" y2="914.42"/><line class="cls-29" x1="346.99" y1="919.35" x2="346.99" y2="914.42"/><line class="cls-29" x1="351.37" y1="919.35" x2="351.37" y2="914.42"/><line class="cls-29" x1="355.2" y1="919.35" x2="355.2" y2="914.42"/><line class="cls-29" x1="155.93" y1="919.35" x2="155.93" y2="914.42"/><line class="cls-29" x1="176.73" y1="919.35" x2="176.73" y2="914.42"/><line class="cls-29" x1="180.57" y1="919.35" x2="180.57" y2="914.42"/><line class="cls-29" x1="184.95" y1="919.35" x2="184.95" y2="914.42"/><line class="cls-29" x1="184.95" y1="919.35" x2="184.95" y2="914.42"/><line class="cls-29" x1="193.16" y1="919.35" x2="193.16" y2="914.42"/><line class="cls-29" x1="193.16" y1="919.35" x2="193.16" y2="914.42"/><line class="cls-29" x1="197.54" y1="919.35" x2="197.54" y2="914.42"/><line class="cls-29" x1="205.75" y1="919.35" x2="205.75" y2="914.42"/><line class="cls-29" x1="210.13" y1="919.35" x2="210.13" y2="914.42"/><line class="cls-29" x1="210.13" y1="919.35" x2="210.13" y2="914.42"/><line class="cls-29" x1="210.13" y1="919.35" x2="210.13" y2="914.42"/><line class="cls-29" x1="213.96" y1="919.35" x2="213.96" y2="914.42"/><line class="cls-29" x1="218.34" y1="919.35" x2="218.34" y2="914.42"/><line class="cls-29" x1="218.34" y1="919.35" x2="218.34" y2="914.42"/><line class="cls-29" x1="230.39" y1="919.35" x2="230.39" y2="914.42"/><line class="cls-29" x1="242.98" y1="919.35" x2="242.98" y2="914.42"/><line class="cls-29" x1="242.98" y1="919.35" x2="242.98" y2="914.42"/><line class="cls-29" x1="247.36" y1="919.35" x2="247.36" y2="914.42"/><line class="cls-29" x1="259.95" y1="919.35" x2="259.95" y2="914.42"/><line class="cls-29" x1="259.95" y1="919.35" x2="259.95" y2="914.42"/><line class="cls-29" x1="268.16" y1="919.35" x2="268.16" y2="914.42"/><line class="cls-29" x1="288.96" y1="919.35" x2="288.96" y2="914.42"/><line class="cls-29" x1="334.4" y1="919.35" x2="334.4" y2="914.42"/><line class="cls-29" x1="346.99" y1="919.35" x2="346.99" y2="914.42"/><line class="cls-29" x1="359.58" y1="919.35" x2="359.58" y2="914.42"/></g><g class="cls-50"><line class="cls-41" x1="230.39" y1="919.35" x2="230.39" y2="914.42"/><line class="cls-41" x1="226.55" y1="919.35" x2="226.55" y2="914.42"/><line class="cls-41" x1="230.39" y1="919.35" x2="230.39" y2="914.42"/><line class="cls-41" x1="259.95" y1="919.35" x2="259.95" y2="914.42"/><line class="cls-41" x1="288.96" y1="919.35" x2="288.96" y2="914.42"/><line class="cls-41" x1="288.96" y1="919.35" x2="288.96" y2="914.42"/><line class="cls-41" x1="359.58" y1="919.35" x2="359.58" y2="914.42"/></g><g class="cls-50"><polyline class="cls-30" points="74.91 919.62 85.71 919.55 93.65 919.36 98.94 919.11 104.23 918.73 109.52 918.17 112.17 917.82 114.81 917.4 117.46 916.92 120.1 916.35 122.75 915.69 125.39 914.91 128.04 914.01 130.68 912.95 133.33 911.72 135.97 910.3 138.62 908.68 141.26 906.84 143.91 904.76 146.56 902.46 149.2 899.93 151.85 897.19 154.49 894.24 157.14 891.11 159.78 887.81 162.43 884.39 167.72 877.26 175.65 866.48 178.3 863.04 180.94 859.78 183.59 856.75 186.24 854.01 188.88 851.64 191.53 849.7 194.17 848.25 196.82 847.33 199.46 847 202.11 847.25 204.75 848.12 207.4 849.56 210.04 851.54 212.69 853.98 215.34 856.8 217.98 859.89 225.92 869.63 228.56 872.68 231.21 875.5 233.85 878.04 236.5 880.3 239.14 882.29 241.79 884.04 244.43 885.6 247.08 887.03 257.66 892.5 262.95 895.47 270.89 900.08 273.53 901.53 276.18 902.88 278.82 904.1 281.47 905.18 284.11 906.11 286.76 906.88 289.4 907.5 292.05 907.97 294.69 908.32 297.34 908.55 299.99 908.67 302.63 908.67 305.28 908.33 310.57 908.03 315.86 907.55 326.44 906.49 331.73 906.16 334.38 905.93 337.34 905.95 339.96 906.07 342.58 906.28 345.2 906.6 347.82 907.03 350.44 907.57 353.06 908.22 355.68 908.96 360.93 910.66 371.41 914.29 374.03 915.11 376.65 915.86 379.27 916.52 381.89 917.09 384.52 917.57 387.14 917.96 389.76 918.28 395 918.71 400.24 918.95 405.48 919.07 411.05 919.12"/></g><g class="cls-50"><line class="cls-31" x1="210.13" y1="919.35" x2="210.13" y2="850.92"/></g><g class="cls-50"><polyline class="cls-42" points="133.65 918.97 138.66 918.79 143.68 918.47 148.7 917.98 151.21 917.65 153.72 917.26 156.23 916.79 158.74 916.25 161.25 915.62 163.76 914.89 166.27 914.05 168.78 913.11 171.28 912.04 173.79 910.85 176.3 909.52 178.81 908.07 181.32 906.48 183.83 904.75 186.34 902.9 188.85 900.93 191.36 898.85 193.87 896.67 198.88 892.07 211.43 880.15 213.94 877.88 216.45 875.7 218.96 873.64 221.47 871.72 223.98 869.94 226.49 868.34 228.99 866.91 231.5 865.66 234.01 864.61 236.52 863.75 239.03 863.08 241.54 862.59 244.05 862.28 246.56 862.14 249.84 862.16 252.32 862.33 254.81 862.63 257.3 863.06 259.79 863.6 262.28 864.25 264.77 865 267.26 865.83 269.75 866.75 272.24 867.75 274.73 868.83 277.22 869.97 282.2 872.45 287.17 875.17 292.15 878.08 299.62 882.66 307.09 887.24 312.07 890.13 314.56 891.49 317.04 892.78 319.53 893.99 322.02 895.11 324.51 896.15 327 897.09 329.49 897.94 331.98 898.7 334.47 899.37 336.96 899.97 341.94 900.97 346.91 901.78 361.85 904.01 366.83 904.93 371.81 905.99 376.79 907.18 384.25 909.16 396.7 912.54 401.68 913.77 406.65 914.87 411.63 915.82 416.61 916.61 421.59 917.25 426.57 917.75 431.55 918.11 436.52 918.37 441.5 918.53 447.29 919.07 452.1 919.05"/></g><g class="cls-50"><line class="cls-31" x1="259.95" y1="919.35" x2="259.95" y2="862.96"/></g><line class="cls-8" x1="39.32" y1="919.62" x2="39.32" y2="822.72"/><line class="cls-8" x1="475.64" y1="919.62" x2="475.64" y2="822.72"/><line class="cls-8" x1="39.32" y1="919.62" x2="475.64" y2="919.62"/><line class="cls-8" x1="39.32" y1="822.72" x2="475.64" y2="822.72"/><text class="cls-32" transform="translate(201.56 841.89)">36</text><text class="cls-43" transform="translate(251.42 854.23)">48</text><text class="cls-27" transform="translate(51.96 863.05)">p &lt; 0.01</text></g></g></svg>