<svg id="Layer_1" data-name="Layer 1" xmlns="http://www.w3.org/2000/svg" xmlns:xlink="http://www.w3.org/1999/xlink" viewBox="0 0 1781.85 469.13"><defs><style>.cls-1,.cls-12,.cls-16,.cls-19,.cls-20,.cls-21,.cls-22,.cls-23,.cls-28,.cls-35,.cls-38,.cls-39,.cls-41,.cls-42,.cls-44,.cls-9{fill:none;}.cls-2,.cls-4{font-size:24px;font-family:MyriadPro-Regular, Myriad Pro;}.cls-3{letter-spacing:-0.01em;}.cls-4{letter-spacing:0.02em;}.cls-5{letter-spacing:0em;}.cls-6{clip-path:url(#clip-path);}.cls-7{clip-path:url(#clip-path-3);}.cls-8{fill:gray;}.cls-12,.cls-22,.cls-38,.cls-39,.cls-44,.cls-9{stroke:#000;}.cls-19,.cls-20,.cls-21,.cls-22,.cls-23,.cls-35,.cls-38,.cls-9{stroke-linejoin:round;}.cls-12,.cls-9{stroke-width:0.8px;}.cls-10{font-size:15.77px;}.cls-10,.cls-11,.cls-13,.cls-14,.cls-24,.cls-25,.cls-26,.cls-36,.cls-37,.cls-40,.cls-43,.cls-46{font-family:ArialMT, Arial;}.cls-11{font-size:18.39px;}.cls-12,.cls-21,.cls-23{stroke-linecap:square;}.cls-12,.cls-16,.cls-28,.cls-39,.cls-41,.cls-42{stroke-miterlimit:10;}.cls-13{font-size:14.45px;}.cls-14{font-size:19.71px;}.cls-15,.cls-27{fill:#fff;}.cls-15,.cls-16{opacity:0.8;}.cls-16,.cls-28{stroke:#ccc;}.cls-17{clip-path:url(#clip-path-7);}.cls-18{clip-path:url(#clip-path-9);}.cls-19,.cls-21{stroke:#2b3a41;}.cls-20,.cls-23,.cls-41{stroke:#0e7a84;}.cls-21,.cls-23{stroke-width:5px;}.cls-22{stroke-width:3px;stroke-dasharray:3 4.95;}.cls-24,.cls-25,.cls-26{font-size:14px;}.cls-24,.cls-29{fill:#2b3a41;}.cls-25,.cls-30{fill:#0e7a84;}.cls-31{clip-path:url(#clip-path-15);}.cls-32{clip-path:url(#clip-path-21);}.cls-33{clip-path:url(#clip-path-23);}.cls-34{fill:red;}.cls-35,.cls-42{stroke:red;}.cls-36{font-size:15.77px;}.cls-37{font-size:18.39px;}.cls-38{stroke-dasharray:1 1.65;}.cls-40{font-size:19.71px;}.cls-43,.cls-46{font-size:14.45px;}.cls-44{stroke-linejoin:bevel;}.cls-45{font-size:21px;font-family:Symbol;}</style><clipPath id="clip-path" transform="translate(-47.21 -144.34)"><rect class="cls-1" x="642" y="146" width="567.6" height="473"/></clipPath><clipPath id="clip-path-3" transform="translate(-47.21 -144.34)"><rect class="cls-1" x="695.21" y="171.62" width="507.16" height="420.44"/></clipPath><clipPath id="clip-path-7" transform="translate(-47.21 -144.34)"><rect class="cls-1" x="1258" y="146" width="567.6" height="473"/></clipPath><clipPath id="clip-path-9" transform="translate(-47.21 -144.34)"><rect class="cls-1" x="1300.7" y="171.62" width="501.25" height="197.74"/></clipPath><clipPath id="clip-path-15" transform="translate(-47.21 -144.34)"><rect class="cls-1" x="1300.7" y="378.56" width="501.25" height="197.74"/></clipPath><clipPath id="clip-path-21" transform="translate(-47.21 -144.34)"><rect class="cls-1" x="45" y="146" width="567.6" height="473"/></clipPath><clipPath id="clip-path-23" transform="translate(-47.21 -144.34)"><rect class="cls-1" x="98.21" y="171.62" width="499.28" height="346.21"/></clipPath></defs><text class="cls-2" transform="translate(0 20.09)"><tspan class="cls-3">A</tspan><tspan x="14.47" y="0">)</tspan></text><text class="cls-2" transform="translate(606 20.09)">B)</text><text class="cls-4" transform="translate(1206.5 20.09)">C<tspan class="cls-5" x="14.33" y="0">)</tspan></text><g class="cls-6"><g class="cls-6"><g class="cls-7"><rect class="cls-8" x="690.71" y="376.77" width="140.59" height="70.95"/></g><g class="cls-7"><rect class="cls-8" x="972.54" y="73.26" width="140.59" height="374.46"/></g><g class="cls-7"><rect x="690.71" y="65.38" width="140.59" height="311.39"/></g><g class="cls-7"><rect x="972.54" y="65.38" width="140.59" height="7.88"/></g><line x1="761" y1="447.72" x2="761" y2="450.35"/><line class="cls-9" x1="760.67" y1="447.72" x2="760.67" y2="450.35"/><text class="cls-10" transform="translate(720.6 463.74)">Correct WT</text><line x1="1042.83" y1="447.72" x2="1042.83" y2="450.35"/><line class="cls-9" x1="1042.5" y1="447.72" x2="1042.5" y2="450.35"/><text class="cls-10" transform="translate(997.49 463.74)">Incorrect WT</text><line x1="648.01" y1="447.72" x2="646.04" y2="447.72"/><line class="cls-9" x1="648.01" y1="448.05" x2="646.04" y2="448.05"/><text class="cls-10" transform="translate(621.69 453.5)">0.0</text><line x1="648.01" y1="371.52" x2="646.04" y2="371.52"/><line class="cls-9" x1="648.01" y1="371.19" x2="646.04" y2="371.19"/><text class="cls-10" transform="translate(621.69 377.01)">0.2</text><line x1="648.01" y1="294.65" x2="646.04" y2="294.65"/><line class="cls-9" x1="648.01" y1="294.98" x2="646.04" y2="294.98"/><text class="cls-10" transform="translate(621.69 300.51)">0.4</text><line x1="648.01" y1="218.45" x2="646.04" y2="218.45"/><line class="cls-9" x1="648.01" y1="218.12" x2="646.04" y2="218.12"/><text class="cls-10" transform="translate(621.69 224.02)">0.6</text><line x1="648.01" y1="141.59" x2="646.04" y2="141.59"/><line class="cls-9" x1="648.01" y1="141.91" x2="646.04" y2="141.91"/><text class="cls-10" transform="translate(621.69 147.53)">0.8</text><line x1="648.01" y1="65.38" x2="646.04" y2="65.38"/><line class="cls-9" x1="648.01" y1="65.71" x2="646.04" y2="65.71"/><text class="cls-10" transform="translate(621.69 71.04)">1.0</text><text class="cls-11" transform="translate(615.19 284.55) rotate(-90)">Percentage</text><line class="cls-12" x1="648.34" y1="448.05" x2="648.34" y2="26.95"/><line class="cls-12" x1="1155.5" y1="448.05" x2="1155.5" y2="26.95"/><line class="cls-12" x1="648.34" y1="448.05" x2="1155.5" y2="448.05"/><line class="cls-12" x1="648.34" y1="26.95" x2="1155.5" y2="26.95"/><text class="cls-10" transform="translate(868.22 218.38)">p &lt; 1e-22</text><text class="cls-13" transform="translate(852.59 256.62)">(Fisher&apos;s exact)</text><text class="cls-14" transform="translate(717.69 23)">IDH-Wildtype Glioblastoma (Capper et al.)</text><rect class="cls-15" x="751.15" y="30.56" width="300.88" height="26.93" rx="3.15"/><rect class="cls-16" x="751.48" y="30.23" width="300.88" height="26.93" rx="3.15"/><rect class="cls-8" x="757.72" y="37.13" width="31.53" height="11.17"/><text class="cls-10" transform="translate(801.68 48.06)">H3G34</text><rect x="883.19" y="37.13" width="31.53" height="11.17"/><text class="cls-10" transform="translate(927.3 48.06)">RTKI/RTKII/MES</text></g></g><g class="cls-17"><g class="cls-17"><line x1="1277.15" y1="225.02" x2="1277.15" y2="226.99"/><line class="cls-9" x1="1277.47" y1="225.02" x2="1277.47" y2="226.99"/><line x1="1372.4" y1="225.02" x2="1372.4" y2="226.99"/><line class="cls-9" x1="1372.73" y1="225.02" x2="1372.73" y2="226.99"/><line x1="1468.32" y1="225.02" x2="1468.32" y2="226.99"/><line class="cls-9" x1="1467.99" y1="225.02" x2="1467.99" y2="226.99"/><line x1="1563.57" y1="225.02" x2="1563.57" y2="226.99"/><line class="cls-9" x1="1563.9" y1="225.02" x2="1563.9" y2="226.99"/><line x1="1658.83" y1="225.02" x2="1658.83" y2="226.99"/><line class="cls-9" x1="1659.16" y1="225.02" x2="1659.16" y2="226.99"/><line x1="1754.74" y1="225.02" x2="1754.74" y2="226.99"/><line class="cls-9" x1="1754.42" y1="225.02" x2="1754.42" y2="226.99"/><text class="cls-10" transform="translate(1247.42 200.96) rotate(-90)">IDH-Wildtype Tumors</text><g class="cls-18"><line class="cls-19" x1="1381.93" y1="225.02" x2="1381.93" y2="215.16"/><line class="cls-19" x1="1467.99" y1="225.02" x2="1467.99" y2="215.16"/><line class="cls-19" x1="1482.44" y1="225.02" x2="1482.44" y2="215.16"/><line class="cls-19" x1="1487.04" y1="225.02" x2="1487.04" y2="215.16"/><line class="cls-19" x1="1487.04" y1="225.02" x2="1487.04" y2="215.16"/><line class="cls-19" x1="1492.3" y1="225.02" x2="1492.3" y2="215.16"/><line class="cls-19" x1="1496.89" y1="225.02" x2="1496.89" y2="215.16"/><line class="cls-19" x1="1506.09" y1="225.02" x2="1506.09" y2="215.16"/><line class="cls-19" x1="1506.09" y1="225.02" x2="1506.09" y2="215.16"/><line class="cls-19" x1="1506.09" y1="225.02" x2="1506.09" y2="215.16"/><line class="cls-19" x1="1506.09" y1="225.02" x2="1506.09" y2="215.16"/><line class="cls-19" x1="1511.35" y1="225.02" x2="1511.35" y2="215.16"/><line class="cls-19" x1="1511.35" y1="225.02" x2="1511.35" y2="215.16"/><line class="cls-19" x1="1515.95" y1="225.02" x2="1515.95" y2="215.16"/><line class="cls-19" x1="1515.95" y1="225.02" x2="1515.95" y2="215.16"/><line class="cls-19" x1="1520.54" y1="225.02" x2="1520.54" y2="215.16"/><line class="cls-19" x1="1525.14" y1="225.02" x2="1525.14" y2="215.16"/><line class="cls-19" x1="1525.14" y1="225.02" x2="1525.14" y2="215.16"/><line class="cls-19" x1="1535" y1="225.02" x2="1535" y2="215.16"/><line class="cls-19" x1="1535" y1="225.02" x2="1535" y2="215.16"/><line class="cls-19" x1="1539.6" y1="225.02" x2="1539.6" y2="215.16"/><line class="cls-19" x1="1539.6" y1="225.02" x2="1539.6" y2="215.16"/><line class="cls-19" x1="1544.85" y1="225.02" x2="1544.85" y2="215.16"/><line class="cls-19" x1="1554.05" y1="225.02" x2="1554.05" y2="215.16"/><line class="cls-19" x1="1558.65" y1="225.02" x2="1558.65" y2="215.16"/><line class="cls-19" x1="1558.65" y1="225.02" x2="1558.65" y2="215.16"/><line class="cls-19" x1="1563.9" y1="225.02" x2="1563.9" y2="215.16"/><line class="cls-19" x1="1563.9" y1="225.02" x2="1563.9" y2="215.16"/><line class="cls-19" x1="1568.5" y1="225.02" x2="1568.5" y2="215.16"/><line class="cls-19" x1="1568.5" y1="225.02" x2="1568.5" y2="215.16"/><line class="cls-19" x1="1573.1" y1="225.02" x2="1573.1" y2="215.16"/><line class="cls-19" x1="1577.7" y1="225.02" x2="1577.7" y2="215.16"/><line class="cls-19" x1="1577.7" y1="225.02" x2="1577.7" y2="215.16"/><line class="cls-19" x1="1582.95" y1="225.02" x2="1582.95" y2="215.16"/><line class="cls-19" x1="1587.55" y1="225.02" x2="1587.55" y2="215.16"/><line class="cls-19" x1="1587.55" y1="225.02" x2="1587.55" y2="215.16"/><line class="cls-19" x1="1592.15" y1="225.02" x2="1592.15" y2="215.16"/><line class="cls-19" x1="1592.15" y1="225.02" x2="1592.15" y2="215.16"/><line class="cls-19" x1="1596.75" y1="225.02" x2="1596.75" y2="215.16"/><line class="cls-19" x1="1602" y1="225.02" x2="1602" y2="215.16"/><line class="cls-19" x1="1616.46" y1="225.02" x2="1616.46" y2="215.16"/><line class="cls-19" x1="1616.46" y1="225.02" x2="1616.46" y2="215.16"/><line class="cls-19" x1="1621.06" y1="225.02" x2="1621.06" y2="215.16"/><line class="cls-19" x1="1621.06" y1="225.02" x2="1621.06" y2="215.16"/><line class="cls-19" x1="1625.65" y1="225.02" x2="1625.65" y2="215.16"/><line class="cls-19" x1="1630.25" y1="225.02" x2="1630.25" y2="215.16"/><line class="cls-19" x1="1640.11" y1="225.02" x2="1640.11" y2="215.16"/><line class="cls-19" x1="1649.3" y1="225.02" x2="1649.3" y2="215.16"/><line class="cls-19" x1="1429.89" y1="225.02" x2="1429.89" y2="215.16"/><line class="cls-19" x1="1434.48" y1="225.02" x2="1434.48" y2="215.16"/><line class="cls-19" x1="1439.74" y1="225.02" x2="1439.74" y2="215.16"/><line class="cls-19" x1="1496.89" y1="225.02" x2="1496.89" y2="215.16"/><line class="cls-19" x1="1506.09" y1="225.02" x2="1506.09" y2="215.16"/><line class="cls-19" x1="1511.35" y1="225.02" x2="1511.35" y2="215.16"/><line class="cls-19" x1="1511.35" y1="225.02" x2="1511.35" y2="215.16"/><line class="cls-19" x1="1525.14" y1="225.02" x2="1525.14" y2="215.16"/><line class="cls-19" x1="1530.4" y1="225.02" x2="1530.4" y2="215.16"/><line class="cls-19" x1="1535" y1="225.02" x2="1535" y2="215.16"/><line class="cls-19" x1="1549.45" y1="225.02" x2="1549.45" y2="215.16"/><line class="cls-19" x1="1549.45" y1="225.02" x2="1549.45" y2="215.16"/><line class="cls-19" x1="1549.45" y1="225.02" x2="1549.45" y2="215.16"/><line class="cls-19" x1="1549.45" y1="225.02" x2="1549.45" y2="215.16"/><line class="cls-19" x1="1554.05" y1="225.02" x2="1554.05" y2="215.16"/><line class="cls-19" x1="1554.05" y1="225.02" x2="1554.05" y2="215.16"/><line class="cls-19" x1="1558.65" y1="225.02" x2="1558.65" y2="215.16"/><line class="cls-19" x1="1568.5" y1="225.02" x2="1568.5" y2="215.16"/><line class="cls-19" x1="1582.95" y1="225.02" x2="1582.95" y2="215.16"/><line class="cls-19" x1="1582.95" y1="225.02" x2="1582.95" y2="215.16"/><line class="cls-19" x1="1582.95" y1="225.02" x2="1582.95" y2="215.16"/><line class="cls-19" x1="1582.95" y1="225.02" x2="1582.95" y2="215.16"/><line class="cls-19" x1="1582.95" y1="225.02" x2="1582.95" y2="215.16"/><line class="cls-19" x1="1587.55" y1="225.02" x2="1587.55" y2="215.16"/><line class="cls-19" x1="1587.55" y1="225.02" x2="1587.55" y2="215.16"/><line class="cls-19" x1="1587.55" y1="225.02" x2="1587.55" y2="215.16"/><line class="cls-19" x1="1587.55" y1="225.02" x2="1587.55" y2="215.16"/><line class="cls-19" x1="1596.75" y1="225.02" x2="1596.75" y2="215.16"/><line class="cls-19" x1="1596.75" y1="225.02" x2="1596.75" y2="215.16"/><line class="cls-19" x1="1602" y1="225.02" x2="1602" y2="215.16"/><line class="cls-19" x1="1616.46" y1="225.02" x2="1616.46" y2="215.16"/><line class="cls-19" x1="1616.46" y1="225.02" x2="1616.46" y2="215.16"/><line class="cls-19" x1="1625.65" y1="225.02" x2="1625.65" y2="215.16"/><line class="cls-19" x1="1640.11" y1="225.02" x2="1640.11" y2="215.16"/><line class="cls-19" x1="1640.11" y1="225.02" x2="1640.11" y2="215.16"/><line class="cls-19" x1="1644.71" y1="225.02" x2="1644.71" y2="215.16"/><line class="cls-19" x1="1649.3" y1="225.02" x2="1649.3" y2="215.16"/><line class="cls-19" x1="1649.3" y1="225.02" x2="1649.3" y2="215.16"/><line class="cls-19" x1="1659.16" y1="225.02" x2="1659.16" y2="215.16"/><line class="cls-19" x1="1668.36" y1="225.02" x2="1668.36" y2="215.16"/><line class="cls-19" x1="1678.21" y1="225.02" x2="1678.21" y2="215.16"/><line class="cls-19" x1="1448.94" y1="225.02" x2="1448.94" y2="215.16"/><line class="cls-19" x1="1453.54" y1="225.02" x2="1453.54" y2="215.16"/><line class="cls-19" x1="1463.39" y1="225.02" x2="1463.39" y2="215.16"/><line class="cls-19" x1="1463.39" y1="225.02" x2="1463.39" y2="215.16"/><line class="cls-19" x1="1467.99" y1="225.02" x2="1467.99" y2="215.16"/><line class="cls-19" x1="1477.84" y1="225.02" x2="1477.84" y2="215.16"/><line class="cls-19" x1="1487.04" y1="225.02" x2="1487.04" y2="215.16"/><line class="cls-19" x1="1496.89" y1="225.02" x2="1496.89" y2="215.16"/><line class="cls-19" x1="1501.49" y1="225.02" x2="1501.49" y2="215.16"/><line class="cls-19" x1="1501.49" y1="225.02" x2="1501.49" y2="215.16"/><line class="cls-19" x1="1630.25" y1="225.02" x2="1630.25" y2="215.16"/><line class="cls-19" x1="1630.25" y1="225.02" x2="1630.25" y2="215.16"/><line class="cls-19" x1="1630.25" y1="225.02" x2="1630.25" y2="215.16"/><line class="cls-19" x1="1630.25" y1="225.02" x2="1630.25" y2="215.16"/><line class="cls-19" x1="1635.51" y1="225.02" x2="1635.51" y2="215.16"/><line class="cls-19" x1="1635.51" y1="225.02" x2="1635.51" y2="215.16"/><line class="cls-19" x1="1635.51" y1="225.02" x2="1635.51" y2="215.16"/><line class="cls-19" x1="1635.51" y1="225.02" x2="1635.51" y2="215.16"/><line class="cls-19" x1="1640.11" y1="225.02" x2="1640.11" y2="215.16"/><line class="cls-19" x1="1640.11" y1="225.02" x2="1640.11" y2="215.16"/><line class="cls-19" x1="1501.49" y1="225.02" x2="1501.49" y2="215.16"/><line class="cls-19" x1="1644.71" y1="225.02" x2="1644.71" y2="215.16"/><line class="cls-19" x1="1649.3" y1="225.02" x2="1649.3" y2="215.16"/><line class="cls-19" x1="1649.3" y1="225.02" x2="1649.3" y2="215.16"/><line class="cls-19" x1="1649.3" y1="225.02" x2="1649.3" y2="215.16"/><line class="cls-19" x1="1654.56" y1="225.02" x2="1654.56" y2="215.16"/><line class="cls-19" x1="1663.76" y1="225.02" x2="1663.76" y2="215.16"/><line class="cls-19" x1="1668.36" y1="225.02" x2="1668.36" y2="215.16"/><line class="cls-19" x1="1688.06" y1="225.02" x2="1688.06" y2="215.16"/><line class="cls-19" x1="1501.49" y1="225.02" x2="1501.49" y2="215.16"/><line class="cls-19" x1="1501.49" y1="225.02" x2="1501.49" y2="215.16"/><line class="cls-19" x1="1501.49" y1="225.02" x2="1501.49" y2="215.16"/><line class="cls-19" x1="1506.09" y1="225.02" x2="1506.09" y2="215.16"/><line class="cls-19" x1="1506.09" y1="225.02" x2="1506.09" y2="215.16"/><line class="cls-19" x1="1506.09" y1="225.02" x2="1506.09" y2="215.16"/><line class="cls-19" x1="1511.35" y1="225.02" x2="1511.35" y2="215.16"/><line class="cls-19" x1="1515.95" y1="225.02" x2="1515.95" y2="215.16"/><line class="cls-19" x1="1515.95" y1="225.02" x2="1515.95" y2="215.16"/><line class="cls-19" x1="1520.54" y1="225.02" x2="1520.54" y2="215.16"/><line class="cls-19" x1="1520.54" y1="225.02" x2="1520.54" y2="215.16"/><line class="cls-19" x1="1520.54" y1="225.02" x2="1520.54" y2="215.16"/><line class="cls-19" x1="1525.14" y1="225.02" x2="1525.14" y2="215.16"/><line class="cls-19" x1="1525.14" y1="225.02" x2="1525.14" y2="215.16"/><line class="cls-19" x1="1525.14" y1="225.02" x2="1525.14" y2="215.16"/><line class="cls-19" x1="1525.14" y1="225.02" x2="1525.14" y2="215.16"/><line class="cls-19" x1="1525.14" y1="225.02" x2="1525.14" y2="215.16"/><line class="cls-19" x1="1530.4" y1="225.02" x2="1530.4" y2="215.16"/><line class="cls-19" x1="1530.4" y1="225.02" x2="1530.4" y2="215.16"/><line class="cls-19" x1="1535" y1="225.02" x2="1535" y2="215.16"/><line class="cls-19" x1="1535" y1="225.02" x2="1535" y2="215.16"/><line class="cls-19" x1="1539.6" y1="225.02" x2="1539.6" y2="215.16"/><line class="cls-19" x1="1539.6" y1="225.02" x2="1539.6" y2="215.16"/><line class="cls-19" x1="1539.6" y1="225.02" x2="1539.6" y2="215.16"/><line class="cls-19" x1="1544.85" y1="225.02" x2="1544.85" y2="215.16"/><line class="cls-19" x1="1544.85" y1="225.02" x2="1544.85" y2="215.16"/><line class="cls-19" x1="1544.85" y1="225.02" x2="1544.85" y2="215.16"/><line class="cls-19" x1="1544.85" y1="225.02" x2="1544.85" y2="215.16"/><line class="cls-19" x1="1549.45" y1="225.02" x2="1549.45" y2="215.16"/><line class="cls-19" x1="1549.45" y1="225.02" x2="1549.45" y2="215.16"/><line class="cls-19" x1="1549.45" y1="225.02" x2="1549.45" y2="215.16"/><line class="cls-19" x1="1549.45" y1="225.02" x2="1549.45" y2="215.16"/><line class="cls-19" x1="1549.45" y1="225.02" x2="1549.45" y2="215.16"/><line class="cls-19" x1="1554.05" y1="225.02" x2="1554.05" y2="215.16"/><line class="cls-19" x1="1554.05" y1="225.02" x2="1554.05" y2="215.16"/><line class="cls-19" x1="1554.05" y1="225.02" x2="1554.05" y2="215.16"/><line class="cls-19" x1="1554.05" y1="225.02" x2="1554.05" y2="215.16"/><line class="cls-19" x1="1558.65" y1="225.02" x2="1558.65" y2="215.16"/><line class="cls-19" x1="1568.5" y1="225.02" x2="1568.5" y2="215.16"/><line class="cls-19" x1="1568.5" y1="225.02" x2="1568.5" y2="215.16"/><line class="cls-19" x1="1568.5" y1="225.02" x2="1568.5" y2="215.16"/><line class="cls-19" x1="1568.5" y1="225.02" x2="1568.5" y2="215.16"/><line class="cls-19" x1="1568.5" y1="225.02" x2="1568.5" y2="215.16"/><line class="cls-19" x1="1568.5" y1="225.02" x2="1568.5" y2="215.16"/><line class="cls-19" x1="1568.5" y1="225.02" x2="1568.5" y2="215.16"/><line class="cls-19" x1="1573.1" y1="225.02" x2="1573.1" y2="215.16"/><line class="cls-19" x1="1573.1" y1="225.02" x2="1573.1" y2="215.16"/><line class="cls-19" x1="1573.1" y1="225.02" x2="1573.1" y2="215.16"/><line class="cls-19" x1="1577.7" y1="225.02" x2="1577.7" y2="215.16"/><line class="cls-19" x1="1577.7" y1="225.02" x2="1577.7" y2="215.16"/><line class="cls-19" x1="1577.7" y1="225.02" x2="1577.7" y2="215.16"/><line class="cls-19" x1="1577.7" y1="225.02" x2="1577.7" y2="215.16"/><line class="cls-19" x1="1577.7" y1="225.02" x2="1577.7" y2="215.16"/><line class="cls-19" x1="1582.95" y1="225.02" x2="1582.95" y2="215.16"/><line class="cls-19" x1="1582.95" y1="225.02" x2="1582.95" y2="215.16"/><line class="cls-19" x1="1582.95" y1="225.02" x2="1582.95" y2="215.16"/><line class="cls-19" x1="1582.95" y1="225.02" x2="1582.95" y2="215.16"/><line class="cls-19" x1="1582.95" y1="225.02" x2="1582.95" y2="215.16"/><line class="cls-19" x1="1587.55" y1="225.02" x2="1587.55" y2="215.16"/><line class="cls-19" x1="1587.55" y1="225.02" x2="1587.55" y2="215.16"/><line class="cls-19" x1="1592.15" y1="225.02" x2="1592.15" y2="215.16"/><line class="cls-19" x1="1596.75" y1="225.02" x2="1596.75" y2="215.16"/><line class="cls-19" x1="1596.75" y1="225.02" x2="1596.75" y2="215.16"/><line class="cls-19" x1="1596.75" y1="225.02" x2="1596.75" y2="215.16"/><line class="cls-19" x1="1596.75" y1="225.02" x2="1596.75" y2="215.16"/><line class="cls-19" x1="1602" y1="225.02" x2="1602" y2="215.16"/><line class="cls-19" x1="1602" y1="225.02" x2="1602" y2="215.16"/><line class="cls-19" x1="1602" y1="225.02" x2="1602" y2="215.16"/><line class="cls-19" x1="1611.2" y1="225.02" x2="1611.2" y2="215.16"/><line class="cls-19" x1="1611.2" y1="225.02" x2="1611.2" y2="215.16"/><line class="cls-19" x1="1611.2" y1="225.02" x2="1611.2" y2="215.16"/><line class="cls-19" x1="1616.46" y1="225.02" x2="1616.46" y2="215.16"/><line class="cls-19" x1="1616.46" y1="225.02" x2="1616.46" y2="215.16"/><line class="cls-19" x1="1616.46" y1="225.02" x2="1616.46" y2="215.16"/><line class="cls-19" x1="1616.46" y1="225.02" x2="1616.46" y2="215.16"/><line class="cls-19" x1="1616.46" y1="225.02" x2="1616.46" y2="215.16"/><line class="cls-19" x1="1621.06" y1="225.02" x2="1621.06" y2="215.16"/><line class="cls-19" x1="1625.65" y1="225.02" x2="1625.65" y2="215.16"/><line class="cls-19" x1="1625.65" y1="225.02" x2="1625.65" y2="215.16"/><line class="cls-19" x1="1630.25" y1="225.02" x2="1630.25" y2="215.16"/></g><g class="cls-18"><line class="cls-20" x1="1330.03" y1="225.02" x2="1330.03" y2="215.16"/><line class="cls-20" x1="1334.63" y1="225.02" x2="1334.63" y2="215.16"/><line class="cls-20" x1="1343.83" y1="225.02" x2="1343.83" y2="215.16"/><line class="cls-20" x1="1353.68" y1="225.02" x2="1353.68" y2="215.16"/><line class="cls-20" x1="1362.88" y1="225.02" x2="1362.88" y2="215.16"/><line class="cls-20" x1="1368.13" y1="225.02" x2="1368.13" y2="215.16"/><line class="cls-20" x1="1372.73" y1="225.02" x2="1372.73" y2="215.16"/><line class="cls-20" x1="1381.93" y1="225.02" x2="1381.93" y2="215.16"/><line class="cls-20" x1="1429.89" y1="225.02" x2="1429.89" y2="215.16"/><line class="cls-20" x1="1415.43" y1="225.02" x2="1415.43" y2="215.16"/><line class="cls-20" x1="1544.85" y1="225.02" x2="1544.85" y2="215.16"/><line class="cls-20" x1="1596.75" y1="225.02" x2="1596.75" y2="215.16"/><line class="cls-20" x1="1640.11" y1="225.02" x2="1640.11" y2="215.16"/></g><g class="cls-18"><polyline class="cls-21" points="1321.49 224.69 1334.94 224.61 1345.02 224.41 1355.11 224.03 1378.64 222.92 1395.45 222.41 1398.81 222.23 1402.17 221.96 1405.54 221.61 1408.9 221.15 1412.26 220.58 1415.62 219.9 1418.98 219.11 1422.35 218.24 1429.07 216.27 1435.8 214.11 1442.52 211.81 1445.88 210.59 1449.24 209.28 1452.6 207.86 1455.97 206.28 1459.33 204.49 1462.69 202.43 1466.05 200.04 1469.41 197.29 1472.78 194.13 1476.14 190.55 1479.5 186.56 1482.86 182.18 1486.22 177.48 1492.95 167.54 1496.31 162.53 1499.67 157.66 1503.03 153.03 1506.39 148.75 1509.76 144.86 1513.12 141.4 1516.48 138.36 1519.84 135.71 1523.2 133.39 1526.57 131.35 1529.93 129.52 1533.29 127.83 1540.02 124.71 1546.74 121.76 1553.46 118.95 1556.83 117.65 1560.19 116.47 1563.55 115.48 1566.91 114.74 1570.27 114.32 1573.62 114.3 1576.99 114.73 1580.36 115.64 1583.72 117.05 1587.09 118.9 1590.45 121.15 1593.82 123.69 1600.55 129.22 1607.29 134.69 1610.65 137.25 1614.02 139.68 1624.12 146.69 1627.48 149.2 1630.85 151.94 1634.21 154.97 1637.58 158.33 1640.95 162.03 1644.31 166.03 1647.68 170.29 1654.41 179.27 1661.14 188.27 1664.51 192.56 1667.88 196.62 1671.24 200.4 1674.61 203.85 1677.98 206.98 1681.34 209.78 1684.71 212.25 1688.07 214.41 1691.44 216.29 1694.81 217.9 1698.17 219.27 1701.54 220.43 1704.91 221.39 1708.27 222.19 1711.64 222.83 1715 223.35 1718.37 223.75 1721.74 224.06 1728.47 224.47 1735.2 224.69 1745.23 225.35 1748.5 225.36"/></g><g class="cls-18"><line class="cls-22" x1="1568.5" y1="225.02" x2="1568.5" y2="113.34"/></g><g class="cls-18"><polyline class="cls-23" points="1222.05 224.13 1230.33 223.82 1234.47 223.54 1238.61 223.17 1242.75 222.67 1246.88 222.01 1251.02 221.17 1255.16 220.11 1259.3 218.78 1263.44 217.15 1267.58 215.18 1271.72 212.82 1275.86 210.03 1280 206.79 1284.14 203.07 1288.28 198.86 1292.42 194.17 1296.56 189.01 1300.69 183.42 1304.83 177.47 1308.97 171.21 1317.25 158.21 1321.39 151.69 1325.53 145.32 1329.67 139.25 1333.81 133.59 1337.95 128.49 1342.09 124.05 1346.22 120.36 1350.36 117.5 1354.5 115.52 1358.64 114.45 1362.78 114.28 1366.92 114.98 1371.06 116.5 1375.2 118.77 1379.34 121.71 1383.48 125.21 1387.62 129.18 1391.76 133.51 1395.89 138.1 1404.17 147.74 1412.45 157.52 1420.73 167.03 1424.87 171.61 1429.01 176.04 1433.15 180.3 1437.29 184.39 1441.42 188.28 1445.56 191.97 1449.7 195.42 1453.84 198.63 1457.98 201.58 1462.12 204.24 1466.26 206.61 1470.4 208.66 1474.54 210.39 1478.68 211.8 1482.82 212.87 1486.96 213.62 1491.1 214.06 1495.23 214.21 1499.37 214.09 1503.51 213.74 1507.65 213.17 1511.79 212.42 1515.93 211.54 1524.21 209.52 1536.63 206.3 1544.9 204.33 1553.18 202.62 1561.46 201.19 1569.74 200.04 1578.02 199.11 1586.3 198.39 1594.57 197.9 1598.71 197.75 1602.85 198.41 1606.99 198.44 1611.13 198.58 1615.27 198.82 1619.41 199.19 1623.55 199.69 1627.69 200.32 1631.83 201.09 1635.96 201.99 1640.1 203.01 1644.24 204.14 1648.38 205.38 1656.66 208.07 1673.22 213.7 1681.5 216.29 1685.63 217.46 1689.77 218.53 1693.91 219.5 1698.05 220.37 1702.19 221.12 1706.33 221.78 1710.47 222.33 1714.61 222.79 1718.75 223.17 1727.03 223.72 1735.3 224.03 1743.58 224.69 1747.85 224.68"/></g><g class="cls-18"><line class="cls-22" x1="1372.73" y1="225.02" x2="1372.73" y2="117.28"/></g><line class="cls-12" x1="1253.17" y1="224.69" x2="1253.17" y2="26.95"/><line class="cls-12" x1="1754.42" y1="224.69" x2="1754.42" y2="26.95"/><line class="cls-12" x1="1253.17" y1="224.69" x2="1754.42" y2="224.69"/><line class="cls-12" x1="1253.17" y1="26.95" x2="1754.42" y2="26.95"/><text class="cls-24" transform="translate(1558.88 102.66)">61</text><text class="cls-25" transform="translate(1363.16 106.26)">20</text><text class="cls-26" transform="translate(1267.69 63.11)">p &lt; 0.0005</text><text class="cls-14" transform="translate(1267.82 23.21)">Capper et al. Age Distributions (Confident Predictions)</text><rect class="cls-27" x="1404.59" y="35.16" width="335.7" height="22.99" rx="2.63"/><rect class="cls-28" x="1404.26" y="35.49" width="335.7" height="22.99" rx="2.63"/><rect class="cls-29" x="1409.19" y="41.07" width="26.28" height="9.2"/><text class="cls-26" transform="translate(1446.21 50.33)">Correct Wildtype</text><rect class="cls-30" x="1562.49" y="41.07" width="29.28" height="9.2"/><text class="cls-26" transform="translate(1598.38 50.33)">Misclassified Wildtype</text><line x1="1277.15" y1="431.96" x2="1277.15" y2="434.58"/><line class="cls-9" x1="1277.47" y1="431.96" x2="1277.47" y2="434.58"/><text class="cls-13" transform="translate(1273.21 447.03)">0</text><line x1="1372.4" y1="431.96" x2="1372.4" y2="434.58"/><line class="cls-9" x1="1372.73" y1="431.96" x2="1372.73" y2="434.58"/><text class="cls-13" transform="translate(1364.67 447.03)">20</text><line x1="1468.32" y1="431.96" x2="1468.32" y2="434.58"/><line class="cls-9" x1="1467.99" y1="431.96" x2="1467.99" y2="434.58"/><text class="cls-13" transform="translate(1460.14 447.03)">40</text><line x1="1563.57" y1="431.96" x2="1563.57" y2="434.58"/><line class="cls-9" x1="1563.9" y1="431.96" x2="1563.9" y2="434.58"/><text class="cls-13" transform="translate(1555.61 447.03)">60</text><line x1="1658.83" y1="431.96" x2="1658.83" y2="434.58"/><line class="cls-9" x1="1659.16" y1="431.96" x2="1659.16" y2="434.58"/><text class="cls-13" transform="translate(1651.09 447.03)">80</text><line x1="1754.74" y1="431.96" x2="1754.74" y2="434.58"/><line class="cls-9" x1="1754.42" y1="431.96" x2="1754.42" y2="434.58"/><text class="cls-13" transform="translate(1742.54 447.03)">100</text><text class="cls-10" transform="translate(1463.23 464.01)">Age (years)</text><text class="cls-10" transform="translate(1230.74 401.99) rotate(-90)">Non-H3G34-Mutant</text><text class="cls-10" transform="translate(1247.42 408.13) rotate(-90)">IDH-Wildtype Tumors</text><g class="cls-31"><line class="cls-19" x1="1467.99" y1="431.96" x2="1467.99" y2="422.1"/><line class="cls-19" x1="1482.44" y1="431.96" x2="1482.44" y2="422.1"/><line class="cls-19" x1="1487.04" y1="431.96" x2="1487.04" y2="422.1"/><line class="cls-19" x1="1487.04" y1="431.96" x2="1487.04" y2="422.1"/><line class="cls-19" x1="1492.3" y1="431.96" x2="1492.3" y2="422.1"/><line class="cls-19" x1="1496.89" y1="431.96" x2="1496.89" y2="422.1"/><line class="cls-19" x1="1506.09" y1="431.96" x2="1506.09" y2="422.1"/><line class="cls-19" x1="1506.09" y1="431.96" x2="1506.09" y2="422.1"/><line class="cls-19" x1="1506.09" y1="431.96" x2="1506.09" y2="422.1"/><line class="cls-19" x1="1506.09" y1="431.96" x2="1506.09" y2="422.1"/><line class="cls-19" x1="1511.35" y1="431.96" x2="1511.35" y2="422.1"/><line class="cls-19" x1="1511.35" y1="431.96" x2="1511.35" y2="422.1"/><line class="cls-19" x1="1515.95" y1="431.96" x2="1515.95" y2="422.1"/><line class="cls-19" x1="1515.95" y1="431.96" x2="1515.95" y2="422.1"/><line class="cls-19" x1="1520.54" y1="431.96" x2="1520.54" y2="422.1"/><line class="cls-19" x1="1525.14" y1="431.96" x2="1525.14" y2="422.1"/><line class="cls-19" x1="1525.14" y1="431.96" x2="1525.14" y2="422.1"/><line class="cls-19" x1="1535" y1="431.96" x2="1535" y2="422.1"/><line class="cls-19" x1="1535" y1="431.96" x2="1535" y2="422.1"/><line class="cls-19" x1="1539.6" y1="431.96" x2="1539.6" y2="422.1"/><line class="cls-19" x1="1539.6" y1="431.96" x2="1539.6" y2="422.1"/><line class="cls-19" x1="1544.85" y1="431.96" x2="1544.85" y2="422.1"/><line class="cls-19" x1="1554.05" y1="431.96" x2="1554.05" y2="422.1"/><line class="cls-19" x1="1558.65" y1="431.96" x2="1558.65" y2="422.1"/><line class="cls-19" x1="1558.65" y1="431.96" x2="1558.65" y2="422.1"/><line class="cls-19" x1="1563.9" y1="431.96" x2="1563.9" y2="422.1"/><line class="cls-19" x1="1563.9" y1="431.96" x2="1563.9" y2="422.1"/><line class="cls-19" x1="1568.5" y1="431.96" x2="1568.5" y2="422.1"/><line class="cls-19" x1="1568.5" y1="431.96" x2="1568.5" y2="422.1"/><line class="cls-19" x1="1573.1" y1="431.96" x2="1573.1" y2="422.1"/><line class="cls-19" x1="1577.7" y1="431.96" x2="1577.7" y2="422.1"/><line class="cls-19" x1="1577.7" y1="431.96" x2="1577.7" y2="422.1"/><line class="cls-19" x1="1582.95" y1="431.96" x2="1582.95" y2="422.1"/><line class="cls-19" x1="1587.55" y1="431.96" x2="1587.55" y2="422.1"/><line class="cls-19" x1="1587.55" y1="431.96" x2="1587.55" y2="422.1"/><line class="cls-19" x1="1592.15" y1="431.96" x2="1592.15" y2="422.1"/><line class="cls-19" x1="1592.15" y1="431.96" x2="1592.15" y2="422.1"/><line class="cls-19" x1="1596.75" y1="431.96" x2="1596.75" y2="422.1"/><line class="cls-19" x1="1602" y1="431.96" x2="1602" y2="422.1"/><line class="cls-19" x1="1616.46" y1="431.96" x2="1616.46" y2="422.1"/><line class="cls-19" x1="1616.46" y1="431.96" x2="1616.46" y2="422.1"/><line class="cls-19" x1="1621.06" y1="431.96" x2="1621.06" y2="422.1"/><line class="cls-19" x1="1621.06" y1="431.96" x2="1621.06" y2="422.1"/><line class="cls-19" x1="1625.65" y1="431.96" x2="1625.65" y2="422.1"/><line class="cls-19" x1="1630.25" y1="431.96" x2="1630.25" y2="422.1"/><line class="cls-19" x1="1640.11" y1="431.96" x2="1640.11" y2="422.1"/><line class="cls-19" x1="1649.3" y1="431.96" x2="1649.3" y2="422.1"/><line class="cls-19" x1="1429.89" y1="431.96" x2="1429.89" y2="422.1"/><line class="cls-19" x1="1434.48" y1="431.96" x2="1434.48" y2="422.1"/><line class="cls-19" x1="1439.74" y1="431.96" x2="1439.74" y2="422.1"/><line class="cls-19" x1="1496.89" y1="431.96" x2="1496.89" y2="422.1"/><line class="cls-19" x1="1506.09" y1="431.96" x2="1506.09" y2="422.1"/><line class="cls-19" x1="1511.35" y1="431.96" x2="1511.35" y2="422.1"/><line class="cls-19" x1="1511.35" y1="431.96" x2="1511.35" y2="422.1"/><line class="cls-19" x1="1525.14" y1="431.96" x2="1525.14" y2="422.1"/><line class="cls-19" x1="1530.4" y1="431.96" x2="1530.4" y2="422.1"/><line class="cls-19" x1="1535" y1="431.96" x2="1535" y2="422.1"/><line class="cls-19" x1="1549.45" y1="431.96" x2="1549.45" y2="422.1"/><line class="cls-19" x1="1549.45" y1="431.96" x2="1549.45" y2="422.1"/><line class="cls-19" x1="1549.45" y1="431.96" x2="1549.45" y2="422.1"/><line class="cls-19" x1="1549.45" y1="431.96" x2="1549.45" y2="422.1"/><line class="cls-19" x1="1554.05" y1="431.96" x2="1554.05" y2="422.1"/><line class="cls-19" x1="1554.05" y1="431.96" x2="1554.05" y2="422.1"/><line class="cls-19" x1="1558.65" y1="431.96" x2="1558.65" y2="422.1"/><line class="cls-19" x1="1568.5" y1="431.96" x2="1568.5" y2="422.1"/><line class="cls-19" x1="1582.95" y1="431.96" x2="1582.95" y2="422.1"/><line class="cls-19" x1="1582.95" y1="431.96" x2="1582.95" y2="422.1"/><line class="cls-19" x1="1582.95" y1="431.96" x2="1582.95" y2="422.1"/><line class="cls-19" x1="1582.95" y1="431.96" x2="1582.95" y2="422.1"/><line class="cls-19" x1="1582.95" y1="431.96" x2="1582.95" y2="422.1"/><line class="cls-19" x1="1587.55" y1="431.96" x2="1587.55" y2="422.1"/><line class="cls-19" x1="1587.55" y1="431.96" x2="1587.55" y2="422.1"/><line class="cls-19" x1="1587.55" y1="431.96" x2="1587.55" y2="422.1"/><line class="cls-19" x1="1587.55" y1="431.96" x2="1587.55" y2="422.1"/><line class="cls-19" x1="1596.75" y1="431.96" x2="1596.75" y2="422.1"/><line class="cls-19" x1="1596.75" y1="431.96" x2="1596.75" y2="422.1"/><line class="cls-19" x1="1602" y1="431.96" x2="1602" y2="422.1"/><line class="cls-19" x1="1616.46" y1="431.96" x2="1616.46" y2="422.1"/><line class="cls-19" x1="1616.46" y1="431.96" x2="1616.46" y2="422.1"/><line class="cls-19" x1="1625.65" y1="431.96" x2="1625.65" y2="422.1"/><line class="cls-19" x1="1640.11" y1="431.96" x2="1640.11" y2="422.1"/><line class="cls-19" x1="1640.11" y1="431.96" x2="1640.11" y2="422.1"/><line class="cls-19" x1="1644.71" y1="431.96" x2="1644.71" y2="422.1"/><line class="cls-19" x1="1649.3" y1="431.96" x2="1649.3" y2="422.1"/><line class="cls-19" x1="1649.3" y1="431.96" x2="1649.3" y2="422.1"/><line class="cls-19" x1="1659.16" y1="431.96" x2="1659.16" y2="422.1"/><line class="cls-19" x1="1668.36" y1="431.96" x2="1668.36" y2="422.1"/><line class="cls-19" x1="1678.21" y1="431.96" x2="1678.21" y2="422.1"/><line class="cls-19" x1="1448.94" y1="431.96" x2="1448.94" y2="422.1"/><line class="cls-19" x1="1453.54" y1="431.96" x2="1453.54" y2="422.1"/><line class="cls-19" x1="1463.39" y1="431.96" x2="1463.39" y2="422.1"/><line class="cls-19" x1="1463.39" y1="431.96" x2="1463.39" y2="422.1"/><line class="cls-19" x1="1467.99" y1="431.96" x2="1467.99" y2="422.1"/><line class="cls-19" x1="1477.84" y1="431.96" x2="1477.84" y2="422.1"/><line class="cls-19" x1="1487.04" y1="431.96" x2="1487.04" y2="422.1"/><line class="cls-19" x1="1496.89" y1="431.96" x2="1496.89" y2="422.1"/><line class="cls-19" x1="1501.49" y1="431.96" x2="1501.49" y2="422.1"/><line class="cls-19" x1="1501.49" y1="431.96" x2="1501.49" y2="422.1"/><line class="cls-19" x1="1630.25" y1="431.96" x2="1630.25" y2="422.1"/><line class="cls-19" x1="1630.25" y1="431.96" x2="1630.25" y2="422.1"/><line class="cls-19" x1="1630.25" y1="431.96" x2="1630.25" y2="422.1"/><line class="cls-19" x1="1630.25" y1="431.96" x2="1630.25" y2="422.1"/><line class="cls-19" x1="1635.51" y1="431.96" x2="1635.51" y2="422.1"/><line class="cls-19" x1="1635.51" y1="431.96" x2="1635.51" y2="422.1"/><line class="cls-19" x1="1635.51" y1="431.96" x2="1635.51" y2="422.1"/><line class="cls-19" x1="1635.51" y1="431.96" x2="1635.51" y2="422.1"/><line class="cls-19" x1="1640.11" y1="431.96" x2="1640.11" y2="422.1"/><line class="cls-19" x1="1640.11" y1="431.96" x2="1640.11" y2="422.1"/><line class="cls-19" x1="1501.49" y1="431.96" x2="1501.49" y2="422.1"/><line class="cls-19" x1="1644.71" y1="431.96" x2="1644.71" y2="422.1"/><line class="cls-19" x1="1649.3" y1="431.96" x2="1649.3" y2="422.1"/><line class="cls-19" x1="1649.3" y1="431.96" x2="1649.3" y2="422.1"/><line class="cls-19" x1="1649.3" y1="431.96" x2="1649.3" y2="422.1"/><line class="cls-19" x1="1654.56" y1="431.96" x2="1654.56" y2="422.1"/><line class="cls-19" x1="1663.76" y1="431.96" x2="1663.76" y2="422.1"/><line class="cls-19" x1="1668.36" y1="431.96" x2="1668.36" y2="422.1"/><line class="cls-19" x1="1688.06" y1="431.96" x2="1688.06" y2="422.1"/><line class="cls-19" x1="1501.49" y1="431.96" x2="1501.49" y2="422.1"/><line class="cls-19" x1="1501.49" y1="431.96" x2="1501.49" y2="422.1"/><line class="cls-19" x1="1501.49" y1="431.96" x2="1501.49" y2="422.1"/><line class="cls-19" x1="1506.09" y1="431.96" x2="1506.09" y2="422.1"/><line class="cls-19" x1="1506.09" y1="431.96" x2="1506.09" y2="422.1"/><line class="cls-19" x1="1506.09" y1="431.96" x2="1506.09" y2="422.1"/><line class="cls-19" x1="1511.35" y1="431.96" x2="1511.35" y2="422.1"/><line class="cls-19" x1="1515.95" y1="431.96" x2="1515.95" y2="422.1"/><line class="cls-19" x1="1515.95" y1="431.96" x2="1515.95" y2="422.1"/><line class="cls-19" x1="1520.54" y1="431.96" x2="1520.54" y2="422.1"/><line class="cls-19" x1="1520.54" y1="431.96" x2="1520.54" y2="422.1"/><line class="cls-19" x1="1520.54" y1="431.96" x2="1520.54" y2="422.1"/><line class="cls-19" x1="1525.14" y1="431.96" x2="1525.14" y2="422.1"/><line class="cls-19" x1="1525.14" y1="431.96" x2="1525.14" y2="422.1"/><line class="cls-19" x1="1525.14" y1="431.96" x2="1525.14" y2="422.1"/><line class="cls-19" x1="1525.14" y1="431.96" x2="1525.14" y2="422.1"/><line class="cls-19" x1="1525.14" y1="431.96" x2="1525.14" y2="422.1"/><line class="cls-19" x1="1530.4" y1="431.96" x2="1530.4" y2="422.1"/><line class="cls-19" x1="1530.4" y1="431.96" x2="1530.4" y2="422.1"/><line class="cls-19" x1="1535" y1="431.96" x2="1535" y2="422.1"/><line class="cls-19" x1="1535" y1="431.96" x2="1535" y2="422.1"/><line class="cls-19" x1="1539.6" y1="431.96" x2="1539.6" y2="422.1"/><line class="cls-19" x1="1539.6" y1="431.96" x2="1539.6" y2="422.1"/><line class="cls-19" x1="1539.6" y1="431.96" x2="1539.6" y2="422.1"/><line class="cls-19" x1="1544.85" y1="431.96" x2="1544.85" y2="422.1"/><line class="cls-19" x1="1544.85" y1="431.96" x2="1544.85" y2="422.1"/><line class="cls-19" x1="1544.85" y1="431.96" x2="1544.85" y2="422.1"/><line class="cls-19" x1="1544.85" y1="431.96" x2="1544.85" y2="422.1"/><line class="cls-19" x1="1549.45" y1="431.96" x2="1549.45" y2="422.1"/><line class="cls-19" x1="1549.45" y1="431.96" x2="1549.45" y2="422.1"/><line class="cls-19" x1="1549.45" y1="431.96" x2="1549.45" y2="422.1"/><line class="cls-19" x1="1549.45" y1="431.96" x2="1549.45" y2="422.1"/><line class="cls-19" x1="1549.45" y1="431.96" x2="1549.45" y2="422.1"/><line class="cls-19" x1="1554.05" y1="431.96" x2="1554.05" y2="422.1"/><line class="cls-19" x1="1554.05" y1="431.96" x2="1554.05" y2="422.1"/><line class="cls-19" x1="1554.05" y1="431.96" x2="1554.05" y2="422.1"/><line class="cls-19" x1="1554.05" y1="431.96" x2="1554.05" y2="422.1"/><line class="cls-19" x1="1558.65" y1="431.96" x2="1558.65" y2="422.1"/><line class="cls-19" x1="1568.5" y1="431.96" x2="1568.5" y2="422.1"/><line class="cls-19" x1="1568.5" y1="431.96" x2="1568.5" y2="422.1"/><line class="cls-19" x1="1568.5" y1="431.96" x2="1568.5" y2="422.1"/><line class="cls-19" x1="1568.5" y1="431.96" x2="1568.5" y2="422.1"/><line class="cls-19" x1="1568.5" y1="431.96" x2="1568.5" y2="422.1"/><line class="cls-19" x1="1568.5" y1="431.96" x2="1568.5" y2="422.1"/><line class="cls-19" x1="1568.5" y1="431.96" x2="1568.5" y2="422.1"/><line class="cls-19" x1="1573.1" y1="431.96" x2="1573.1" y2="422.1"/><line class="cls-19" x1="1573.1" y1="431.96" x2="1573.1" y2="422.1"/><line class="cls-19" x1="1573.1" y1="431.96" x2="1573.1" y2="422.1"/><line class="cls-19" x1="1577.7" y1="431.96" x2="1577.7" y2="422.1"/><line class="cls-19" x1="1577.7" y1="431.96" x2="1577.7" y2="422.1"/><line class="cls-19" x1="1577.7" y1="431.96" x2="1577.7" y2="422.1"/><line class="cls-19" x1="1577.7" y1="431.96" x2="1577.7" y2="422.1"/><line class="cls-19" x1="1577.7" y1="431.96" x2="1577.7" y2="422.1"/><line class="cls-19" x1="1582.95" y1="431.96" x2="1582.95" y2="422.1"/><line class="cls-19" x1="1582.95" y1="431.96" x2="1582.95" y2="422.1"/><line class="cls-19" x1="1582.95" y1="431.96" x2="1582.95" y2="422.1"/><line class="cls-19" x1="1582.95" y1="431.96" x2="1582.95" y2="422.1"/><line class="cls-19" x1="1582.95" y1="431.96" x2="1582.95" y2="422.1"/><line class="cls-19" x1="1587.55" y1="431.96" x2="1587.55" y2="422.1"/><line class="cls-19" x1="1587.55" y1="431.96" x2="1587.55" y2="422.1"/><line class="cls-19" x1="1592.15" y1="431.96" x2="1592.15" y2="422.1"/><line class="cls-19" x1="1596.75" y1="431.96" x2="1596.75" y2="422.1"/><line class="cls-19" x1="1596.75" y1="431.96" x2="1596.75" y2="422.1"/><line class="cls-19" x1="1596.75" y1="431.96" x2="1596.75" y2="422.1"/><line class="cls-19" x1="1596.75" y1="431.96" x2="1596.75" y2="422.1"/><line class="cls-19" x1="1602" y1="431.96" x2="1602" y2="422.1"/><line class="cls-19" x1="1602" y1="431.96" x2="1602" y2="422.1"/><line class="cls-19" x1="1602" y1="431.96" x2="1602" y2="422.1"/><line class="cls-19" x1="1611.2" y1="431.96" x2="1611.2" y2="422.1"/><line class="cls-19" x1="1611.2" y1="431.96" x2="1611.2" y2="422.1"/><line class="cls-19" x1="1611.2" y1="431.96" x2="1611.2" y2="422.1"/><line class="cls-19" x1="1616.46" y1="431.96" x2="1616.46" y2="422.1"/><line class="cls-19" x1="1616.46" y1="431.96" x2="1616.46" y2="422.1"/><line class="cls-19" x1="1616.46" y1="431.96" x2="1616.46" y2="422.1"/><line class="cls-19" x1="1616.46" y1="431.96" x2="1616.46" y2="422.1"/><line class="cls-19" x1="1616.46" y1="431.96" x2="1616.46" y2="422.1"/><line class="cls-19" x1="1621.06" y1="431.96" x2="1621.06" y2="422.1"/><line class="cls-19" x1="1625.65" y1="431.96" x2="1625.65" y2="422.1"/><line class="cls-19" x1="1625.65" y1="431.96" x2="1625.65" y2="422.1"/><line class="cls-19" x1="1630.25" y1="431.96" x2="1630.25" y2="422.1"/></g><g class="cls-31"><line class="cls-20" x1="1415.43" y1="431.96" x2="1415.43" y2="422.1"/><line class="cls-20" x1="1544.85" y1="431.96" x2="1544.85" y2="422.1"/><line class="cls-20" x1="1596.75" y1="431.96" x2="1596.75" y2="422.1"/><line class="cls-20" x1="1640.11" y1="431.96" x2="1640.11" y2="422.1"/></g><g class="cls-31"><polyline class="cls-21" points="1370.76 432.28 1379.58 432.28 1385.51 431.8 1391.44 431.51 1397.36 431.03 1403.29 430.29 1406.25 429.81 1409.22 429.24 1412.18 428.6 1418.11 427.09 1424.04 425.34 1432.93 422.45 1441.82 419.41 1447.74 417.25 1450.71 416.07 1453.67 414.8 1456.63 413.4 1459.6 411.83 1462.56 410.04 1465.53 408 1468.49 405.67 1471.45 403.02 1474.42 400.03 1477.38 396.68 1480.34 393 1483.31 389.01 1486.27 384.76 1492.2 375.77 1498.12 366.73 1501.09 362.42 1504.05 358.35 1507.02 354.59 1509.98 351.17 1512.94 348.11 1515.91 345.39 1518.87 343 1521.83 340.9 1524.8 339.04 1527.76 337.37 1530.72 335.83 1536.65 333.02 1545.54 329.07 1554.43 325.27 1557.4 324.1 1560.36 323.02 1563.32 322.08 1566.29 321.32 1569.25 320.81 1572.21 320.6 1575.18 320.74 1578.14 321.26 1581.1 322.19 1584.07 323.53 1587.03 325.24 1589.99 327.28 1592.96 329.58 1598.89 334.6 1604.81 339.65 1607.78 342.03 1610.74 344.27 1613.7 346.39 1625.56 354.43 1628.52 356.65 1631.48 359.09 1634.45 361.78 1637.41 364.75 1640.38 368 1643.34 371.52 1646.3 375.27 1652.23 383.26 1661.12 395.47 1664.08 399.34 1667.05 403.02 1670.01 406.47 1672.97 409.67 1675.94 412.61 1678.9 415.27 1681.87 417.67 1684.83 419.81 1687.79 421.71 1690.76 423.38 1693.72 424.84 1696.68 426.11 1699.65 427.21 1702.61 428.14 1705.57 428.94 1708.54 429.6 1711.5 430.15 1714.46 430.6 1717.43 430.96 1723.36 431.47 1729.28 431.77 1735.21 432.28 1744.1 432.28 1747.19 432.29"/></g><g class="cls-31"><line class="cls-22" x1="1568.5" y1="431.96" x2="1568.5" y2="320.93"/></g><g class="cls-31"><polyline class="cls-23" points="1245.28 431.63 1254.34 431.54 1263.23 431.32 1272.13 430.94 1281.02 430.38 1289.92 429.6 1298.81 428.57 1303.26 427.95 1307.7 427.25 1312.15 426.47 1316.6 425.61 1321.05 424.67 1325.49 423.65 1329.94 422.55 1338.84 420.13 1347.73 417.46 1361.07 413.17 1374.41 408.89 1383.31 406.25 1387.75 405.04 1392.2 403.91 1396.65 402.9 1401.1 401.99 1405.54 401.2 1409.99 400.52 1414.44 399.97 1418.88 399.52 1423.33 399.18 1427.78 398.93 1436.67 398.65 1458.91 398.24 1463.36 398.03 1467.8 397.73 1472.25 397.31 1476.7 396.77 1481.14 396.09 1485.59 395.26 1490.04 394.28 1494.48 393.14 1498.93 391.85 1503.38 390.42 1507.83 388.84 1512.27 387.15 1516.72 385.34 1525.62 381.49 1547.85 371.53 1552.3 369.68 1556.74 367.93 1561.19 366.3 1565.64 364.83 1570.09 363.51 1574.53 362.39 1578.98 361.46 1583.43 360.75 1587.88 360.27 1592.32 360.02 1596.77 360.02 1601.22 360.26 1605.66 360.75 1610.11 361.5 1614.56 362.49 1619.01 363.71 1623.45 365.17 1627.9 366.86 1632.35 368.74 1636.79 370.82 1641.24 373.07 1645.69 375.48 1650.13 378.01 1659.03 383.38 1672.37 391.83 1681.27 397.45 1690.16 402.85 1694.61 405.43 1699.05 407.9 1703.5 410.25 1707.95 412.48 1712.39 414.57 1716.84 416.53 1721.29 418.34 1725.74 420 1730.18 421.53 1734.63 422.92 1739.08 424.17 1743.52 425.29 1747.97 426.28 1752.42 427.17 1756.87 427.94 1761.31 428.62 1765.76 429.2 1770.21 429.71 1779.14 430.5"/></g><g class="cls-31"><line class="cls-22" x1="1571.13" y1="431.96" x2="1571.13" y2="367.58"/></g><line class="cls-12" x1="1253.17" y1="432.28" x2="1253.17" y2="234.54"/><line class="cls-12" x1="1754.42" y1="432.28" x2="1754.42" y2="234.54"/><line class="cls-12" x1="1253.17" y1="432.28" x2="1754.42" y2="432.28"/><line class="cls-12" x1="1253.17" y1="234.54" x2="1754.42" y2="234.54"/><text class="cls-24" transform="translate(1558.88 309.83)">61</text><text class="cls-25" transform="translate(1550.26 356.57)">61</text><text class="cls-26" transform="translate(1267.69 270.27)">p = 0.48</text></g></g><g class="cls-32"><g class="cls-32"><g class="cls-33"><polygon class="cls-30" points="423.94 356.89 426.52 354.31 429.1 356.89 431.68 354.31 429.1 351.74 431.68 349.16 429.1 346.58 426.52 349.16 423.94 346.58 421.36 349.16 423.94 351.74 421.36 354.31 423.94 356.89"/><polygon class="cls-20" points="423.94 356.89 426.52 354.31 429.1 356.89 431.68 354.31 429.1 351.74 431.68 349.16 429.1 346.58 426.52 349.16 423.94 346.58 421.36 349.16 423.94 351.74 421.36 354.31 423.94 356.89"/><polygon class="cls-30" points="71.86 353.85 74.45 351.26 77.04 353.85 79.63 351.26 77.04 348.68 79.63 346.09 77.04 343.5 74.45 346.09 71.86 343.5 69.27 346.09 71.86 348.68 69.27 351.26 71.86 353.85"/><polygon class="cls-20" points="71.86 353.85 74.45 351.26 77.04 353.85 79.63 351.26 77.04 348.68 79.63 346.09 77.04 343.5 74.45 346.09 71.86 343.5 69.27 346.09 71.86 348.68 69.27 351.26 71.86 353.85"/><polygon class="cls-30" points="89.37 355.82 91.58 353.62 93.78 355.82 95.99 353.62 93.78 351.41 95.99 349.21 93.78 347 91.58 349.21 89.37 347 87.17 349.21 89.37 351.41 87.17 353.62 89.37 355.82"/><polygon class="cls-20" points="89.37 355.82 91.58 353.62 93.78 355.82 95.99 353.62 93.78 351.41 95.99 349.21 93.78 347 91.58 349.21 89.37 347 87.17 349.21 89.37 351.41 87.17 353.62 89.37 355.82"/><polygon class="cls-30" points="295.47 360.87 297.84 358.5 300.21 360.87 302.57 358.5 300.21 356.13 302.57 353.76 300.21 351.39 297.84 353.76 295.47 351.39 293.1 353.76 295.47 356.13 293.1 358.5 295.47 360.87"/><polygon class="cls-20" points="295.47 360.87 297.84 358.5 300.21 360.87 302.57 358.5 300.21 356.13 302.57 353.76 300.21 351.39 297.84 353.76 295.47 351.39 293.1 353.76 295.47 356.13 293.1 358.5 295.47 360.87"/><polygon class="cls-30" points="80.95 359.89 83.47 357.37 86 359.89 88.52 357.37 86 354.84 88.52 352.32 86 349.8 83.47 352.32 80.95 349.8 78.43 352.32 80.95 354.84 78.43 357.37 80.95 359.89"/><polygon class="cls-20" points="80.95 359.89 83.47 357.37 86 359.89 88.52 357.37 86 354.84 88.52 352.32 86 349.8 83.47 352.32 80.95 349.8 78.43 352.32 80.95 354.84 78.43 357.37 80.95 359.89"/><polygon class="cls-30" points="74.84 357.21 77.43 354.63 80.02 357.21 82.61 354.63 80.02 352.04 82.61 349.45 80.02 346.86 77.43 349.45 74.84 346.86 72.25 349.45 74.84 352.04 72.25 354.63 74.84 357.21"/><polygon class="cls-20" points="74.84 357.21 77.43 354.63 80.02 357.21 82.61 354.63 80.02 352.04 82.61 349.45 80.02 346.86 77.43 349.45 74.84 346.86 72.25 349.45 74.84 352.04 72.25 354.63 74.84 357.21"/><polygon class="cls-30" points="71.77 47.72 73.99 45.5 76.21 47.72 78.43 45.5 76.21 43.28 78.43 41.06 76.21 38.84 73.99 41.06 71.77 38.84 69.55 41.06 71.77 43.28 69.55 45.5 71.77 47.72"/><polygon class="cls-20" points="71.77 47.72 73.99 45.5 76.21 47.72 78.43 45.5 76.21 43.28 78.43 41.06 76.21 38.84 73.99 41.06 71.77 38.84 69.55 41.06 71.77 43.28 69.55 45.5 71.77 47.72"/><polygon class="cls-30" points="393.21 355.87 395.56 353.52 397.92 355.87 400.27 353.52 397.92 351.17 400.27 348.81 397.92 346.46 395.56 348.81 393.21 346.46 390.86 348.81 393.21 351.17 390.86 353.52 393.21 355.87"/><polygon class="cls-20" points="393.21 355.87 395.56 353.52 397.92 355.87 400.27 353.52 397.92 351.17 400.27 348.81 397.92 346.46 395.56 348.81 393.21 346.46 390.86 348.81 393.21 351.17 390.86 353.52 393.21 355.87"/></g><g class="cls-33"><polygon class="cls-30" points="77.13 349.55 72.71 358.38 81.54 358.38 77.13 349.55"/><polygon class="cls-20" points="77.13 349.87 72.71 358.71 81.54 358.71 77.13 349.87"/><polygon class="cls-30" points="74.88 349.5 70.44 358.38 79.31 358.38 74.88 349.5"/><polygon class="cls-20" points="74.88 349.83 70.44 358.71 79.31 358.71 74.88 349.83"/><polygon class="cls-30" points="73.83 352.81 69.4 361.66 78.25 361.66 73.83 352.81"/><polygon class="cls-20" points="73.83 352.48 69.4 361.33 78.25 361.33 73.83 352.48"/><polygon class="cls-30" points="76.58 349.53 72.15 358.38 81 358.38 76.58 349.53"/><polygon class="cls-20" points="76.58 349.86 72.15 358.71 81 358.71 76.58 349.86"/><polygon class="cls-30" points="74.98 350.79 70.53 359.69 79.43 359.69 74.98 350.79"/><polygon class="cls-20" points="74.98 351.12 70.53 360.02 79.43 360.02 74.98 351.12"/><polygon class="cls-30" points="310.55 348.55 305.63 358.38 315.46 358.38 310.55 348.55"/><polygon class="cls-20" points="310.55 348.88 305.63 358.71 315.46 358.71 310.55 348.88"/><polygon class="cls-30" points="76.06 90.53 70.9 100.86 81.23 100.86 76.06 90.53"/><polygon class="cls-20" points="76.06 90.86 70.9 101.18 81.23 101.18 76.06 90.86"/><polygon class="cls-30" points="74.07 350.11 69.61 359.04 78.53 359.04 74.07 350.11"/><polygon class="cls-20" points="74.07 350.44 69.61 359.36 78.53 359.36 74.07 350.44"/><polygon class="cls-30" points="103.17 329.92 98.8 338.67 107.54 338.67 103.17 329.92"/><polygon class="cls-20" points="103.17 330.25 98.8 339 107.54 339 103.17 330.25"/><polygon class="cls-30" points="74.93 350.84 70.5 359.69 79.35 359.69 74.93 350.84"/><polygon class="cls-20" points="74.93 351.17 70.5 360.02 79.35 360.02 74.93 351.17"/></g><g class="cls-33"><polygon class="cls-30" points="75.97 50.27 78.6 50.27 78.6 46.99 81.88 46.99 81.88 43.7 78.6 43.7 78.6 40.42 75.97 40.42 75.97 43.7 72.69 43.7 72.69 46.99 75.97 46.99 75.97 50.27"/><polygon class="cls-20" points="76.3 49.94 78.93 49.94 78.93 46.66 82.21 46.66 82.21 44.03 78.93 44.03 78.93 40.74 76.3 40.74 76.3 44.03 73.02 44.03 73.02 46.66 76.3 46.66 76.3 49.94"/><polygon class="cls-30" points="73.34 349.18 76.63 349.18 76.63 345.9 79.91 345.9 79.91 342.61 76.63 342.61 76.63 339.33 73.34 339.33 73.34 342.61 70.06 342.61 70.06 345.9 73.34 345.9 73.34 349.18"/><polygon class="cls-20" points="73.67 349.51 76.96 349.51 76.96 346.23 80.24 346.23 80.24 342.94 76.96 342.94 76.96 339.65 73.67 339.65 73.67 342.94 70.39 342.94 70.39 346.23 73.67 346.23 73.67 349.51"/><polygon class="cls-30" points="302.62 328.16 305.9 328.16 305.9 324.87 309.19 324.87 309.19 321.59 305.9 321.59 305.9 318.3 302.62 318.3 302.62 321.59 299.33 321.59 299.33 324.87 302.62 324.87 302.62 328.16"/><polygon class="cls-20" points="302.29 328.49 305.57 328.49 305.57 325.2 308.86 325.2 308.86 321.92 305.57 321.92 305.57 318.63 302.29 318.63 302.29 321.92 299 321.92 299 325.2 302.29 325.2 302.29 328.49"/><polygon class="cls-30" points="88.45 357.72 91.08 357.72 91.08 354.44 94.36 354.44 94.36 351.15 91.08 351.15 91.08 347.87 88.45 347.87 88.45 351.15 85.17 351.15 85.17 354.44 88.45 354.44 88.45 357.72"/><polygon class="cls-20" points="88.78 357.39 91.41 357.39 91.41 354.11 94.69 354.11 94.69 351.48 91.41 351.48 91.41 348.19 88.78 348.19 88.78 351.48 85.5 351.48 85.5 354.11 88.78 354.11 88.78 357.39"/><polygon class="cls-30" points="79.91 315.02 83.2 315.02 83.2 311.74 86.48 311.74 86.48 308.45 83.2 308.45 83.2 305.17 79.91 305.17 79.91 308.45 76.63 308.45 76.63 311.74 79.91 311.74 79.91 315.02"/><polygon class="cls-20" points="79.58 315.35 82.87 315.35 82.87 312.06 86.15 312.06 86.15 308.78 82.87 308.78 82.87 305.49 79.58 305.49 79.58 308.78 76.3 308.78 76.3 312.06 79.58 312.06 79.58 315.35"/><polygon class="cls-30" points="74 359.04 77.28 359.04 77.28 356.41 79.91 356.41 79.91 353.12 77.28 353.12 77.28 350.5 74 350.5 74 353.12 71.37 353.12 71.37 356.41 74 356.41 74 359.04"/><polygon class="cls-20" points="73.67 359.36 76.96 359.36 76.96 356.74 79.58 356.74 79.58 353.45 76.96 353.45 76.96 350.82 73.67 350.82 73.67 353.45 71.04 353.45 71.04 356.74 73.67 356.74 73.67 359.36"/><polygon class="cls-30" points="186.34 49.61 189.62 49.61 189.62 46.33 192.91 46.33 192.91 43.05 189.62 43.05 189.62 39.76 186.34 39.76 186.34 43.05 183.05 43.05 183.05 46.33 186.34 46.33 186.34 49.61"/><polygon class="cls-20" points="186.01 49.94 189.29 49.94 189.29 46.66 192.58 46.66 192.58 42.72 189.29 42.72 189.29 39.43 186.01 39.43 186.01 42.72 182.72 42.72 182.72 46.66 186.01 46.66 186.01 49.94"/><polygon class="cls-30" points="74 359.04 77.28 359.04 77.28 356.41 79.91 356.41 79.91 353.12 77.28 353.12 77.28 350.5 74 350.5 74 353.12 71.37 353.12 71.37 356.41 74 356.41 74 359.04"/><polygon class="cls-20" points="74.33 358.71 77.61 358.71 77.61 356.08 80.24 356.08 80.24 353.45 77.61 353.45 77.61 350.82 74.33 350.82 74.33 353.45 71.7 353.45 71.7 356.08 74.33 356.08 74.33 358.71"/><polygon class="cls-30" points="216.56 49.61 219.19 49.61 219.19 46.33 222.47 46.33 222.47 43.05 219.19 43.05 219.19 39.76 216.56 39.76 216.56 43.05 213.27 43.05 213.27 46.33 216.56 46.33 216.56 49.61"/><polygon class="cls-20" points="216.23 49.29 219.51 49.29 219.51 46 222.8 46 222.8 43.37 219.51 43.37 219.51 40.09 216.23 40.09 216.23 43.37 212.94 43.37 212.94 46 216.23 46 216.23 49.29"/></g><g class="cls-33"><polygon class="cls-30" points="290.18 348.8 289.2 351.81 286.03 351.81 288.6 353.67 287.62 356.68 290.18 354.82 292.74 356.68 291.76 353.67 294.32 351.81 291.16 351.81 290.18 348.8"/><polygon class="cls-20" points="290.18 349.13 289.2 352.14 286.03 352.14 288.6 354 287.62 357.01 290.18 355.15 292.74 357.01 291.76 354 294.32 352.14 291.16 352.14 290.18 349.13"/><polygon class="cls-30" points="286.54 348.37 285.42 351.81 281.8 351.81 284.73 353.94 283.61 357.38 286.54 355.25 289.46 357.38 288.35 353.94 291.28 351.81 287.65 351.81 286.54 348.37"/><polygon class="cls-20" points="286.54 348.04 285.42 351.48 281.8 351.48 284.73 353.61 283.61 357.05 286.54 354.92 289.46 357.05 288.35 353.61 291.28 351.48 287.65 351.48 286.54 348.04"/><polygon class="cls-30" points="78.91 350.59 77.88 353.78 74.52 353.78 77.24 355.75 76.2 358.94 78.91 356.97 81.63 358.94 80.59 355.75 83.3 353.78 79.95 353.78 78.91 350.59"/><polygon class="cls-20" points="78.91 350.26 77.88 353.45 74.52 353.45 77.24 355.42 76.2 358.61 78.91 356.64 81.63 358.61 80.59 355.42 83.3 353.45 79.95 353.45 78.91 350.26"/><polygon class="cls-30" points="401.14 38.68 400.15 41.73 396.94 41.73 399.54 43.62 398.55 46.67 401.14 44.78 403.74 46.67 402.75 43.62 405.35 41.73 402.14 41.73 401.14 38.68"/><polygon class="cls-20" points="401.14 38.35 400.15 41.4 396.94 41.4 399.54 43.29 398.55 46.34 401.14 44.46 403.74 46.34 402.75 43.29 405.35 41.4 402.14 41.4 401.14 38.35"/><polygon class="cls-30" points="78.34 142.95 77.29 146.19 73.88 146.19 76.64 148.19 75.59 151.42 78.34 149.42 81.1 151.42 80.04 148.19 82.8 146.19 79.39 146.19 78.34 142.95"/><polygon class="cls-20" points="78.34 143.28 77.29 146.51 73.88 146.51 76.64 148.51 75.59 151.75 78.34 149.75 81.1 151.75 80.04 148.51 82.8 146.51 79.39 146.51 78.34 143.28"/><polygon class="cls-30" points="275.63 337.13 274.49 340.64 270.8 340.64 273.79 342.81 272.64 346.33 275.63 344.15 278.62 346.33 277.48 342.81 280.47 340.64 276.77 340.64 275.63 337.13"/><polygon class="cls-20" points="275.63 336.8 274.49 340.31 270.8 340.31 273.79 342.48 272.64 346 275.63 343.83 278.62 346 277.48 342.48 280.47 340.31 276.77 340.31 275.63 336.8"/><polygon class="cls-30" points="370.55 41.82 369.51 45.02 366.15 45.02 368.87 46.99 367.83 50.19 370.55 48.21 373.27 50.19 372.23 46.99 374.95 45.02 371.59 45.02 370.55 41.82"/><polygon class="cls-20" points="370.55 41.49 369.51 44.69 366.15 44.69 368.87 46.66 367.83 49.86 370.55 47.88 373.27 49.86 372.23 46.66 374.95 44.69 371.59 44.69 370.55 41.49"/><polygon class="cls-30" points="78.32 346.92 77.16 350.5 73.39 350.5 76.44 352.71 75.28 356.28 78.32 354.07 81.36 356.28 80.2 352.71 83.24 350.5 79.48 350.5 78.32 346.92"/><polygon class="cls-20" points="78.32 346.59 77.16 350.17 73.39 350.17 76.44 352.38 75.28 355.96 78.32 353.75 81.36 355.96 80.2 352.38 83.24 350.17 79.48 350.17 78.32 346.59"/><polygon class="cls-30" points="288.15 225.47 287.01 228.96 283.34 228.96 286.31 231.12 285.17 234.61 288.15 232.46 291.12 234.61 289.98 231.12 292.96 228.96 289.28 228.96 288.15 225.47"/><polygon class="cls-20" points="288.15 225.14 287.01 228.63 283.34 228.63 286.31 230.79 285.17 234.29 288.15 232.13 291.12 234.29 289.98 230.79 292.96 228.63 289.28 228.63 288.15 225.14"/><polygon class="cls-30" points="76.47 350.41 75.38 353.78 71.84 353.78 74.7 355.86 73.61 359.23 76.47 357.15 79.33 359.23 78.24 355.86 81.1 353.78 77.56 353.78 76.47 350.41"/><polygon class="cls-20" points="76.47 350.08 75.38 353.45 71.84 353.45 74.7 355.53 73.61 358.9 76.47 356.82 79.33 358.9 78.24 355.53 81.1 353.45 77.56 353.45 76.47 350.08"/><polygon class="cls-30" points="356.92 263.5 355.76 267.06 352.01 267.06 355.04 269.26 353.89 272.83 356.92 270.63 359.95 272.83 358.79 269.26 361.82 267.06 358.07 267.06 356.92 263.5"/><polygon class="cls-20" points="356.92 263.83 355.76 267.39 352.01 267.39 355.04 269.59 353.89 273.15 356.92 270.95 359.95 273.15 358.79 269.59 361.82 267.39 358.07 267.39 356.92 263.83"/><polygon class="cls-30" points="358.76 351.59 357.62 355.09 353.94 355.09 356.92 357.26 355.78 360.77 358.76 358.6 361.74 360.77 360.6 357.26 363.59 355.09 359.9 355.09 358.76 351.59"/><polygon class="cls-20" points="358.76 351.26 357.62 354.76 353.94 354.76 356.92 356.93 355.78 360.44 358.76 358.27 361.74 360.44 360.6 356.93 363.59 354.76 359.9 354.76 358.76 351.26"/><polygon class="cls-30" points="76.01 42.01 75.03 45.02 71.86 45.02 74.42 46.88 73.44 49.89 76.01 48.03 78.57 49.89 77.59 46.88 80.15 45.02 76.98 45.02 76.01 42.01"/><polygon class="cls-20" points="76.01 42.33 75.03 45.34 71.86 45.34 74.42 47.2 73.44 50.22 76.01 48.35 78.57 50.22 77.59 47.2 80.15 45.34 76.98 45.34 76.01 42.33"/><polygon class="cls-30" points="84.47 130.92 83.36 134.36 79.74 134.36 82.67 136.48 81.55 139.92 84.47 137.8 87.4 139.92 86.28 136.48 89.2 134.36 85.59 134.36 84.47 130.92"/><polygon class="cls-20" points="84.47 131.25 83.36 134.69 79.74 134.69 82.67 136.81 81.55 140.25 84.47 138.13 87.4 140.25 86.28 136.81 89.2 134.69 85.59 134.69 84.47 131.25"/><polygon class="cls-30" points="361.7 39.17 360.65 42.39 357.26 42.39 360 44.38 358.96 47.6 361.7 45.61 364.44 47.6 363.39 44.38 366.13 42.39 362.75 42.39 361.7 39.17"/><polygon class="cls-20" points="361.7 39.49 360.65 42.72 357.26 42.72 360 44.71 358.96 47.93 361.7 45.94 364.44 47.93 363.39 44.71 366.13 42.72 362.75 42.72 361.7 39.49"/><polygon class="cls-30" points="76.43 350.06 75.43 353.12 72.22 353.12 74.82 355.01 73.82 358.07 76.43 356.18 79.03 358.07 78.04 355.01 80.64 353.12 77.42 353.12 76.43 350.06"/><polygon class="cls-20" points="76.43 350.39 75.43 353.45 72.22 353.45 74.82 355.34 73.82 358.4 76.43 356.51 79.03 358.4 78.04 355.34 80.64 353.45 77.42 353.45 76.43 350.39"/><polygon class="cls-30" points="374.34 348.14 373.36 351.15 370.19 351.15 372.75 353.01 371.77 356.03 374.34 354.17 376.9 356.03 375.92 353.01 378.49 351.15 375.32 351.15 374.34 348.14"/><polygon class="cls-20" points="374.34 347.81 373.36 350.82 370.19 350.82 372.75 352.69 371.77 355.7 374.34 353.84 376.9 355.7 375.92 352.69 378.49 350.82 375.32 350.82 374.34 347.81"/><polygon class="cls-30" points="77.86 243.25 76.74 246.7 73.11 246.7 76.04 248.83 74.92 252.28 77.86 250.15 80.79 252.28 79.67 248.83 82.61 246.7 78.98 246.7 77.86 243.25"/><polygon class="cls-20" points="77.86 243.58 76.74 247.03 73.11 247.03 76.04 249.16 74.92 252.61 77.86 250.48 80.79 252.61 79.67 249.16 82.61 247.03 78.98 247.03 77.86 243.58"/><polygon class="cls-30" points="112.3 352.86 111.15 356.41 107.42 356.41 110.44 358.6 109.29 362.14 112.3 359.95 115.32 362.14 114.16 358.6 117.18 356.41 113.45 356.41 112.3 352.86"/><polygon class="cls-20" points="112.3 352.54 111.15 356.08 107.42 356.08 110.44 358.27 109.29 361.81 112.3 359.62 115.32 361.81 114.16 358.27 117.18 356.08 113.45 356.08 112.3 352.54"/><polygon class="cls-30" points="117.52 39.89 116.5 43.05 113.18 43.05 115.86 44.99 114.84 48.15 117.52 46.2 120.2 48.15 119.18 44.99 121.86 43.05 118.55 43.05 117.52 39.89"/><polygon class="cls-20" points="117.52 39.56 116.5 42.72 113.18 42.72 115.86 44.66 114.84 47.82 117.52 45.87 120.2 47.82 119.18 44.66 121.86 42.72 118.55 42.72 117.52 39.56"/><polygon class="cls-30" points="76.17 351.77 75.09 355.09 71.6 355.09 74.42 357.14 73.34 360.46 76.17 358.41 78.99 360.46 77.91 357.14 80.73 355.09 77.25 355.09 76.17 351.77"/><polygon class="cls-20" points="76.17 352.1 75.09 355.42 71.6 355.42 74.42 357.47 73.34 360.79 76.17 358.74 78.99 360.79 77.91 357.47 80.73 355.42 77.25 355.42 76.17 352.1"/><polygon class="cls-30" points="359.16 178.59 358.16 181.66 354.93 181.66 357.54 183.56 356.55 186.63 359.16 184.73 361.77 186.63 360.77 183.56 363.39 181.66 360.16 181.66 359.16 178.59"/><polygon class="cls-20" points="359.16 178.26 358.16 181.33 354.93 181.33 357.54 183.23 356.55 186.3 359.16 184.4 361.77 186.3 360.77 183.23 363.39 181.33 360.16 181.33 359.16 178.26"/><polygon class="cls-30" points="356.71 70.81 355.69 73.92 352.42 73.92 355.07 75.85 354.06 78.96 356.71 77.04 359.36 78.96 358.34 75.85 360.99 73.92 357.72 73.92 356.71 70.81"/><polygon class="cls-20" points="356.71 71.13 355.69 74.25 352.42 74.25 355.07 76.17 354.06 79.29 356.71 77.36 359.36 79.29 358.34 76.17 360.99 74.25 357.72 74.25 356.71 71.13"/><polygon class="cls-30" points="75.55 350.57 74.5 353.78 71.13 353.78 73.86 355.76 72.81 358.97 75.55 356.99 78.28 358.97 77.23 355.76 79.96 353.78 76.59 353.78 75.55 350.57"/><polygon class="cls-20" points="75.55 350.9 74.5 354.11 71.13 354.11 73.86 356.09 72.81 359.3 75.55 357.32 78.28 359.3 77.23 356.09 79.96 354.11 76.59 354.11 75.55 350.9"/><polygon class="cls-30" points="76.72 90.98 75.64 94.29 72.16 94.29 74.98 96.33 73.9 99.64 76.72 97.6 79.53 99.64 78.46 96.33 81.27 94.29 77.79 94.29 76.72 90.98"/><polygon class="cls-20" points="76.72 90.65 75.64 93.96 72.16 93.96 74.98 96 73.9 99.31 76.72 97.27 79.53 99.31 78.46 96 81.27 93.96 77.79 93.96 76.72 90.65"/><polygon class="cls-30" points="74.08 41.32 73.09 44.36 69.9 44.36 72.48 46.23 71.5 49.27 74.08 47.4 76.66 49.27 75.68 46.23 78.26 44.36 75.07 44.36 74.08 41.32"/><polygon class="cls-20" points="74.08 41.65 73.09 44.69 69.9 44.69 72.48 46.56 71.5 49.6 74.08 47.72 76.66 49.6 75.68 46.56 78.26 44.69 75.07 44.69 74.08 41.65"/></g><g class="cls-33"><polygon class="cls-34" points="79.65 345.83 81.84 343.63 84.04 345.83 86.24 343.63 84.04 341.44 86.24 339.24 84.04 337.04 81.84 339.24 79.65 337.04 77.45 339.24 79.65 341.44 77.45 343.63 79.65 345.83"/><polygon class="cls-35" points="79.65 345.83 81.84 343.63 84.04 345.83 86.24 343.63 84.04 341.44 86.24 339.24 84.04 337.04 81.84 339.24 79.65 337.04 77.45 339.24 79.65 341.44 77.45 343.63 79.65 345.83"/></g><g class="cls-33"><polygon class="cls-34" points="75.15 349.56 70.74 358.38 79.56 358.38 75.15 349.56"/><polygon class="cls-35" points="75.15 349.89 70.74 358.71 79.56 358.71 75.15 349.89"/><polygon class="cls-34" points="79.32 348.65 74.78 357.72 83.86 357.72 79.32 348.65"/><polygon class="cls-35" points="79.32 348.98 74.78 358.05 83.86 358.05 79.32 348.98"/></g><g class="cls-33"><polygon class="cls-34" points="75.31 50.27 78.6 50.27 78.6 46.99 81.88 46.99 81.88 43.05 78.6 43.05 78.6 39.76 75.31 39.76 75.31 43.05 72.03 43.05 72.03 46.99 75.31 46.99 75.31 50.27"/><polygon class="cls-35" points="75.64 49.94 78.93 49.94 78.93 46.66 82.21 46.66 82.21 43.37 78.93 43.37 78.93 40.09 75.64 40.09 75.64 43.37 72.36 43.37 72.36 46.66 75.64 46.66 75.64 49.94"/><polygon class="cls-34" points="87.8 49.61 91.08 49.61 91.08 46.33 94.36 46.33 94.36 43.05 91.08 43.05 91.08 39.76 87.8 39.76 87.8 43.05 84.51 43.05 84.51 46.33 87.8 46.33 87.8 49.61"/><polygon class="cls-35" points="87.47 49.29 90.75 49.29 90.75 46 94.04 46 94.04 42.72 90.75 42.72 90.75 39.43 87.47 39.43 87.47 42.72 84.18 42.72 84.18 46 87.47 46 87.47 49.29"/></g><g class="cls-33"><polygon class="cls-34" points="161.11 342.73 160.08 345.9 156.75 345.9 159.44 347.85 158.41 351.02 161.11 349.06 163.8 351.02 162.77 347.85 165.47 345.9 162.14 345.9 161.11 342.73"/><polygon class="cls-35" points="161.11 343.06 160.08 346.23 156.75 346.23 159.44 348.18 158.41 351.35 161.11 349.39 163.8 351.35 162.77 348.18 165.47 346.23 162.14 346.23 161.11 343.06"/></g><line x1="75.97" y1="373.49" x2="75.97" y2="376.12"/><line class="cls-9" x1="75.64" y1="373.49" x2="75.64" y2="376.12"/><text class="cls-36" transform="translate(64.73 389.43)">0.0</text><line x1="165.97" y1="373.49" x2="165.97" y2="376.12"/><line class="cls-9" x1="166.3" y1="373.49" x2="166.3" y2="376.12"/><text class="cls-36" transform="translate(155.18 389.43)">0.2</text><line x1="256.63" y1="373.49" x2="256.63" y2="376.12"/><line class="cls-9" x1="256.3" y1="373.49" x2="256.3" y2="376.12"/><text class="cls-36" transform="translate(245.63 389.43)">0.4</text><line x1="347.29" y1="373.49" x2="347.29" y2="376.12"/><line class="cls-9" x1="346.96" y1="373.49" x2="346.96" y2="376.12"/><text class="cls-36" transform="translate(336.09 389.43)">0.6</text><line x1="437.29" y1="373.49" x2="437.29" y2="376.12"/><line class="cls-9" x1="437.62" y1="373.49" x2="437.62" y2="376.12"/><text class="cls-36" transform="translate(426.54 389.43)">0.8</text><line x1="527.95" y1="373.49" x2="527.95" y2="376.12"/><line class="cls-9" x1="528.28" y1="373.49" x2="528.28" y2="376.12"/><text class="cls-36" transform="translate(516.99 389.43)">1.0</text><text class="cls-37" transform="translate(257.94 408.36)">% 10 Loss</text><line x1="51.01" y1="355.09" x2="49.04" y2="355.09"/><line class="cls-9" x1="51.01" y1="354.76" x2="49.04" y2="354.76"/><text class="cls-36" transform="translate(24.61 360.7)">0.0</text><line x1="51.01" y1="292.68" x2="49.04" y2="292.68"/><line class="cls-9" x1="51.01" y1="293.01" x2="49.04" y2="293.01"/><text class="cls-36" transform="translate(24.61 298.61)">0.2</text><line x1="51.01" y1="230.93" x2="49.04" y2="230.93"/><line class="cls-9" x1="51.01" y1="230.6" x2="49.04" y2="230.6"/><text class="cls-36" transform="translate(24.61 236.52)">0.4</text><line x1="51.01" y1="168.52" x2="49.04" y2="168.52"/><line class="cls-9" x1="51.01" y1="168.85" x2="49.04" y2="168.85"/><text class="cls-36" transform="translate(24.61 174.43)">0.6</text><line x1="51.01" y1="106.77" x2="49.04" y2="106.77"/><line class="cls-9" x1="51.01" y1="106.44" x2="49.04" y2="106.44"/><text class="cls-36" transform="translate(24.61 112.34)">0.8</text><line x1="51.01" y1="44.36" x2="49.04" y2="44.36"/><line class="cls-9" x1="51.01" y1="44.69" x2="49.04" y2="44.69"/><text class="cls-36" transform="translate(24.61 50.25)">1.0</text><text class="cls-37" transform="translate(18.33 238.18) rotate(-90)">% 7 Gain</text><g class="cls-33"><line class="cls-38" x1="51.01" y1="199.73" x2="550.94" y2="199.73"/></g><g class="cls-33"><line class="cls-38" x1="51.01" y1="354.76" x2="550.94" y2="354.76"/></g><g class="cls-33"><line class="cls-38" x1="51.01" y1="44.69" x2="550.94" y2="44.69"/></g><g class="cls-33"><line class="cls-38" x1="301.63" y1="373.49" x2="301.63" y2="27.28"/></g><g class="cls-33"><line class="cls-38" x1="75.64" y1="373.49" x2="75.64" y2="27.28"/></g><g class="cls-33"><line class="cls-38" x1="528.28" y1="373.49" x2="528.28" y2="27.28"/></g><line class="cls-12" x1="51.34" y1="373.82" x2="51.34" y2="26.95"/><line class="cls-12" x1="550.61" y1="373.82" x2="550.61" y2="26.95"/><line class="cls-12" x1="51.34" y1="373.82" x2="550.61" y2="373.82"/><line class="cls-12" x1="51.34" y1="26.95" x2="550.61" y2="26.95"/><rect class="cls-27" x="137.72" y="259.18" width="101.83" height="27.59" rx="5.52"/><rect class="cls-39" x="138.05" y="258.85" width="101.83" height="27.59" rx="5.52"/><text class="cls-37" transform="translate(143.23 277.45)">7, 10 Intact</text><rect class="cls-27" x="395.9" y="259.18" width="37.45" height="27.59" rx="5.52"/><rect class="cls-39" x="396.23" y="258.85" width="37.45" height="27.59" rx="5.52"/><text class="cls-37" transform="translate(401.58 277.45)">-10</text><rect class="cls-27" x="172.54" y="103.48" width="32.19" height="27.59" rx="5.52"/><rect class="cls-39" x="172.87" y="103.81" width="32.19" height="27.59" rx="5.52"/><text class="cls-37" transform="translate(178.26 122.22)">+7</text><rect class="cls-27" x="382.76" y="103.48" width="63.72" height="27.59" rx="5.52"/><rect class="cls-39" x="383.09" y="103.81" width="63.72" height="27.59" rx="5.52"/><text class="cls-37" transform="translate(388.54 122.22)">+7/-10</text><text class="cls-40" transform="translate(74.03 23)">Incorrect IDH-Wildtype Validation Errors over +7/-10</text><rect class="cls-27" x="86.48" y="420.13" width="428.33" height="45.33" rx="2.89"/><rect class="cls-28" x="86.81" y="420.46" width="428.33" height="45.33" rx="2.89"/><rect class="cls-30" x="92.39" y="426.04" width="28.91" height="9.85"/><rect class="cls-41" x="92.72" y="426.37" width="28.91" height="9.85"/><rect class="cls-34" x="92.39" y="447.07" width="28.91" height="9.85"/><rect class="cls-42" x="92.72" y="446.74" width="28.91" height="9.85"/><text class="cls-43" transform="translate(133.08 456.95)">EGFR Amp</text><polygon points="273.13 437.68 276.42 434.39 279.7 437.68 282.98 434.39 279.7 431.11 282.98 427.82 279.7 424.54 276.42 427.82 273.13 424.54 269.85 427.82 273.13 431.11 269.85 434.39 273.13 437.68"/><polygon class="cls-39" points="273.13 437.68 276.42 434.39 279.7 437.68 282.98 434.39 279.7 431.11 282.98 427.82 279.7 424.54 276.42 427.82 273.13 424.54 269.85 427.82 273.13 431.11 269.85 434.39 273.13 437.68"/><text class="cls-43" transform="translate(302.43 436.17)">TCGA</text><polygon points="276.42 445.1 269.85 458.23 282.98 458.23 276.42 445.1"/><polygon class="cls-39" points="276.42 444.77 269.85 457.9 282.98 457.9 276.42 444.77"/><text class="cls-43" transform="translate(302.43 456.61)">GLASS</text><polygon points="391.96 437.87 395.9 437.87 395.9 433.27 400.5 433.27 400.5 429.33 395.9 429.33 395.9 424.73 391.96 424.73 391.96 429.33 387.36 429.33 387.36 433.27 391.96 433.27 391.96 437.87"/><polygon class="cls-39" points="391.63 437.54 396.23 437.54 396.23 432.94 400.83 432.94 400.83 429 396.23 429 396.23 424.4 391.63 424.4 391.63 429 387.03 429 387.03 432.94 391.63 432.94 391.63 437.54"/><text class="cls-43" transform="translate(420 436.17)">Jonsson et al.</text><polygon points="393.98 445.15 392.51 449.69 387.73 449.69 391.6 452.5 390.12 457.04 393.98 454.23 397.84 457.04 396.37 452.5 400.23 449.69 395.46 449.69 393.98 445.15"/><polygon class="cls-44" points="393.98 445.48 392.51 450.02 387.73 450.02 391.6 452.83 390.12 457.37 393.98 454.56 397.84 457.37 396.37 452.83 400.23 450.02 395.46 450.02 393.98 445.48"/><text class="cls-43" transform="translate(420 456.79)">Capper et al.</text></g></g><text class="cls-45" transform="translate(133.58 436.33)"> <tspan class="cls-46" x="16.78" y="0">IDH-Wildtype</tspan></text></svg>