<svg id="Layer_1" data-name="Layer 1" xmlns="http://www.w3.org/2000/svg" xmlns:xlink="http://www.w3.org/1999/xlink" viewBox="0 0 1195.68 784.57"><defs><style>.cls-1,.cls-10,.cls-11,.cls-12,.cls-13,.cls-14,.cls-17,.cls-20,.cls-22,.cls-3,.cls-7,.cls-8,.cls-9{fill:none;}.cls-2{clip-path:url(#clip-path);}.cls-13,.cls-14,.cls-20,.cls-3{stroke:#000;}.cls-10,.cls-11,.cls-12,.cls-13,.cls-20,.cls-3,.cls-7,.cls-8,.cls-9{stroke-linejoin:round;}.cls-14,.cls-3{stroke-width:0.8px;}.cls-4{font-size:10.86px;}.cls-15,.cls-18,.cls-33,.cls-34,.cls-36,.cls-37,.cls-4,.cls-40,.cls-5{font-family:ArialMT, Arial;}.cls-5{font-size:13.58px;}.cls-6{clip-path:url(#clip-path-3);}.cls-7{stroke:#228b22;}.cls-11,.cls-12,.cls-14,.cls-20,.cls-7{stroke-linecap:square;}.cls-10,.cls-11,.cls-12,.cls-20,.cls-7,.cls-8,.cls-9{stroke-width:3px;}.cls-8{stroke:gold;}.cls-8,.cls-9{stroke-dasharray:11.1 4.8;}.cls-9{stroke:coral;}.cls-10{stroke:purple;stroke-dasharray:3 4.95;}.cls-11{stroke:#4169e1;}.cls-12{stroke:#b22222;}.cls-13{stroke-width:1.5px;stroke-dasharray:1.5 2.47;}.cls-14,.cls-17,.cls-22{stroke-miterlimit:10;}.cls-15{font-size:17.65px;}.cls-16,.cls-21{fill:#fff;}.cls-17,.cls-22{stroke:#ccc;}.cls-18{font-size:12.22px;}.cls-19{clip-path:url(#clip-path-10);}.cls-21,.cls-22{opacity:0.8;}.cls-23{clip-path:url(#clip-path-13);}.cls-24{clip-path:url(#clip-path-15);}.cls-25{clip-path:url(#clip-path-22);}.cls-26,.cls-28,.cls-30{font-size:24px;font-family:MyriadPro-Regular, Myriad Pro;}.cls-27{letter-spacing:-0.01em;}.cls-28{letter-spacing:0.02em;}.cls-29{letter-spacing:0em;}.cls-30{letter-spacing:-0.01em;}.cls-31{letter-spacing:0em;}.cls-32{clip-path:url(#clip-path-25);}.cls-33{font-size:10.85px;}.cls-34{font-size:13.56px;}.cls-35{clip-path:url(#clip-path-27);}.cls-36{font-size:17.63px;}.cls-37{font-size:12.21px;}.cls-38{clip-path:url(#clip-path-34);}.cls-39{clip-path:url(#clip-path-37);}.cls-40{font-size:13.56px;}.cls-41{clip-path:url(#clip-path-39);}.cls-42{clip-path:url(#clip-path-46);}</style><clipPath id="clip-path" transform="translate(-25.6 -72.31)"><rect class="cls-1" x="26" y="67.33" width="586.5" height="391"/></clipPath><clipPath id="clip-path-3" transform="translate(-25.6 -72.31)"><rect class="cls-1" x="68.77" y="91.77" width="536.27" height="212.47"/></clipPath><clipPath id="clip-path-10" transform="translate(-25.6 -72.31)"><rect class="cls-1" x="68.77" y="313.74" width="536.27" height="106.57"/></clipPath><clipPath id="clip-path-13" transform="translate(-25.6 -72.31)"><rect class="cls-1" x="26" y="472" width="586.5" height="391"/></clipPath><clipPath id="clip-path-15" transform="translate(-25.6 -72.31)"><rect class="cls-1" x="74.88" y="496.44" width="530.16" height="212.47"/></clipPath><clipPath id="clip-path-22" transform="translate(-25.6 -72.31)"><rect class="cls-1" x="74.88" y="719.09" width="530.16" height="106.57"/></clipPath><clipPath id="clip-path-25" transform="translate(-25.6 -72.31)"><rect class="cls-1" x="642" y="67" width="586" height="390.67"/></clipPath><clipPath id="clip-path-27" transform="translate(-25.6 -72.31)"><rect class="cls-1" x="690.83" y="91.42" width="529.71" height="212.29"/></clipPath><clipPath id="clip-path-34" transform="translate(-25.6 -72.31)"><rect class="cls-1" x="690.83" y="313.88" width="529.71" height="106.48"/></clipPath><clipPath id="clip-path-37" transform="translate(-25.6 -72.31)"><rect class="cls-1" x="642" y="472.33" width="586" height="390.67"/></clipPath><clipPath id="clip-path-39" transform="translate(-25.6 -72.31)"><rect class="cls-1" x="690.83" y="496.75" width="529.71" height="212.29"/></clipPath><clipPath id="clip-path-46" transform="translate(-25.6 -72.31)"><rect class="cls-1" x="690.83" y="718.53" width="529.71" height="106.48"/></clipPath></defs><g class="cls-2"><g class="cls-2"><line x1="67.6" y1="231.94" x2="67.6" y2="234.65"/><line class="cls-3" x1="67.27" y1="231.94" x2="67.27" y2="234.65"/><line x1="176.22" y1="231.94" x2="176.22" y2="234.65"/><line class="cls-3" x1="175.88" y1="231.94" x2="175.88" y2="234.65"/><line x1="284.15" y1="231.94" x2="284.15" y2="234.65"/><line class="cls-3" x1="284.49" y1="231.94" x2="284.49" y2="234.65"/><line x1="392.76" y1="231.94" x2="392.76" y2="234.65"/><line class="cls-3" x1="392.42" y1="231.94" x2="392.42" y2="234.65"/><line x1="500.69" y1="231.94" x2="500.69" y2="234.65"/><line class="cls-3" x1="501.03" y1="231.94" x2="501.03" y2="234.65"/><line x1="43.17" y1="222.43" x2="41.13" y2="222.43"/><line class="cls-3" x1="43.17" y1="222.09" x2="41.13" y2="222.09"/><text class="cls-4" transform="translate(23.33 226.28)">0.5</text><line x1="43.17" y1="183.74" x2="41.13" y2="183.74"/><line class="cls-3" x1="43.17" y1="183.4" x2="41.13" y2="183.4"/><text class="cls-4" transform="translate(23.33 187.61)">0.6</text><line x1="43.17" y1="145.05" x2="41.13" y2="145.05"/><line class="cls-3" x1="43.17" y1="144.71" x2="41.13" y2="144.71"/><text class="cls-4" transform="translate(23.33 148.93)">0.7</text><line x1="43.17" y1="106.35" x2="41.13" y2="106.35"/><line class="cls-3" x1="43.17" y1="106.69" x2="41.13" y2="106.69"/><text class="cls-4" transform="translate(23.33 110.25)">0.8</text><line x1="43.17" y1="67.66" x2="41.13" y2="67.66"/><line class="cls-3" x1="43.17" y1="68" x2="41.13" y2="68"/><text class="cls-4" transform="translate(23.33 71.57)">0.9</text><line x1="43.17" y1="28.97" x2="41.13" y2="28.97"/><line class="cls-3" x1="43.17" y1="29.31" x2="41.13" y2="29.31"/><text class="cls-4" transform="translate(23.33 32.89)">1.0</text><text class="cls-5" transform="translate(17.92 143.43) rotate(-90)">Score</text><g class="cls-6"><polyline class="cls-7" points="67.27 134.53 77.6 134.53 88.84 134.53 100.09 134.53 111.33 134.53 122.58 127.74 132.7 127.74 143.43 127.74 154.16 120.95 164.93 120.95 176.11 125.7 186.78 125.7 197.61 125.7 208.45 125.7 219.28 125.7 230.12 125.7 240.95 125.7 251.79 130.99 262.63 122.99 273.26 122.99 284.18 122.99 295.09 122.99 306.01 119.89 316.93 110.86 327.84 101.26 338.48 101.26 349.31 101.26 360.15 101.26 370.98 101.26 381.82 101.26 392.65 101.26 403.49 105.74 414.32 95.86 425.16 105.74 436 99.23 447 99.23 457.79 99.23 468.59 99.23 479.38 99.23 490.18 99.23 500.97 106.23 511.76 157.6 522.56 157.6 533.35 157.6 544.35 157.6 555.19 134.16"/></g><g class="cls-6"><polyline class="cls-8" points="67.6 186.79 78.38 186.79 89.23 186.79 100.07 186.79 110.92 186.79 121.77 186.79 132.61 186.79 143.46 186.79 154.31 177.97 164.96 177.97 176.08 184.08 186.78 184.08 197.61 184.08 208.45 184.08 219.28 184.08 230.12 184.08 240.95 184.08 251.79 190.16 262.63 180.01 273.48 180.01 284.31 180.01 295.14 180.01 305.96 176 316.79 164.04 327.62 150.82 338.48 150.82 349.31 150.82 360.15 150.82 370.98 150.82 381.82 150.82 392.65 150.82 403.49 157.93 414.32 142.76 425.16 157.93 436 148.1 446.67 148.1 457.54 148.1 468.42 148.1 479.3 148.1 490.18 148.1 501.05 158.06 511.93 222.77 522.81 222.77 533.68 222.77 544.35 222.77 555.19 195.14"/></g><g class="cls-6"><polyline class="cls-9" points="67.6 51.71 78.42 51.71 89.25 51.71 100.09 51.71 110.92 51.71 121.76 28.63 132.6 28.63 143.43 28.63 154.27 28.63 165.1 28.63 175.94 28.63 186.78 28.63 197.61 28.63 208.45 28.63 219.28 28.63 230.12 28.63 240.95 28.63 251.79 28.63 262.63 28.63 273.46 28.63 284.3 28.63 295.13 28.63 305.97 28.63 316.8 28.63 327.64 28.63 338.48 28.63 349.31 28.63 360.15 28.63 370.98 28.63 381.82 28.63 392.65 28.63 403.49 28.63 414.32 28.63 425.16 28.63 436 28.63 446.83 28.63 457.67 28.63 468.5 28.63 479.34 28.63 490.18 28.63 501.01 28.63 511.85 28.63 522.68 28.63 533.52 28.63 544.35 28.63 555 28.63"/></g><g class="cls-6"><polyline class="cls-10" points="67.6 140.63 78.42 140.63 89.25 140.63 100.09 140.63 110.92 140.74 121.76 129.09 132.6 129.77 143.1 129.86 154.6 122.99 164.65 122.99 176.39 127.06 186.78 127.06 197.61 127.74 208.45 127.74 219.28 127.74 230.12 127.06 241.95 127.06 251.79 130.72 261.63 124.34 272.59 124.34 283.78 124.34 294.96 124.34 306.14 120.67 317.32 111.97 328.51 102.62 338.48 102.62 349.31 103.3 360.15 103.3 370.98 103.98 381.82 103.98 392.65 103.98 403.49 107.47 414.32 97.33 425.16 106.41 436 99.23 446.83 99.91 457.67 99.23 468.5 99.91 479.34 99.91 490.18 100.06 501.01 105.97 511.85 147.65 522.68 147.95 533.52 148.17 544.35 148.41 555.19 128.85"/></g><g class="cls-6"><polyline class="cls-11" points="67.27 55.1 79.02 55.1 89.56 55.1 100.09 55.1 110.62 55.2 121.15 44.24 132.6 44.24 143.43 44.24 154.27 42.88 165.1 42.88 175.94 42.21 186.78 42.21 197.61 42.88 208.45 42.88 219.28 42.88 230.12 43.56 240.95 43.56 251.79 43.56 262.63 42.21 273.65 42.21 284.41 42.21 295.17 42.21 305.93 40.87 316.69 39.51 327.44 38.13 338.48 38.13 349.31 38.13 360.15 37.45 370.98 38.13 381.36 38.13 392.5 38.13 403.64 38.2 414.78 36.78 425.16 36.78 436 34.74 446.83 35.42 457.67 36.1 468.5 35.42 479.34 36.1 490.18 36.1 501.01 36.1 511.85 36.29 522.68 36.7 533.52 37 544.35 37.33 555.19 35.94"/></g><g class="cls-6"><polyline class="cls-12" points="67.27 43.56 78.42 43.56 89.25 43.56 100.09 43.56 110.92 43.56 121.76 42.21 132.6 42.21 143.43 42.88 154.27 42.21 165.1 42.21 175.94 41.53 186.78 41.53 197.61 42.21 208.45 42.21 219.28 42.21 230.12 41.53 240.95 41.53 251.79 40.61 262.63 40.85 273.46 40.85 284.3 40.85 295.13 40.85 305.97 39.49 316.8 40.17 327.64 39.49 338.48 39.49 349.31 40.17 360.15 40.85 370.98 40.17 381.82 40.17 392.65 40.17 403.49 39.49 414.32 39.49 425.16 40.17 436 38.81 446.83 38.81 457.67 39.49 468.5 40.17 479.34 40.26 490.18 40.55 501.01 40.22 511.85 37.41 522.68 37.88 533.52 38.22 544.35 38.59 555.19 39.55"/></g><g class="cls-6"><line class="cls-13" x1="284.15" y1="231.94" x2="284.15" y2="19.47"/></g><line class="cls-14" x1="43.51" y1="232.28" x2="43.51" y2="19.13"/><line class="cls-14" x1="579.77" y1="232.28" x2="579.77" y2="19.13"/><line class="cls-14" x1="43.51" y1="232.28" x2="579.77" y2="232.28"/><line class="cls-14" x1="43.51" y1="19.13" x2="579.77" y2="19.13"/><text class="cls-15" transform="translate(243.87 15.26)">TCGA Validation</text><rect class="cls-16" x="376.47" y="170.16" width="196.86" height="55.66" rx="2.44"/><rect class="cls-17" x="376.81" y="170.5" width="196.86" height="55.66" rx="2.44"/><line class="cls-7" x1="381.56" y1="179.33" x2="406" y2="179.33"/><text class="cls-18" transform="translate(415.78 183.93)">F1</text><line class="cls-8" x1="381.9" y1="196.98" x2="406.34" y2="196.98"/><text class="cls-18" transform="translate(415.78 201.21)">Precision</text><line class="cls-9" x1="381.9" y1="213.95" x2="406.34" y2="213.95"/><text class="cls-18" transform="translate(415.78 218.5)">Recall</text><line class="cls-10" x1="490.51" y1="179.33" x2="514.95" y2="179.33"/><text class="cls-18" transform="translate(524.69 183.93)">MCC</text><line class="cls-11" x1="490.17" y1="196.98" x2="514.61" y2="196.98"/><text class="cls-18" transform="translate(524.69 201.21)">Bal Acc</text><line class="cls-12" x1="490.17" y1="214.63" x2="514.61" y2="214.63"/><text class="cls-18" transform="translate(524.69 218.64)">AUC</text><line x1="67.6" y1="348.01" x2="67.6" y2="350.73"/><line class="cls-3" x1="67.27" y1="348.01" x2="67.27" y2="350.73"/><text class="cls-4" transform="translate(60.02 360.68)">0.5</text><line x1="176.22" y1="348.01" x2="176.22" y2="350.73"/><line class="cls-3" x1="175.88" y1="348.01" x2="175.88" y2="350.73"/><text class="cls-4" transform="translate(168.38 360.68)">0.6</text><line x1="284.15" y1="348.01" x2="284.15" y2="350.73"/><line class="cls-3" x1="284.49" y1="348.01" x2="284.49" y2="350.73"/><text class="cls-4" transform="translate(276.74 360.68)">0.7</text><line x1="392.76" y1="348.01" x2="392.76" y2="350.73"/><line class="cls-3" x1="392.42" y1="348.01" x2="392.42" y2="350.73"/><text class="cls-4" transform="translate(385.1 360.68)">0.8</text><line x1="500.69" y1="348.01" x2="500.69" y2="350.73"/><line class="cls-3" x1="501.03" y1="348.01" x2="501.03" y2="350.73"/><text class="cls-4" transform="translate(493.45 360.68)">0.9</text><text class="cls-5" transform="translate(217.04 375.27)">Threshold for Model Confidence</text><line x1="43.17" y1="333.08" x2="41.13" y2="333.08"/><line class="cls-3" x1="43.17" y1="332.74" x2="41.13" y2="332.74"/><text class="cls-4" transform="translate(23.33 336.87)">0.6</text><line x1="43.17" y1="289.64" x2="41.13" y2="289.64"/><line class="cls-3" x1="43.17" y1="289.98" x2="41.13" y2="289.98"/><text class="cls-4" transform="translate(23.33 293.69)">0.8</text><line x1="43.17" y1="246.87" x2="41.13" y2="246.87"/><line class="cls-3" x1="43.17" y1="246.53" x2="41.13" y2="246.53"/><text class="cls-4" transform="translate(23.33 250.5)">1.0</text><text class="cls-5" transform="translate(17.93 333.84) rotate(-90)">% of Dataset</text><g class="cls-19"><polyline class="cls-20" points="67.27 246.53 77.47 246.53 88.58 246.53 99.68 246.53 110.79 247.89 121.89 250.6 133 251.96 144.11 253.32 155.21 254.68 164.97 254.68 176.07 257.39 186.64 257.39 197.75 258.75 208.18 258.75 219.28 258.75 230.39 260.11 240.68 260.11 251.79 261.46 262.89 265.54 273.46 265.54 284.3 265.54 295.13 265.54 305.97 267.81 316.8 269.13 327.64 270.29 337.94 270.29 349.04 271.65 360.15 273 371.25 274.36 382.36 274.36 392.65 274.36 403.49 277.01 414.32 279.66 425.16 284.96 436 288.93 446.83 290.26 457.67 294.23 468.5 296.88 479.34 298.21 490.18 302.18 501.01 303.5 511.85 312.78 522.68 320.73 533.52 326.02 544.35 331.32 555.19 343.24"/></g><g class="cls-19"><line class="cls-13" x1="43.17" y1="267.91" x2="579.43" y2="267.91"/></g><g class="cls-19"><line class="cls-13" x1="284.15" y1="348.01" x2="284.15" y2="242.12"/></g><line class="cls-14" x1="43.51" y1="348.35" x2="43.51" y2="241.78"/><line class="cls-14" x1="579.77" y1="348.35" x2="579.77" y2="241.78"/><line class="cls-14" x1="43.51" y1="348.35" x2="579.77" y2="348.35"/><line class="cls-14" x1="43.51" y1="241.78" x2="579.77" y2="241.78"/><rect class="cls-21" x="49.28" y="320.86" width="100.47" height="21.04" rx="2.44"/><rect class="cls-22" x="48.94" y="321.2" width="100.47" height="21.04" rx="2.44"/><line class="cls-20" x1="54.37" y1="330.7" x2="78.81" y2="330.7"/><text class="cls-18" transform="translate(88.41 334.72)">Dataset %</text></g></g><g class="cls-23"><g class="cls-23"><line x1="73.04" y1="637.28" x2="73.04" y2="639.32"/><line class="cls-3" x1="73.37" y1="637.28" x2="73.37" y2="639.32"/><line x1="183" y1="637.28" x2="183" y2="639.32"/><line class="cls-3" x1="182.66" y1="637.28" x2="182.66" y2="639.32"/><line x1="292.29" y1="637.28" x2="292.29" y2="639.32"/><line class="cls-3" x1="292.63" y1="637.28" x2="292.63" y2="639.32"/><line x1="402.26" y1="637.28" x2="402.26" y2="639.32"/><line class="cls-3" x1="401.92" y1="637.28" x2="401.92" y2="639.32"/><line x1="511.55" y1="637.28" x2="511.55" y2="639.32"/><line class="cls-3" x1="511.89" y1="637.28" x2="511.89" y2="639.32"/><line x1="49.28" y1="616.24" x2="46.56" y2="616.24"/><line class="cls-3" x1="49.28" y1="616.58" x2="46.56" y2="616.58"/><text class="cls-4" transform="translate(23.31 620.39)">0.65</text><line x1="49.28" y1="588.41" x2="46.56" y2="588.41"/><line class="cls-3" x1="49.28" y1="588.07" x2="46.56" y2="588.07"/><text class="cls-4" transform="translate(23.31 592.06)">0.70</text><line x1="49.28" y1="559.9" x2="46.56" y2="559.9"/><line class="cls-3" x1="49.28" y1="559.56" x2="46.56" y2="559.56"/><text class="cls-4" transform="translate(23.31 563.73)">0.75</text><line x1="49.28" y1="531.39" x2="46.56" y2="531.39"/><line class="cls-3" x1="49.28" y1="531.73" x2="46.56" y2="531.73"/><text class="cls-4" transform="translate(23.31 535.41)">0.80</text><line x1="49.28" y1="502.88" x2="46.56" y2="502.88"/><line class="cls-3" x1="49.28" y1="503.21" x2="46.56" y2="503.21"/><text class="cls-4" transform="translate(23.31 507.08)">0.85</text><line x1="49.28" y1="475.04" x2="46.56" y2="475.04"/><line class="cls-3" x1="49.28" y1="474.7" x2="46.56" y2="474.7"/><text class="cls-4" transform="translate(23.31 478.76)">0.90</text><line x1="49.28" y1="446.53" x2="46.56" y2="446.53"/><line class="cls-3" x1="49.28" y1="446.87" x2="46.56" y2="446.87"/><text class="cls-4" transform="translate(23.31 450.43)">0.95</text><text class="cls-5" transform="translate(17.9 548.33) rotate(-90)">Score</text><g class="cls-24"><polyline class="cls-7" points="73.33 576.14 84.29 572.64 95.25 569.74 106.39 569.74 117.16 565.99 127.93 556.84 139.89 556.84 150.44 558.85 160.99 557.77 171.54 553.38 182.09 550.05 193.87 550.05 204.82 548.02 215.92 548.02 226.74 544.46 237.55 537.16 248.65 537.16 259.61 533.68 270.57 531.93 281.52 533.76 292.11 533.76 303.26 538.06 314.4 527.29 325.54 520.2 336.68 517.47 347.01 517.47 358.06 514.59 369.1 518.91 380.14 521.22 391.19 518.16 402.23 512.57 413.27 511.36 423.94 511.36 434.97 505.25 445.89 505.25 456.85 492.64 467.8 487.94 478.76 489.91 489.72 491.99 500.68 494.19 511.63 481.04 522.59 469.6 533.55 478.36 544.51 487.18 555.46 484.74"/></g><g class="cls-24"><polyline class="cls-8" points="73.33 627.37 84.29 621.12 95.25 616.58 106.22 616.58 117.16 609.6 128.1 599.61 139.18 599.61 150.09 602.04 160.99 599.29 171.9 596.38 182.8 590.78 193.72 590.78 204.96 587.39 215.79 587.39 226.74 581.37 237.69 575.17 248.65 575.17 259.61 568.7 270.57 571.09 281.52 573.81 292.6 573.81 303.5 578.96 314.4 567.59 325.3 554.96 336.2 557.52 347.27 557.52 358.23 551.66 369.19 557.29 380.14 560.29 391.1 563.41 402.06 553.91 413.02 550.05 423.97 550.05 434.93 550.05 445.89 550.05 456.85 528.85 467.8 519.99 478.76 522.66 489.72 525.48 500.68 528.46 511.63 504.14 522.59 496.44 533.55 508.95 544.51 521.31 555.46 512.72"/></g><g class="cls-24"><polyline class="cls-9" points="73.33 507.87 84.29 509.32 95.98 509.32 106.45 509.32 116.92 510.75 127.38 503.21 138.97 503.21 150 504.66 161.03 506.16 172.06 499.14 183.75 499.14 193.87 499.14 203.97 500.5 215.95 500.5 226.74 500.5 237.52 491.68 248.65 491.68 259.61 491.68 270.57 483.61 281.52 484.89 292.79 484.89 303.6 487.57 314.4 478.6 325.2 479.89 336 469.95 347.23 469.95 358.21 471.15 369.19 473.73 380.16 475.11 391.14 463.16 401.55 463.16 413.52 465.88 423.4 465.88 434.93 450.27 446.46 450.27 456.85 450.27 467.8 451.22 478.76 452.23 489.72 453.3 500.68 454.44 511.63 455.66 522.59 439.68 533.55 443.64 544.51 447.71 555.46 453.3"/></g><g class="cls-24"><polyline class="cls-10" points="73.33 607.13 84.29 602.86 95.25 599.61 106.19 599.61 117.16 594.95 128.14 583.32 138.55 583.41 149.77 585.46 160.99 583.82 172.22 577.08 183.44 573.13 193.87 573.13 204.82 571.78 215.21 571.78 226.36 567.65 237.5 558.25 248.65 558.48 259.8 554.15 270.95 550.81 282.09 552.77 292.32 552.84 303.36 557.01 314.4 543.97 325.44 536.02 336.47 531.73 347.27 531.73 358.23 528.51 369.19 532.61 380.14 534.85 391.1 530.14 402.06 524.53 413.02 522.9 423.77 522.95 435.13 514.75 445.89 514.89 456.85 501.64 467.8 496.41 478.76 498.38 489.72 500.54 500.68 502.78 511.63 488.58 522.59 474.68 533.55 483.44 544.51 492.2 555.46 489.42"/></g><g class="cls-24"><polyline class="cls-11" points="73.33 490.66 84.29 489.77 95.25 488.96 106.88 488.96 117.16 488.12 127.45 482.85 139.08 482.85 150.03 483.53 160.99 483.53 171.95 478.85 182.91 477.42 193.87 477.42 204.82 478.1 215.88 478.1 226.74 477.24 237.6 471.99 248.15 472.16 259.44 471.25 270.73 467.26 282.02 467.92 292.49 467.97 303.45 469.39 314.4 463.17 325.35 462 336.3 457.06 346.29 457.06 357.57 456.74 368.86 458.15 380.14 458.95 391.43 452.9 402.71 451.97 414 452.3 423.85 452.34 435.06 444.84 445.89 444.96 456.85 442.98 467.8 442.43 478.76 442.99 489.72 443.65 500.68 444.32 511.63 442.82 522.59 433.76 533.55 435.97 544.51 438.24 555.46 440.01"/></g><g class="cls-24"><polyline class="cls-12" points="73.33 449.66 84.29 448.91 95.25 449.59 106.2 449.59 117.16 448.56 128.12 447.55 139.08 447.39 150.03 447.16 160.99 446.76 171.95 446.19 182.91 446.87 193.87 446.87 204.82 446.19 215.78 446.19 226.74 446.19 237.69 445.27 248.65 444.84 259.61 444.84 270.57 443.48 281.52 444.16 292.48 444.16 303.44 443.34 314.4 442.37 325.36 441.95 336.31 441.44 347.27 441.44 358.23 441.36 369.19 441.08 380.14 440.81 391.1 440.55 402.06 440.31 413.02 439.41 423.97 440.08 434.93 439.41 445.89 439.41 456.85 439.41 467.8 440.08 478.76 439.41 489.72 440.08 500.68 440.09 511.63 439.88 522.59 441.23 533.55 443.55 544.51 445.78 555.46 448.69"/></g><g class="cls-24"><line class="cls-13" x1="292.29" y1="637.28" x2="292.29" y2="424.13"/></g><line class="cls-14" x1="48.94" y1="636.94" x2="48.94" y2="424.47"/><line class="cls-14" x1="579.77" y1="636.94" x2="579.77" y2="424.47"/><line class="cls-14" x1="48.94" y1="636.94" x2="579.77" y2="636.94"/><line class="cls-14" x1="48.94" y1="424.47" x2="579.77" y2="424.47"/><text class="cls-15" transform="translate(259.93 420.15)">Jonsson et al.</text><rect class="cls-16" x="376.47" y="575.51" width="196.86" height="55.66" rx="2.44"/><rect class="cls-17" x="376.81" y="575.17" width="196.86" height="55.66" rx="2.44"/><line class="cls-7" x1="381.56" y1="584.67" x2="406" y2="584.67"/><text class="cls-18" transform="translate(415.78 588.82)">F1</text><line class="cls-8" x1="381.9" y1="601.64" x2="406.34" y2="601.64"/><text class="cls-18" transform="translate(415.78 606.11)">Precision</text><line class="cls-9" x1="381.9" y1="619.29" x2="406.34" y2="619.29"/><text class="cls-18" transform="translate(415.78 623.4)">Recall</text><line class="cls-10" x1="490.51" y1="584.67" x2="514.95" y2="584.67"/><text class="cls-18" transform="translate(524.69 588.82)">MCC</text><line class="cls-11" x1="490.17" y1="601.64" x2="514.61" y2="601.64"/><text class="cls-18" transform="translate(524.69 606.11)">Bal Acc</text><line class="cls-12" x1="490.17" y1="619.29" x2="514.61" y2="619.29"/><text class="cls-18" transform="translate(524.69 623.53)">AUC</text><line x1="73.04" y1="753.36" x2="73.04" y2="755.4"/><line class="cls-3" x1="73.37" y1="753.36" x2="73.37" y2="755.4"/><text class="cls-4" transform="translate(65.77 765.57)">0.5</text><line x1="183" y1="753.36" x2="183" y2="755.4"/><line class="cls-3" x1="182.66" y1="753.36" x2="182.66" y2="755.4"/><text class="cls-4" transform="translate(175.35 765.57)">0.6</text><line x1="292.29" y1="753.36" x2="292.29" y2="755.4"/><line class="cls-3" x1="292.63" y1="753.36" x2="292.63" y2="755.4"/><text class="cls-4" transform="translate(284.92 765.57)">0.7</text><line x1="402.26" y1="753.36" x2="402.26" y2="755.4"/><line class="cls-3" x1="401.92" y1="753.36" x2="401.92" y2="755.4"/><text class="cls-4" transform="translate(394.5 765.57)">0.8</text><line x1="511.55" y1="753.36" x2="511.55" y2="755.4"/><line class="cls-3" x1="511.89" y1="753.36" x2="511.89" y2="755.4"/><text class="cls-4" transform="translate(504.08 765.57)">0.9</text><text class="cls-5" transform="translate(220.05 780.16)">Threshold for Model Confidence</text><line x1="49.28" y1="741.14" x2="46.56" y2="741.14"/><line class="cls-3" x1="49.28" y1="740.8" x2="46.56" y2="740.8"/><text class="cls-4" transform="translate(29.36 744.94)">0.6</text><line x1="49.28" y1="696.34" x2="46.56" y2="696.34"/><line class="cls-3" x1="49.28" y1="696" x2="46.56" y2="696"/><text class="cls-4" transform="translate(29.36 700.17)">0.8</text><line x1="49.28" y1="651.54" x2="46.56" y2="651.54"/><line class="cls-3" x1="49.28" y1="651.2" x2="46.56" y2="651.2"/><text class="cls-4" transform="translate(29.36 655.4)">1.0</text><text class="cls-5" transform="translate(23.95 738.73) rotate(-90)">% of Dataset</text><g class="cls-25"><polyline class="cls-20" points="73.33 651.57 84.29 653.33 95.25 653.91 106.48 653.91 117.36 655.66 128.24 657.4 139.12 657.99 150 658.57 160.87 659.73 171.75 661.48 182.63 662.06 193.87 662.06 204.82 663.42 215.78 663.42 226.74 663.99 237.69 665.72 248.65 667.45 259.61 668.02 270.57 670.9 281.52 671.48 292.48 672.06 303.44 673.78 314.4 677.82 325.36 680.12 336.31 682.42 347.27 682.42 358.23 684.18 369.19 686.52 380.14 688.28 391.1 690.63 402.06 692.39 413.02 695.32 423.97 695.9 434.93 697.66 445.89 699.42 456.85 702.35 467.8 704.11 478.76 705.87 489.72 708.8 500.68 711.14 511.63 715.83 522.59 721.1 533.55 729.89 544.51 737.51 555.46 748.06"/></g><g class="cls-25"><line class="cls-13" x1="49.28" y1="673.94" x2="579.43" y2="673.94"/></g><g class="cls-25"><line class="cls-13" x1="292.29" y1="753.36" x2="292.29" y2="646.79"/></g><line class="cls-14" x1="48.94" y1="753.02" x2="48.94" y2="646.45"/><line class="cls-14" x1="579.77" y1="753.02" x2="579.77" y2="646.45"/><line class="cls-14" x1="48.94" y1="753.02" x2="579.77" y2="753.02"/><line class="cls-14" x1="48.94" y1="646.45" x2="579.77" y2="646.45"/><rect class="cls-21" x="472.86" y="652.89" width="100.47" height="21.04" rx="2.44"/><rect class="cls-22" x="473.2" y="652.56" width="100.47" height="21.04" rx="2.44"/><line class="cls-20" x1="477.95" y1="662.06" x2="502.39" y2="662.06"/><text class="cls-18" transform="translate(512.2 666.42)">Dataset %</text></g></g><text class="cls-26" transform="translate(0 20.13)"><tspan class="cls-27">A</tspan><tspan x="14.47" y="0">)</tspan></text><text class="cls-26" transform="translate(606 20.13)">B)</text><text class="cls-28" transform="translate(0 430.83)">C<tspan class="cls-29" x="14.33" y="0">)</tspan></text><text class="cls-30" transform="translate(606 426.83)">D<tspan class="cls-31" x="15.82" y="0">)</tspan></text><g class="cls-32"><g class="cls-32"><line x1="688.97" y1="232.08" x2="688.97" y2="234.11"/><line class="cls-3" x1="689.31" y1="232.08" x2="689.31" y2="234.11"/><line x1="796.14" y1="232.08" x2="796.14" y2="234.11"/><line class="cls-3" x1="796.47" y1="232.08" x2="796.47" y2="234.11"/><line x1="903.3" y1="232.08" x2="903.3" y2="234.11"/><line class="cls-3" x1="903.64" y1="232.08" x2="903.64" y2="234.11"/><line x1="1010.46" y1="232.08" x2="1010.46" y2="234.11"/><line class="cls-3" x1="1010.12" y1="232.08" x2="1010.12" y2="234.11"/><line x1="1117.62" y1="232.08" x2="1117.62" y2="234.11"/><line class="cls-3" x1="1117.28" y1="232.08" x2="1117.28" y2="234.11"/><line x1="665.23" y1="206.31" x2="662.52" y2="206.31"/><line class="cls-3" x1="665.23" y1="206.65" x2="662.52" y2="206.65"/><text class="cls-33" transform="translate(639.29 210.52)">0.80</text><line x1="665.23" y1="162.22" x2="662.52" y2="162.22"/><line class="cls-3" x1="665.23" y1="161.88" x2="662.52" y2="161.88"/><text class="cls-33" transform="translate(639.29 166.08)">0.85</text><line x1="665.23" y1="117.46" x2="662.52" y2="117.46"/><line class="cls-3" x1="665.23" y1="117.8" x2="662.52" y2="117.8"/><text class="cls-33" transform="translate(639.29 121.64)">0.90</text><line x1="665.23" y1="73.37" x2="662.52" y2="73.37"/><line class="cls-3" x1="665.23" y1="73.03" x2="662.52" y2="73.03"/><text class="cls-33" transform="translate(639.29 77.19)">0.95</text><line x1="665.23" y1="28.61" x2="662.52" y2="28.61"/><line class="cls-3" x1="665.23" y1="28.95" x2="662.52" y2="28.95"/><text class="cls-33" transform="translate(639.29 32.75)">1.00</text><text class="cls-34" transform="translate(633.89 143.2) rotate(-90)">Score</text><g class="cls-35"><polyline class="cls-7" points="689.31 161.88 699.79 161.88 710.68 161.88 721.57 155.78 732.07 155.78 742.79 155.78 753.51 149.67 764.05 149.67 774.91 151.67 785.77 138.82 796.32 138.82 807.02 138.82 817.73 140.86 828.82 140.86 838.75 134.75 849.36 134.75 860.23 134.75 871.09 134.75 881.96 136.6 892.82 129.7 903.69 124.38 914.56 117.12 924.63 117.12 935.43 78.99 946.24 54.86 957.04 55.4 967.95 55.4 978.3 46.89 988.65 47.26 999.71 47.26 1010.42 47.78 1021.12 47.94 1031.82 47.94 1042.53 47.94 1053.23 49.28 1063.94 50.29 1074.65 50.84 1085.36 52.01 1095.29 52.01 1106.25 53.34 1117.21 42.5 1128.17 42.98 1139.13 43.48 1150.09 44.02 1161.05 45.9 1170.86 45.9"/></g><g class="cls-35"><polyline class="cls-8" points="688.97 222.25 700.12 222.25 710.77 222.25 721.41 222.25 732.06 222.25 742.71 222.25 753.35 212.07 763.91 212.07 774.91 214.88 785.91 203.93 796.24 203.93 807.02 203.93 817.81 206.65 829.06 206.65 839.51 206.65 849.97 206.65 860.42 206.65 870.88 206.65 881.33 209.36 892.62 209.36 903.37 200.81 914.12 189.01 924.8 189.01 935.49 124.06 946.18 80.17 956.87 81.17 967.87 81.17 978.3 64.86 988.74 65.57 999.71 65.57 1010.42 65.9 1021.12 66.93 1031.83 66.93 1042.53 66.93 1053.24 69.41 1063.94 71.26 1074.65 72.25 1085.35 74.39 1095.68 74.39 1106.51 76.88 1117.34 56.37 1128.17 57.28 1139 58.25 1149.83 59.28 1160.66 62.86 1171.2 62.86"/></g><g class="cls-35"><polyline class="cls-9" points="688.97 89.99 700.18 89.99 710.68 89.99 721.18 75.75 731.24 75.75 742.28 75.75 753.33 75.75 764.38 75.75 775.42 76.61 786.47 60.82 796.32 60.82 807.02 60.82 817.73 61.5 828.62 61.5 838.96 45.9 849.84 45.9 860.55 45.9 871.25 45.9 881.96 46.23 892.66 28.95 903.37 28.95 914.07 28.95 924.78 28.95 935.48 28.95 946.19 28.95 956.89 28.95 967.6 28.95 978.3 28.95 989.01 28.95 999.71 28.95 1010.42 28.95 1021.12 28.95 1031.83 28.95 1042.53 28.95 1053.24 28.95 1063.94 28.95 1074.65 28.95 1085.35 28.95 1096.06 28.95 1106.76 28.95 1117.47 28.95 1128.17 28.95 1138.88 28.95 1149.58 28.95 1160.29 28.95 1171.2 28.95"/></g><g class="cls-35"><polyline class="cls-10" points="688.97 216.82 699.65 216.82 710.57 216.82 721.49 206.24 732.41 206.65 742.94 206.65 753.35 199.18 764.03 199.18 774.91 201.05 785.79 181.55 796.32 181.55 807.02 181.55 817.73 184.26 828.72 184.26 839.24 173.78 849.75 174.43 860.26 175.45 871.15 175.45 881.9 177.07 892.66 164.99 903.42 157.54 914.18 148.32 924.73 148.32 935.47 98.5 946.2 65.74 956.94 66.25 967.65 66.25 978.3 54.35 988.96 54.72 999.71 54.72 1010.42 55.38 1021.12 55.4 1031.83 56.08 1042.12 56.08 1053.03 57.48 1063.94 58.63 1074.85 59.58 1085.76 60.82 1096.06 60.91 1106.76 62.16 1117.47 47.65 1128.17 48.2 1138.88 48.89 1149.58 49.58 1160.29 51.56 1170.99 51.97"/></g><g class="cls-35"><polyline class="cls-11" points="689.31 106.27 700.32 106.27 710.79 106.27 721.27 99.16 731.75 99.48 742.35 99.48 753.95 96.77 764.13 96.77 774.91 97.19 785.68 86.6 796.32 86.6 807.02 86.6 817.73 87.28 828.43 87.28 839.14 80.34 849.84 80.93 860.55 81.85 870.77 81.85 881.72 82.01 892.66 73.27 903.61 70.13 914.56 66.93 924.91 66.93 935.48 50.74 946.05 40.48 956.89 40.48 967.6 40.48 978.3 36.41 989.01 36.41 999.71 36.41 1010.42 36.41 1021.12 37.09 1031.83 36.41 1042.53 36.41 1053.24 37.09 1063.94 37.09 1074.65 37.09 1085.35 37.76 1096.06 38.44 1106.76 38.44 1117.47 33.69 1128.17 33.69 1138.88 34.37 1149.58 33.69 1160.29 33.88 1170.99 34.3"/></g><g class="cls-35"><polyline class="cls-12" points="689.31 49.29 699.98 49.29 710.68 49.29 721.38 48.12 732.09 47.94 742.79 47.94 753.5 47.26 764.09 47.26 774.91 45.98 785.73 44.55 796.53 44.55 807.02 44.55 817.51 43.19 828.43 43.19 839.14 41.15 849.84 41.83 860.55 41.83 871.25 41.83 881.96 40.24 892.66 38.59 903.37 37.09 914.07 37.76 924.78 37.76 935.48 37.76 946.19 37.76 956.89 37.09 967.6 37.09 978.3 37.76 989.01 37.09 999.71 37.76 1010.42 37.09 1021.12 37.76 1031.83 37.76 1043.51 37.76 1053.24 37.33 1062.96 37.09 1074.65 37.09 1085.35 36.41 1096.06 36.41 1106.76 35.92 1117.47 35.05 1128.17 35.05 1138.88 35.73 1149.58 35.84 1160.29 35.65 1170.99 36.17"/></g><g class="cls-35"><line class="cls-13" x1="903.3" y1="232.08" x2="903.3" y2="19.11"/></g><line class="cls-14" x1="664.9" y1="231.74" x2="664.9" y2="19.45"/><line class="cls-14" x1="1195.28" y1="231.74" x2="1195.28" y2="19.45"/><line class="cls-14" x1="664.9" y1="231.74" x2="1195.28" y2="231.74"/><line class="cls-14" x1="664.9" y1="19.45" x2="1195.28" y2="19.45"/><text class="cls-36" transform="translate(900.72 15.13)">GLASS</text><rect class="cls-16" x="992.15" y="170.36" width="196.69" height="55.62" rx="2.44"/><rect class="cls-17" x="992.49" y="170.02" width="196.69" height="55.62" rx="2.44"/><line class="cls-7" x1="997.23" y1="179.52" x2="1021.65" y2="179.52"/><text class="cls-37" transform="translate(1031.43 183.66)">F1</text><line class="cls-8" x1="997.57" y1="196.47" x2="1021.99" y2="196.47"/><text class="cls-37" transform="translate(1031.43 200.93)">Precision</text><line class="cls-9" x1="997.57" y1="214.11" x2="1021.99" y2="214.11"/><text class="cls-37" transform="translate(1031.43 218.21)">Recall</text><line class="cls-10" x1="1106.09" y1="179.52" x2="1130.51" y2="179.52"/><text class="cls-37" transform="translate(1140.25 183.66)">MCC</text><line class="cls-11" x1="1105.75" y1="196.47" x2="1130.17" y2="196.47"/><text class="cls-37" transform="translate(1140.25 200.93)">Bal Acc</text><line class="cls-12" x1="1105.75" y1="214.11" x2="1130.17" y2="214.11"/><text class="cls-37" transform="translate(1140.25 218.34)">AUC</text><line x1="688.97" y1="348.06" x2="688.97" y2="350.09"/><line class="cls-3" x1="689.31" y1="348.06" x2="689.31" y2="350.09"/><text class="cls-33" transform="translate(681.72 360.26)">0.5</text><line x1="796.14" y1="348.06" x2="796.14" y2="350.09"/><line class="cls-3" x1="796.47" y1="348.06" x2="796.47" y2="350.09"/><text class="cls-33" transform="translate(788.77 360.26)">0.6</text><line x1="903.3" y1="348.06" x2="903.3" y2="350.09"/><line class="cls-3" x1="903.64" y1="348.06" x2="903.64" y2="350.09"/><text class="cls-33" transform="translate(895.82 360.26)">0.7</text><line x1="1010.46" y1="348.06" x2="1010.46" y2="350.09"/><line class="cls-3" x1="1010.12" y1="348.06" x2="1010.12" y2="350.09"/><text class="cls-33" transform="translate(1002.87 360.26)">0.8</text><line x1="1117.62" y1="348.06" x2="1117.62" y2="350.09"/><line class="cls-3" x1="1117.28" y1="348.06" x2="1117.28" y2="350.09"/><text class="cls-33" transform="translate(1109.92 360.26)">0.9</text><text class="cls-34" transform="translate(835.87 374.84)">Threshold for Model Confidence</text><line x1="665.23" y1="325" x2="662.52" y2="325"/><line class="cls-3" x1="665.23" y1="324.66" x2="662.52" y2="324.66"/><text class="cls-33" transform="translate(645.33 328.64)">0.6</text><line x1="665.23" y1="285.66" x2="662.52" y2="285.66"/><line class="cls-3" x1="665.23" y1="285.32" x2="662.52" y2="285.32"/><text class="cls-33" transform="translate(645.33 289.41)">0.8</text><line x1="665.23" y1="246.32" x2="662.52" y2="246.32"/><line class="cls-3" x1="665.23" y1="245.98" x2="662.52" y2="245.98"/><text class="cls-33" transform="translate(645.33 250.18)">1.0</text><text class="cls-34" transform="translate(639.93 333.44) rotate(-90)">% of Dataset</text><g class="cls-38"><polyline class="cls-20" points="689.31 245.98 699.29 245.98 710.45 245.98 721.61 247 732.77 248.02 742.57 248.02 753.73 250.05 764.99 250.05 774.91 250.96 784.83 252.76 795.86 252.76 807.02 252.76 818.18 254.8 827.75 254.8 838.91 257.85 850.07 259.89 861.23 262.94 871.83 262.94 882.25 263.89 892.66 264.84 903.08 266.74 913.49 267.69 924.6 267.69 935.42 272.62 946.25 277.55 957.07 278.54 967.83 278.54 978.46 281.44 989.08 282.41 999.71 284.35 1010.34 288.23 1020.97 290.17 1031.6 292.1 1042.53 292.1 1053.24 296.01 1063.94 299.91 1074.65 305.77 1085.35 308.69 1096.06 309.67 1106.76 311.62 1117.47 319.43 1128.17 322.36 1138.88 327.24 1149.58 331.14 1160.29 337 1170.99 342.85"/></g><g class="cls-38"><line class="cls-13" x1="665.23" y1="265.99" x2="1194.94" y2="265.99"/></g><g class="cls-38"><line class="cls-13" x1="903.3" y1="348.06" x2="903.3" y2="241.57"/></g><line class="cls-14" x1="664.9" y1="347.72" x2="664.9" y2="241.24"/><line class="cls-14" x1="1195.28" y1="347.72" x2="1195.28" y2="241.24"/><line class="cls-14" x1="664.9" y1="347.72" x2="1195.28" y2="347.72"/><line class="cls-14" x1="664.9" y1="241.24" x2="1195.28" y2="241.24"/><rect class="cls-21" x="671.34" y="320.93" width="100.38" height="21.03" rx="2.44"/><rect class="cls-22" x="671" y="320.59" width="100.38" height="21.03" rx="2.44"/><line class="cls-20" x1="676.43" y1="330.08" x2="700.84" y2="330.08"/><text class="cls-37" transform="translate(710.35 334.33)">Dataset %</text></g></g><g class="cls-39"><g class="cls-39"><line x1="688.97" y1="636.73" x2="688.97" y2="639.45"/><line class="cls-3" x1="689.31" y1="636.73" x2="689.31" y2="639.45"/><line x1="798.85" y1="636.73" x2="798.85" y2="639.45"/><line class="cls-3" x1="798.51" y1="636.73" x2="798.51" y2="639.45"/><line x1="908.04" y1="636.73" x2="908.04" y2="639.45"/><line class="cls-3" x1="908.38" y1="636.73" x2="908.38" y2="639.45"/><line x1="1017.92" y1="636.73" x2="1017.92" y2="639.45"/><line class="cls-3" x1="1017.58" y1="636.73" x2="1017.58" y2="639.45"/><line x1="1127.12" y1="636.73" x2="1127.12" y2="639.45"/><line class="cls-3" x1="1127.46" y1="636.73" x2="1127.46" y2="639.45"/><line x1="665.23" y1="630.63" x2="662.52" y2="630.63"/><line class="cls-3" x1="665.23" y1="630.97" x2="662.52" y2="630.97"/><text class="cls-33" transform="translate(639.29 634.68)">0.70</text><line x1="665.23" y1="598.07" x2="662.52" y2="598.07"/><line class="cls-3" x1="665.23" y1="597.74" x2="662.52" y2="597.74"/><text class="cls-33" transform="translate(639.29 601.88)">0.75</text><line x1="665.23" y1="565.52" x2="662.52" y2="565.52"/><line class="cls-3" x1="665.23" y1="565.18" x2="662.52" y2="565.18"/><text class="cls-33" transform="translate(639.29 569.07)">0.80</text><line x1="665.23" y1="532.29" x2="662.52" y2="532.29"/><line class="cls-3" x1="665.23" y1="532.62" x2="662.52" y2="532.62"/><text class="cls-33" transform="translate(639.29 536.27)">0.85</text><line x1="665.23" y1="499.73" x2="662.52" y2="499.73"/><line class="cls-3" x1="665.23" y1="499.39" x2="662.52" y2="499.39"/><text class="cls-33" transform="translate(639.29 503.47)">0.90</text><line x1="665.23" y1="466.5" x2="662.52" y2="466.5"/><line class="cls-3" x1="665.23" y1="466.83" x2="662.52" y2="466.83"/><text class="cls-33" transform="translate(639.29 470.66)">0.95</text><line x1="665.23" y1="433.94" x2="662.52" y2="433.94"/><line class="cls-3" x1="665.23" y1="434.28" x2="662.52" y2="434.28"/><text class="cls-33" transform="translate(639.29 437.85)">1.00</text><text class="cls-40" transform="translate(633.89 548.31) rotate(-90)">Score</text><g class="cls-41"><polyline class="cls-7" points="689.27 562.55 700.22 558.4 710.47 558.4 721.54 557.25 732.62 555.09 743.69 548.52 754.77 549.46 765.84 547.22 776.92 545.88 787.99 543.59 799.07 539.84 810.14 535.08 821.22 533.53 832.3 531.95 843.3 531.95 854.18 531.95 865.07 527.03 875.96 524.54 886.84 525.35 897.73 524.44 908.61 525.27 919.5 518.14 930.38 514.22 941.27 513.22 952.15 511.83 963.04 512.66 973.92 509.53 984.81 510.35 995.69 506.31 1006.58 507.15 1017.46 502.7 1028.35 496.99 1039.23 497.22 1050.12 498.98 1061.01 499.9 1071.89 502.82 1082.78 496.8 1093.66 499.9 1104.55 496 1116.25 496 1127.2 501.26 1138.15 510.61 1149.09 515.2 1160.04 490.55 1170.99 502.19"/></g><g class="cls-41"><polyline class="cls-8" points="689.27 627.22 700.22 620.8 710.96 620.8 722.33 622.15 732.89 622.15 744.01 615.41 755.13 616.73 766.09 616.73 776.98 614.63 787.87 611.18 798.75 605.39 809.64 598.09 820.53 595.58 831.41 592.99 842.35 592.99 853.31 592.99 864.27 585.08 875.24 581.04 886.21 582.22 897.17 580.47 908.13 581.69 919.1 569.8 930.06 567.59 941.03 565.27 951.99 562.69 962.96 563.97 973.92 558.7 984.89 559.96 995.85 552.68 1006.82 553.96 1017.78 545.85 1028.75 535.54 1039.71 534.94 1050.68 537.6 1061.64 538.98 1072.61 543.36 1083.57 531.92 1094.54 536.52 1105.5 529.23 1116.25 529.23 1127.2 545.41 1138.15 559.63 1149.09 565.21 1160.04 537.59 1170.99 557.01"/></g><g class="cls-41"><polyline class="cls-9" points="688.97 475.65 700.86 475.65 711.59 475.65 722.33 470.45 733.06 464.77 743.8 458.99 754.53 459.22 765.27 453.27 776.86 453.27 787.8 453.27 798.75 453.27 809.7 453.27 820.65 453.27 831.6 453.95 842.54 453.95 853.49 453.95 864.44 453.95 875.39 453.95 886.34 453.85 897.29 454.26 908.23 454.47 919.18 454.69 930.13 448.23 941.08 449.23 952.03 449.2 962.98 449.88 973.18 449.88 984.26 450.07 995.33 450.69 1006.4 450.9 1017.47 451.58 1028.54 452.07 1039.61 453.4 1050.68 454 1061.75 454.31 1072.83 455.29 1083.9 456.38 1094.97 457.59 1106.04 458.02 1116.36 458.02 1127.25 448.79 1138.15 451.02 1149.04 454.06 1159.93 434.28 1171.2 434.28"/></g><g class="cls-41"><polyline class="cls-10" points="689.27 609.07 700.22 603.84 711 603.84 721.98 600.93 732.96 597.08 743.94 587.59 754.91 588.4 765.89 584.23 776.87 582.42 787.85 579.77 798.83 574.99 809.8 569.13 820.78 567.04 831.76 565.18 842.54 565.86 853.49 566 864.44 559.92 875.39 556.75 886.34 557.75 897.29 555.98 908.23 556.87 919.18 547.5 930.13 540.8 941.08 537.98 952.03 535.69 962.98 536.67 973.92 532.76 984.87 533.73 995.82 527.99 1006.77 528.86 1017.72 522.57 1028.66 515.16 1039.61 514.33 1050.56 516.24 1061.51 517.11 1072.46 519.96 1083.4 512.02 1094.35 515.07 1105.3 510.37 1116.25 510.57 1127.2 513.59 1138.15 522.93 1149.09 526.3 1160.04 497.87 1170.99 509.05"/></g><g class="cls-41"><polyline class="cls-11" points="689.27 501.96 700.22 500.07 711.08 500.07 722.09 497.56 733.09 494.8 744.1 489.89 755.53 490.01 766.32 487.02 777.1 486.3 787.88 485.47 798.67 483.73 809.46 481.73 820.24 480.94 831.02 480.4 842.54 481.08 853.49 481.22 864.44 479.14 875.39 478.02 886.34 478.38 897.29 477.46 908.23 477.69 919.18 474.33 930.13 469.81 941.08 468.05 952.03 467.03 962.98 467.33 973.92 466.11 984.87 466.41 995.82 464.32 1006.77 464.52 1017.72 462.31 1028.66 460.11 1039.61 459.54 1050.56 460.05 1061.51 460.05 1072.46 461.09 1083.4 459.05 1094.35 459.71 1105.3 458.7 1116.25 458.87 1127.2 454.64 1138.15 456.4 1149.09 456.74 1160.04 444.08 1170.99 444.81"/></g><g class="cls-41"><polyline class="cls-12" points="689.27 467.51 700.22 468.19 711.17 468.19 722.11 466.79 733.06 466.25 744.01 465.74 754.96 465.2 765.91 464.66 776.86 463.44 787.8 463.44 798.75 464.12 809.7 464.12 820.65 463.57 831.6 462.76 842.54 463.44 853.49 462.76 864.44 463.44 874.58 463.48 885.73 463.16 896.88 462.39 908.03 462.02 919.18 461.77 930.33 460.79 941.48 458.89 952.63 458.27 963.78 458.02 973.92 458.05 984.87 457.83 995.82 457.01 1006.77 456.77 1017.72 456.09 1028.66 455.77 1039.61 454.95 1050.56 454.63 1061.53 454.44 1072.47 453.82 1083.4 453.34 1094.34 452.85 1105.28 452.59 1116.25 452.52 1127.2 450.77 1138.15 449.12 1149.09 446.53 1160.04 446.2 1170.99 445.05"/></g><g class="cls-41"><line class="cls-13" x1="908.04" y1="636.73" x2="908.04" y2="424.44"/></g><line class="cls-14" x1="664.9" y1="637.07" x2="664.9" y2="424.11"/><line class="cls-14" x1="1195.28" y1="637.07" x2="1195.28" y2="424.11"/><line class="cls-14" x1="664.9" y1="637.07" x2="1195.28" y2="637.07"/><line class="cls-14" x1="664.9" y1="424.11" x2="1195.28" y2="424.11"/><text class="cls-36" transform="translate(879.63 420.24)">Capper et al.</text><rect class="cls-16" x="992.15" y="575.01" width="196.69" height="55.62" rx="2.44"/><rect class="cls-17" x="992.49" y="575.35" width="196.69" height="55.62" rx="2.44"/><line class="cls-7" x1="997.23" y1="584.17" x2="1021.65" y2="584.17"/><text class="cls-37" transform="translate(1031.43 588.77)">F1</text><line class="cls-8" x1="997.57" y1="601.8" x2="1021.99" y2="601.8"/><text class="cls-37" transform="translate(1031.43 606.04)">Precision</text><line class="cls-9" x1="997.57" y1="618.76" x2="1021.99" y2="618.76"/><text class="cls-37" transform="translate(1031.43 623.31)">Recall</text><line class="cls-10" x1="1106.09" y1="584.17" x2="1130.51" y2="584.17"/><text class="cls-37" transform="translate(1140.25 588.77)">MCC</text><line class="cls-11" x1="1105.75" y1="601.8" x2="1130.17" y2="601.8"/><text class="cls-37" transform="translate(1140.25 606.04)">Bal Acc</text><line class="cls-12" x1="1105.75" y1="619.44" x2="1130.17" y2="619.44"/><text class="cls-37" transform="translate(1140.25 623.45)">AUC</text><line x1="688.97" y1="752.71" x2="688.97" y2="755.43"/><line class="cls-3" x1="689.31" y1="752.71" x2="689.31" y2="755.43"/><text class="cls-33" transform="translate(681.72 765.37)">0.5</text><line x1="798.85" y1="752.71" x2="798.85" y2="755.43"/><line class="cls-3" x1="798.51" y1="752.71" x2="798.51" y2="755.43"/><text class="cls-33" transform="translate(791.2 765.37)">0.6</text><line x1="908.04" y1="752.71" x2="908.04" y2="755.43"/><line class="cls-3" x1="908.38" y1="752.71" x2="908.38" y2="755.43"/><text class="cls-33" transform="translate(900.68 765.37)">0.7</text><line x1="1017.92" y1="752.71" x2="1017.92" y2="755.43"/><line class="cls-3" x1="1017.58" y1="752.71" x2="1017.58" y2="755.43"/><text class="cls-33" transform="translate(1010.17 765.37)">0.8</text><line x1="1127.12" y1="752.71" x2="1127.12" y2="755.43"/><line class="cls-3" x1="1127.46" y1="752.71" x2="1127.46" y2="755.43"/><text class="cls-33" transform="translate(1119.65 765.37)">0.9</text><text class="cls-40" transform="translate(835.87 779.95)">Threshold for Model Confidence</text><line x1="665.23" y1="729.65" x2="662.52" y2="729.65"/><line class="cls-3" x1="665.23" y1="729.99" x2="662.52" y2="729.99"/><text class="cls-33" transform="translate(645.33 733.73)">0.6</text><line x1="665.23" y1="690.32" x2="662.52" y2="690.32"/><line class="cls-3" x1="665.23" y1="690.65" x2="662.52" y2="690.65"/><text class="cls-33" transform="translate(645.33 694.51)">0.8</text><line x1="665.23" y1="651.66" x2="662.52" y2="651.66"/><line class="cls-3" x1="665.23" y1="651.32" x2="662.52" y2="651.32"/><text class="cls-33" transform="translate(645.33 655.28)">1.0</text><text class="cls-40" transform="translate(639.93 738.55) rotate(-90)">% of Dataset</text><g class="cls-42"><polyline class="cls-20" points="689.27 651.71 700.22 652.67 711.17 652.67 722.11 654.12 733.06 655.08 744.01 656.52 754.96 657 765.91 657.48 776.86 658.92 787.8 659.88 798.75 661.81 809.7 662.77 820.65 664.21 831.6 666.61 842.54 667.09 853.49 667.57 864.44 669.02 875.39 669.5 886.34 670.94 897.29 672.38 908.23 673.34 919.18 675.26 930.13 677.19 941.08 681.51 952.03 682.96 962.98 684.4 973.92 684.88 984.87 686.32 995.82 689.2 1006.77 690.17 1017.72 692.57 1028.66 695.45 1039.61 698.82 1050.56 701.22 1061.51 701.7 1072.46 703.63 1083.4 706.51 1094.35 708.43 1105.3 710.84 1116.25 712.28 1127.2 720.45 1138.15 728.14 1149.09 733.91 1160.04 739.2 1170.99 748.33"/></g><g class="cls-42"><line class="cls-13" x1="665.23" y1="671.32" x2="1194.94" y2="671.32"/></g><g class="cls-42"><line class="cls-13" x1="908.04" y1="752.71" x2="908.04" y2="646.91"/></g><line class="cls-14" x1="664.9" y1="753.05" x2="664.9" y2="646.57"/><line class="cls-14" x1="1195.28" y1="753.05" x2="1195.28" y2="646.57"/><line class="cls-14" x1="664.9" y1="753.05" x2="1195.28" y2="753.05"/><line class="cls-14" x1="664.9" y1="646.57" x2="1195.28" y2="646.57"/><rect class="cls-21" x="671.34" y="725.58" width="100.38" height="21.03" rx="2.44"/><rect class="cls-22" x="671" y="725.92" width="100.38" height="21.03" rx="2.44"/><line class="cls-20" x1="676.43" y1="735.42" x2="700.84" y2="735.42"/><text class="cls-37" transform="translate(710.35 739.43)">Dataset %</text></g></g></svg>