<svg id="Layer_1" data-name="Layer 1" xmlns="http://www.w3.org/2000/svg" xmlns:xlink="http://www.w3.org/1999/xlink" viewBox="0 0 1714.07 410.92"><defs><style>.cls-1,.cls-12,.cls-22,.cls-23,.cls-24,.cls-25,.cls-26,.cls-32,.cls-5,.cls-8{fill:none;}.cls-2{clip-path:url(#clip-path);}.cls-3{clip-path:url(#clip-path-3);}.cls-4{fill:gray;}.cls-25,.cls-5,.cls-8{stroke:#000;}.cls-22,.cls-23,.cls-24,.cls-25,.cls-26,.cls-5{stroke-linejoin:round;}.cls-5,.cls-8{stroke-width:0.8px;}.cls-6{font-size:14px;}.cls-10,.cls-20,.cls-27,.cls-28,.cls-29,.cls-30,.cls-6,.cls-7,.cls-9{font-family:ArialMT, Arial;}.cls-7{font-size:16.33px;}.cls-24,.cls-26,.cls-8{stroke-linecap:square;}.cls-12,.cls-32,.cls-8{stroke-miterlimit:10;}.cls-9{font-size:12.83px;}.cls-10{font-size:17.5px;}.cls-11,.cls-31{fill:#fff;}.cls-11,.cls-12{opacity:0.8;}.cls-12,.cls-32{stroke:#ccc;}.cls-13{clip-path:url(#clip-path-7);}.cls-14{clip-path:url(#clip-path-9);}.cls-15,.cls-17{font-size:24px;font-family:MyriadPro-Regular, Myriad Pro;}.cls-16{letter-spacing:-0.01em;}.cls-17{letter-spacing:0.02em;}.cls-18{letter-spacing:0em;}.cls-19{clip-path:url(#clip-path-13);}.cls-20,.cls-27,.cls-28{font-size:15.97px;}.cls-21{clip-path:url(#clip-path-15);}.cls-22,.cls-24{stroke:#2b3a41;}.cls-23,.cls-26{stroke:#0e7a84;}.cls-24,.cls-26{stroke-width:5px;}.cls-25{stroke-width:3px;stroke-dasharray:3 4.95;}.cls-27,.cls-33{fill:#2b3a41;}.cls-28,.cls-34{fill:#0e7a84;}.cls-29{font-size:17.42px;}.cls-30{font-size:20px;}.cls-35{clip-path:url(#clip-path-21);}</style><clipPath id="clip-path" transform="translate(-48.21 -296.93)"><rect class="cls-1" x="714" y="293" width="504" height="420"/></clipPath><clipPath id="clip-path-3" transform="translate(-48.21 -296.93)"><rect class="cls-1" x="761.25" y="315.75" width="450.33" height="373.33"/></clipPath><clipPath id="clip-path-7" transform="translate(-48.21 -296.93)"><rect class="cls-1" x="1264" y="293" width="504" height="420"/></clipPath><clipPath id="clip-path-9" transform="translate(-48.21 -296.93)"><rect class="cls-1" x="1311.25" y="315.75" width="450.33" height="373.33"/></clipPath><clipPath id="clip-path-13" transform="translate(-48.21 -296.93)"><rect class="cls-1" x="67" y="293" width="627" height="418"/></clipPath><clipPath id="clip-path-15" transform="translate(-48.21 -296.93)"><rect class="cls-1" x="92.4" y="321.3" width="574.75" height="159.65"/></clipPath><clipPath id="clip-path-21" transform="translate(-48.21 -296.93)"><rect class="cls-1" x="92.4" y="504.18" width="574.75" height="159.65"/></clipPath></defs><g class="cls-2"><g class="cls-2"><g class="cls-3"><rect class="cls-4" x="750.96" y="137.23" width="124.83" height="254.92"/></g><g class="cls-3"><rect class="cls-4" x="1001.21" y="87.07" width="124.83" height="305.08"/></g><g class="cls-3"><rect x="750.96" y="52.65" width="124.83" height="85.17"/></g><g class="cls-3"><rect x="1001.21" y="52.65" width="124.83" height="34.42"/></g><line x1="813.38" y1="392.15" x2="813.38" y2="394.48"/><line class="cls-5" x1="813.09" y1="392.15" x2="813.09" y2="394.48"/><text class="cls-6" transform="translate(768.94 406.38)">REMBRANDT</text><line x1="1063.63" y1="392.15" x2="1063.63" y2="394.48"/><line class="cls-5" x1="1063.34" y1="392.15" x2="1063.34" y2="394.48"/><text class="cls-6" transform="translate(1043.99 406.38)">TCGA</text><line x1="713.04" y1="392.15" x2="711.29" y2="392.15"/><line class="cls-5" x1="713.04" y1="392.44" x2="711.29" y2="392.44"/><text class="cls-6" transform="translate(689.68 397.28)">0.0</text><line x1="713.04" y1="324.48" x2="711.29" y2="324.48"/><line class="cls-5" x1="713.04" y1="324.19" x2="711.29" y2="324.19"/><text class="cls-6" transform="translate(689.68 329.36)">0.2</text><line x1="713.04" y1="256.23" x2="711.29" y2="256.23"/><line class="cls-5" x1="713.04" y1="256.52" x2="711.29" y2="256.52"/><text class="cls-6" transform="translate(689.68 261.44)">0.4</text><line x1="713.04" y1="188.57" x2="711.29" y2="188.57"/><line class="cls-5" x1="713.04" y1="188.27" x2="711.29" y2="188.27"/><text class="cls-6" transform="translate(689.68 193.52)">0.6</text><line x1="713.04" y1="120.32" x2="711.29" y2="120.32"/><line class="cls-5" x1="713.04" y1="120.61" x2="711.29" y2="120.61"/><text class="cls-6" transform="translate(689.68 125.59)">0.8</text><line x1="713.04" y1="52.65" x2="711.29" y2="52.65"/><line class="cls-5" x1="713.04" y1="52.94" x2="711.29" y2="52.94"/><text class="cls-6" transform="translate(689.68 57.67)">1.0</text><text class="cls-7" transform="translate(683.91 247.26) rotate(-90)">Percentage</text><line class="cls-8" x1="713.34" y1="392.44" x2="713.34" y2="18.52"/><line class="cls-8" x1="1163.67" y1="392.44" x2="1163.67" y2="18.52"/><line class="cls-8" x1="713.34" y1="392.44" x2="1163.67" y2="392.44"/><line class="cls-8" x1="713.34" y1="18.52" x2="1163.67" y2="18.52"/><text class="cls-6" transform="translate(920.84 188.5)">0.048</text><text class="cls-9" transform="translate(894.7 222.46)">(Fisher&apos;s exact)</text><text class="cls-10" transform="translate(803.62 15.02)">Predicted IDH-Mutant Astrocytoma</text><rect class="cls-11" x="854.79" y="21.73" width="166.83" height="23.92" rx="2.8"/><rect class="cls-12" x="855.09" y="21.44" width="166.83" height="23.92" rx="2.8"/><rect class="cls-4" x="860.63" y="27.57" width="28" height="9.92"/><text class="cls-6" transform="translate(899.84 37.27)">G2/3</text><rect x="958.04" y="27.57" width="28" height="9.92"/><text class="cls-6" transform="translate(997.4 37.27)">G4</text></g></g><g class="cls-13"><g class="cls-13"><g class="cls-14"><rect class="cls-4" x="1300.96" y="222.4" width="124.83" height="169.75"/></g><g class="cls-14"><rect class="cls-4" x="1551.21" y="203.73" width="124.83" height="188.42"/></g><g class="cls-14"><rect x="1300.96" y="52.65" width="124.83" height="169.75"/></g><g class="cls-14"><rect x="1551.21" y="52.65" width="124.83" height="151.08"/></g><line x1="1363.38" y1="392.15" x2="1363.38" y2="394.48"/><line class="cls-5" x1="1363.09" y1="392.15" x2="1363.09" y2="394.48"/><text class="cls-6" transform="translate(1318.94 406.38)">REMBRANDT</text><line x1="1613.63" y1="392.15" x2="1613.63" y2="394.48"/><line class="cls-5" x1="1613.34" y1="392.15" x2="1613.34" y2="394.48"/><text class="cls-6" transform="translate(1593.99 406.38)">TCGA</text><line x1="1263.04" y1="392.15" x2="1261.29" y2="392.15"/><line class="cls-5" x1="1263.04" y1="392.44" x2="1261.29" y2="392.44"/><text class="cls-6" transform="translate(1239.68 397.28)">0.0</text><line x1="1263.04" y1="324.48" x2="1261.29" y2="324.48"/><line class="cls-5" x1="1263.04" y1="324.19" x2="1261.29" y2="324.19"/><text class="cls-6" transform="translate(1239.68 329.36)">0.2</text><line x1="1263.04" y1="256.23" x2="1261.29" y2="256.23"/><line class="cls-5" x1="1263.04" y1="256.52" x2="1261.29" y2="256.52"/><text class="cls-6" transform="translate(1239.68 261.44)">0.4</text><line x1="1263.04" y1="188.57" x2="1261.29" y2="188.57"/><line class="cls-5" x1="1263.04" y1="188.27" x2="1261.29" y2="188.27"/><text class="cls-6" transform="translate(1239.68 193.52)">0.6</text><line x1="1263.04" y1="120.32" x2="1261.29" y2="120.32"/><line class="cls-5" x1="1263.04" y1="120.61" x2="1261.29" y2="120.61"/><text class="cls-6" transform="translate(1239.68 125.59)">0.8</text><line x1="1263.04" y1="52.65" x2="1261.29" y2="52.65"/><line class="cls-5" x1="1263.04" y1="52.94" x2="1261.29" y2="52.94"/><text class="cls-6" transform="translate(1239.68 57.67)">1.0</text><text class="cls-7" transform="translate(1233.91 247.27) rotate(-90)">Percentage</text><line class="cls-8" x1="1263.34" y1="392.44" x2="1263.34" y2="18.52"/><line class="cls-8" x1="1713.67" y1="392.44" x2="1713.67" y2="18.52"/><line class="cls-8" x1="1263.34" y1="392.44" x2="1713.67" y2="392.44"/><line class="cls-8" x1="1263.34" y1="18.52" x2="1713.67" y2="18.52"/><text class="cls-6" transform="translate(1474.74 188.5)">0.77</text><text class="cls-9" transform="translate(1444.7 222.46)">(Fisher&apos;s exact)</text><text class="cls-10" transform="translate(1375.49 15.02)">Predicted Oligodendroglioma</text><rect class="cls-11" x="1410.63" y="21.73" width="155.17" height="23.92" rx="2.8"/><rect class="cls-12" x="1410.92" y="21.44" width="155.17" height="23.92" rx="2.8"/><rect class="cls-4" x="1416.46" y="27.57" width="28" height="9.92"/><text class="cls-6" transform="translate(1455.68 37.27)">G2</text><rect x="1502.21" y="27.57" width="28" height="9.92"/><text class="cls-6" transform="translate(1541.56 37.27)">G3</text></g></g><text class="cls-15" transform="translate(0 25.5)"><tspan class="cls-16">A</tspan><tspan x="14.47" y="0">)</tspan></text><text class="cls-15" transform="translate(663 25.5)">B)</text><text class="cls-17" transform="translate(1213.5 25.5)">C<tspan class="cls-18" x="14.33" y="0">)</tspan></text><g class="cls-19"><g class="cls-19"><line x1="73.22" y1="184.02" x2="73.22" y2="186.92"/><line class="cls-5" x1="72.86" y1="184.02" x2="72.86" y2="186.92"/><line x1="187.88" y1="184.02" x2="187.88" y2="186.92"/><line class="cls-5" x1="187.52" y1="184.02" x2="187.52" y2="186.92"/><line x1="302.54" y1="184.02" x2="302.54" y2="186.92"/><line class="cls-5" x1="302.9" y1="184.02" x2="302.9" y2="186.92"/><line x1="417.93" y1="184.02" x2="417.93" y2="186.92"/><line class="cls-5" x1="417.56" y1="184.02" x2="417.56" y2="186.92"/><line x1="532.59" y1="184.02" x2="532.59" y2="186.92"/><line class="cls-5" x1="532.95" y1="184.02" x2="532.95" y2="186.92"/><text class="cls-20" transform="translate(37.86 191.09) rotate(-90)">IDH-Mutant Astrocytoma</text><g class="cls-21"><line class="cls-22" x1="371.84" y1="184.02" x2="371.84" y2="176.04"/><line class="cls-22" x1="400.87" y1="184.02" x2="400.87" y2="176.04"/><line class="cls-22" x1="371.84" y1="184.02" x2="371.84" y2="176.04"/><line class="cls-22" x1="257.19" y1="184.02" x2="257.19" y2="176.04"/><line class="cls-22" x1="228.16" y1="184.02" x2="228.16" y2="176.04"/><line class="cls-22" x1="199.13" y1="184.02" x2="199.13" y2="176.04"/><line class="cls-22" x1="342.82" y1="184.02" x2="342.82" y2="176.04"/><line class="cls-22" x1="285.49" y1="184.02" x2="285.49" y2="176.04"/><line class="cls-22" x1="314.51" y1="184.02" x2="314.51" y2="176.04"/><line class="cls-22" x1="486.5" y1="184.02" x2="486.5" y2="176.04"/><line class="cls-22" x1="228.16" y1="184.02" x2="228.16" y2="176.04"/><line class="cls-22" x1="314.51" y1="184.02" x2="314.51" y2="176.04"/><line class="cls-22" x1="371.84" y1="184.02" x2="371.84" y2="176.04"/><line class="cls-22" x1="371.84" y1="184.02" x2="371.84" y2="176.04"/><line class="cls-22" x1="458.2" y1="184.02" x2="458.2" y2="176.04"/><line class="cls-22" x1="199.13" y1="184.02" x2="199.13" y2="176.04"/><line class="cls-22" x1="199.13" y1="184.02" x2="199.13" y2="176.04"/><line class="cls-22" x1="371.84" y1="184.02" x2="371.84" y2="176.04"/><line class="cls-22" x1="285.49" y1="184.02" x2="285.49" y2="176.04"/><line class="cls-22" x1="285.49" y1="184.02" x2="285.49" y2="176.04"/><line class="cls-22" x1="228.16" y1="184.02" x2="228.16" y2="176.04"/><line class="cls-22" x1="314.51" y1="184.02" x2="314.51" y2="176.04"/><line class="cls-22" x1="429.17" y1="184.02" x2="429.17" y2="176.04"/><line class="cls-22" x1="342.82" y1="184.02" x2="342.82" y2="176.04"/><line class="cls-22" x1="400.87" y1="184.02" x2="400.87" y2="176.04"/><line class="cls-22" x1="257.19" y1="184.02" x2="257.19" y2="176.04"/><line class="cls-22" x1="314.51" y1="184.02" x2="314.51" y2="176.04"/><line class="cls-22" x1="228.16" y1="184.02" x2="228.16" y2="176.04"/><line class="cls-22" x1="257.19" y1="184.02" x2="257.19" y2="176.04"/><line class="cls-22" x1="314.51" y1="184.02" x2="314.51" y2="176.04"/><line class="cls-22" x1="486.5" y1="184.02" x2="486.5" y2="176.04"/><line class="cls-22" x1="199.13" y1="184.02" x2="199.13" y2="176.04"/><line class="cls-22" x1="342.82" y1="184.02" x2="342.82" y2="176.04"/><line class="cls-22" x1="371.84" y1="184.02" x2="371.84" y2="176.04"/><line class="cls-22" x1="371.84" y1="184.02" x2="371.84" y2="176.04"/><line class="cls-22" x1="199.13" y1="184.02" x2="199.13" y2="176.04"/><line class="cls-22" x1="314.51" y1="184.02" x2="314.51" y2="176.04"/><line class="cls-22" x1="371.84" y1="184.02" x2="371.84" y2="176.04"/><line class="cls-22" x1="228.16" y1="184.02" x2="228.16" y2="176.04"/><line class="cls-22" x1="257.19" y1="184.02" x2="257.19" y2="176.04"/><line class="cls-22" x1="342.82" y1="184.02" x2="342.82" y2="176.04"/><line class="cls-22" x1="257.19" y1="184.02" x2="257.19" y2="176.04"/><line class="cls-22" x1="228.16" y1="184.02" x2="228.16" y2="176.04"/><line class="cls-22" x1="314.51" y1="184.02" x2="314.51" y2="176.04"/><line class="cls-22" x1="285.49" y1="184.02" x2="285.49" y2="176.04"/><line class="cls-22" x1="257.19" y1="184.02" x2="257.19" y2="176.04"/><line class="cls-22" x1="228.16" y1="184.02" x2="228.16" y2="176.04"/><line class="cls-22" x1="285.49" y1="184.02" x2="285.49" y2="176.04"/><line class="cls-22" x1="400.87" y1="184.02" x2="400.87" y2="176.04"/><line class="cls-22" x1="199.13" y1="184.02" x2="199.13" y2="176.04"/><line class="cls-22" x1="285.49" y1="184.02" x2="285.49" y2="176.04"/><line class="cls-22" x1="285.49" y1="184.02" x2="285.49" y2="176.04"/><line class="cls-22" x1="285.49" y1="184.02" x2="285.49" y2="176.04"/><line class="cls-22" x1="314.51" y1="184.02" x2="314.51" y2="176.04"/><line class="cls-22" x1="228.16" y1="184.02" x2="228.16" y2="176.04"/></g><g class="cls-21"><line class="cls-23" x1="320.32" y1="184.02" x2="320.32" y2="176.04"/><line class="cls-23" x1="452.4" y1="184.02" x2="452.4" y2="176.04"/><line class="cls-23" x1="245.57" y1="184.02" x2="245.57" y2="176.04"/><line class="cls-23" x1="251.38" y1="184.02" x2="251.38" y2="176.04"/><line class="cls-23" x1="193.32" y1="184.02" x2="193.32" y2="176.04"/><line class="cls-23" x1="204.94" y1="184.02" x2="204.94" y2="176.04"/><line class="cls-23" x1="354.43" y1="184.02" x2="354.43" y2="176.04"/><line class="cls-23" x1="417.56" y1="184.02" x2="417.56" y2="176.04"/><line class="cls-23" x1="245.57" y1="184.02" x2="245.57" y2="176.04"/><line class="cls-23" x1="204.94" y1="184.02" x2="204.94" y2="176.04"/><line class="cls-23" x1="302.9" y1="184.02" x2="302.9" y2="176.04"/><line class="cls-23" x1="417.56" y1="184.02" x2="417.56" y2="176.04"/><line class="cls-23" x1="302.9" y1="184.02" x2="302.9" y2="176.04"/><line class="cls-23" x1="320.32" y1="184.02" x2="320.32" y2="176.04"/><line class="cls-23" x1="268.07" y1="184.02" x2="268.07" y2="176.04"/><line class="cls-23" x1="216.55" y1="184.02" x2="216.55" y2="176.04"/><line class="cls-23" x1="251.38" y1="184.02" x2="251.38" y2="176.04"/><line class="cls-23" x1="326.13" y1="184.02" x2="326.13" y2="176.04"/><line class="cls-23" x1="285.49" y1="184.02" x2="285.49" y2="176.04"/><line class="cls-23" x1="360.23" y1="184.02" x2="360.23" y2="176.04"/><line class="cls-23" x1="297.1" y1="184.02" x2="297.1" y2="176.04"/><line class="cls-23" x1="251.38" y1="184.02" x2="251.38" y2="176.04"/><line class="cls-23" x1="366.04" y1="184.02" x2="366.04" y2="176.04"/><line class="cls-23" x1="199.13" y1="184.02" x2="199.13" y2="176.04"/><line class="cls-23" x1="297.1" y1="184.02" x2="297.1" y2="176.04"/><line class="cls-23" x1="291.29" y1="184.02" x2="291.29" y2="176.04"/><line class="cls-23" x1="262.26" y1="184.02" x2="262.26" y2="176.04"/><line class="cls-23" x1="279.68" y1="184.02" x2="279.68" y2="176.04"/><line class="cls-23" x1="257.19" y1="184.02" x2="257.19" y2="176.04"/><line class="cls-23" x1="268.07" y1="184.02" x2="268.07" y2="176.04"/><line class="cls-23" x1="320.32" y1="184.02" x2="320.32" y2="176.04"/><line class="cls-23" x1="423.37" y1="184.02" x2="423.37" y2="176.04"/><line class="cls-23" x1="262.26" y1="184.02" x2="262.26" y2="176.04"/><line class="cls-23" x1="291.29" y1="184.02" x2="291.29" y2="176.04"/><line class="cls-23" x1="222.35" y1="184.02" x2="222.35" y2="176.04"/><line class="cls-23" x1="257.19" y1="184.02" x2="257.19" y2="176.04"/><line class="cls-23" x1="228.16" y1="184.02" x2="228.16" y2="176.04"/><line class="cls-23" x1="308.71" y1="184.02" x2="308.71" y2="176.04"/><line class="cls-23" x1="187.52" y1="184.02" x2="187.52" y2="176.04"/><line class="cls-23" x1="395.07" y1="184.02" x2="395.07" y2="176.04"/><line class="cls-23" x1="279.68" y1="184.02" x2="279.68" y2="176.04"/><line class="cls-23" x1="342.82" y1="184.02" x2="342.82" y2="176.04"/><line class="cls-23" x1="239.77" y1="184.02" x2="239.77" y2="176.04"/><line class="cls-23" x1="239.77" y1="184.02" x2="239.77" y2="176.04"/><line class="cls-23" x1="245.57" y1="184.02" x2="245.57" y2="176.04"/><line class="cls-23" x1="371.84" y1="184.02" x2="371.84" y2="176.04"/><line class="cls-23" x1="320.32" y1="184.02" x2="320.32" y2="176.04"/><line class="cls-23" x1="354.43" y1="184.02" x2="354.43" y2="176.04"/><line class="cls-23" x1="245.57" y1="184.02" x2="245.57" y2="176.04"/><line class="cls-23" x1="320.32" y1="184.02" x2="320.32" y2="176.04"/><line class="cls-23" x1="354.43" y1="184.02" x2="354.43" y2="176.04"/><line class="cls-23" x1="302.9" y1="184.02" x2="302.9" y2="176.04"/><line class="cls-23" x1="239.77" y1="184.02" x2="239.77" y2="176.04"/><line class="cls-23" x1="354.43" y1="184.02" x2="354.43" y2="176.04"/><line class="cls-23" x1="285.49" y1="184.02" x2="285.49" y2="176.04"/><line class="cls-23" x1="320.32" y1="184.02" x2="320.32" y2="176.04"/><line class="cls-23" x1="251.38" y1="184.02" x2="251.38" y2="176.04"/><line class="cls-23" x1="251.38" y1="184.02" x2="251.38" y2="176.04"/><line class="cls-23" x1="383.46" y1="184.02" x2="383.46" y2="176.04"/><line class="cls-23" x1="251.38" y1="184.02" x2="251.38" y2="176.04"/><line class="cls-23" x1="273.88" y1="184.02" x2="273.88" y2="176.04"/><line class="cls-23" x1="204.94" y1="184.02" x2="204.94" y2="176.04"/><line class="cls-23" x1="216.55" y1="184.02" x2="216.55" y2="176.04"/><line class="cls-23" x1="262.26" y1="184.02" x2="262.26" y2="176.04"/><line class="cls-23" x1="308.71" y1="184.02" x2="308.71" y2="176.04"/><line class="cls-23" x1="406.68" y1="184.02" x2="406.68" y2="176.04"/><line class="cls-23" x1="216.55" y1="184.02" x2="216.55" y2="176.04"/><line class="cls-23" x1="308.71" y1="184.02" x2="308.71" y2="176.04"/><line class="cls-23" x1="297.1" y1="184.02" x2="297.1" y2="176.04"/><line class="cls-23" x1="291.29" y1="184.02" x2="291.29" y2="176.04"/><line class="cls-23" x1="262.26" y1="184.02" x2="262.26" y2="176.04"/><line class="cls-23" x1="377.65" y1="184.02" x2="377.65" y2="176.04"/><line class="cls-23" x1="320.32" y1="184.02" x2="320.32" y2="176.04"/><line class="cls-23" x1="458.2" y1="184.02" x2="458.2" y2="176.04"/><line class="cls-23" x1="308.71" y1="184.02" x2="308.71" y2="176.04"/><line class="cls-23" x1="239.77" y1="184.02" x2="239.77" y2="176.04"/><line class="cls-23" x1="239.77" y1="184.02" x2="239.77" y2="176.04"/><line class="cls-23" x1="469.81" y1="184.02" x2="469.81" y2="176.04"/><line class="cls-23" x1="262.26" y1="184.02" x2="262.26" y2="176.04"/><line class="cls-23" x1="366.04" y1="184.02" x2="366.04" y2="176.04"/><line class="cls-23" x1="314.51" y1="184.02" x2="314.51" y2="176.04"/><line class="cls-23" x1="429.17" y1="184.02" x2="429.17" y2="176.04"/><line class="cls-23" x1="262.26" y1="184.02" x2="262.26" y2="176.04"/><line class="cls-23" x1="228.16" y1="184.02" x2="228.16" y2="176.04"/><line class="cls-23" x1="245.57" y1="184.02" x2="245.57" y2="176.04"/><line class="cls-23" x1="273.88" y1="184.02" x2="273.88" y2="176.04"/><line class="cls-23" x1="257.19" y1="184.02" x2="257.19" y2="176.04"/><line class="cls-23" x1="257.19" y1="184.02" x2="257.19" y2="176.04"/><line class="cls-23" x1="308.71" y1="184.02" x2="308.71" y2="176.04"/><line class="cls-23" x1="291.29" y1="184.02" x2="291.29" y2="176.04"/><line class="cls-23" x1="314.51" y1="184.02" x2="314.51" y2="176.04"/><line class="cls-23" x1="268.07" y1="184.02" x2="268.07" y2="176.04"/><line class="cls-23" x1="429.17" y1="184.02" x2="429.17" y2="176.04"/><line class="cls-23" x1="291.29" y1="184.02" x2="291.29" y2="176.04"/><line class="cls-23" x1="257.19" y1="184.02" x2="257.19" y2="176.04"/><line class="cls-23" x1="342.82" y1="184.02" x2="342.82" y2="176.04"/><line class="cls-23" x1="262.26" y1="184.02" x2="262.26" y2="176.04"/><line class="cls-23" x1="371.84" y1="184.02" x2="371.84" y2="176.04"/><line class="cls-23" x1="314.51" y1="184.02" x2="314.51" y2="176.04"/><line class="cls-23" x1="222.35" y1="184.02" x2="222.35" y2="176.04"/><line class="cls-23" x1="233.96" y1="184.02" x2="233.96" y2="176.04"/><line class="cls-23" x1="251.38" y1="184.02" x2="251.38" y2="176.04"/><line class="cls-23" x1="273.88" y1="184.02" x2="273.88" y2="176.04"/><line class="cls-23" x1="308.71" y1="184.02" x2="308.71" y2="176.04"/><line class="cls-23" x1="326.13" y1="184.02" x2="326.13" y2="176.04"/><line class="cls-23" x1="297.1" y1="184.02" x2="297.1" y2="176.04"/><line class="cls-23" x1="245.57" y1="184.02" x2="245.57" y2="176.04"/><line class="cls-23" x1="475.62" y1="184.02" x2="475.62" y2="176.04"/><line class="cls-23" x1="204.94" y1="184.02" x2="204.94" y2="176.04"/><line class="cls-23" x1="348.62" y1="184.02" x2="348.62" y2="176.04"/><line class="cls-23" x1="273.88" y1="184.02" x2="273.88" y2="176.04"/><line class="cls-23" x1="285.49" y1="184.02" x2="285.49" y2="176.04"/><line class="cls-23" x1="308.71" y1="184.02" x2="308.71" y2="176.04"/><line class="cls-23" x1="245.57" y1="184.02" x2="245.57" y2="176.04"/><line class="cls-23" x1="228.16" y1="184.02" x2="228.16" y2="176.04"/><line class="cls-23" x1="342.82" y1="184.02" x2="342.82" y2="176.04"/><line class="cls-23" x1="326.13" y1="184.02" x2="326.13" y2="176.04"/><line class="cls-23" x1="342.82" y1="184.02" x2="342.82" y2="176.04"/><line class="cls-23" x1="268.07" y1="184.02" x2="268.07" y2="176.04"/><line class="cls-23" x1="371.84" y1="184.02" x2="371.84" y2="176.04"/><line class="cls-23" x1="187.52" y1="184.02" x2="187.52" y2="176.04"/><line class="cls-23" x1="262.26" y1="184.02" x2="262.26" y2="176.04"/><line class="cls-23" x1="285.49" y1="184.02" x2="285.49" y2="176.04"/><line class="cls-23" x1="216.55" y1="184.02" x2="216.55" y2="176.04"/><line class="cls-23" x1="285.49" y1="184.02" x2="285.49" y2="176.04"/><line class="cls-23" x1="291.29" y1="184.02" x2="291.29" y2="176.04"/><line class="cls-23" x1="233.96" y1="184.02" x2="233.96" y2="176.04"/><line class="cls-23" x1="371.84" y1="184.02" x2="371.84" y2="176.04"/><line class="cls-23" x1="458.2" y1="184.02" x2="458.2" y2="176.04"/><line class="cls-23" x1="222.35" y1="184.02" x2="222.35" y2="176.04"/><line class="cls-23" x1="429.17" y1="184.02" x2="429.17" y2="176.04"/><line class="cls-23" x1="279.68" y1="184.02" x2="279.68" y2="176.04"/><line class="cls-23" x1="326.13" y1="184.02" x2="326.13" y2="176.04"/><line class="cls-23" x1="176.63" y1="184.02" x2="176.63" y2="176.04"/><line class="cls-23" x1="153.41" y1="184.02" x2="153.41" y2="176.04"/><line class="cls-23" x1="314.51" y1="184.02" x2="314.51" y2="176.04"/><line class="cls-23" x1="245.57" y1="184.02" x2="245.57" y2="176.04"/><line class="cls-23" x1="193.32" y1="184.02" x2="193.32" y2="176.04"/><line class="cls-23" x1="239.77" y1="184.02" x2="239.77" y2="176.04"/><line class="cls-23" x1="360.23" y1="184.02" x2="360.23" y2="176.04"/><line class="cls-23" x1="245.57" y1="184.02" x2="245.57" y2="176.04"/><line class="cls-23" x1="268.07" y1="184.02" x2="268.07" y2="176.04"/><line class="cls-23" x1="216.55" y1="184.02" x2="216.55" y2="176.04"/><line class="cls-23" x1="279.68" y1="184.02" x2="279.68" y2="176.04"/><line class="cls-23" x1="222.35" y1="184.02" x2="222.35" y2="176.04"/><line class="cls-23" x1="406.68" y1="184.02" x2="406.68" y2="176.04"/><line class="cls-23" x1="239.77" y1="184.02" x2="239.77" y2="176.04"/><line class="cls-23" x1="411.76" y1="184.02" x2="411.76" y2="176.04"/><line class="cls-23" x1="406.68" y1="184.02" x2="406.68" y2="176.04"/><line class="cls-23" x1="239.77" y1="184.02" x2="239.77" y2="176.04"/><line class="cls-23" x1="366.04" y1="184.02" x2="366.04" y2="176.04"/><line class="cls-23" x1="297.1" y1="184.02" x2="297.1" y2="176.04"/><line class="cls-23" x1="233.96" y1="184.02" x2="233.96" y2="176.04"/><line class="cls-23" x1="239.77" y1="184.02" x2="239.77" y2="176.04"/><line class="cls-23" x1="251.38" y1="184.02" x2="251.38" y2="176.04"/><line class="cls-23" x1="245.57" y1="184.02" x2="245.57" y2="176.04"/><line class="cls-23" x1="326.13" y1="184.02" x2="326.13" y2="176.04"/><line class="cls-23" x1="245.57" y1="184.02" x2="245.57" y2="176.04"/><line class="cls-23" x1="285.49" y1="184.02" x2="285.49" y2="176.04"/><line class="cls-23" x1="302.9" y1="184.02" x2="302.9" y2="176.04"/><line class="cls-23" x1="377.65" y1="184.02" x2="377.65" y2="176.04"/><line class="cls-23" x1="222.35" y1="184.02" x2="222.35" y2="176.04"/><line class="cls-23" x1="257.19" y1="184.02" x2="257.19" y2="176.04"/><line class="cls-23" x1="279.68" y1="184.02" x2="279.68" y2="176.04"/><line class="cls-23" x1="245.57" y1="184.02" x2="245.57" y2="176.04"/><line class="cls-23" x1="262.26" y1="184.02" x2="262.26" y2="176.04"/><line class="cls-23" x1="262.26" y1="184.02" x2="262.26" y2="176.04"/><line class="cls-23" x1="210.74" y1="184.02" x2="210.74" y2="176.04"/><line class="cls-23" x1="342.82" y1="184.02" x2="342.82" y2="176.04"/><line class="cls-23" x1="279.68" y1="184.02" x2="279.68" y2="176.04"/><line class="cls-23" x1="285.49" y1="184.02" x2="285.49" y2="176.04"/><line class="cls-23" x1="199.13" y1="184.02" x2="199.13" y2="176.04"/><line class="cls-23" x1="262.26" y1="184.02" x2="262.26" y2="176.04"/><line class="cls-23" x1="268.07" y1="184.02" x2="268.07" y2="176.04"/><line class="cls-23" x1="291.29" y1="184.02" x2="291.29" y2="176.04"/><line class="cls-23" x1="308.71" y1="184.02" x2="308.71" y2="176.04"/><line class="cls-23" x1="268.07" y1="184.02" x2="268.07" y2="176.04"/><line class="cls-23" x1="279.68" y1="184.02" x2="279.68" y2="176.04"/><line class="cls-23" x1="251.38" y1="184.02" x2="251.38" y2="176.04"/><line class="cls-23" x1="314.51" y1="184.02" x2="314.51" y2="176.04"/><line class="cls-23" x1="273.88" y1="184.02" x2="273.88" y2="176.04"/><line class="cls-23" x1="320.32" y1="184.02" x2="320.32" y2="176.04"/><line class="cls-23" x1="273.88" y1="184.02" x2="273.88" y2="176.04"/><line class="cls-23" x1="297.1" y1="184.02" x2="297.1" y2="176.04"/><line class="cls-23" x1="187.52" y1="184.02" x2="187.52" y2="176.04"/><line class="cls-23" x1="297.1" y1="184.02" x2="297.1" y2="176.04"/><line class="cls-23" x1="245.57" y1="184.02" x2="245.57" y2="176.04"/><line class="cls-23" x1="279.68" y1="184.02" x2="279.68" y2="176.04"/><line class="cls-23" x1="273.88" y1="184.02" x2="273.88" y2="176.04"/><line class="cls-23" x1="273.88" y1="184.02" x2="273.88" y2="176.04"/><line class="cls-23" x1="193.32" y1="184.02" x2="193.32" y2="176.04"/><line class="cls-23" x1="411.76" y1="184.02" x2="411.76" y2="176.04"/><line class="cls-23" x1="371.84" y1="184.02" x2="371.84" y2="176.04"/><line class="cls-23" x1="291.29" y1="184.02" x2="291.29" y2="176.04"/><line class="cls-23" x1="326.13" y1="184.02" x2="326.13" y2="176.04"/><line class="cls-23" x1="326.13" y1="184.02" x2="326.13" y2="176.04"/><line class="cls-23" x1="257.19" y1="184.02" x2="257.19" y2="176.04"/><line class="cls-23" x1="320.32" y1="184.02" x2="320.32" y2="176.04"/><line class="cls-23" x1="228.16" y1="184.02" x2="228.16" y2="176.04"/><line class="cls-23" x1="492.31" y1="184.02" x2="492.31" y2="176.04"/><line class="cls-23" x1="204.94" y1="184.02" x2="204.94" y2="176.04"/><line class="cls-23" x1="291.29" y1="184.02" x2="291.29" y2="176.04"/><line class="cls-23" x1="383.46" y1="184.02" x2="383.46" y2="176.04"/><line class="cls-23" x1="245.57" y1="184.02" x2="245.57" y2="176.04"/><line class="cls-23" x1="302.9" y1="184.02" x2="302.9" y2="176.04"/><line class="cls-23" x1="348.62" y1="184.02" x2="348.62" y2="176.04"/><line class="cls-23" x1="291.29" y1="184.02" x2="291.29" y2="176.04"/><line class="cls-23" x1="360.23" y1="184.02" x2="360.23" y2="176.04"/><line class="cls-23" x1="297.1" y1="184.02" x2="297.1" y2="176.04"/><line class="cls-23" x1="199.13" y1="184.02" x2="199.13" y2="176.04"/><line class="cls-23" x1="233.96" y1="184.02" x2="233.96" y2="176.04"/><line class="cls-23" x1="210.74" y1="184.02" x2="210.74" y2="176.04"/><line class="cls-23" x1="279.68" y1="184.02" x2="279.68" y2="176.04"/><line class="cls-23" x1="251.38" y1="184.02" x2="251.38" y2="176.04"/><line class="cls-23" x1="239.77" y1="184.02" x2="239.77" y2="176.04"/><line class="cls-23" x1="400.87" y1="184.02" x2="400.87" y2="176.04"/><line class="cls-23" x1="262.26" y1="184.02" x2="262.26" y2="176.04"/><line class="cls-23" x1="348.62" y1="184.02" x2="348.62" y2="176.04"/><line class="cls-23" x1="245.57" y1="184.02" x2="245.57" y2="176.04"/><line class="cls-23" x1="383.46" y1="184.02" x2="383.46" y2="176.04"/><line class="cls-23" x1="279.68" y1="184.02" x2="279.68" y2="176.04"/><line class="cls-23" x1="233.96" y1="184.02" x2="233.96" y2="176.04"/><line class="cls-23" x1="337.01" y1="184.02" x2="337.01" y2="176.04"/><line class="cls-23" x1="228.16" y1="184.02" x2="228.16" y2="176.04"/><line class="cls-23" x1="326.13" y1="184.02" x2="326.13" y2="176.04"/><line class="cls-23" x1="302.9" y1="184.02" x2="302.9" y2="176.04"/><line class="cls-23" x1="297.1" y1="184.02" x2="297.1" y2="176.04"/><line class="cls-23" x1="326.13" y1="184.02" x2="326.13" y2="176.04"/><line class="cls-23" x1="308.71" y1="184.02" x2="308.71" y2="176.04"/><line class="cls-23" x1="348.62" y1="184.02" x2="348.62" y2="176.04"/><line class="cls-23" x1="326.13" y1="184.02" x2="326.13" y2="176.04"/><line class="cls-23" x1="245.57" y1="184.02" x2="245.57" y2="176.04"/><line class="cls-23" x1="251.38" y1="184.02" x2="251.38" y2="176.04"/><line class="cls-23" x1="251.38" y1="184.02" x2="251.38" y2="176.04"/><line class="cls-23" x1="182.44" y1="184.02" x2="182.44" y2="176.04"/><line class="cls-23" x1="228.16" y1="184.02" x2="228.16" y2="176.04"/><line class="cls-23" x1="297.1" y1="184.02" x2="297.1" y2="176.04"/><line class="cls-23" x1="216.55" y1="184.02" x2="216.55" y2="176.04"/><line class="cls-23" x1="239.77" y1="184.02" x2="239.77" y2="176.04"/><line class="cls-23" x1="308.71" y1="184.02" x2="308.71" y2="176.04"/><line class="cls-23" x1="291.29" y1="184.02" x2="291.29" y2="176.04"/><line class="cls-23" x1="228.16" y1="184.02" x2="228.16" y2="176.04"/><line class="cls-23" x1="257.19" y1="184.02" x2="257.19" y2="176.04"/><line class="cls-23" x1="314.51" y1="184.02" x2="314.51" y2="176.04"/><line class="cls-23" x1="360.23" y1="184.02" x2="360.23" y2="176.04"/><line class="cls-23" x1="326.13" y1="184.02" x2="326.13" y2="176.04"/><line class="cls-23" x1="210.74" y1="184.02" x2="210.74" y2="176.04"/><line class="cls-23" x1="279.68" y1="184.02" x2="279.68" y2="176.04"/><line class="cls-23" x1="446.59" y1="184.02" x2="446.59" y2="176.04"/><line class="cls-23" x1="257.19" y1="184.02" x2="257.19" y2="176.04"/><line class="cls-23" x1="268.07" y1="184.02" x2="268.07" y2="176.04"/><line class="cls-23" x1="187.52" y1="184.02" x2="187.52" y2="176.04"/><line class="cls-23" x1="210.74" y1="184.02" x2="210.74" y2="176.04"/><line class="cls-23" x1="279.68" y1="184.02" x2="279.68" y2="176.04"/><line class="cls-23" x1="417.56" y1="184.02" x2="417.56" y2="176.04"/><line class="cls-23" x1="348.62" y1="184.02" x2="348.62" y2="176.04"/></g><g class="cls-21"><polyline class="cls-24" points="92.07 183.82 99.98 183.57 107.89 183.08 111.84 182.72 115.79 182.26 119.75 181.68 123.7 180.97 127.65 180.09 131.6 179.03 135.56 177.76 139.51 176.26 143.46 174.53 147.42 172.53 151.37 170.26 155.32 167.72 159.28 164.9 163.23 161.82 167.18 158.49 171.13 154.94 175.09 151.19 182.99 143.29 194.85 131.11 198.81 127.16 202.76 123.35 206.71 119.72 210.66 116.3 214.62 113.12 218.57 110.2 222.52 107.55 226.48 105.16 230.43 103.04 234.38 101.17 238.34 99.54 242.29 98.12 246.24 96.9 250.19 95.85 254.15 94.96 258.1 94.21 262.05 93.58 266.01 93.07 269.96 92.67 273.91 92.39 277.87 92.22 282.18 92.17 286.13 92.24 290.07 92.44 294.01 92.78 297.96 93.24 301.9 93.83 305.84 94.55 309.79 95.38 313.73 96.31 321.62 98.43 329.5 100.8 337.39 103.34 345.28 106.05 353.16 108.99 357.11 110.58 361.05 112.27 364.99 114.09 368.94 116.04 372.88 118.13 376.82 120.38 380.77 122.77 384.71 125.3 388.65 127.95 396.54 133.53 408.37 142.1 412.31 144.87 416.26 147.54 420.2 150.07 424.14 152.45 428.09 154.66 432.03 156.67 435.98 158.5 439.92 160.13 443.86 161.58 447.81 162.86 451.75 163.99 455.69 164.98 459.63 165.86 467.52 167.4 495.13 172.35 506.95 174.79 518.78 177.25 526.67 178.78 534.56 180.12 542.45 181.23 550.33 182.11 558.22 182.76 566.11 183.22 573.99 183.5 581.88 183.66 590.15 184.38 593.91 184.35"/></g><g class="cls-21"><line class="cls-25" x1="285.49" y1="184.02" x2="285.49" y2="88.23"/></g><g class="cls-21"><polyline class="cls-26" points="93.9 183.66 108.58 183.66 115.79 183.8 123 183.5 130.2 182.98 133.81 182.62 137.41 182.16 141.01 181.59 144.62 180.87 148.22 179.97 151.82 178.85 155.43 177.46 159.03 175.75 162.63 173.69 166.23 171.25 169.84 168.4 173.44 165.15 177.04 161.52 180.65 157.54 184.25 153.25 187.85 148.69 191.46 143.89 195.06 138.89 198.66 133.68 202.26 128.26 205.87 122.6 209.47 116.67 213.07 110.45 216.68 103.94 220.28 97.16 231.09 76.27 234.69 69.67 238.29 63.6 241.9 58.25 245.5 53.79 249.1 50.32 252.71 47.88 256.31 46.45 259.91 45.92 263.52 46.16 267.12 47.01 270.72 48.32 274.32 49.95 277.93 51.81 281.53 53.84 285.13 56.03 288.74 58.38 292.34 60.93 295.94 63.74 299.55 66.86 303.15 70.33 306.75 74.18 310.36 78.41 313.96 82.99 317.56 87.85 331.97 107.93 335.58 112.47 339.18 116.63 342.78 120.36 346.39 123.69 349.99 126.66 353.59 129.37 360.8 134.36 371.61 141.79 378.81 146.75 382.42 149.08 386.02 151.21 389.62 153.1 393.23 154.7 396.83 156.02 400.43 157.09 404.03 157.97 418.45 161.03 422.05 161.96 429.25 164.1 440.06 167.55 447.27 169.59 454.48 171.32 468.89 174.39 494.11 179.82 501.32 181.1 508.52 182.14 515.73 182.92 522.93 183.45 530.14 183.78 537.35 183.66 548.16 183.66 551.82 183.67"/></g><g class="cls-21"><line class="cls-25" x1="279.68" y1="184.02" x2="279.68" y2="51.22"/></g><line class="cls-8" x1="43.83" y1="184.38" x2="43.83" y2="24.01"/><line class="cls-8" x1="619.31" y1="184.38" x2="619.31" y2="24.01"/><line class="cls-8" x1="43.83" y1="184.38" x2="619.31" y2="184.38"/><line class="cls-8" x1="43.83" y1="24.01" x2="619.31" y2="24.01"/><text class="cls-27" transform="translate(283.1 84.52)">37</text><text class="cls-28" transform="translate(268.35 40.21)">36</text><text class="cls-29" transform="translate(61.36 49.09)">p &lt; 0.0005</text><text class="cls-30" transform="translate(140.27 19.87)">REMBRANDT &amp; TCGA Age Distributions</text><rect class="cls-31" x="308.35" y="30.17" width="304.79" height="29.75" rx="3.48"/><rect class="cls-32" x="308.71" y="29.81" width="304.79" height="29.75" rx="3.48"/><rect class="cls-33" x="315.6" y="37.43" width="34.83" height="12.34"/><text class="cls-29" transform="translate(364.19 49.51)">REMBRANDT</text><rect class="cls-34" x="509.36" y="37.43" width="34.83" height="12.34"/><text class="cls-29" transform="translate(558.1 49.51)">TCGA</text><line x1="73.22" y1="366.9" x2="73.22" y2="369.8"/><line class="cls-5" x1="72.86" y1="366.9" x2="72.86" y2="369.8"/><text class="cls-20" transform="translate(68.42 383.55)">0</text><line x1="187.88" y1="366.9" x2="187.88" y2="369.8"/><line class="cls-5" x1="187.52" y1="366.9" x2="187.52" y2="369.8"/><text class="cls-20" transform="translate(178.97 383.55)">20</text><line x1="302.54" y1="366.9" x2="302.54" y2="369.8"/><line class="cls-5" x1="302.9" y1="366.9" x2="302.9" y2="369.8"/><text class="cls-20" transform="translate(293.96 383.55)">40</text><line x1="417.93" y1="366.9" x2="417.93" y2="369.8"/><line class="cls-5" x1="417.56" y1="366.9" x2="417.56" y2="369.8"/><text class="cls-20" transform="translate(408.95 383.55)">60</text><line x1="532.59" y1="366.9" x2="532.59" y2="369.8"/><line class="cls-5" x1="532.95" y1="366.9" x2="532.95" y2="369.8"/><text class="cls-20" transform="translate(523.94 383.55)">80</text><text class="cls-29" transform="translate(286.57 402.31)">Age (years)</text><text class="cls-20" transform="translate(37.86 354.11) rotate(-90)">Oligodendroglioma</text><g class="cls-35"><line class="cls-22" x1="257.19" y1="366.9" x2="257.19" y2="358.91"/><line class="cls-22" x1="342.82" y1="366.9" x2="342.82" y2="358.91"/><line class="cls-22" x1="257.19" y1="366.9" x2="257.19" y2="358.91"/><line class="cls-22" x1="371.84" y1="366.9" x2="371.84" y2="358.91"/><line class="cls-22" x1="285.49" y1="366.9" x2="285.49" y2="358.91"/><line class="cls-22" x1="371.84" y1="366.9" x2="371.84" y2="358.91"/><line class="cls-22" x1="257.19" y1="366.9" x2="257.19" y2="358.91"/><line class="cls-22" x1="314.51" y1="366.9" x2="314.51" y2="358.91"/><line class="cls-22" x1="285.49" y1="366.9" x2="285.49" y2="358.91"/><line class="cls-22" x1="285.49" y1="366.9" x2="285.49" y2="358.91"/><line class="cls-22" x1="314.51" y1="366.9" x2="314.51" y2="358.91"/><line class="cls-22" x1="257.19" y1="366.9" x2="257.19" y2="358.91"/><line class="cls-22" x1="342.82" y1="366.9" x2="342.82" y2="358.91"/><line class="cls-22" x1="371.84" y1="366.9" x2="371.84" y2="358.91"/><line class="cls-22" x1="486.5" y1="366.9" x2="486.5" y2="358.91"/><line class="cls-22" x1="400.87" y1="366.9" x2="400.87" y2="358.91"/><line class="cls-22" x1="228.16" y1="366.9" x2="228.16" y2="358.91"/><line class="cls-22" x1="314.51" y1="366.9" x2="314.51" y2="358.91"/><line class="cls-22" x1="400.87" y1="366.9" x2="400.87" y2="358.91"/><line class="cls-22" x1="371.84" y1="366.9" x2="371.84" y2="358.91"/></g><g class="cls-35"><line class="cls-23" x1="342.82" y1="366.9" x2="342.82" y2="358.91"/><line class="cls-23" x1="302.9" y1="366.9" x2="302.9" y2="358.91"/><line class="cls-23" x1="377.65" y1="366.9" x2="377.65" y2="358.91"/><line class="cls-23" x1="400.87" y1="366.9" x2="400.87" y2="358.91"/><line class="cls-23" x1="320.32" y1="366.9" x2="320.32" y2="358.91"/><line class="cls-23" x1="285.49" y1="366.9" x2="285.49" y2="358.91"/><line class="cls-23" x1="170.83" y1="366.9" x2="170.83" y2="358.91"/><line class="cls-23" x1="411.76" y1="366.9" x2="411.76" y2="358.91"/><line class="cls-23" x1="245.57" y1="366.9" x2="245.57" y2="358.91"/><line class="cls-23" x1="268.07" y1="366.9" x2="268.07" y2="358.91"/><line class="cls-23" x1="377.65" y1="366.9" x2="377.65" y2="358.91"/><line class="cls-23" x1="458.2" y1="366.9" x2="458.2" y2="358.91"/><line class="cls-23" x1="302.9" y1="366.9" x2="302.9" y2="358.91"/><line class="cls-23" x1="251.38" y1="366.9" x2="251.38" y2="358.91"/><line class="cls-23" x1="210.74" y1="366.9" x2="210.74" y2="358.91"/><line class="cls-23" x1="291.29" y1="366.9" x2="291.29" y2="358.91"/><line class="cls-23" x1="383.46" y1="366.9" x2="383.46" y2="358.91"/><line class="cls-23" x1="446.59" y1="366.9" x2="446.59" y2="358.91"/><line class="cls-23" x1="389.26" y1="366.9" x2="389.26" y2="358.91"/><line class="cls-23" x1="257.19" y1="366.9" x2="257.19" y2="358.91"/><line class="cls-23" x1="395.07" y1="366.9" x2="395.07" y2="358.91"/><line class="cls-23" x1="475.62" y1="366.9" x2="475.62" y2="358.91"/><line class="cls-23" x1="354.43" y1="366.9" x2="354.43" y2="358.91"/><line class="cls-23" x1="411.76" y1="366.9" x2="411.76" y2="358.91"/><line class="cls-23" x1="360.23" y1="366.9" x2="360.23" y2="358.91"/><line class="cls-23" x1="348.62" y1="366.9" x2="348.62" y2="358.91"/><line class="cls-23" x1="268.07" y1="366.9" x2="268.07" y2="358.91"/><line class="cls-23" x1="429.17" y1="366.9" x2="429.17" y2="358.91"/><line class="cls-23" x1="452.4" y1="366.9" x2="452.4" y2="358.91"/><line class="cls-23" x1="377.65" y1="366.9" x2="377.65" y2="358.91"/><line class="cls-23" x1="331.93" y1="366.9" x2="331.93" y2="358.91"/><line class="cls-23" x1="452.4" y1="366.9" x2="452.4" y2="358.91"/><line class="cls-23" x1="395.07" y1="366.9" x2="395.07" y2="358.91"/><line class="cls-23" x1="257.19" y1="366.9" x2="257.19" y2="358.91"/><line class="cls-23" x1="400.87" y1="366.9" x2="400.87" y2="358.91"/><line class="cls-23" x1="377.65" y1="366.9" x2="377.65" y2="358.91"/><line class="cls-23" x1="377.65" y1="366.9" x2="377.65" y2="358.91"/><line class="cls-23" x1="348.62" y1="366.9" x2="348.62" y2="358.91"/><line class="cls-23" x1="366.04" y1="366.9" x2="366.04" y2="358.91"/><line class="cls-23" x1="389.26" y1="366.9" x2="389.26" y2="358.91"/><line class="cls-23" x1="285.49" y1="366.9" x2="285.49" y2="358.91"/><line class="cls-23" x1="417.56" y1="366.9" x2="417.56" y2="358.91"/><line class="cls-23" x1="273.88" y1="366.9" x2="273.88" y2="358.91"/><line class="cls-23" x1="498.12" y1="366.9" x2="498.12" y2="358.91"/><line class="cls-23" x1="366.04" y1="366.9" x2="366.04" y2="358.91"/><line class="cls-23" x1="492.31" y1="366.9" x2="492.31" y2="358.91"/><line class="cls-23" x1="251.38" y1="366.9" x2="251.38" y2="358.91"/><line class="cls-23" x1="314.51" y1="366.9" x2="314.51" y2="358.91"/><line class="cls-23" x1="348.62" y1="366.9" x2="348.62" y2="358.91"/><line class="cls-23" x1="331.93" y1="366.9" x2="331.93" y2="358.91"/><line class="cls-23" x1="481.42" y1="366.9" x2="481.42" y2="358.91"/><line class="cls-23" x1="342.82" y1="366.9" x2="342.82" y2="358.91"/><line class="cls-23" x1="268.07" y1="366.9" x2="268.07" y2="358.91"/><line class="cls-23" x1="383.46" y1="366.9" x2="383.46" y2="358.91"/><line class="cls-23" x1="429.17" y1="366.9" x2="429.17" y2="358.91"/><line class="cls-23" x1="233.96" y1="366.9" x2="233.96" y2="358.91"/><line class="cls-23" x1="251.38" y1="366.9" x2="251.38" y2="358.91"/><line class="cls-23" x1="251.38" y1="366.9" x2="251.38" y2="358.91"/><line class="cls-23" x1="314.51" y1="366.9" x2="314.51" y2="358.91"/><line class="cls-23" x1="251.38" y1="366.9" x2="251.38" y2="358.91"/><line class="cls-23" x1="268.07" y1="366.9" x2="268.07" y2="358.91"/><line class="cls-23" x1="417.56" y1="366.9" x2="417.56" y2="358.91"/><line class="cls-23" x1="326.13" y1="366.9" x2="326.13" y2="358.91"/><line class="cls-23" x1="360.23" y1="366.9" x2="360.23" y2="358.91"/><line class="cls-23" x1="498.12" y1="366.9" x2="498.12" y2="358.91"/><line class="cls-23" x1="383.46" y1="366.9" x2="383.46" y2="358.91"/><line class="cls-23" x1="245.57" y1="366.9" x2="245.57" y2="358.91"/><line class="cls-23" x1="285.49" y1="366.9" x2="285.49" y2="358.91"/><line class="cls-23" x1="262.26" y1="366.9" x2="262.26" y2="358.91"/><line class="cls-23" x1="297.1" y1="366.9" x2="297.1" y2="358.91"/><line class="cls-23" x1="291.29" y1="366.9" x2="291.29" y2="358.91"/><line class="cls-23" x1="423.37" y1="366.9" x2="423.37" y2="358.91"/><line class="cls-23" x1="423.37" y1="366.9" x2="423.37" y2="358.91"/><line class="cls-23" x1="503.92" y1="366.9" x2="503.92" y2="358.91"/><line class="cls-23" x1="302.9" y1="366.9" x2="302.9" y2="358.91"/><line class="cls-23" x1="377.65" y1="366.9" x2="377.65" y2="358.91"/><line class="cls-23" x1="239.77" y1="366.9" x2="239.77" y2="358.91"/><line class="cls-23" x1="498.12" y1="366.9" x2="498.12" y2="358.91"/><line class="cls-23" x1="320.32" y1="366.9" x2="320.32" y2="358.91"/><line class="cls-23" x1="417.56" y1="366.9" x2="417.56" y2="358.91"/><line class="cls-23" x1="239.77" y1="366.9" x2="239.77" y2="358.91"/><line class="cls-23" x1="273.88" y1="366.9" x2="273.88" y2="358.91"/><line class="cls-23" x1="308.71" y1="366.9" x2="308.71" y2="358.91"/><line class="cls-23" x1="395.07" y1="366.9" x2="395.07" y2="358.91"/><line class="cls-23" x1="187.52" y1="366.9" x2="187.52" y2="358.91"/><line class="cls-23" x1="291.29" y1="366.9" x2="291.29" y2="358.91"/><line class="cls-23" x1="440.79" y1="366.9" x2="440.79" y2="358.91"/><line class="cls-23" x1="245.57" y1="366.9" x2="245.57" y2="358.91"/><line class="cls-23" x1="383.46" y1="366.9" x2="383.46" y2="358.91"/><line class="cls-23" x1="440.79" y1="366.9" x2="440.79" y2="358.91"/><line class="cls-23" x1="366.04" y1="366.9" x2="366.04" y2="358.91"/><line class="cls-23" x1="348.62" y1="366.9" x2="348.62" y2="358.91"/><line class="cls-23" x1="291.29" y1="366.9" x2="291.29" y2="358.91"/><line class="cls-23" x1="366.04" y1="366.9" x2="366.04" y2="358.91"/><line class="cls-23" x1="406.68" y1="366.9" x2="406.68" y2="358.91"/><line class="cls-23" x1="199.13" y1="366.9" x2="199.13" y2="358.91"/><line class="cls-23" x1="285.49" y1="366.9" x2="285.49" y2="358.91"/><line class="cls-23" x1="297.1" y1="366.9" x2="297.1" y2="358.91"/><line class="cls-23" x1="273.88" y1="366.9" x2="273.88" y2="358.91"/><line class="cls-23" x1="331.93" y1="366.9" x2="331.93" y2="358.91"/><line class="cls-23" x1="297.1" y1="366.9" x2="297.1" y2="358.91"/><line class="cls-23" x1="464.01" y1="366.9" x2="464.01" y2="358.91"/><line class="cls-23" x1="429.17" y1="366.9" x2="429.17" y2="358.91"/><line class="cls-23" x1="222.35" y1="366.9" x2="222.35" y2="358.91"/><line class="cls-23" x1="228.16" y1="366.9" x2="228.16" y2="358.91"/><line class="cls-23" x1="308.71" y1="366.9" x2="308.71" y2="358.91"/><line class="cls-23" x1="262.26" y1="366.9" x2="262.26" y2="358.91"/><line class="cls-23" x1="440.79" y1="366.9" x2="440.79" y2="358.91"/><line class="cls-23" x1="199.13" y1="366.9" x2="199.13" y2="358.91"/><line class="cls-23" x1="342.82" y1="366.9" x2="342.82" y2="358.91"/><line class="cls-23" x1="285.49" y1="366.9" x2="285.49" y2="358.91"/><line class="cls-23" x1="389.26" y1="366.9" x2="389.26" y2="358.91"/><line class="cls-23" x1="268.07" y1="366.9" x2="268.07" y2="358.91"/><line class="cls-23" x1="291.29" y1="366.9" x2="291.29" y2="358.91"/><line class="cls-23" x1="320.32" y1="366.9" x2="320.32" y2="358.91"/><line class="cls-23" x1="233.96" y1="366.9" x2="233.96" y2="358.91"/><line class="cls-23" x1="383.46" y1="366.9" x2="383.46" y2="358.91"/><line class="cls-23" x1="371.84" y1="366.9" x2="371.84" y2="358.91"/><line class="cls-23" x1="291.29" y1="366.9" x2="291.29" y2="358.91"/><line class="cls-23" x1="291.29" y1="366.9" x2="291.29" y2="358.91"/><line class="cls-23" x1="342.82" y1="366.9" x2="342.82" y2="358.91"/><line class="cls-23" x1="406.68" y1="366.9" x2="406.68" y2="358.91"/><line class="cls-23" x1="395.07" y1="366.9" x2="395.07" y2="358.91"/><line class="cls-23" x1="262.26" y1="366.9" x2="262.26" y2="358.91"/><line class="cls-23" x1="302.9" y1="366.9" x2="302.9" y2="358.91"/><line class="cls-23" x1="371.84" y1="366.9" x2="371.84" y2="358.91"/><line class="cls-23" x1="377.65" y1="366.9" x2="377.65" y2="358.91"/><line class="cls-23" x1="348.62" y1="366.9" x2="348.62" y2="358.91"/><line class="cls-23" x1="337.01" y1="366.9" x2="337.01" y2="358.91"/><line class="cls-23" x1="331.93" y1="366.9" x2="331.93" y2="358.91"/><line class="cls-23" x1="342.82" y1="366.9" x2="342.82" y2="358.91"/><line class="cls-23" x1="331.93" y1="366.9" x2="331.93" y2="358.91"/><line class="cls-23" x1="302.9" y1="366.9" x2="302.9" y2="358.91"/><line class="cls-23" x1="337.01" y1="366.9" x2="337.01" y2="358.91"/><line class="cls-23" x1="360.23" y1="366.9" x2="360.23" y2="358.91"/><line class="cls-23" x1="348.62" y1="366.9" x2="348.62" y2="358.91"/><line class="cls-23" x1="262.26" y1="366.9" x2="262.26" y2="358.91"/><line class="cls-23" x1="371.84" y1="366.9" x2="371.84" y2="358.91"/><line class="cls-23" x1="406.68" y1="366.9" x2="406.68" y2="358.91"/><line class="cls-23" x1="268.07" y1="366.9" x2="268.07" y2="358.91"/><line class="cls-23" x1="492.31" y1="366.9" x2="492.31" y2="358.91"/><line class="cls-23" x1="371.84" y1="366.9" x2="371.84" y2="358.91"/><line class="cls-23" x1="291.29" y1="366.9" x2="291.29" y2="358.91"/><line class="cls-23" x1="314.51" y1="366.9" x2="314.51" y2="358.91"/><line class="cls-23" x1="331.93" y1="366.9" x2="331.93" y2="358.91"/><line class="cls-23" x1="297.1" y1="366.9" x2="297.1" y2="358.91"/><line class="cls-23" x1="320.32" y1="366.9" x2="320.32" y2="358.91"/><line class="cls-23" x1="216.55" y1="366.9" x2="216.55" y2="358.91"/><line class="cls-23" x1="371.84" y1="366.9" x2="371.84" y2="358.91"/><line class="cls-23" x1="273.88" y1="366.9" x2="273.88" y2="358.91"/><line class="cls-23" x1="308.71" y1="366.9" x2="308.71" y2="358.91"/><line class="cls-23" x1="273.88" y1="366.9" x2="273.88" y2="358.91"/><line class="cls-23" x1="245.57" y1="366.9" x2="245.57" y2="358.91"/><line class="cls-23" x1="383.46" y1="366.9" x2="383.46" y2="358.91"/><line class="cls-23" x1="302.9" y1="366.9" x2="302.9" y2="358.91"/><line class="cls-23" x1="423.37" y1="366.9" x2="423.37" y2="358.91"/><line class="cls-23" x1="337.01" y1="366.9" x2="337.01" y2="358.91"/><line class="cls-23" x1="279.68" y1="366.9" x2="279.68" y2="358.91"/><line class="cls-23" x1="279.68" y1="366.9" x2="279.68" y2="358.91"/><line class="cls-23" x1="285.49" y1="366.9" x2="285.49" y2="358.91"/><line class="cls-23" x1="257.19" y1="366.9" x2="257.19" y2="358.91"/><line class="cls-23" x1="239.77" y1="366.9" x2="239.77" y2="358.91"/><line class="cls-23" x1="291.29" y1="366.9" x2="291.29" y2="358.91"/><line class="cls-23" x1="216.55" y1="366.9" x2="216.55" y2="358.91"/><line class="cls-23" x1="366.04" y1="366.9" x2="366.04" y2="358.91"/><line class="cls-23" x1="383.46" y1="366.9" x2="383.46" y2="358.91"/><line class="cls-23" x1="262.26" y1="366.9" x2="262.26" y2="358.91"/><line class="cls-23" x1="216.55" y1="366.9" x2="216.55" y2="358.91"/><line class="cls-23" x1="326.13" y1="366.9" x2="326.13" y2="358.91"/><line class="cls-23" x1="273.88" y1="366.9" x2="273.88" y2="358.91"/><line class="cls-23" x1="342.82" y1="366.9" x2="342.82" y2="358.91"/></g><g class="cls-35"><polyline class="cls-24" points="114.95 366.53 122.51 366.53 130.15 366.45 137.79 366.05 145.43 365.4 149.25 364.95 153.07 364.39 156.89 363.71 160.71 362.89 164.53 361.92 168.35 360.76 172.17 359.4 175.99 357.82 179.81 356 183.63 353.93 187.46 351.59 191.28 348.97 195.1 346.07 198.92 342.89 202.74 339.43 206.56 335.71 210.38 331.74 214.2 327.56 218.02 323.21 225.66 314.11 237.12 300.28 240.94 295.83 244.76 291.55 248.58 287.49 252.4 283.68 256.22 280.18 260.04 277 263.86 274.17 267.68 271.7 271.5 269.59 275.32 267.84 279.14 266.44 282.96 265.36 286.79 264.59 290.61 264.08 294.43 263.81 298.25 263.74 302.07 263.83 305.89 264.05 313.53 264.76 324.99 266.14 336.45 267.7 344.09 268.96 347.91 269.73 351.73 270.62 355.55 271.68 359.37 272.93 363.19 274.41 367.01 276.14 370.83 278.15 374.65 280.44 378.48 283.02 382.3 285.89 386.12 289.03 389.94 292.43 393.76 296.05 397.58 299.84 405.22 307.8 416.68 319.86 420.5 323.69 424.32 327.36 428.14 330.81 431.96 334.03 435.78 336.98 439.6 339.64 443.42 342.02 447.24 344.12 451.06 345.94 454.88 347.5 458.7 348.83 462.52 349.94 466.34 350.89 470.16 351.68 477.81 352.97 489.27 354.56 500.73 356.21 508.37 357.46 523.65 360.21 535.11 362.21 542.75 363.38 550.39 364.38 558.03 365.18 565.67 365.78 573.32 366.22 580.96 366.52 592.42 367.26 599.71 367.26"/></g><g class="cls-35"><line class="cls-25" x1="314.51" y1="366.9" x2="314.51" y2="263.85"/></g><g class="cls-35"><polyline class="cls-26" points="87.37 367.26 103.37 367.2 115.16 366.98 123.02 366.69 130.88 366.23 138.74 365.53 142.67 365.07 146.6 364.53 150.53 363.89 154.46 363.15 158.39 362.3 162.32 361.32 166.25 360.22 170.18 358.98 174.11 357.59 178.04 356.04 181.97 354.32 185.9 352.43 189.83 350.33 193.76 348.03 197.69 345.51 201.62 342.76 205.55 339.78 209.48 336.55 213.41 333.09 217.34 329.38 221.27 325.46 225.2 321.35 229.13 317.06 236.99 308.18 244.85 299.25 248.78 294.93 252.72 290.8 256.64 286.92 260.57 283.37 264.51 280.19 268.44 277.44 272.37 275.15 276.3 273.33 280.23 272.01 284.16 271.15 288.09 270.74 292.1 270.73 296.04 271.05 299.97 271.62 303.9 272.38 319.64 275.91 323.57 276.62 327.5 277.19 331.44 277.61 335.37 277.87 339.31 278 347.17 278.72 355.04 278.66 358.98 278.76 362.91 279.03 366.84 279.53 370.78 280.3 374.71 281.38 378.64 282.81 382.58 284.57 386.51 286.67 390.44 289.08 394.38 291.76 398.31 294.67 402.25 297.76 410.11 304.24 417.98 310.79 425.85 317.11 429.78 320.11 433.71 322.98 437.65 325.7 441.58 328.27 445.52 330.67 449.45 332.91 453.38 334.97 457.32 336.86 461.25 338.58 465.18 340.15 469.12 341.58 473.05 342.89 480.92 345.27 496.65 349.86 504.52 352.37 524.19 358.93 528.12 360.12 532.06 361.22 535.99 362.21 539.92 363.08 543.86 363.83 547.79 364.47 551.73 365 555.66 365.42 563.53 366.01 571.39 366.36 579.26 366.53 587.38 366.61"/></g><g class="cls-35"><line class="cls-25" x1="331.93" y1="366.9" x2="331.93" y2="274.73"/></g><line class="cls-8" x1="43.83" y1="367.26" x2="43.83" y2="206.88"/><line class="cls-8" x1="619.31" y1="367.26" x2="619.31" y2="206.88"/><line class="cls-8" x1="43.83" y1="367.26" x2="619.31" y2="367.26"/><line class="cls-8" x1="43.83" y1="206.88" x2="619.31" y2="206.88"/><text class="cls-27" transform="translate(302.84 253.35)">42</text><text class="cls-28" transform="translate(321.09 262.01)">45</text><text class="cls-29" transform="translate(61.36 232.03)">p = 0.04</text></g></g></svg>