<svg id="Layer_1" data-name="Layer 1" xmlns="http://www.w3.org/2000/svg" xmlns:xlink="http://www.w3.org/1999/xlink" viewBox="0 0 1430.22 771.44"><defs><style>.cls-1,.cls-10,.cls-11,.cls-12,.cls-13,.cls-14,.cls-17,.cls-26,.cls-27,.cls-29,.cls-5,.cls-9{fill:none;}.cls-2{font-size:24px;font-family:MyriadPro-Regular, Myriad Pro;}.cls-3{letter-spacing:-0.01em;}.cls-4{clip-path:url(#clip-path);}.cls-13,.cls-14,.cls-5{stroke:#000;}.cls-10,.cls-11,.cls-12,.cls-13,.cls-26,.cls-27,.cls-5,.cls-9{stroke-linejoin:round;}.cls-14,.cls-26,.cls-5{stroke-width:0.8px;}.cls-18,.cls-6{font-size:18.79px;}.cls-15,.cls-25,.cls-30,.cls-6,.cls-7{font-family:ArialMT, Arial;}.cls-7{font-size:20.36px;}.cls-8{clip-path:url(#clip-path-3);}.cls-9{stroke:#1b9e77;}.cls-10,.cls-11,.cls-12,.cls-14,.cls-26,.cls-27,.cls-9{stroke-linecap:square;}.cls-10,.cls-11,.cls-12,.cls-9{stroke-width:5px;}.cls-10{stroke:#d95f02;}.cls-11{stroke:#7570b3;}.cls-12{stroke:#e7298a;}.cls-13{stroke-width:2px;stroke-dasharray:7.4 3.2;}.cls-13,.cls-16,.cls-17{opacity:0.8;}.cls-14,.cls-17,.cls-29{stroke-miterlimit:10;}.cls-15{font-size:23.49px;}.cls-16,.cls-28{fill:#fff;}.cls-17,.cls-29{stroke:#ccc;}.cls-18{font-family:DejaVuSans;}.cls-19{clip-path:url(#clip-path-8);}.cls-20{clip-path:url(#clip-path-10);}.cls-21{fill:#1b9e77;}.cls-22{fill:#d95f02;}.cls-23{fill:#7570b3;}.cls-24{fill:#e7298a;}.cls-25{font-size:17.23px;}.cls-26{stroke:#b0b0b0;}.cls-27{stroke:#a9a9a9;stroke-width:0.5px;}.cls-30{font-size:16.13px;}</style><clipPath id="clip-path" transform="translate(-99.46 -219.28)"><rect class="cls-1" x="861" y="214" width="676.5" height="451"/></clipPath><clipPath id="clip-path-3" transform="translate(-99.46 -219.28)"><rect class="cls-1" x="922.86" y="244.54" width="606.03" height="366.44"/></clipPath><clipPath id="clip-path-8" transform="translate(-99.46 -219.28)"><rect class="cls-1" x="113" y="214" width="676.5" height="451"/></clipPath><clipPath id="clip-path-10" transform="translate(-99.46 -219.28)"><rect class="cls-1" x="150.58" y="244.54" width="602.12" height="390.71"/></clipPath></defs><text class="cls-2" transform="translate(0 27.15)"><tspan class="cls-3">A</tspan><tspan x="14.47" y="0">)</tspan></text><text class="cls-2" transform="translate(739 27.15)">B)</text><g class="cls-4"><g class="cls-4"><line x1="850.8" y1="391.69" x2="850.8" y2="394.83"/><line class="cls-5" x1="851.2" y1="391.69" x2="851.2" y2="394.83"/><text class="cls-6" transform="translate(838.03 410.79)">0.0</text><line x1="961.21" y1="391.69" x2="961.21" y2="394.83"/><line class="cls-5" x1="961.6" y1="391.69" x2="961.6" y2="394.83"/><text class="cls-6" transform="translate(948.22 410.79)">0.2</text><line x1="1071.61" y1="391.69" x2="1071.61" y2="394.83"/><line class="cls-5" x1="1071.22" y1="391.69" x2="1071.22" y2="394.83"/><text class="cls-6" transform="translate(1058.41 410.79)">0.4</text><line x1="1182.01" y1="391.69" x2="1182.01" y2="394.83"/><line class="cls-5" x1="1181.62" y1="391.69" x2="1181.62" y2="394.83"/><text class="cls-6" transform="translate(1168.6 410.79)">0.6</text><line x1="1291.63" y1="391.69" x2="1291.63" y2="394.83"/><line class="cls-5" x1="1292.02" y1="391.69" x2="1292.02" y2="394.83"/><text class="cls-6" transform="translate(1278.79 410.79)">0.8</text><line x1="1402.03" y1="391.69" x2="1402.03" y2="394.83"/><line class="cls-5" x1="1402.42" y1="391.69" x2="1402.42" y2="394.83"/><text class="cls-6" transform="translate(1388.98 410.79)">1.0</text><text class="cls-7" transform="translate(1038.85 432.22)">False Positive Rate</text><line x1="823.4" y1="375.25" x2="821.05" y2="375.25"/><line class="cls-5" x1="823.4" y1="374.86" x2="821.05" y2="374.86"/><text class="cls-6" transform="translate(791.94 381.91)">0.0</text><line x1="823.4" y1="308.7" x2="821.05" y2="308.7"/><line class="cls-5" x1="823.4" y1="308.31" x2="821.05" y2="308.31"/><text class="cls-6" transform="translate(791.94 315.23)">0.2</text><line x1="823.4" y1="242.14" x2="821.05" y2="242.14"/><line class="cls-5" x1="823.4" y1="241.75" x2="821.05" y2="241.75"/><text class="cls-6" transform="translate(791.94 248.55)">0.4</text><line x1="823.4" y1="174.81" x2="821.05" y2="174.81"/><line class="cls-5" x1="823.4" y1="175.2" x2="821.05" y2="175.2"/><text class="cls-6" transform="translate(791.94 181.86)">0.6</text><line x1="823.4" y1="108.25" x2="821.05" y2="108.25"/><line class="cls-5" x1="823.4" y1="108.64" x2="821.05" y2="108.64"/><text class="cls-6" transform="translate(791.94 115.18)">0.8</text><line x1="823.4" y1="41.7" x2="821.05" y2="41.7"/><line class="cls-5" x1="823.4" y1="42.09" x2="821.05" y2="42.09"/><text class="cls-6" transform="translate(791.94 48.5)">1.0</text><text class="cls-7" transform="translate(784.75 291.83) rotate(-90)">True Positive Rate</text><g class="cls-8"><polyline class="cls-9" points="851.2 374.86 851.2 355.29 862.16 355.29 862.16 296.56 866.07 296.56 866.07 276.99 866.07 237.84 866.07 179.11 869.99 179.11 869.99 139.96 873.9 139.96 873.9 120.39 884.87 120.39 884.87 100.81 888.78 100.81 888.78 61.67 899.74 61.67 899.74 42.09 1032.22 42.09 1039.77 42.09 1077.51 42.09 1085.05 42.09 1122.79 42.09 1130.34 42.09 1236 42.09 1243.55 42.09 1269.96 42.09 1285.06 42.09 1300.15 42.09 1315.25 42.09 1349.21 42.09 1356.76 42.09 1368.08 42.09 1375.63 42.09 1379.4 42.09 1386.95 42.09 1402.42 42.09"/></g><g class="cls-8"><polyline class="cls-10" points="851.2 374.86 851.2 369.85 851.2 323.12 855.11 317.28 855.11 185.38 859.03 185.38 859.03 99.25 862.94 99.25 862.94 93.77 866.86 93.77 866.86 87.5 874.49 87.5 885.94 87.5 897.39 87.5 897.39 82.02 901.31 82.02 901.31 70.28 905.22 70.28 905.22 64.8 909.14 64.8 909.14 58.53 916.18 58.53 916.18 53.05 924.01 53.05 924.01 47.57 947.5 47.57 947.5 42.09 1001.35 42.09 1009.05 42.09 1220.96 42.09 1228.66 42.09 1247.93 42.09 1255.63 42.09 1282.6 42.09 1298.01 42.09 1332.69 42.09 1340.39 42.09 1344.25 42.09 1359.66 42.09 1402.42 42.09"/></g><g class="cls-8"><polyline class="cls-11" points="851.2 374.86 851.2 369.81 851.2 338.06 852.76 338.06 852.76 316.92 855.89 316.92 855.89 290.3 858.24 290.3 858.24 237.45 859.81 232.16 859.81 226.88 861.38 226.88 861.38 221.4 862.94 221.4 862.94 205.74 864.51 205.74 864.51 201.04 868.42 201.04 868.42 190.07 871.55 190.07 871.55 163.45 873.12 163.45 873.12 152.49 876.64 152.49 880.17 152.49 880.17 126.65 887.21 126.65 887.21 121.17 888.78 121.17 888.78 115.69 892.7 115.69 892.7 104.73 898.96 104.73 898.96 100.03 904.44 100.03 904.44 89.85 906.79 89.85 906.79 84.37 908.35 84.37 908.35 78.89 913.05 78.89 913.05 73.41 924.01 73.41 924.01 67.93 932.63 67.93 932.63 63.23 941.24 63.23 941.24 57.75 954.55 57.75 954.55 52.27 980.39 52.27 983.83 52.27 997.62 52.27 997.62 46.79 1004.52 46.79 1007.98 46.79 1013.16 46.79 1016.61 46.79 1061.52 46.79 1064.97 46.79 1068.43 46.79 1071.88 46.79 1075.34 46.79 1078.79 46.79 1080.52 46.79 1083.97 46.79 1128.88 46.79 1132.33 46.79 1134.06 46.79 1137.51 46.79 1139.24 46.79 1144.42 46.79 1151.33 46.79 1158.24 46.79 1161.69 46.79 1166.87 46.79 1170.33 46.79 1189.33 46.79 1192.78 46.79 1201.42 46.79 1204.87 46.79 1210.05 46.79 1213.51 46.79 1227.32 46.79 1230.78 46.79 1246.32 46.79 1249.78 46.79 1270.5 46.79 1273.96 46.79 1277.41 46.79 1280.86 46.79 1287.77 46.79 1291.23 46.79 1294.68 46.79 1298.14 46.79 1303.32 46.79 1305.04 46.79 1308.5 46.79 1310.23 46.79 1315.41 46.79 1320.59 46.79 1322.32 41.31 1325.77 41.31 1330.95 41.31 1334.41 41.31 1339.59 41.31 1343.04 41.31 1344.77 41.31 1349.95 41.31 1351.68 41.31 1355.13 41.31 1356.86 41.31 1362.04 41.31 1365.49 41.31 1368.95 41.31 1370.67 41.31 1374.13 41.31 1381.04 41.31 1384.49 41.31 1386.22 41.31 1393.13 41.31 1398.31 41.31 1402.42 41.31"/></g><g class="cls-8"><polyline class="cls-12" points="851.2 374.86 852.76 374.86 852.76 353.72 855.11 353.72 855.11 347.9 856.68 344.87 856.68 341.84 856.68 335.78 856.68 326.31 858.24 326.31 858.24 314.57 860.59 314.57 860.59 299.69 862.16 299.69 862.16 277.77 867.64 277.77 867.64 214.35 869.99 214.35 869.99 196.34 871.55 196.34 871.55 193.21 873.12 193.21 873.12 168.94 875.47 168.94 875.47 159.54 877.03 159.54 877.03 154.06 880.95 154.06 880.95 144.66 882.51 144.66 882.51 141.53 886.43 141.53 886.43 129.78 888 129.78 888 123.52 890.35 123.52 890.35 120.39 891.91 120.39 891.91 105.51 893.48 105.51 893.48 99.25 895.83 99.25 895.83 92.98 901.31 92.98 901.31 87.5 902.87 87.5 902.87 81.24 908.35 81.24 908.35 78.11 912.27 78.11 912.27 74.98 917.75 74.98 917.75 71.84 921.66 71.84 921.66 68.71 923.23 68.71 923.23 66.36 927.15 66.36 927.15 63.23 931.06 63.23 931.06 60.1 932.63 60.1 932.63 56.97 934.19 56.97 934.19 50.7 958.47 50.7 958.47 47.57 1003.1 47.57 1003.1 45.22 1008.64 45.22 1012.34 45.22 1049.29 45.22 1049.29 42.09 1067.77 42.09 1071.47 42.09 1088.1 42.09 1099.18 42.09 1121.36 42.09 1125.05 42.09 1178.64 42.09 1182.34 42.09 1187.88 42.09 1195.27 42.09 1204.51 42.09 1208.21 42.09 1239.62 42.09 1245.16 42.09 1248.86 42.09 1252.56 42.09 1265.49 42.09 1269.19 42.09 1280.27 42.09 1283.97 42.09 1285.82 42.09 1289.51 42.09 1291.36 42.09 1295.06 42.09 1298.75 42.09 1302.45 42.09 1306.14 42.09 1309.84 42.09 1317.23 42.09 1320.92 42.09 1324.62 42.09 1330.16 42.09 1333.86 42.09 1339.4 42.09 1343.1 42.09 1344.95 42.09 1348.64 42.09 1354.19 42.09 1356.03 42.09 1367.12 42.09 1370.82 42.09 1383.75 42.09 1387.45 42.09 1392.99 42.09 1396.69 42.09 1402.42 42.09"/></g><g class="cls-8"><line class="cls-13" x1="851.09" y1="375.18" x2="1402.04" y2="41.77"/></g><line class="cls-14" x1="823.79" y1="392.09" x2="823.79" y2="24.87"/><line class="cls-14" x1="1429.82" y1="392.09" x2="1429.82" y2="24.87"/><line class="cls-14" x1="823.79" y1="392.09" x2="1429.82" y2="392.09"/><line class="cls-14" x1="823.79" y1="24.87" x2="1429.82" y2="24.87"/><text class="cls-15" transform="translate(920.47 20.16)">Validation ROC Curves (All Predictions)</text><rect class="cls-16" x="1116.24" y="269.55" width="303.8" height="112.75" rx="3.76"/><rect class="cls-17" x="1116.63" y="269.94" width="303.8" height="112.75" rx="3.76"/><line class="cls-9" x1="1123.68" y1="284.03" x2="1161.26" y2="284.03"/><text class="cls-6" transform="translate(1176.21 290.14)">T</text><text class="cls-6" transform="translate(1187.69 290.14)">C</text><text class="cls-6" transform="translate(1201.26 290.14)">G</text><text class="cls-6" transform="translate(1215.88 290.14)">A</text><text class="cls-6" transform="translate(1228.41 290.14)"> </text><text class="cls-6" transform="translate(1233.63 290.14)">V</text><text class="cls-6" transform="translate(1246.17 290.14)">a</text><text class="cls-6" transform="translate(1256.62 290.14)">l</text><text class="cls-6" transform="translate(1260.79 290.14)">,</text><text class="cls-6" transform="translate(1266.02 290.14)"> </text><text class="cls-6" transform="translate(1271.24 290.14)">A</text><text class="cls-6" transform="translate(1283.77 290.14)">U</text><text class="cls-6" transform="translate(1297.34 290.14)">C</text><text class="cls-18" transform="translate(1314.57 290.14)">=</text><text class="cls-6" transform="translate(1333.98 290.14)">0</text><text class="cls-6" transform="translate(1344.43 290.14)">.</text><text class="cls-6" transform="translate(1349.65 290.14)">9</text><text class="cls-6" transform="translate(1360.1 290.14)">6</text><text class="cls-6" transform="translate(1370.55 290.14)">3</text><line class="cls-10" x1="1123.68" y1="310.66" x2="1161.26" y2="310.66"/><text class="cls-6" transform="translate(1176.21 316.77)">G</text><text class="cls-6" transform="translate(1190.83 316.77)">L</text><text class="cls-6" transform="translate(1201.28 316.77)">A</text><text class="cls-6" transform="translate(1213.82 316.77)">S</text><text class="cls-6" transform="translate(1226.35 316.77)">S</text><text class="cls-6" transform="translate(1238.88 316.77)">,</text><text class="cls-6" transform="translate(1244.1 316.77)"> </text><text class="cls-6" transform="translate(1249.33 316.77)">A</text><text class="cls-6" transform="translate(1261.86 316.77)">U</text><text class="cls-6" transform="translate(1275.43 316.77)">C</text><text class="cls-18" transform="translate(1292.66 316.77)">=</text><text class="cls-6" transform="translate(1312.07 316.77)">0</text><text class="cls-6" transform="translate(1322.52 316.77)">.</text><text class="cls-6" transform="translate(1327.74 316.77)">9</text><text class="cls-6" transform="translate(1338.19 316.77)">7</text><text class="cls-6" transform="translate(1348.64 316.77)">7</text><line class="cls-11" x1="1123.68" y1="337.28" x2="1161.26" y2="337.28"/><text class="cls-6" transform="translate(1176.21 343.39)">J</text><text class="cls-6" transform="translate(1185.61 343.39)">o</text><text class="cls-6" transform="translate(1196.06 343.39)">n</text><text class="cls-6" transform="translate(1206.51 343.39)">s</text><text class="cls-6" transform="translate(1215.91 343.39)">s</text><text class="cls-6" transform="translate(1225.3 343.39)">o</text><text class="cls-6" transform="translate(1235.75 343.39)">n</text><text class="cls-6" transform="translate(1246.21 343.39)"> </text><text class="cls-6" transform="translate(1251.43 343.39)">e</text><text class="cls-6" transform="translate(1261.88 343.39)">t</text><text class="cls-6" transform="translate(1267.1 343.39)"> </text><text class="cls-6" transform="translate(1272.32 343.39)">a</text><text class="cls-6" transform="translate(1282.77 343.39)">l</text><text class="cls-6" transform="translate(1286.94 343.39)">.</text><text class="cls-6" transform="translate(1292.17 343.39)">,</text><text class="cls-6" transform="translate(1297.39 343.39)"> </text><text class="cls-6" transform="translate(1302.61 343.39)">A</text><text class="cls-6" transform="translate(1315.14 343.39)">U</text><text class="cls-6" transform="translate(1328.71 343.39)">C</text><text class="cls-18" transform="translate(1345.94 343.39)">=</text><text class="cls-6" transform="translate(1365.35 343.39)">0</text><text class="cls-6" transform="translate(1375.8 343.39)">.</text><text class="cls-6" transform="translate(1381.02 343.39)">9</text><text class="cls-6" transform="translate(1391.47 343.39)">4</text><text class="cls-6" transform="translate(1401.93 343.39)">4</text><line class="cls-12" x1="1123.68" y1="364.68" x2="1161.26" y2="364.68"/><text class="cls-6" transform="translate(1176.21 370.61)">C</text><text class="cls-6" transform="translate(1189.78 370.61)">a</text><text class="cls-6" transform="translate(1200.24 370.61)">p</text><text class="cls-6" transform="translate(1210.69 370.61)">p</text><text class="cls-6" transform="translate(1221.14 370.61)">e</text><text class="cls-6" transform="translate(1231.59 370.61)">r</text><text class="cls-6" transform="translate(1237.85 370.61)"> </text><text class="cls-6" transform="translate(1243.07 370.61)">e</text><text class="cls-6" transform="translate(1253.52 370.61)">t</text><text class="cls-6" transform="translate(1258.74 370.61)"> </text><text class="cls-6" transform="translate(1263.96 370.61)">a</text><text class="cls-6" transform="translate(1274.41 370.61)">l</text><text class="cls-6" transform="translate(1278.59 370.61)">.</text><text class="cls-6" transform="translate(1283.81 370.61)">,</text><text class="cls-6" transform="translate(1289.03 370.61)"> </text><text class="cls-6" transform="translate(1294.25 370.61)">A</text><text class="cls-6" transform="translate(1306.78 370.61)">U</text><text class="cls-6" transform="translate(1320.35 370.61)">C</text><text class="cls-18" transform="translate(1337.59 370.61)">=</text><text class="cls-6" transform="translate(1356.99 370.61)">0</text><text class="cls-6" transform="translate(1367.44 370.61)">.</text><text class="cls-6" transform="translate(1372.66 370.61)">9</text><text class="cls-6" transform="translate(1383.11 370.61)">4</text><text class="cls-6" transform="translate(1393.57 370.61)">8</text></g></g><g class="cls-19"><g class="cls-19"><g class="cls-20"><rect class="cls-21" x="76.18" y="86.33" width="12.53" height="685.11"/></g><g class="cls-20"><rect class="cls-21" x="177.19" y="108.25" width="12.53" height="663.19"/></g><g class="cls-20"><rect class="cls-21" x="277.41" y="254.67" width="12.53" height="516.77"/></g><g class="cls-20"><rect class="cls-21" x="377.63" y="350.2" width="12.53" height="421.25"/></g><g class="cls-20"><rect class="cls-21" x="477.86" y="101.99" width="12.53" height="669.45"/></g><g class="cls-20"><rect class="cls-21" x="578.08" y="265.63" width="12.53" height="505.81"/></g><g class="cls-20"><rect class="cls-22" x="88.71" y="76.93" width="12.53" height="694.51"/></g><g class="cls-20"><rect class="cls-22" x="189.72" y="122.35" width="12.53" height="649.1"/></g><g class="cls-20"><rect class="cls-22" x="289.94" y="166.98" width="12.53" height="604.47"/></g><g class="cls-20"><rect class="cls-22" x="390.16" y="214.74" width="12.53" height="556.7"/></g><g class="cls-20"><rect class="cls-22" x="490.38" y="109.82" width="12.53" height="661.62"/></g><g class="cls-20"><rect class="cls-22" x="590.61" y="210.82" width="12.53" height="560.62"/></g><g class="cls-20"><rect class="cls-23" x="101.24" y="100.42" width="12.53" height="671.02"/></g><g class="cls-20"><rect class="cls-23" x="202.24" y="151.32" width="12.53" height="620.13"/></g><g class="cls-20"><rect class="cls-23" x="302.47" y="258.59" width="12.53" height="512.86"/></g><g class="cls-20"><rect class="cls-23" x="402.69" y="322.79" width="12.53" height="448.65"/></g><g class="cls-20"><rect class="cls-23" x="502.91" y="173.24" width="12.53" height="598.2"/></g><g class="cls-20"><rect class="cls-23" x="603.13" y="297.74" width="12.53" height="473.71"/></g><g class="cls-20"><rect class="cls-24" x="114.55" y="97.29" width="12.53" height="674.15"/></g><g class="cls-20"><rect class="cls-24" x="214.77" y="134.09" width="12.53" height="637.35"/></g><g class="cls-20"><rect class="cls-24" x="314.99" y="199.08" width="12.53" height="572.36"/></g><g class="cls-20"><rect class="cls-24" x="415.22" y="269.55" width="12.53" height="501.89"/></g><g class="cls-20"><rect class="cls-24" x="515.44" y="105.9" width="12.53" height="665.54"/></g><g class="cls-20"><rect class="cls-24" x="615.66" y="249.97" width="12.53" height="521.47"/></g><line x1="101.24" y1="415.97" x2="101.24" y2="419.1"/><line class="cls-5" x1="101.63" y1="415.97" x2="101.63" y2="419.1"/><text class="cls-25" transform="translate(83.43 433.94)">AUC</text><line x1="202.24" y1="415.97" x2="202.24" y2="419.1"/><line class="cls-5" x1="201.85" y1="415.97" x2="201.85" y2="419.1"/><text class="cls-25" transform="translate(173.23 433.94)">Bal Acc</text><line x1="302.47" y1="415.97" x2="302.47" y2="419.1"/><line class="cls-5" x1="302.07" y1="415.97" x2="302.07" y2="419.1"/><text class="cls-25" transform="translate(292.21 433.94)">F1</text><line x1="402.69" y1="415.97" x2="402.69" y2="419.1"/><line class="cls-5" x1="402.3" y1="415.97" x2="402.3" y2="419.1"/><text class="cls-25" transform="translate(367.15 433.94)">Precision</text><line x1="502.91" y1="415.97" x2="502.91" y2="419.1"/><line class="cls-5" x1="502.52" y1="415.97" x2="502.52" y2="419.1"/><text class="cls-25" transform="translate(478.96 433.94)">Recall</text><line x1="603.13" y1="415.97" x2="603.13" y2="419.1"/><line class="cls-5" x1="603.52" y1="415.97" x2="603.52" y2="419.1"/><text class="cls-25" transform="translate(583.6 433.94)">MCC</text><g class="cls-20"><line class="cls-26" x1="51.52" y1="416.36" x2="653.64" y2="416.36"/></g><line x1="51.13" y1="415.97" x2="48.78" y2="415.97"/><line class="cls-5" x1="51.13" y1="416.36" x2="48.78" y2="416.36"/><text class="cls-25" transform="translate(22.04 422.29)">0.5</text><g class="cls-20"><line class="cls-26" x1="51.52" y1="345.11" x2="653.64" y2="345.11"/></g><line x1="51.13" y1="344.72" x2="48.78" y2="344.72"/><line class="cls-5" x1="51.13" y1="345.11" x2="48.78" y2="345.11"/><text class="cls-25" transform="translate(22.04 351.19)">0.6</text><g class="cls-20"><line class="cls-26" x1="51.52" y1="273.85" x2="653.64" y2="273.85"/></g><line x1="51.13" y1="274.25" x2="48.78" y2="274.25"/><line class="cls-5" x1="51.13" y1="273.85" x2="48.78" y2="273.85"/><text class="cls-25" transform="translate(22.04 280.1)">0.7</text><g class="cls-20"><line class="cls-26" x1="51.52" y1="202.6" x2="653.64" y2="202.6"/></g><line x1="51.13" y1="202.99" x2="48.78" y2="202.99"/><line class="cls-5" x1="51.13" y1="202.6" x2="48.78" y2="202.6"/><text class="cls-25" transform="translate(22.04 209)">0.8</text><g class="cls-20"><line class="cls-26" x1="51.52" y1="132.13" x2="653.64" y2="132.13"/></g><line x1="51.13" y1="131.74" x2="48.78" y2="131.74"/><line class="cls-5" x1="51.13" y1="132.13" x2="48.78" y2="132.13"/><text class="cls-25" transform="translate(22.04 137.91)">0.9</text><g class="cls-20"><line class="cls-26" x1="51.52" y1="60.88" x2="653.64" y2="60.88"/></g><line x1="51.13" y1="60.49" x2="48.78" y2="60.49"/><line class="cls-5" x1="51.13" y1="60.88" x2="48.78" y2="60.88"/><text class="cls-25" transform="translate(22.04 66.81)">1.0</text><g class="cls-20"><line class="cls-27" x1="51.52" y1="96.12" x2="653.64" y2="96.12"/></g><line class="cls-14" x1="51.52" y1="416.36" x2="51.52" y2="24.87"/><line class="cls-14" x1="653.64" y1="416.36" x2="653.64" y2="24.87"/><line class="cls-14" x1="51.52" y1="416.36" x2="653.64" y2="416.36"/><line class="cls-14" x1="51.52" y1="24.87" x2="653.64" y2="24.87"/><text class="cls-15" transform="translate(164.6 20.16)">Classifier Validation (All Predictions)</text><rect class="cls-28" x="62.09" y="29.17" width="580.98" height="28.19" rx="3.23"/><rect class="cls-29" x="61.7" y="28.78" width="580.98" height="28.19" rx="3.23"/><rect class="cls-21" x="68.35" y="36.22" width="32.1" height="10.96"/><text class="cls-30" transform="translate(113.68 47.45)">TCGA Val</text><rect class="cls-22" x="209.5" y="36.22" width="32.1" height="10.96"/><text class="cls-30" transform="translate(251.89 47.45)">GLASS</text><rect class="cls-23" x="333.04" y="36.22" width="32.1" height="10.96"/><text class="cls-30" transform="translate(378.08 47.45)">Jonsson et al.</text><rect class="cls-24" x="499" y="36.22" width="32.1" height="10.96"/><text class="cls-30" transform="translate(543.99 47.45)">Capper et al.</text></g></g></svg>