<svg id="Layer_1" data-name="Layer 1" xmlns="http://www.w3.org/2000/svg" xmlns:xlink="http://www.w3.org/1999/xlink" viewBox="0 0 1792.55 357.09"><defs><style>.cls-1,.cls-10,.cls-11,.cls-12,.cls-13,.cls-14,.cls-15,.cls-20,.cls-27,.cls-28,.cls-29,.cls-32,.cls-35,.cls-7{fill:none;}.cls-2,.cls-4{font-size:24px;font-family:MyriadPro-Regular, Myriad Pro;}.cls-3{letter-spacing:-0.01em;}.cls-4{letter-spacing:0.02em;}.cls-5{letter-spacing:0em;}.cls-6{clip-path:url(#clip-path);}.cls-13,.cls-15,.cls-7{stroke:#000;}.cls-10,.cls-11,.cls-12,.cls-13,.cls-14,.cls-27,.cls-28,.cls-29,.cls-35,.cls-7{stroke-linejoin:round;}.cls-15,.cls-7{stroke-width:0.8px;}.cls-8{font-size:15.25px;}.cls-16,.cls-17,.cls-18,.cls-23,.cls-30,.cls-8{font-family:ArialMT, Arial;}.cls-9{clip-path:url(#clip-path-3);}.cls-10,.cls-12,.cls-28{stroke:#2b3a41;}.cls-11,.cls-14,.cls-29{stroke:#0e7a84;}.cls-12,.cls-14,.cls-15,.cls-27,.cls-28,.cls-29,.cls-35{stroke-linecap:square;}.cls-12,.cls-14,.cls-27,.cls-28,.cls-29,.cls-35{stroke-width:5px;}.cls-13{stroke-width:3px;stroke-dasharray:3 4.95;}.cls-15,.cls-20,.cls-32{stroke-miterlimit:10;}.cls-16,.cls-17{font-size:14.61px;}.cls-16,.cls-21{fill:#2b3a41;}.cls-17,.cls-22{fill:#0e7a84;}.cls-18{font-size:19.06px;}.cls-19,.cls-31{fill:#fff;}.cls-20,.cls-32{stroke:#ccc;}.cls-23{font-size:13.98px;}.cls-24{clip-path:url(#clip-path-9);}.cls-25{clip-path:url(#clip-path-15);}.cls-26{clip-path:url(#clip-path-17);}.cls-27{stroke:#edca4a;}.cls-27,.cls-28,.cls-29,.cls-31,.cls-32,.cls-35{opacity:0.8;}.cls-30{font-size:20.33px;}.cls-33{clip-path:url(#clip-path-20);}.cls-34{clip-path:url(#clip-path-22);}.cls-35{stroke:#f87758;}</style><clipPath id="clip-path" transform="translate(-49.71 -193.56)"><rect class="cls-1" x="67" y="190" width="549" height="366"/></clipPath><clipPath id="clip-path-3" transform="translate(-49.71 -193.56)"><rect class="cls-1" x="91.15" y="214.78" width="493.08" height="145.51"/></clipPath><clipPath id="clip-path-9" transform="translate(-49.71 -193.56)"><rect class="cls-1" x="91.15" y="369.19" width="493.08" height="145.51"/></clipPath><clipPath id="clip-path-15" transform="translate(-49.71 -193.56)"><rect class="cls-1" x="686" y="190" width="549" height="366"/></clipPath><clipPath id="clip-path-17" transform="translate(-49.71 -193.56)"><rect class="cls-1" x="733.66" y="215.42" width="486.73" height="299.28"/></clipPath><clipPath id="clip-path-20" transform="translate(-49.71 -193.56)"><rect class="cls-1" x="1301" y="190" width="549" height="366"/></clipPath><clipPath id="clip-path-22" transform="translate(-49.71 -193.56)"><rect class="cls-1" x="1348.66" y="215.42" width="486.73" height="299.28"/></clipPath></defs><text class="cls-2" transform="translate(0 24.87)"><tspan class="cls-3">A</tspan><tspan x="14.47" y="0">)</tspan></text><text class="cls-2" transform="translate(627 24.87)">B)</text><text class="cls-4" transform="translate(1246.5 24.87)">C<tspan class="cls-5" x="14.33" y="0">)</tspan></text><g class="cls-6"><g class="cls-6"><line x1="64.95" y1="166.73" x2="64.95" y2="168.64"/><line class="cls-7" x1="64.63" y1="166.73" x2="64.63" y2="168.64"/><line x1="158.99" y1="166.73" x2="158.99" y2="168.64"/><line class="cls-7" x1="158.67" y1="166.73" x2="158.67" y2="168.64"/><line x1="252.4" y1="166.73" x2="252.4" y2="168.64"/><line class="cls-7" x1="252.72" y1="166.73" x2="252.72" y2="168.64"/><line x1="346.44" y1="166.73" x2="346.44" y2="168.64"/><line class="cls-7" x1="346.76" y1="166.73" x2="346.76" y2="168.64"/><line x1="440.48" y1="166.73" x2="440.48" y2="168.64"/><line class="cls-7" x1="440.8" y1="166.73" x2="440.8" y2="168.64"/><line x1="534.52" y1="166.73" x2="534.52" y2="168.64"/><line class="cls-7" x1="534.21" y1="166.73" x2="534.21" y2="168.64"/><text class="cls-8" transform="translate(35.74 142.18) rotate(-90)">All Predictions</text><g class="cls-9"><line class="cls-10" x1="238.74" y1="166.73" x2="238.74" y2="159.11"/><line class="cls-10" x1="379.8" y1="166.73" x2="379.8" y2="159.11"/><line class="cls-10" x1="294.65" y1="166.73" x2="294.65" y2="159.11"/><line class="cls-10" x1="271.78" y1="166.73" x2="271.78" y2="159.11"/><line class="cls-10" x1="280.67" y1="166.73" x2="280.67" y2="159.11"/><line class="cls-10" x1="384.25" y1="166.73" x2="384.25" y2="159.11"/><line class="cls-10" x1="370.27" y1="166.73" x2="370.27" y2="159.11"/><line class="cls-10" x1="426.19" y1="166.73" x2="426.19" y2="159.11"/><line class="cls-10" x1="294.65" y1="166.73" x2="294.65" y2="159.11"/><line class="cls-10" x1="271.78" y1="166.73" x2="271.78" y2="159.11"/><line class="cls-10" x1="313.72" y1="166.73" x2="313.72" y2="159.11"/><line class="cls-10" x1="257.16" y1="166.73" x2="257.16" y2="159.11"/><line class="cls-10" x1="403.31" y1="166.73" x2="403.31" y2="159.11"/><line class="cls-10" x1="309.27" y1="166.73" x2="309.27" y2="159.11"/><line class="cls-10" x1="341.67" y1="166.73" x2="341.67" y2="159.11"/><line class="cls-10" x1="337.23" y1="166.73" x2="337.23" y2="159.11"/><line class="cls-10" x1="285.76" y1="166.73" x2="285.76" y2="159.11"/><line class="cls-10" x1="417.29" y1="166.73" x2="417.29" y2="159.11"/><line class="cls-10" x1="365.19" y1="166.73" x2="365.19" y2="159.11"/><line class="cls-10" x1="318.16" y1="166.73" x2="318.16" y2="159.11"/><line class="cls-10" x1="337.23" y1="166.73" x2="337.23" y2="159.11"/><line class="cls-10" x1="313.72" y1="166.73" x2="313.72" y2="159.11"/><line class="cls-10" x1="304.19" y1="166.73" x2="304.19" y2="159.11"/><line class="cls-10" x1="233.65" y1="166.73" x2="233.65" y2="159.11"/><line class="cls-10" x1="384.25" y1="166.73" x2="384.25" y2="159.11"/><line class="cls-10" x1="384.25" y1="166.73" x2="384.25" y2="159.11"/><line class="cls-10" x1="290.21" y1="166.73" x2="290.21" y2="159.11"/><line class="cls-10" x1="351.21" y1="166.73" x2="351.21" y2="159.11"/><line class="cls-10" x1="327.7" y1="166.73" x2="327.7" y2="159.11"/><line class="cls-10" x1="403.31" y1="166.73" x2="403.31" y2="159.11"/><line class="cls-10" x1="351.21" y1="166.73" x2="351.21" y2="159.11"/><line class="cls-10" x1="332.78" y1="166.73" x2="332.78" y2="159.11"/><line class="cls-10" x1="398.23" y1="166.73" x2="398.23" y2="159.11"/><line class="cls-10" x1="398.23" y1="166.73" x2="398.23" y2="159.11"/><line class="cls-10" x1="365.19" y1="166.73" x2="365.19" y2="159.11"/><line class="cls-10" x1="285.76" y1="166.73" x2="285.76" y2="159.11"/><line class="cls-10" x1="337.23" y1="166.73" x2="337.23" y2="159.11"/><line class="cls-10" x1="294.65" y1="166.73" x2="294.65" y2="159.11"/><line class="cls-10" x1="393.78" y1="166.73" x2="393.78" y2="159.11"/><line class="cls-10" x1="262.25" y1="166.73" x2="262.25" y2="159.11"/><line class="cls-10" x1="379.8" y1="166.73" x2="379.8" y2="159.11"/><line class="cls-10" x1="299.74" y1="166.73" x2="299.74" y2="159.11"/><line class="cls-10" x1="337.23" y1="166.73" x2="337.23" y2="159.11"/><line class="cls-10" x1="388.7" y1="166.73" x2="388.7" y2="159.11"/><line class="cls-10" x1="280.67" y1="166.73" x2="280.67" y2="159.11"/><line class="cls-10" x1="299.74" y1="166.73" x2="299.74" y2="159.11"/><line class="cls-10" x1="313.72" y1="166.73" x2="313.72" y2="159.11"/><line class="cls-10" x1="379.8" y1="166.73" x2="379.8" y2="159.11"/><line class="cls-10" x1="332.78" y1="166.73" x2="332.78" y2="159.11"/><line class="cls-10" x1="285.76" y1="166.73" x2="285.76" y2="159.11"/><line class="cls-10" x1="219.67" y1="166.73" x2="219.67" y2="159.11"/><line class="cls-10" x1="309.27" y1="166.73" x2="309.27" y2="159.11"/><line class="cls-10" x1="290.21" y1="166.73" x2="290.21" y2="159.11"/><line class="cls-10" x1="280.67" y1="166.73" x2="280.67" y2="159.11"/><line class="cls-10" x1="285.76" y1="166.73" x2="285.76" y2="159.11"/><line class="cls-10" x1="243.19" y1="166.73" x2="243.19" y2="159.11"/><line class="cls-10" x1="262.25" y1="166.73" x2="262.25" y2="159.11"/><line class="cls-10" x1="313.72" y1="166.73" x2="313.72" y2="159.11"/><line class="cls-10" x1="262.25" y1="166.73" x2="262.25" y2="159.11"/><line class="cls-10" x1="379.8" y1="166.73" x2="379.8" y2="159.11"/><line class="cls-10" x1="210.14" y1="166.73" x2="210.14" y2="159.11"/><line class="cls-10" x1="257.16" y1="166.73" x2="257.16" y2="159.11"/><line class="cls-10" x1="327.7" y1="166.73" x2="327.7" y2="159.11"/><line class="cls-10" x1="243.19" y1="166.73" x2="243.19" y2="159.11"/><line class="cls-10" x1="304.19" y1="166.73" x2="304.19" y2="159.11"/><line class="cls-10" x1="304.19" y1="166.73" x2="304.19" y2="159.11"/><line class="cls-10" x1="412.21" y1="166.73" x2="412.21" y2="159.11"/><line class="cls-10" x1="370.27" y1="166.73" x2="370.27" y2="159.11"/><line class="cls-10" x1="417.29" y1="166.73" x2="417.29" y2="159.11"/><line class="cls-10" x1="294.65" y1="166.73" x2="294.65" y2="159.11"/><line class="cls-10" x1="285.76" y1="166.73" x2="285.76" y2="159.11"/><line class="cls-10" x1="351.21" y1="166.73" x2="351.21" y2="159.11"/><line class="cls-10" x1="332.78" y1="166.73" x2="332.78" y2="159.11"/><line class="cls-10" x1="276.23" y1="166.73" x2="276.23" y2="159.11"/><line class="cls-10" x1="360.74" y1="166.73" x2="360.74" y2="159.11"/><line class="cls-10" x1="323.25" y1="166.73" x2="323.25" y2="159.11"/><line class="cls-10" x1="318.16" y1="166.73" x2="318.16" y2="159.11"/><line class="cls-10" x1="304.19" y1="166.73" x2="304.19" y2="159.11"/><line class="cls-10" x1="327.7" y1="166.73" x2="327.7" y2="159.11"/><line class="cls-10" x1="304.19" y1="166.73" x2="304.19" y2="159.11"/><line class="cls-10" x1="294.65" y1="166.73" x2="294.65" y2="159.11"/><line class="cls-10" x1="210.14" y1="166.73" x2="210.14" y2="159.11"/><line class="cls-10" x1="379.8" y1="166.73" x2="379.8" y2="159.11"/><line class="cls-10" x1="285.76" y1="166.73" x2="285.76" y2="159.11"/><line class="cls-10" x1="276.23" y1="166.73" x2="276.23" y2="159.11"/><line class="cls-10" x1="233.65" y1="166.73" x2="233.65" y2="159.11"/><line class="cls-10" x1="360.74" y1="166.73" x2="360.74" y2="159.11"/><line class="cls-10" x1="313.72" y1="166.73" x2="313.72" y2="159.11"/><line class="cls-10" x1="323.25" y1="166.73" x2="323.25" y2="159.11"/><line class="cls-10" x1="309.27" y1="166.73" x2="309.27" y2="159.11"/><line class="cls-10" x1="271.78" y1="166.73" x2="271.78" y2="159.11"/><line class="cls-10" x1="229.21" y1="166.73" x2="229.21" y2="159.11"/><line class="cls-10" x1="365.19" y1="166.73" x2="365.19" y2="159.11"/><line class="cls-10" x1="280.67" y1="166.73" x2="280.67" y2="159.11"/><line class="cls-10" x1="379.8" y1="166.73" x2="379.8" y2="159.11"/><line class="cls-10" x1="276.23" y1="166.73" x2="276.23" y2="159.11"/><line class="cls-10" x1="360.74" y1="166.73" x2="360.74" y2="159.11"/><line class="cls-10" x1="379.8" y1="166.73" x2="379.8" y2="159.11"/><line class="cls-10" x1="309.27" y1="166.73" x2="309.27" y2="159.11"/><line class="cls-10" x1="177.74" y1="166.73" x2="177.74" y2="159.11"/><line class="cls-10" x1="323.25" y1="166.73" x2="323.25" y2="159.11"/><line class="cls-10" x1="327.7" y1="166.73" x2="327.7" y2="159.11"/><line class="cls-10" x1="388.7" y1="166.73" x2="388.7" y2="159.11"/><line class="cls-10" x1="384.25" y1="166.73" x2="384.25" y2="159.11"/><line class="cls-10" x1="360.74" y1="166.73" x2="360.74" y2="159.11"/><line class="cls-10" x1="276.23" y1="166.73" x2="276.23" y2="159.11"/><line class="cls-10" x1="393.78" y1="166.73" x2="393.78" y2="159.11"/><line class="cls-10" x1="384.25" y1="166.73" x2="384.25" y2="159.11"/><line class="cls-10" x1="351.21" y1="166.73" x2="351.21" y2="159.11"/><line class="cls-10" x1="356.29" y1="166.73" x2="356.29" y2="159.11"/><line class="cls-10" x1="346.76" y1="166.73" x2="346.76" y2="159.11"/><line class="cls-10" x1="276.23" y1="166.73" x2="276.23" y2="159.11"/><line class="cls-10" x1="294.65" y1="166.73" x2="294.65" y2="159.11"/></g><g class="cls-9"><line class="cls-11" x1="299.74" y1="166.73" x2="299.74" y2="159.11"/><line class="cls-11" x1="388.7" y1="166.73" x2="388.7" y2="159.11"/><line class="cls-11" x1="304.19" y1="166.73" x2="304.19" y2="159.11"/><line class="cls-11" x1="299.74" y1="166.73" x2="299.74" y2="159.11"/><line class="cls-11" x1="341.67" y1="166.73" x2="341.67" y2="159.11"/><line class="cls-11" x1="351.21" y1="166.73" x2="351.21" y2="159.11"/><line class="cls-11" x1="177.74" y1="166.73" x2="177.74" y2="159.11"/><line class="cls-11" x1="224.76" y1="166.73" x2="224.76" y2="159.11"/><line class="cls-11" x1="280.67" y1="166.73" x2="280.67" y2="159.11"/><line class="cls-11" x1="403.31" y1="166.73" x2="403.31" y2="159.11"/><line class="cls-11" x1="351.21" y1="166.73" x2="351.21" y2="159.11"/><line class="cls-11" x1="388.7" y1="166.73" x2="388.7" y2="159.11"/><line class="cls-11" x1="309.27" y1="166.73" x2="309.27" y2="159.11"/><line class="cls-11" x1="356.29" y1="166.73" x2="356.29" y2="159.11"/></g><g class="cls-9"><polyline class="cls-12" points="112.92 166.41 124.68 166.41 133.62 166.36 142.56 166.04 148.52 165.72 154.48 165.3 160.44 164.78 166.4 164.16 172.36 163.43 178.32 162.55 184.28 161.46 187.26 160.82 190.24 160.11 193.22 159.32 196.21 158.46 199.19 157.51 202.16 156.48 208.13 154.2 214.09 151.66 220.05 148.88 226.01 145.85 228.99 144.21 231.97 142.46 234.95 140.57 237.93 138.53 240.91 136.29 243.89 133.85 246.87 131.17 249.85 128.25 252.83 125.08 255.81 121.69 258.79 118.11 264.75 110.53 270.71 102.84 273.69 99.14 276.67 95.64 279.65 92.41 282.63 89.52 285.62 87.02 288.6 84.94 291.58 83.32 294.56 82.15 297.54 81.43 300.52 81.16 303.5 81.28 306.48 81.79 309.46 82.62 312.44 83.73 315.42 85.08 318.4 86.61 324.36 89.99 330.32 93.46 333.3 95.11 336.28 96.63 339.26 98.01 342.24 99.2 345.22 100.2 348.2 101.01 351.18 101.63 354.16 102.08 357.14 102.41 366.08 103.11 369.06 103.46 372.05 103.97 375.02 104.71 378.01 105.71 380.99 107.02 383.97 108.66 386.95 110.64 389.93 112.93 392.91 115.51 395.89 118.35 398.87 121.4 404.83 127.87 410.79 134.48 413.77 137.7 416.75 140.81 419.73 143.78 422.71 146.57 425.69 149.18 428.67 151.57 431.65 153.76 434.63 155.73 437.61 157.5 440.59 159.05 443.57 160.41 446.55 161.59 449.53 162.59 452.51 163.43 455.49 164.13 458.48 164.71 461.45 165.17 464.44 165.54 470.4 166.04 476.36 166.34 482.32 167.05 491 167.05"/></g><g class="cls-9"><line class="cls-13" x1="313.72" y1="166.73" x2="313.72" y2="82.22"/></g><g class="cls-9"><polyline class="cls-14" points="100.85 166.41 107.19 166.34 113.11 166.11 119.03 165.7 124.94 165.04 127.9 164.61 130.86 164.09 133.82 163.5 136.78 162.81 139.74 162.04 145.66 160.27 151.58 158.27 163.41 154.14 166.37 153.21 169.33 152.35 172.29 151.58 175.25 150.91 178.21 150.34 181.17 149.87 184.13 149.49 187.09 149.2 193 148.82 198.92 148.62 208.24 148.62 217.19 148.62 229.04 148.75 232.03 148.68 235.02 148.52 238.01 148.22 241 147.73 243.98 147.01 246.97 146.01 249.96 144.7 252.95 143.04 255.93 141.01 258.92 138.6 261.91 135.82 264.9 132.69 267.88 129.26 270.87 125.58 276.85 117.78 282.82 109.97 285.81 106.3 288.8 102.88 291.79 99.81 294.78 97.13 297.76 94.87 300.75 93.04 303.74 91.65 306.73 90.65 309.71 90 312.7 89.65 315.69 89.53 318.6 89.56 324.57 89.87 330.53 90.2 339.48 90.51 345.45 90.78 348.43 91.02 351.41 91.38 354.39 91.87 357.38 92.52 360.36 93.33 363.34 94.31 366.32 95.45 369.31 96.75 372.29 98.2 375.27 99.8 378.26 101.55 381.24 103.45 384.22 105.51 387.2 107.72 390.19 110.11 393.17 112.67 396.15 115.4 399.14 118.29 402.12 121.33 408.08 127.76 420.01 140.94 423 144.04 425.98 146.99 428.96 149.74 431.95 152.27 434.93 154.56 437.91 156.62 440.89 158.42 443.88 159.99 446.86 161.33 449.84 162.46 452.83 163.4 455.81 164.16 458.79 164.78 461.77 165.27 464.76 165.65 467.74 165.94 473.71 166.31 479.67 166.47"/></g><g class="cls-9"><line class="cls-13" x1="325.79" y1="166.73" x2="325.79" y2="89.84"/></g><line class="cls-15" x1="41.12" y1="166.41" x2="41.12" y2="20.9"/><line class="cls-15" x1="534.21" y1="166.41" x2="534.21" y2="20.9"/><line class="cls-15" x1="41.12" y1="166.41" x2="534.21" y2="166.41"/><line class="cls-15" x1="41.12" y1="20.9" x2="534.21" y2="20.9"/><text class="cls-16" transform="translate(301.35 74.02)">53</text><text class="cls-17" transform="translate(319.1 81.96)">55</text><text class="cls-8" transform="translate(55.4 81.96)">p = 0.39</text><text class="cls-18" transform="translate(181.91 17.28)">GLASS Age Distributions</text><rect class="cls-19" x="142.47" y="23.76" width="390.15" height="26.69" rx="3.05"/><rect class="cls-20" x="142.15" y="23.44" width="390.15" height="26.69" rx="3.05"/><rect class="cls-21" x="148.19" y="30.12" width="30.5" height="10.8"/><text class="cls-8" transform="translate(191.06 41.05)">Correct Wildtype</text><rect class="cls-22" x="334.37" y="30.12" width="30.5" height="10.8"/><text class="cls-8" transform="translate(376.97 41.05)">Misclassified Wildtype</text><line x1="64.95" y1="321.14" x2="64.95" y2="323.68"/><line class="cls-7" x1="64.63" y1="321.14" x2="64.63" y2="323.68"/><text class="cls-23" transform="translate(60.91 335.72)">0</text><line x1="158.99" y1="321.14" x2="158.99" y2="323.68"/><line class="cls-7" x1="158.67" y1="321.14" x2="158.67" y2="323.68"/><text class="cls-23" transform="translate(150.97 335.72)">20</text><line x1="252.4" y1="321.14" x2="252.4" y2="323.68"/><line class="cls-7" x1="252.72" y1="321.14" x2="252.72" y2="323.68"/><text class="cls-23" transform="translate(244.91 335.72)">40</text><line x1="346.44" y1="321.14" x2="346.44" y2="323.68"/><line class="cls-7" x1="346.76" y1="321.14" x2="346.76" y2="323.68"/><text class="cls-23" transform="translate(338.86 335.72)">60</text><line x1="440.48" y1="321.14" x2="440.48" y2="323.68"/><line class="cls-7" x1="440.8" y1="321.14" x2="440.8" y2="323.68"/><text class="cls-23" transform="translate(432.8 335.72)">80</text><line x1="534.52" y1="321.14" x2="534.52" y2="323.68"/><line class="cls-7" x1="534.21" y1="321.14" x2="534.21" y2="323.68"/><text class="cls-23" transform="translate(522.86 335.72)">100</text><text class="cls-8" transform="translate(248.5 352.14)">Age (years)</text><text class="cls-8" transform="translate(35.56 304.85) rotate(-90)">High Confidence</text><g class="cls-24"><line class="cls-10" x1="238.74" y1="321.14" x2="238.74" y2="314.15"/><line class="cls-10" x1="294.65" y1="321.14" x2="294.65" y2="314.15"/><line class="cls-10" x1="280.67" y1="321.14" x2="280.67" y2="314.15"/><line class="cls-10" x1="384.25" y1="321.14" x2="384.25" y2="314.15"/><line class="cls-10" x1="370.27" y1="321.14" x2="370.27" y2="314.15"/><line class="cls-10" x1="426.19" y1="321.14" x2="426.19" y2="314.15"/><line class="cls-10" x1="294.65" y1="321.14" x2="294.65" y2="314.15"/><line class="cls-10" x1="271.78" y1="321.14" x2="271.78" y2="314.15"/><line class="cls-10" x1="313.72" y1="321.14" x2="313.72" y2="314.15"/><line class="cls-10" x1="257.16" y1="321.14" x2="257.16" y2="314.15"/><line class="cls-10" x1="403.31" y1="321.14" x2="403.31" y2="314.15"/><line class="cls-10" x1="309.27" y1="321.14" x2="309.27" y2="314.15"/><line class="cls-10" x1="341.67" y1="321.14" x2="341.67" y2="314.15"/><line class="cls-10" x1="337.23" y1="321.14" x2="337.23" y2="314.15"/><line class="cls-10" x1="285.76" y1="321.14" x2="285.76" y2="314.15"/><line class="cls-10" x1="417.29" y1="321.14" x2="417.29" y2="314.15"/><line class="cls-10" x1="365.19" y1="321.14" x2="365.19" y2="314.15"/><line class="cls-10" x1="318.16" y1="321.14" x2="318.16" y2="314.15"/><line class="cls-10" x1="337.23" y1="321.14" x2="337.23" y2="314.15"/><line class="cls-10" x1="313.72" y1="321.14" x2="313.72" y2="314.15"/><line class="cls-10" x1="304.19" y1="321.14" x2="304.19" y2="314.15"/><line class="cls-10" x1="233.65" y1="321.14" x2="233.65" y2="314.15"/><line class="cls-10" x1="384.25" y1="321.14" x2="384.25" y2="314.15"/><line class="cls-10" x1="384.25" y1="321.14" x2="384.25" y2="314.15"/><line class="cls-10" x1="290.21" y1="321.14" x2="290.21" y2="314.15"/><line class="cls-10" x1="351.21" y1="321.14" x2="351.21" y2="314.15"/><line class="cls-10" x1="327.7" y1="321.14" x2="327.7" y2="314.15"/><line class="cls-10" x1="403.31" y1="321.14" x2="403.31" y2="314.15"/><line class="cls-10" x1="351.21" y1="321.14" x2="351.21" y2="314.15"/><line class="cls-10" x1="332.78" y1="321.14" x2="332.78" y2="314.15"/><line class="cls-10" x1="398.23" y1="321.14" x2="398.23" y2="314.15"/><line class="cls-10" x1="398.23" y1="321.14" x2="398.23" y2="314.15"/><line class="cls-10" x1="365.19" y1="321.14" x2="365.19" y2="314.15"/><line class="cls-10" x1="285.76" y1="321.14" x2="285.76" y2="314.15"/><line class="cls-10" x1="337.23" y1="321.14" x2="337.23" y2="314.15"/><line class="cls-10" x1="294.65" y1="321.14" x2="294.65" y2="314.15"/><line class="cls-10" x1="393.78" y1="321.14" x2="393.78" y2="314.15"/><line class="cls-10" x1="262.25" y1="321.14" x2="262.25" y2="314.15"/><line class="cls-10" x1="379.8" y1="321.14" x2="379.8" y2="314.15"/><line class="cls-10" x1="299.74" y1="321.14" x2="299.74" y2="314.15"/><line class="cls-10" x1="337.23" y1="321.14" x2="337.23" y2="314.15"/><line class="cls-10" x1="388.7" y1="321.14" x2="388.7" y2="314.15"/><line class="cls-10" x1="280.67" y1="321.14" x2="280.67" y2="314.15"/><line class="cls-10" x1="299.74" y1="321.14" x2="299.74" y2="314.15"/><line class="cls-10" x1="313.72" y1="321.14" x2="313.72" y2="314.15"/><line class="cls-10" x1="379.8" y1="321.14" x2="379.8" y2="314.15"/><line class="cls-10" x1="332.78" y1="321.14" x2="332.78" y2="314.15"/><line class="cls-10" x1="285.76" y1="321.14" x2="285.76" y2="314.15"/><line class="cls-10" x1="219.67" y1="321.14" x2="219.67" y2="314.15"/><line class="cls-10" x1="309.27" y1="321.14" x2="309.27" y2="314.15"/><line class="cls-10" x1="290.21" y1="321.14" x2="290.21" y2="314.15"/><line class="cls-10" x1="280.67" y1="321.14" x2="280.67" y2="314.15"/><line class="cls-10" x1="285.76" y1="321.14" x2="285.76" y2="314.15"/><line class="cls-10" x1="243.19" y1="321.14" x2="243.19" y2="314.15"/><line class="cls-10" x1="262.25" y1="321.14" x2="262.25" y2="314.15"/><line class="cls-10" x1="313.72" y1="321.14" x2="313.72" y2="314.15"/><line class="cls-10" x1="262.25" y1="321.14" x2="262.25" y2="314.15"/><line class="cls-10" x1="210.14" y1="321.14" x2="210.14" y2="314.15"/><line class="cls-10" x1="327.7" y1="321.14" x2="327.7" y2="314.15"/><line class="cls-10" x1="243.19" y1="321.14" x2="243.19" y2="314.15"/><line class="cls-10" x1="304.19" y1="321.14" x2="304.19" y2="314.15"/><line class="cls-10" x1="412.21" y1="321.14" x2="412.21" y2="314.15"/><line class="cls-10" x1="370.27" y1="321.14" x2="370.27" y2="314.15"/><line class="cls-10" x1="417.29" y1="321.14" x2="417.29" y2="314.15"/><line class="cls-10" x1="294.65" y1="321.14" x2="294.65" y2="314.15"/><line class="cls-10" x1="285.76" y1="321.14" x2="285.76" y2="314.15"/><line class="cls-10" x1="351.21" y1="321.14" x2="351.21" y2="314.15"/><line class="cls-10" x1="360.74" y1="321.14" x2="360.74" y2="314.15"/><line class="cls-10" x1="318.16" y1="321.14" x2="318.16" y2="314.15"/><line class="cls-10" x1="304.19" y1="321.14" x2="304.19" y2="314.15"/><line class="cls-10" x1="327.7" y1="321.14" x2="327.7" y2="314.15"/><line class="cls-10" x1="304.19" y1="321.14" x2="304.19" y2="314.15"/><line class="cls-10" x1="294.65" y1="321.14" x2="294.65" y2="314.15"/><line class="cls-10" x1="210.14" y1="321.14" x2="210.14" y2="314.15"/><line class="cls-10" x1="379.8" y1="321.14" x2="379.8" y2="314.15"/><line class="cls-10" x1="285.76" y1="321.14" x2="285.76" y2="314.15"/><line class="cls-10" x1="233.65" y1="321.14" x2="233.65" y2="314.15"/><line class="cls-10" x1="360.74" y1="321.14" x2="360.74" y2="314.15"/><line class="cls-10" x1="313.72" y1="321.14" x2="313.72" y2="314.15"/><line class="cls-10" x1="323.25" y1="321.14" x2="323.25" y2="314.15"/><line class="cls-10" x1="309.27" y1="321.14" x2="309.27" y2="314.15"/><line class="cls-10" x1="271.78" y1="321.14" x2="271.78" y2="314.15"/><line class="cls-10" x1="229.21" y1="321.14" x2="229.21" y2="314.15"/><line class="cls-10" x1="365.19" y1="321.14" x2="365.19" y2="314.15"/><line class="cls-10" x1="280.67" y1="321.14" x2="280.67" y2="314.15"/><line class="cls-10" x1="379.8" y1="321.14" x2="379.8" y2="314.15"/><line class="cls-10" x1="276.23" y1="321.14" x2="276.23" y2="314.15"/><line class="cls-10" x1="360.74" y1="321.14" x2="360.74" y2="314.15"/><line class="cls-10" x1="379.8" y1="321.14" x2="379.8" y2="314.15"/><line class="cls-10" x1="309.27" y1="321.14" x2="309.27" y2="314.15"/><line class="cls-10" x1="177.74" y1="321.14" x2="177.74" y2="314.15"/><line class="cls-10" x1="323.25" y1="321.14" x2="323.25" y2="314.15"/><line class="cls-10" x1="327.7" y1="321.14" x2="327.7" y2="314.15"/><line class="cls-10" x1="388.7" y1="321.14" x2="388.7" y2="314.15"/><line class="cls-10" x1="384.25" y1="321.14" x2="384.25" y2="314.15"/><line class="cls-10" x1="360.74" y1="321.14" x2="360.74" y2="314.15"/><line class="cls-10" x1="276.23" y1="321.14" x2="276.23" y2="314.15"/><line class="cls-10" x1="393.78" y1="321.14" x2="393.78" y2="314.15"/><line class="cls-10" x1="384.25" y1="321.14" x2="384.25" y2="314.15"/><line class="cls-10" x1="351.21" y1="321.14" x2="351.21" y2="314.15"/><line class="cls-10" x1="356.29" y1="321.14" x2="356.29" y2="314.15"/><line class="cls-10" x1="276.23" y1="321.14" x2="276.23" y2="314.15"/><line class="cls-10" x1="294.65" y1="321.14" x2="294.65" y2="314.15"/></g><g class="cls-24"><line class="cls-11" x1="299.74" y1="321.14" x2="299.74" y2="314.15"/><line class="cls-11" x1="388.7" y1="321.14" x2="388.7" y2="314.15"/><line class="cls-11" x1="304.19" y1="321.14" x2="304.19" y2="314.15"/><line class="cls-11" x1="299.74" y1="321.14" x2="299.74" y2="314.15"/><line class="cls-11" x1="341.67" y1="321.14" x2="341.67" y2="314.15"/><line class="cls-11" x1="351.21" y1="321.14" x2="351.21" y2="314.15"/><line class="cls-11" x1="177.74" y1="321.14" x2="177.74" y2="314.15"/><line class="cls-11" x1="224.76" y1="321.14" x2="224.76" y2="314.15"/><line class="cls-11" x1="280.67" y1="321.14" x2="280.67" y2="314.15"/><line class="cls-11" x1="403.31" y1="321.14" x2="403.31" y2="314.15"/><line class="cls-11" x1="351.21" y1="321.14" x2="351.21" y2="314.15"/><line class="cls-11" x1="309.27" y1="321.14" x2="309.27" y2="314.15"/></g><g class="cls-24"><polyline class="cls-12" points="110.38 321.45 122.55 321.45 131.6 320.99 140.65 320.66 146.68 320.33 152.71 319.9 158.74 319.35 164.78 318.69 170.81 317.9 176.84 316.94 182.87 315.77 185.89 315.1 188.9 314.34 191.92 313.51 194.94 312.6 197.95 311.62 203.98 309.42 210.02 306.98 216.05 304.36 222.08 301.6 228.11 298.68 231.13 297.13 234.15 295.49 237.16 293.73 240.18 291.81 243.19 289.72 246.21 287.42 249.22 284.88 252.24 282.09 255.26 279.05 258.27 275.77 261.29 272.27 264.31 268.6 276.37 253.51 279.39 250.02 282.4 246.81 285.42 243.95 288.43 241.5 291.45 239.5 294.47 237.99 297.48 236.96 300.5 236.43 303.51 236.37 306.53 236.74 309.55 237.51 312.56 238.61 315.58 239.98 318.6 241.56 324.63 245.08 330.66 248.64 333.68 250.3 336.69 251.81 339.71 253.15 342.72 254.29 345.74 255.22 348.76 255.96 351.77 256.52 354.79 256.93 360.82 257.48 366.85 258.01 369.87 258.42 372.88 259 375.9 259.8 378.92 260.86 381.93 262.2 384.95 263.84 387.96 265.79 390.98 268.03 394 270.54 397.01 273.29 400.03 276.22 406.06 282.48 415.11 292.07 418.13 295.14 421.14 298.09 424.16 300.88 427.17 303.49 430.19 305.9 433.21 308.12 436.22 310.12 439.24 311.91 442.25 313.5 445.27 314.89 448.29 316.09 451.3 317.11 454.32 317.98 457.33 318.69 460.35 319.28 463.37 319.75 466.38 320.13 472.42 320.65 478.45 320.95 484.48 321.45 493.54 321.45"/></g><g class="cls-24"><line class="cls-13" x1="313.72" y1="321.14" x2="313.72" y2="236.63"/></g><g class="cls-24"><polyline class="cls-14" points="97.04 320.82 102.89 320.73 108.98 320.49 115.08 320.06 121.17 319.38 124.21 318.93 127.26 318.39 130.3 317.77 133.35 317.06 136.4 316.25 139.44 315.36 145.53 313.34 151.62 311.09 160.76 307.62 166.85 305.48 169.9 304.52 172.94 303.65 175.99 302.88 179.03 302.21 182.08 301.65 185.12 301.18 188.17 300.8 194.26 300.27 200.35 299.98 206.44 299.85 215.61 300.49 224.75 300.49 227.8 299.77 230.84 299.58 233.89 299.26 236.94 298.79 239.99 298.09 243.03 297.15 246.08 295.9 249.13 294.32 252.18 292.37 255.22 290.04 258.27 287.32 261.32 284.22 264.36 280.77 267.41 277.02 270.46 273.03 276.55 264.64 282.65 256.32 285.69 252.44 288.74 248.86 291.79 245.67 294.83 242.92 297.88 240.66 300.93 238.91 303.98 237.69 307.02 236.97 310.07 236.72 313.12 236.89 316.16 237.43 319.21 238.28 322.26 239.38 325.31 240.67 328.35 242.1 334.45 245.23 340.54 248.56 349.68 253.77 358.82 259.19 377.11 270.15 389.3 277.42 395.39 281.26 401.48 285.39 407.58 289.82 413.67 294.47 422.81 301.49 425.86 303.73 428.91 305.87 431.95 307.89 435 309.77 438.05 311.49 441.1 313.04 444.14 314.42 447.19 315.64 450.24 316.69 453.28 317.58 456.33 318.34 459.38 318.96 462.43 319.48 465.47 319.88 468.52 320.21 474.61 320.65 480.71 320.82 484.01 320.87"/></g><g class="cls-24"><line class="cls-13" x1="306.73" y1="321.14" x2="306.73" y2="239.17"/></g><line class="cls-15" x1="41.12" y1="321.45" x2="41.12" y2="175.94"/><line class="cls-15" x1="534.21" y1="321.45" x2="534.21" y2="175.94"/><line class="cls-15" x1="41.12" y1="321.45" x2="534.21" y2="321.45"/><line class="cls-15" x1="41.12" y1="175.94" x2="534.21" y2="175.94"/><text class="cls-16" transform="translate(307.35 228.65)">53</text><text class="cls-17" transform="translate(287.92 231.29)">51</text><text class="cls-8" transform="translate(55.4 236.58)">p = 0.37</text></g></g><g class="cls-25"><g class="cls-25"><line x1="706.19" y1="321.14" x2="706.19" y2="323.68"/><line class="cls-7" x1="706.51" y1="321.14" x2="706.51" y2="323.68"/><text class="cls-23" transform="translate(696.62 335.72)">0.0</text><line x1="771.64" y1="321.14" x2="771.64" y2="323.68"/><line class="cls-7" x1="771.96" y1="321.14" x2="771.96" y2="323.68"/><text class="cls-23" transform="translate(762 335.72)">2.5</text><line x1="837.09" y1="321.14" x2="837.09" y2="323.68"/><line class="cls-7" x1="836.77" y1="321.14" x2="836.77" y2="323.68"/><text class="cls-23" transform="translate(827.37 335.72)">5.0</text><line x1="902.53" y1="321.14" x2="902.53" y2="323.68"/><line class="cls-7" x1="902.22" y1="321.14" x2="902.22" y2="323.68"/><text class="cls-23" transform="translate(892.74 335.72)">7.5</text><line x1="967.98" y1="321.14" x2="967.98" y2="323.68"/><line class="cls-7" x1="967.66" y1="321.14" x2="967.66" y2="323.68"/><text class="cls-23" transform="translate(954.23 335.72)">10.0</text><line x1="1033.43" y1="321.14" x2="1033.43" y2="323.68"/><line class="cls-7" x1="1033.11" y1="321.14" x2="1033.11" y2="323.68"/><text class="cls-23" transform="translate(1019.6 335.72)">12.5</text><line x1="1098.88" y1="321.14" x2="1098.88" y2="323.68"/><line class="cls-7" x1="1098.56" y1="321.14" x2="1098.56" y2="323.68"/><text class="cls-23" transform="translate(1084.97 335.72)">15.0</text><line x1="1163.69" y1="321.14" x2="1163.69" y2="323.68"/><line class="cls-7" x1="1164.01" y1="321.14" x2="1164.01" y2="323.68"/><text class="cls-23" transform="translate(1150.35 335.72)">17.5</text><text class="cls-8" transform="translate(855.32 352.14)">Survival Time (Years)</text><line x1="683.95" y1="307.79" x2="682.04" y2="307.79"/><line class="cls-7" x1="683.95" y1="307.47" x2="682.04" y2="307.47"/><text class="cls-23" transform="translate(660.34 312.65)">0.0</text><line x1="683.95" y1="253.15" x2="682.04" y2="253.15"/><line class="cls-7" x1="683.95" y1="253.46" x2="682.04" y2="253.46"/><text class="cls-23" transform="translate(660.34 258.19)">0.2</text><line x1="683.95" y1="198.5" x2="682.04" y2="198.5"/><line class="cls-7" x1="683.95" y1="198.82" x2="682.04" y2="198.82"/><text class="cls-23" transform="translate(660.34 203.73)">0.4</text><line x1="683.95" y1="144.49" x2="682.04" y2="144.49"/><line class="cls-7" x1="683.95" y1="144.17" x2="682.04" y2="144.17"/><text class="cls-23" transform="translate(660.34 149.27)">0.6</text><line x1="683.95" y1="89.84" x2="682.04" y2="89.84"/><line class="cls-7" x1="683.95" y1="89.53" x2="682.04" y2="89.53"/><text class="cls-23" transform="translate(660.34 94.81)">0.8</text><line x1="683.95" y1="35.2" x2="682.04" y2="35.2"/><line class="cls-7" x1="683.95" y1="35.52" x2="682.04" y2="35.52"/><text class="cls-23" transform="translate(660.34 40.35)">1.0</text><text class="cls-8" transform="translate(654.59 232.52) rotate(-90)">Fraction Surviving</text><g class="cls-26"><polyline class="cls-27" points="706.51 35.52 780.56 35.52 782.76 35.52 782.76 41.23 787.21 41.23 787.21 46.95 789.11 46.95 789.11 52.04 791.02 52.04 791.02 57.76 795.47 57.76 795.47 63.48 799.91 63.48 799.91 69.19 801.82 69.19 801.82 74.91 804.36 74.91 804.36 80.63 806.9 80.63 806.9 86.35 817.71 86.35 817.71 92.07 819.61 92.07 819.61 97.79 824.06 97.79 824.06 103.51 830.73 103.51 832.96 103.51 832.96 109.22 835.07 109.22 839.31 109.22 839.31 115.58 845.66 115.58 845.66 121.93 854.56 121.93 854.56 128.29 862.82 128.29 867.27 128.29 867.27 134.64 878.39 134.64 880.61 134.64 880.61 141.63 885.06 141.63 885.06 148.62 887.6 148.62 887.6 155.61 889.51 155.61 889.51 162.6 895.86 162.6 895.86 169.59 898.4 169.59 898.4 177.22 917.85 177.22 930.81 177.22 930.81 184.84 937.16 184.84 937.16 192.47 944.15 192.47 944.15 208.99 955.03 208.99 961.55 208.99 965.9 208.99 1000.71 208.99 1000.71 221.06 1004.94 221.06 1007.06 221.06 1007.06 235.67 1011.15 235.67 1028.66 235.67 1028.66 253.47 1048.36 253.47 1048.36 271.89 1111.27 271.89 1111.27 289.68 1148.76 289.68"/></g><g class="cls-26"><polyline class="cls-28" points="706.51 35.52 714.77 35.52 714.77 38.06 717.31 38.06 717.31 40.6 719.85 40.6 719.85 43.14 721.76 43.14 721.76 48.23 723.66 48.23 723.66 51.4 725.57 51.4 725.57 56.48 728.11 56.48 728.11 59.03 730.65 59.03 730.65 69.83 732.56 69.83 732.56 73.01 734.47 73.01 734.47 89.53 737.01 89.53 737.01 114.31 738.91 114.31 738.91 119.39 740.82 119.39 740.82 127.65 743.36 127.65 743.36 133.37 745.9 133.37 745.9 145.44 747.81 145.44 747.81 162.6 752.26 162.6 752.26 174.67 754.16 174.67 754.16 186.11 756.07 186.11 756.07 195.01 758.61 195.01 758.61 209.62 761.15 209.62 761.15 215.97 763.06 215.97 763.06 221.69 764.97 221.69 764.97 224.87 769.41 224.87 769.41 230.59 771.32 230.59 771.32 236.31 776.4 236.31 776.4 239.49 780.64 239.49 782.76 239.49 782.76 243.3 784.66 243.3 784.66 249.65 787.21 249.65 787.21 252.83 791.65 252.83 791.65 256.01 793.56 256.01 793.56 259.18 796.1 259.18 796.1 262.36 798.01 262.36 798.01 266.17 799.91 266.17 799.91 269.35 802.46 269.35 802.46 273.16 813.26 273.16 813.26 276.98 817.71 276.98 817.71 280.15 821.83 280.15 832.96 280.15 832.96 283.96 834.86 283.96 834.86 287.78 836.77 287.78 836.77 292.23 839.31 292.23 839.31 296.04 867.66 296.04 954.89 296.04 1015.96 296.04 1015.96 307.48"/></g><g class="cls-26"><polyline class="cls-29" points="706.51 35.52 717.31 35.52 717.31 58.39 730.02 58.39 730.02 103.51 738.91 103.51 738.91 126.38 745.27 126.38 745.27 194.37 750.35 194.37 750.35 217.25 752.26 217.25 752.26 239.49 761.15 239.49 761.15 262.36 778.31 262.36 778.31 285.24 780.22 285.24 780.22 307.48"/></g><line class="cls-15" x1="684.27" y1="321.45" x2="684.27" y2="21.54"/><line class="cls-15" x1="1171" y1="321.45" x2="1171" y2="21.54"/><line class="cls-15" x1="684.27" y1="321.45" x2="1171" y2="321.45"/><line class="cls-15" x1="684.27" y1="21.54" x2="1171" y2="21.54"/><text class="cls-30" transform="translate(762.12 17.45)">GLASS Validation (High Confidence)</text><rect class="cls-31" x="877.75" y="29.48" width="285.3" height="70.53" rx="3.05"/><rect class="cls-32" x="878.07" y="29.16" width="285.3" height="70.53" rx="3.05"/><line class="cls-27" x1="883.79" y1="41.24" x2="914.29" y2="41.24"/><text class="cls-8" transform="translate(926.57 46.55)">Correct IDH-Mutant (7.3 years)</text><line class="cls-28" x1="883.79" y1="62.84" x2="914.29" y2="62.84"/><text class="cls-8" transform="translate(926.57 68.48)">Correct IDH-Wildtype (1.8 years)</text><line class="cls-29" x1="883.79" y1="85.08" x2="914.29" y2="85.08"/><text class="cls-8" transform="translate(926.57 90.42)">Incorrect IDH-Wildtype (1.5 years)</text></g></g><g class="cls-33"><g class="cls-33"><line x1="1321.19" y1="321.14" x2="1321.19" y2="323.68"/><line class="cls-7" x1="1321.51" y1="321.14" x2="1321.51" y2="323.68"/><text class="cls-23" transform="translate(1311.62 335.72)">0.0</text><line x1="1386.64" y1="321.14" x2="1386.64" y2="323.68"/><line class="cls-7" x1="1386.96" y1="321.14" x2="1386.96" y2="323.68"/><text class="cls-23" transform="translate(1377 335.72)">2.5</text><line x1="1452.09" y1="321.14" x2="1452.09" y2="323.68"/><line class="cls-7" x1="1451.77" y1="321.14" x2="1451.77" y2="323.68"/><text class="cls-23" transform="translate(1442.37 335.72)">5.0</text><line x1="1517.53" y1="321.14" x2="1517.53" y2="323.68"/><line class="cls-7" x1="1517.22" y1="321.14" x2="1517.22" y2="323.68"/><text class="cls-23" transform="translate(1507.74 335.72)">7.5</text><line x1="1582.98" y1="321.14" x2="1582.98" y2="323.68"/><line class="cls-7" x1="1582.66" y1="321.14" x2="1582.66" y2="323.68"/><text class="cls-23" transform="translate(1569.23 335.72)">10.0</text><line x1="1648.43" y1="321.14" x2="1648.43" y2="323.68"/><line class="cls-7" x1="1648.11" y1="321.14" x2="1648.11" y2="323.68"/><text class="cls-23" transform="translate(1634.6 335.72)">12.5</text><line x1="1713.88" y1="321.14" x2="1713.88" y2="323.68"/><line class="cls-7" x1="1713.56" y1="321.14" x2="1713.56" y2="323.68"/><text class="cls-23" transform="translate(1699.97 335.72)">15.0</text><line x1="1778.69" y1="321.14" x2="1778.69" y2="323.68"/><line class="cls-7" x1="1779.01" y1="321.14" x2="1779.01" y2="323.68"/><text class="cls-23" transform="translate(1765.35 335.72)">17.5</text><text class="cls-8" transform="translate(1470.32 352.14)">Survival Time (Years)</text><line x1="1298.95" y1="307.79" x2="1297.04" y2="307.79"/><line class="cls-7" x1="1298.95" y1="307.47" x2="1297.04" y2="307.47"/><text class="cls-23" transform="translate(1275.34 312.65)">0.0</text><line x1="1298.95" y1="253.15" x2="1297.04" y2="253.15"/><line class="cls-7" x1="1298.95" y1="253.46" x2="1297.04" y2="253.46"/><text class="cls-23" transform="translate(1275.34 258.19)">0.2</text><line x1="1298.95" y1="198.5" x2="1297.04" y2="198.5"/><line class="cls-7" x1="1298.95" y1="198.82" x2="1297.04" y2="198.82"/><text class="cls-23" transform="translate(1275.34 203.73)">0.4</text><line x1="1298.95" y1="144.49" x2="1297.04" y2="144.49"/><line class="cls-7" x1="1298.95" y1="144.17" x2="1297.04" y2="144.17"/><text class="cls-23" transform="translate(1275.34 149.27)">0.6</text><line x1="1298.95" y1="89.84" x2="1297.04" y2="89.84"/><line class="cls-7" x1="1298.95" y1="89.53" x2="1297.04" y2="89.53"/><text class="cls-23" transform="translate(1275.34 94.81)">0.8</text><line x1="1298.95" y1="35.2" x2="1297.04" y2="35.2"/><line class="cls-7" x1="1298.95" y1="35.52" x2="1297.04" y2="35.52"/><text class="cls-23" transform="translate(1275.34 40.35)">1.0</text><text class="cls-8" transform="translate(1269.6 232.52) rotate(-90)">Fraction Surviving</text><g class="cls-34"><polyline class="cls-27" points="1321.51 35.52 1395.64 35.52 1397.76 35.52 1397.76 40.6 1402.21 40.6 1402.21 45.68 1404.11 45.68 1404.11 51.4 1406.02 51.4 1406.02 56.48 1410.47 56.48 1410.47 61.57 1414.91 61.57 1414.91 66.65 1416.82 66.65 1416.82 72.37 1419.36 72.37 1419.36 77.45 1421.9 77.45 1421.9 87.62 1424.06 87.62 1432.71 87.62 1432.71 92.7 1434.61 92.7 1434.61 98.42 1439.06 98.42 1439.06 103.51 1445.73 103.51 1447.96 103.51 1447.96 109.22 1450.07 109.22 1454.31 109.22 1454.31 114.94 1460.66 114.94 1460.66 121.3 1469.56 121.3 1469.56 127.02 1477.82 127.02 1482.27 127.02 1482.27 133.37 1493.39 133.37 1495.61 133.37 1495.61 146.08 1500.06 146.08 1500.06 152.43 1502.6 152.43 1502.6 159.42 1504.51 159.42 1504.51 166.41 1510.86 166.41 1510.86 173.4 1513.4 173.4 1513.4 180.39 1532.85 180.39 1545.81 180.39 1545.81 188.02 1552.16 188.02 1552.16 195.64 1559.15 195.64 1559.15 211.53 1570.03 211.53 1576.55 211.53 1580.9 211.53 1615.71 211.53 1615.71 223.6 1619.94 223.6 1622.06 223.6 1622.06 237.58 1626.15 237.58 1643.66 237.58 1643.66 255.37 1663.36 255.37 1663.36 272.53 1726.27 272.53 1726.27 290.32 1763.76 290.32"/></g><g class="cls-34"><polyline class="cls-28" points="1321.51 35.52 1330.4 35.52 1330.4 37.42 1332.31 37.42 1332.31 39.97 1334.85 39.97 1334.85 42.51 1336.76 42.51 1336.76 47.59 1338.66 47.59 1338.66 49.5 1341.21 49.5 1341.21 54.58 1343.11 54.58 1343.11 57.12 1345.02 57.12 1345.02 66.65 1347.56 66.65 1347.56 69.19 1350.1 69.19 1350.1 84.44 1352.01 84.44 1352.01 107.32 1353.91 107.32 1353.91 111.77 1355.82 111.77 1355.82 119.39 1358.36 119.39 1358.36 124.47 1360.9 124.47 1360.9 140.36 1362.81 140.36 1362.81 161.33 1367.26 161.33 1367.26 172.13 1369.16 172.13 1369.16 188.02 1371.07 188.02 1371.07 195.64 1373.61 195.64 1373.61 208.99 1376.15 208.99 1376.15 217.25 1378.06 217.25 1378.06 222.33 1379.97 222.33 1379.97 227.41 1384.41 227.41 1384.41 233.13 1386.32 233.13 1386.32 238.85 1390.77 238.85 1390.77 241.39 1395.43 241.39 1397.76 241.39 1397.76 247.11 1399.66 247.11 1399.66 252.83 1401.57 252.83 1401.57 256.01 1406.65 256.01 1406.65 258.55 1408.56 258.55 1408.56 261.73 1410.47 261.73 1410.47 264.9 1413.01 264.9 1413.01 268.08 1414.91 268.08 1414.91 270.62 1416.82 270.62 1416.82 273.8 1428.26 273.8 1428.26 276.98 1432.71 276.98 1432.71 280.15 1437.15 280.15 1437.15 282.69 1447.96 282.69 1447.96 286.51 1449.86 286.51 1449.86 289.68 1451.77 289.68 1451.77 293.5 1454.31 293.5 1454.31 297.31 1482.66 297.31 1569.89 297.31 1630.96 297.31 1630.96 307.48"/></g><g class="cls-34"><polyline class="cls-35" points="1321.51 35.52 1345.02 35.52 1345.02 103.51 1412.8 103.51 1419.36 103.51 1419.36 205.81 1526.11 205.81"/></g><g class="cls-34"><polyline class="cls-29" points="1321.51 35.52 1332.31 35.52 1332.31 54.58 1345.65 54.58 1345.65 93.34 1353.91 93.34 1353.91 113.04 1355.82 113.04 1355.82 132.74 1360.27 132.74 1360.27 190.56 1365.35 190.56 1365.35 210.26 1367.26 210.26 1367.26 229.95 1376.15 229.95 1376.15 268.71 1393.31 268.71 1393.31 288.41 1395.22 288.41 1395.22 307.48"/></g><line class="cls-15" x1="1299.27" y1="321.45" x2="1299.27" y2="21.54"/><line class="cls-15" x1="1786" y1="321.45" x2="1786" y2="21.54"/><line class="cls-15" x1="1299.27" y1="321.45" x2="1786" y2="321.45"/><line class="cls-15" x1="1299.27" y1="21.54" x2="1786" y2="21.54"/><text class="cls-30" transform="translate(1387.88 17.45)">GLASS Validation (All Predictions)</text><rect class="cls-31" x="1492.75" y="29.48" width="285.3" height="92.14" rx="3.05"/><rect class="cls-32" x="1493.07" y="29.16" width="285.3" height="92.14" rx="3.05"/><line class="cls-27" x1="1498.79" y1="41.24" x2="1529.29" y2="41.24"/><text class="cls-8" transform="translate(1541.57 46.55)">Correct IDH-Mutant (7.2 years)</text><line class="cls-28" x1="1498.79" y1="62.84" x2="1529.29" y2="62.84"/><text class="cls-8" transform="translate(1541.57 68.48)">Correct IDH-Wildtype (1.8 years)</text><line class="cls-35" x1="1498.79" y1="85.08" x2="1529.29" y2="85.08"/><text class="cls-8" transform="translate(1541.57 90.42)">Incorrect IDH-Mutant (3.8 years)</text><line class="cls-29" x1="1498.79" y1="107.32" x2="1529.29" y2="107.32"/><text class="cls-8" transform="translate(1541.57 112.35)">Incorrect IDH-Wildtype (1.5 years)</text></g></g></svg>